<svg width="745" height="611" viewBox="0 0 745 611" fill="none" xmlns="http://www.w3.org/2000/svg">
<g clip-path="url(#clip0_6:11)">
<path d="M161.424 450.167C161.424 450.167 63.2403 389.812 66.3377 321.946C69.4352 254.079 192.367 363.903 192.367 363.903C192.367 363.903 115.741 271.357 162.98 241.794C210.22 212.23 236.867 320.935 236.867 320.935C236.867 320.935 234.75 212.93 289.726 217.751C344.701 222.572 380.687 430.977 380.687 430.977L161.424 450.167Z" fill="#FDEDDA"/>
<path d="M581.864 465.921C581.864 465.921 689.744 425.332 699.613 358.103C709.481 290.889 567.902 375.365 567.902 375.365C567.902 375.365 664.28 296.192 623.531 258.2C582.782 220.208 532.399 324.729 532.399 324.729C532.399 324.729 555.014 219.089 500.132 213.397C445.25 207.705 428.767 430.899 428.767 430.899L581.864 465.921Z" fill="#FDEDDA"/>
<path d="M238.424 333.407C242.657 312.506 236.898 291.449 237.256 270.439C237.412 261.015 238.891 251.513 243.031 242.96C246.953 234.873 253.179 228.108 261.553 224.578C271.67 220.317 283.033 220.628 293.788 220.97C294.535 220.986 294.535 219.835 293.788 219.819C284.107 219.524 274.098 219.275 264.744 222.199C256.09 224.905 249.039 230.55 244.292 238.248C233.536 255.65 235.824 276.94 237.63 296.332C238.766 308.556 239.762 320.981 237.303 333.112C237.163 333.827 238.284 334.138 238.424 333.407Z" fill="#FFF6EB"/>
<path d="M516.024 358.958C529.426 341.136 535.932 319.582 545.317 299.629C554.221 280.719 566.704 262.042 586.876 253.97C592.059 251.886 597.6 250.627 603.203 250.502C605.849 250.44 608.62 250.502 611.157 251.327C613.414 252.058 615.811 253.535 615.967 256.148C616.013 256.894 617.165 256.894 617.118 256.148C616.885 251.886 612.262 250.051 608.604 249.585C603.639 248.947 598.456 249.445 593.6 250.596C583.498 253.022 574.299 258.605 566.797 265.681C550.174 281.341 542.251 303.564 533.519 324.076C528.429 336.051 522.857 347.917 515.012 358.367C514.577 358.958 515.588 359.549 516.024 358.958Z" fill="#FFF6EB"/>
<path d="M188.818 183.429C188.818 216.927 158.435 244.095 120.94 244.095C83.4436 244.095 53.0609 216.927 53.0609 183.429C53.0609 149.931 47.4886 76.8241 120.94 122.763C194.375 168.686 188.818 149.916 188.818 183.429Z" fill="#B7DCFF"/>
<path d="M409.498 106.341C388.874 112.064 344.561 102.36 335.891 74.9112C327.222 47.463 352.375 40.978 384.36 30.9007C416.346 20.8234 455.228 0.233305 464.271 44.3838C473.345 88.5187 430.137 100.618 409.498 106.341Z" fill="#B7DCFF"/>
<path d="M592.246 96.7921C611.406 116.651 592.339 139.963 568.883 156.665C545.426 173.367 512.74 167.738 495.868 144.1C478.995 120.446 438.698 71.3344 507.775 71.0234C576.836 70.7279 573.085 76.9329 592.246 96.7921Z" fill="#B7DCFF"/>
<path d="M688.11 229.197C670.849 251.078 637.633 253.675 613.912 234.998C590.191 216.32 584.946 183.445 602.192 161.564C619.453 139.683 653.572 89.1719 676.39 155.763C699.208 222.354 705.356 207.316 688.11 229.197Z" fill="#B7DCFF"/>
<path d="M180.584 122.281C195.994 116.216 219.108 107.569 233.925 94.0239C248.728 80.4786 264.977 55.3009 306.691 86.3415C348.421 117.382 319.797 103.153 275.157 148.905C230.517 194.657 165.16 128.346 180.584 122.281Z" fill="#B7DCFF"/>
<path d="M315.658 -0.0166023L281.749 26.2841L319.574 74.9658L353.483 48.6652L315.658 -0.0166023Z" fill="#FFDCD1"/>
<path d="M316.169 6.12747L287.272 28.5374L289.305 31.1542L318.202 8.74431L316.169 6.12747Z" fill="white"/>
<path d="M313.249 15.1487L296.735 27.9557L298.768 30.5725L315.282 17.7655L313.249 15.1487Z" fill="white"/>
<path d="M297.275 41.9111C297.135 41.9111 296.994 41.8489 296.901 41.7245C296.745 41.5223 296.777 41.2269 296.979 41.0713L321.198 22.2852C321.4 22.1297 321.696 22.1608 321.852 22.363C322.007 22.5651 321.976 22.8606 321.774 23.0161L297.555 41.8023C297.477 41.88 297.368 41.9111 297.275 41.9111Z" fill="white"/>
<path d="M299.111 44.2749C298.971 44.2749 298.831 44.2127 298.738 44.0883C298.582 43.8861 298.613 43.5906 298.816 43.4351L323.035 24.649C323.237 24.4935 323.533 24.5246 323.688 24.7268C323.844 24.9289 323.813 25.2244 323.611 25.3799L299.391 44.166C299.314 44.2438 299.22 44.2749 299.111 44.2749Z" fill="white"/>
<path d="M300.948 46.6387C300.808 46.6387 300.668 46.5765 300.574 46.4521C300.419 46.25 300.45 45.9545 300.652 45.799L324.871 27.0128C325.074 26.8573 325.369 26.8884 325.525 27.0906C325.681 27.2928 325.65 27.5882 325.447 27.7438L301.228 46.5299C301.15 46.6076 301.057 46.6387 300.948 46.6387Z" fill="white"/>
<path d="M302.8 49.0181C302.66 49.0181 302.52 48.9559 302.427 48.8315C302.271 48.6293 302.302 48.3339 302.504 48.1783L318.069 36.1104C318.272 35.9549 318.567 35.986 318.723 36.1882C318.879 36.3904 318.848 36.6858 318.645 36.8414L303.08 48.9093C302.987 48.987 302.894 49.0181 302.8 49.0181Z" fill="white"/>
<path d="M317.914 68.4885C317.774 68.4885 317.634 68.4263 317.54 68.3019C317.385 68.0997 317.416 67.8042 317.618 67.6487L328.078 59.5464C328.28 59.3909 328.576 59.422 328.731 59.6242C328.887 59.8263 328.856 60.1218 328.654 60.2773L318.194 68.3796C318.116 68.4574 318.023 68.4885 317.914 68.4885Z" fill="white"/>
<path d="M319.766 70.8523C319.626 70.8523 319.486 70.7901 319.392 70.6657C319.237 70.4635 319.268 70.1681 319.47 70.0125L326.179 64.8028C326.381 64.6473 326.677 64.6784 326.832 64.8806C326.988 65.0827 326.957 65.3782 326.755 65.5337L320.046 70.7435C319.953 70.8212 319.859 70.8523 319.766 70.8523Z" fill="white"/>
<path d="M432.472 318.447C437.608 301.869 442.76 285.229 449.92 269.397C456.348 255.183 464.473 241.607 475.135 230.13C480.988 223.832 487.587 218.233 494.887 213.677C495.525 213.288 494.934 212.277 494.296 212.681C481.33 220.784 470.684 232.074 462.185 244.702C452.831 258.589 446.138 274.063 440.565 289.785C437.235 299.147 434.293 308.649 431.351 318.136C431.133 318.851 432.254 319.162 432.472 318.447Z" fill="#FFF6EB"/>
<path d="M612.932 447.663C625.103 441.971 636.87 435.409 648.124 428.069C659.362 420.728 670.07 412.595 680.172 403.762C690.289 394.913 699.768 385.364 708.531 375.178C712.889 370.108 717.652 364.557 718.01 357.543C718.337 351.213 714.228 346.517 709.029 343.5C697.013 336.548 682.227 335.662 668.67 335.273C666.864 335.227 665.058 335.18 663.269 335.149C662.521 335.133 662.521 336.3 663.269 336.3C677.137 336.58 691.597 336.875 704.516 342.52C709.854 344.853 715.676 348.492 716.718 354.712C717.948 362.053 712.796 368.398 708.345 373.592C691.519 393.296 671.969 410.667 650.459 425.098C638.333 433.247 625.57 440.447 612.34 446.652C611.671 446.979 612.262 447.974 612.932 447.663Z" fill="#FFF6EB"/>
<path d="M166.109 447.803C148.925 439.297 132.987 428.333 118.823 415.41C104.659 402.486 92.2689 387.635 82.1206 371.368C77.0931 363.328 72.626 354.93 68.7659 346.268C66.7891 341.82 64.968 337.295 63.3182 332.707C61.3258 327.171 59.4892 321.51 58.7732 315.663C57.5436 305.803 59.9873 294.388 68.9371 288.743C78.7119 282.569 90.8836 285.26 101.265 288.168C123.134 294.311 146.046 299.769 168.817 295.57C171.619 295.057 174.39 294.389 177.113 293.564C177.829 293.347 177.518 292.227 176.802 292.445C153.657 299.318 129.127 294.746 106.417 288.417C95.8177 285.462 84.4553 281.699 73.5288 285.322C68.9527 286.831 64.9992 289.63 62.2286 293.58C59.5047 297.437 57.995 302.071 57.4813 306.752C56.2361 317.747 60.4075 328.788 64.3921 338.834C67.9409 347.808 72.1435 356.532 76.9219 364.914C86.5566 381.803 98.5572 397.339 112.441 410.962C126.309 424.585 142.077 436.311 159.183 445.533C161.268 446.653 163.385 447.741 165.502 448.799C166.187 449.125 166.778 448.13 166.109 447.803Z" fill="#FFF6EB"/>
<path d="M301.885 93.3815L240.095 96.4785L242.353 141.457L304.143 138.36L301.885 93.3815Z" fill="#FFDCD1"/>
<path d="M272.589 127.988C272.604 127.988 272.604 127.988 272.604 127.988C272.729 127.988 272.853 127.926 272.931 127.833L301.913 94.0706L301.882 93.4019L301.244 93.433L272.542 126.869L240.727 96.4655L240.089 96.4966L240.12 97.1653L272.246 127.864C272.355 127.942 272.464 127.988 272.589 127.988Z" fill="#522D34"/>
<path d="M265.787 121.083C265.974 120.912 265.989 120.617 265.818 120.43C265.647 120.244 265.351 120.228 265.164 120.399L242.315 140.88L242.346 141.471L243.078 141.44L265.787 121.083Z" fill="#522D34"/>
<path d="M304.123 137.786L279.344 119.684C279.142 119.528 278.846 119.575 278.69 119.777C278.534 119.979 278.581 120.275 278.784 120.43L303.407 138.408L304.139 138.377L304.123 137.786Z" fill="#522D34"/>
<path d="M443.45 51.8817C445.312 27.8281 427.305 6.82085 403.23 4.96073C379.156 3.10062 358.131 21.092 356.269 45.1456C354.407 69.1992 372.414 90.2064 396.489 92.0666C420.563 93.9267 441.589 75.9353 443.45 51.8817Z" fill="#112633"/>
<path d="M528.865 152.606C528.663 152.606 528.492 152.482 528.429 152.28C527.371 148.952 526.655 147.07 526.639 147.054C526.546 146.821 526.671 146.541 526.904 146.448C527.138 146.354 527.418 146.479 527.511 146.712C527.511 146.728 528.258 148.641 529.317 152C529.395 152.248 529.254 152.497 529.021 152.575C528.959 152.606 528.912 152.606 528.865 152.606Z" fill="#FFC6B5"/>
<path d="M145.843 479.015C144.427 479.015 143.026 478.999 141.641 478.984C141.392 478.984 141.174 478.766 141.19 478.517C141.19 478.269 141.407 478.066 141.656 478.066C141.656 478.066 141.656 478.066 141.672 478.066C145.283 478.129 149.019 478.113 152.754 478.004C153.019 478.02 153.221 478.206 153.237 478.455C153.237 478.704 153.034 478.922 152.785 478.937C150.435 478.984 148.116 479.015 145.843 479.015ZM130.559 478.517C130.543 478.517 130.543 478.517 130.528 478.517C126.792 478.269 123.056 477.926 119.461 477.491C119.212 477.46 119.025 477.227 119.056 476.978C119.087 476.729 119.321 476.542 119.57 476.573C123.165 477.009 126.87 477.351 130.59 477.6C130.839 477.615 131.041 477.833 131.026 478.097C130.994 478.331 130.792 478.517 130.559 478.517ZM108.534 475.858C108.503 475.858 108.472 475.858 108.456 475.858C104.768 475.189 101.11 474.412 97.5766 473.541C97.3275 473.479 97.1719 473.23 97.2341 472.981C97.2964 472.732 97.5454 472.577 97.7945 472.639C101.297 473.51 104.939 474.287 108.612 474.956C108.861 475.003 109.032 475.236 108.986 475.5C108.955 475.703 108.752 475.858 108.534 475.858ZM87.0236 470.493C86.9769 470.493 86.9302 470.493 86.8835 470.477C83.3191 469.311 79.8014 468.02 76.4394 466.621C76.2059 466.527 76.097 466.247 76.1904 466.014C76.2837 465.781 76.5639 465.672 76.7974 465.765C80.1438 467.149 83.6304 468.44 87.1636 469.591C87.4127 469.669 87.5372 469.933 87.4594 470.182C87.3971 470.368 87.2103 470.493 87.0236 470.493ZM66.5557 461.971C66.4778 461.971 66.4156 461.955 66.3377 461.924C63.0224 460.198 59.7693 458.316 56.7031 456.341C56.4851 456.201 56.4229 455.921 56.563 455.703C56.7031 455.486 56.9832 455.424 57.2011 455.563C60.2519 457.523 63.4582 459.389 66.758 461.1C66.9915 461.224 67.0693 461.504 66.9604 461.722C66.8825 461.877 66.7269 461.971 66.5557 461.971ZM47.94 449.965C47.8466 449.965 47.7377 449.934 47.6598 449.872C44.7492 447.554 41.9319 445.082 39.3015 442.516C39.1147 442.345 39.1147 442.049 39.2859 441.863C39.4727 441.676 39.7528 441.676 39.9396 441.863C42.5545 444.413 45.3407 446.855 48.2357 449.156C48.4381 449.312 48.4692 449.607 48.3136 449.809C48.2202 449.903 48.0801 449.965 47.94 449.965ZM32.1105 434.491C31.9704 434.491 31.8459 434.429 31.7525 434.32C29.3866 431.474 27.1608 428.457 25.1374 425.363C24.9973 425.145 25.0595 424.865 25.2775 424.725C25.4954 424.585 25.7755 424.647 25.9156 424.865C27.9235 427.929 30.1337 430.914 32.4685 433.745C32.6241 433.947 32.6085 434.227 32.4062 434.398C32.3128 434.46 32.2038 434.491 32.1105 434.491ZM19.9387 415.985C19.7675 415.985 19.6118 415.892 19.5184 415.736C17.8374 412.455 16.3121 409.034 14.989 405.566C14.8956 405.332 15.0202 405.052 15.2536 404.975C15.4871 404.881 15.7673 405.006 15.8451 405.239C17.1526 408.676 18.6624 412.066 20.3278 415.316C20.4368 415.55 20.3589 415.83 20.1255 415.938C20.0788 415.97 20.0009 415.985 19.9387 415.985ZM12.0161 395.317C11.8138 395.317 11.627 395.177 11.5647 394.975C10.6153 391.414 9.85261 387.744 9.26114 384.074C9.21444 383.825 9.40122 383.576 9.65026 383.545C9.8993 383.514 10.1483 383.685 10.1795 383.934C10.7554 387.573 11.5181 391.212 12.4519 394.742C12.5142 394.991 12.3741 395.24 12.1251 395.302C12.094 395.302 12.0628 395.317 12.0161 395.317ZM8.56072 373.436C8.31168 373.436 8.10933 373.25 8.09377 373.001C7.98481 370.948 7.92255 368.864 7.92255 366.811C7.92255 365.179 7.95368 363.515 8.03151 361.866C8.04707 361.617 8.24942 361.446 8.51402 361.415C8.76306 361.431 8.9654 361.648 8.94984 361.897C8.87201 363.53 8.84088 365.179 8.84088 366.796C8.84088 368.833 8.90314 370.902 9.0121 372.939C9.02766 373.188 8.82532 373.405 8.57628 373.421C8.57628 373.436 8.57628 373.436 8.56072 373.436ZM379.209 356.485H379.193C375.566 356.345 371.831 356.05 368.111 355.599C367.862 355.568 367.675 355.335 367.706 355.086C367.737 354.837 367.971 354.635 368.22 354.681C371.924 355.117 375.629 355.412 379.24 355.552C379.489 355.568 379.691 355.786 379.691 356.034C379.66 356.283 379.458 356.485 379.209 356.485ZM390.291 356.454C390.042 356.454 389.839 356.268 389.824 356.019C389.808 355.77 390.011 355.552 390.26 355.537C393.964 355.366 397.668 355.024 401.264 354.526C401.513 354.495 401.747 354.666 401.793 354.915C401.824 355.163 401.653 355.397 401.404 355.443C397.762 355.941 394.042 356.283 390.306 356.454H390.291ZM357.184 353.919C357.153 353.919 357.122 353.919 357.091 353.904C353.557 353.235 349.9 352.426 346.226 351.509C345.977 351.447 345.822 351.198 345.884 350.949C345.946 350.7 346.195 350.545 346.444 350.607C350.102 351.524 353.744 352.333 357.262 352.986C357.511 353.033 357.682 353.282 357.636 353.531C357.604 353.764 357.402 353.919 357.184 353.919ZM412.253 353.422C412.035 353.422 411.848 353.282 411.801 353.064C411.739 352.815 411.895 352.566 412.144 352.504C415.708 351.664 419.288 350.654 422.775 349.472C423.024 349.394 423.288 349.518 423.366 349.767C423.444 350.016 423.32 350.265 423.07 350.358C419.553 351.54 415.942 352.566 412.362 353.406C412.331 353.422 412.284 353.422 412.253 353.422ZM9.52574 351.307C9.51018 351.307 9.47905 351.307 9.46348 351.307C9.21444 351.276 9.02766 351.042 9.07436 350.778C9.60357 347.108 10.304 343.438 11.1912 339.845C11.2534 339.596 11.5025 339.441 11.7515 339.503C12.0006 339.565 12.1562 339.814 12.094 340.063C11.2223 343.624 10.5219 347.279 9.99269 350.902C9.96156 351.151 9.75922 351.307 9.52574 351.307ZM335.658 348.554C335.611 348.554 335.564 348.554 335.518 348.539C332.093 347.497 328.545 346.315 324.949 345.055C324.7 344.962 324.576 344.697 324.669 344.464C324.747 344.215 325.027 344.091 325.26 344.184C328.84 345.444 332.374 346.626 335.782 347.652C336.031 347.73 336.171 347.979 336.094 348.228C336.031 348.43 335.86 348.554 335.658 348.554ZM433.281 346.377C433.11 346.377 432.939 346.268 432.861 346.097C432.752 345.864 432.861 345.584 433.094 345.49C435.678 344.355 438.293 343.096 440.861 341.758C441.702 341.463 442.464 341.183 443.227 340.918C443.461 340.841 443.741 340.965 443.819 341.198C443.912 341.432 443.787 341.711 443.538 341.789C442.776 342.069 441.997 342.334 441.219 342.613C438.698 343.935 436.067 345.195 433.452 346.346C433.406 346.361 433.343 346.377 433.281 346.377ZM314.707 341.183C314.645 341.183 314.598 341.167 314.536 341.152C311.236 339.845 307.765 338.43 304.248 336.922C304.014 336.828 303.905 336.548 303.999 336.315C304.092 336.082 304.372 335.973 304.606 336.066C308.108 337.559 311.563 338.99 314.863 340.281C315.097 340.374 315.221 340.638 315.128 340.887C315.081 341.074 314.894 341.183 314.707 341.183ZM453.718 337.761C453.531 337.761 453.36 337.653 453.298 337.482C453.204 337.248 453.313 336.968 453.547 336.875C456.986 335.413 460.364 333.858 463.602 332.241C463.835 332.132 464.115 332.225 464.224 332.443C464.333 332.676 464.24 332.956 464.022 333.065C460.769 334.682 457.376 336.253 453.92 337.715C453.842 337.746 453.78 337.761 453.718 337.761ZM294.286 332.474C294.224 332.474 294.162 332.458 294.099 332.427C290.893 330.965 287.5 329.395 284.013 327.746C283.78 327.637 283.687 327.358 283.795 327.124C283.904 326.891 284.185 326.798 284.418 326.907C287.889 328.555 291.282 330.126 294.489 331.588C294.722 331.696 294.831 331.961 294.722 332.194C294.629 332.381 294.457 332.474 294.286 332.474ZM14.8023 329.799C14.7556 329.799 14.6933 329.784 14.6466 329.768C14.3976 329.69 14.273 329.41 14.3664 329.177C15.6116 325.678 17.028 322.21 18.6001 318.882C18.7091 318.649 18.9892 318.555 19.2227 318.664C19.4562 318.773 19.5496 319.053 19.4406 319.286C17.8841 322.583 16.4677 326.02 15.2381 329.504C15.1758 329.675 15.0046 329.799 14.8023 329.799ZM473.548 327.855C473.392 327.855 473.236 327.777 473.143 327.622C473.018 327.404 473.081 327.124 473.314 326.984C476.536 325.103 479.665 323.112 482.653 321.059C482.871 320.919 483.151 320.966 483.291 321.184C483.431 321.401 483.385 321.681 483.167 321.821C480.178 323.89 477.019 325.88 473.781 327.777C473.703 327.824 473.625 327.855 473.548 327.855ZM274.207 322.972C274.145 322.972 274.067 322.956 274.005 322.925C270.69 321.308 267.374 319.66 264.044 317.996C263.81 317.887 263.717 317.607 263.841 317.374C263.95 317.14 264.23 317.047 264.464 317.171C267.795 318.82 271.11 320.468 274.425 322.086C274.659 322.194 274.752 322.474 274.643 322.708C274.534 322.879 274.379 322.972 274.207 322.972ZM491.79 315.274C491.65 315.274 491.525 315.212 491.432 315.103C491.276 314.901 491.307 314.605 491.494 314.45C494.373 312.117 497.144 309.644 499.759 307.125C499.946 306.954 500.241 306.954 500.413 307.141C500.584 307.327 500.584 307.623 500.397 307.794C497.767 310.329 494.965 312.817 492.07 315.165C491.992 315.243 491.899 315.274 491.79 315.274ZM254.331 313.081C254.269 313.081 254.191 313.066 254.129 313.035L252.946 312.444C250.035 310.982 247.124 309.52 244.214 308.074C243.98 307.965 243.887 307.685 244.011 307.452C244.12 307.218 244.401 307.125 244.634 307.25C247.545 308.711 250.471 310.173 253.366 311.619L254.549 312.21C254.782 312.319 254.876 312.599 254.751 312.833C254.658 312.988 254.502 313.081 254.331 313.081ZM24.2813 309.784C24.2035 309.784 24.1101 309.769 24.0478 309.722C23.8299 309.598 23.7521 309.302 23.8922 309.085C25.8222 305.897 27.9546 302.817 30.196 299.894C30.3516 299.692 30.6474 299.66 30.8497 299.816C31.052 299.971 31.0832 300.267 30.9275 300.469C28.7017 303.362 26.6005 306.425 24.686 309.567C24.5926 309.707 24.4369 309.784 24.2813 309.784ZM234.455 303.191C234.392 303.191 234.315 303.175 234.252 303.144C230.937 301.511 227.606 299.894 224.26 298.292C224.026 298.183 223.933 297.903 224.042 297.67C224.151 297.437 224.431 297.343 224.664 297.452C228.011 299.054 231.342 300.671 234.657 302.304C234.89 302.413 234.984 302.693 234.875 302.926C234.797 303.097 234.626 303.191 234.455 303.191ZM507.713 299.863C507.604 299.863 507.495 299.832 507.417 299.754C507.23 299.583 507.199 299.287 507.37 299.101C509.783 296.317 512.071 293.393 514.203 290.423C514.359 290.221 514.639 290.174 514.857 290.314C515.059 290.47 515.121 290.749 514.966 290.967C512.833 293.969 510.514 296.908 508.086 299.723C507.977 299.816 507.853 299.863 507.713 299.863ZM214.407 293.595C214.345 293.595 214.282 293.58 214.22 293.549C210.749 291.947 207.34 290.407 204.087 288.992C203.854 288.883 203.745 288.619 203.854 288.386C203.963 288.152 204.228 288.044 204.461 288.152C207.714 289.583 211.138 291.123 214.609 292.725C214.843 292.833 214.936 293.113 214.843 293.347C214.749 293.502 214.578 293.595 214.407 293.595ZM37.8072 292.242C37.6983 292.242 37.5738 292.196 37.4804 292.118C37.2936 291.947 37.2936 291.651 37.4648 291.465C40.0641 288.79 42.8191 286.255 45.6831 283.938C45.8854 283.782 46.1812 283.814 46.3368 284C46.4925 284.202 46.4613 284.498 46.2746 284.653C43.4417 286.955 40.7023 289.459 38.1341 292.102C38.0563 292.196 37.9317 292.242 37.8072 292.242ZM194.032 284.684C193.97 284.684 193.908 284.669 193.861 284.653C190.359 283.223 186.873 281.839 183.526 280.579C183.293 280.486 183.168 280.221 183.262 279.988C183.355 279.755 183.62 279.63 183.853 279.724C187.215 280.999 190.702 282.367 194.219 283.814C194.453 283.907 194.562 284.187 194.468 284.42C194.375 284.576 194.204 284.684 194.032 284.684ZM520.585 281.823C520.507 281.823 520.429 281.807 520.351 281.761C520.133 281.636 520.056 281.356 520.18 281.123C522.017 277.966 523.729 274.669 525.27 271.326C525.379 271.092 525.659 270.999 525.892 271.092C526.126 271.201 526.219 271.481 526.126 271.715C524.569 275.089 522.842 278.402 520.99 281.59C520.896 281.745 520.74 281.823 520.585 281.823ZM55.022 278.324C54.8664 278.324 54.7107 278.246 54.6329 278.106C54.4928 277.888 54.5707 277.609 54.773 277.469C57.9171 275.509 61.2325 273.721 64.5945 272.166C64.828 272.057 65.1081 272.166 65.2171 272.399C65.326 272.632 65.2171 272.912 64.9836 273.021C61.6527 274.56 58.3841 276.318 55.2711 278.262C55.1933 278.308 55.1154 278.324 55.022 278.324ZM173.207 276.847C173.16 276.847 173.113 276.831 173.051 276.815C169.471 275.602 165.907 274.467 162.467 273.456C162.218 273.379 162.078 273.13 162.155 272.881C162.233 272.632 162.482 272.492 162.731 272.57C166.187 273.596 169.767 274.732 173.347 275.945C173.596 276.022 173.72 276.287 173.642 276.535C173.58 276.722 173.393 276.847 173.207 276.847ZM151.883 270.564C151.852 270.564 151.805 270.564 151.774 270.548C148.131 269.646 144.489 268.838 140.956 268.153C140.707 268.107 140.536 267.858 140.582 267.609C140.629 267.36 140.878 267.189 141.127 267.236C144.692 267.936 148.349 268.744 151.992 269.646C152.241 269.708 152.396 269.957 152.334 270.206C152.272 270.424 152.085 270.564 151.883 270.564ZM75.1319 269.055C74.9296 269.055 74.7584 268.931 74.6961 268.729C74.6183 268.48 74.7584 268.231 74.9919 268.153C78.5095 267.034 82.1362 266.132 85.8095 265.432C86.0585 265.385 86.3076 265.556 86.3543 265.805C86.4009 266.054 86.2297 266.303 85.9807 266.349C82.3541 267.034 78.7586 267.936 75.272 269.04C75.2253 269.04 75.1786 269.055 75.1319 269.055ZM130.092 266.334C130.076 266.334 130.045 266.334 130.029 266.334C126.341 265.821 122.652 265.432 119.041 265.152C118.792 265.136 118.589 264.903 118.62 264.654C118.636 264.405 118.869 264.188 119.118 264.234C122.745 264.514 126.465 264.903 130.17 265.416C130.419 265.447 130.605 265.681 130.559 265.945C130.512 266.163 130.31 266.334 130.092 266.334ZM96.8917 264.95C96.6582 264.95 96.4403 264.763 96.4248 264.514C96.4092 264.265 96.596 264.032 96.8606 264.017C97.9501 263.939 99.0552 263.877 100.176 263.83C102.791 263.737 105.406 263.706 107.99 263.721C108.239 263.721 108.456 263.939 108.441 264.188C108.441 264.436 108.239 264.639 107.974 264.639C105.406 264.608 102.806 264.639 100.207 264.747C99.1019 264.794 98.0124 264.841 96.9228 264.919C96.9073 264.95 96.9073 264.95 96.8917 264.95ZM529.893 261.731C529.846 261.731 529.784 261.715 529.737 261.699C529.503 261.606 529.363 261.342 529.457 261.108C530.686 257.687 531.776 254.126 532.725 250.549C532.788 250.3 533.052 250.145 533.286 250.222C533.535 250.285 533.675 250.549 533.613 250.782C532.663 254.39 531.542 257.967 530.313 261.419C530.251 261.606 530.079 261.731 529.893 261.731ZM535.574 240.301C535.543 240.301 535.512 240.301 535.496 240.301C535.247 240.254 535.076 240.021 535.122 239.756C535.776 236.195 536.29 232.509 536.694 228.808C536.726 228.559 536.944 228.357 537.208 228.404C537.457 228.435 537.644 228.653 537.613 228.917C537.224 232.634 536.695 236.351 536.041 239.927C535.994 240.145 535.792 240.301 535.574 240.301ZM537.94 218.249H537.924C537.675 218.233 537.473 218.031 537.473 217.767C537.551 215.636 537.597 213.474 537.597 211.313C537.597 209.758 537.582 208.218 537.535 206.694C537.535 206.445 537.737 206.227 537.986 206.212C538.251 206.212 538.453 206.414 538.469 206.663C538.516 208.187 538.531 209.742 538.531 211.297C538.531 213.474 538.484 215.652 538.407 217.782C538.391 218.062 538.189 218.249 537.94 218.249ZM537.379 196.072C537.146 196.072 536.944 195.886 536.912 195.653C536.601 192.029 536.181 188.328 535.667 184.658C535.636 184.409 535.807 184.176 536.056 184.129C536.305 184.098 536.539 184.269 536.586 184.518C537.099 188.203 537.519 191.92 537.831 195.575C537.846 195.824 537.659 196.057 537.41 196.072C537.41 196.072 537.395 196.072 537.379 196.072ZM534.297 174.114C534.08 174.114 533.893 173.958 533.846 173.741C533.13 170.102 532.321 166.478 531.434 162.932C531.371 162.683 531.527 162.435 531.776 162.372C532.025 162.31 532.274 162.466 532.336 162.715C533.224 166.26 534.048 169.915 534.749 173.569C534.796 173.818 534.64 174.067 534.375 174.114C534.36 174.114 534.329 174.114 534.297 174.114Z" fill="#FFC6B5"/>
<path d="M164.101 478.377C163.852 478.377 163.65 478.191 163.634 477.942C163.619 477.693 163.805 477.46 164.07 477.444C165.891 477.32 167.743 477.18 169.611 477.009C169.86 476.993 170.094 477.18 170.109 477.429C170.125 477.678 169.938 477.911 169.689 477.926C167.821 478.082 165.969 478.237 164.132 478.362C164.117 478.377 164.101 478.377 164.101 478.377Z" fill="#FFC6B5"/>
<path d="M688.795 598.03H67.3183V602.882H688.795V598.03Z" fill="#A8D8FF"/>
<path d="M688.795 598.03H67.3183L140.147 435.953H637.726L688.795 598.03Z" fill="#FFDCD1"/>
<path d="M587.919 522.87C587.919 548.126 504.086 563.211 382.493 563.211C260.884 563.211 180.257 552.48 180.257 522.87C180.257 493.26 275.997 446.217 383.598 446.217C491.198 446.217 587.919 497.615 587.919 522.87Z" fill="#FFC6B5"/>
<path d="M444.052 533.243C441.951 546.119 438.34 556.041 435.04 555.497C431.74 554.953 430.012 544.176 432.114 531.299C434.215 518.422 439.227 508.749 442.527 509.294C445.811 509.822 446.153 520.351 444.052 533.243Z" fill="#112633"/>
<path d="M500.273 542.138C508.257 568.358 497.051 588.513 485.579 598.155L464.318 598.046L479.914 545.062L500.273 542.138Z" fill="#FFC6B5"/>
<path d="M422.043 548.997L439.429 553.693L451.57 556.71C456.535 557.441 461.485 525.592 459.741 525.218C447.181 522.621 431.631 517.723 431.631 517.723L422.043 548.997Z" fill="#FAA88D"/>
<path d="M436.923 519.324L431.164 551.469L439.336 553.677L440.332 553.926C437.468 550.427 442.667 525.763 452.021 523.492C446.636 522.108 440.597 520.397 436.923 519.324Z" fill="#EC8777"/>
<path d="M497.362 541.734C493.875 526.665 477.688 528.235 464.738 526.136C463.166 525.887 461.485 525.56 459.757 525.203C453.998 528.78 448.037 548.203 451.585 556.694C456.551 557.425 459.757 562.137 459.757 567.301C459.741 579.664 442.667 604.919 459.461 606.443C476.225 607.999 500.848 556.803 497.362 541.734Z" fill="white"/>
<path d="M482.793 528.609C481.859 530.117 481.112 531.781 480.614 533.585C477.797 543.74 483.743 554.237 493.907 557.052C494.467 557.208 495.012 557.332 495.572 557.425C497.44 550.956 498.202 545.326 497.377 541.734C495.447 533.476 489.72 530.21 482.793 528.609Z" fill="#FFDCD1"/>
<path d="M453.158 591.452C451.119 599.274 451.227 605.712 459.446 606.459C464.66 606.941 470.621 602.338 476.256 595.309C466.341 587.844 458.418 588.917 453.158 591.452Z" fill="#FFDCD1"/>
<path d="M458.481 561.92C459.243 549.323 463.695 537.084 471.182 526.96C470.746 526.914 470.294 526.867 469.859 526.82C462.808 536.602 458.465 548.219 457.438 560.256C457.827 560.769 458.185 561.329 458.481 561.92Z" fill="#FFDCD1"/>
<path d="M341.635 562.76C321.883 564.797 337.074 587.751 342.257 598.03H317.727L314.443 551.563L341.635 562.76Z" fill="#FFC6B5"/>
<path d="M370.866 224.827C370.866 224.827 361.496 215.994 358.009 223.287C354.507 230.581 365.776 244.251 371.862 241.576C377.948 238.901 370.866 224.827 370.866 224.827Z" fill="#FAA88D"/>
<path d="M370.087 227.44C370.087 227.44 363.254 221.001 360.702 226.32C358.149 231.639 366.367 241.607 370.803 239.663C375.239 237.704 370.087 227.44 370.087 227.44Z" fill="#EC8777"/>
<path d="M369.029 224.454C369.029 224.454 357.542 213.785 360.173 194.719C362.787 175.669 378.757 181.827 378.757 181.827C378.757 181.827 384.438 167.38 398.431 168.251C412.424 169.122 423.413 183.382 434.293 185.42C445.173 187.457 452.317 182.807 452.317 182.807C452.317 182.807 452.317 214.143 427.273 225.822C402.229 237.501 369.029 224.454 369.029 224.454Z" fill="#522D34"/>
<path d="M170.529 358.834C162.856 363.903 155.634 366.469 154.373 364.572C153.112 362.675 158.311 357.014 165.969 351.944C173.642 346.875 180.849 342.847 182.11 344.76C182.623 347.217 178.187 353.764 170.529 358.834Z" fill="#719FD1"/>
<path d="M606.55 345.817C599.655 341.198 595.094 335.911 596.355 334.014C597.631 332.116 604.246 334.34 611.142 338.959C618.037 343.578 623.734 349.114 622.457 351.011C620.481 352.504 613.445 350.451 606.55 345.817Z" fill="#719FD1"/>
<path d="M592.682 344.386C592.682 344.386 604.309 322.537 602.814 309.66C602.347 305.694 601.6 302.273 600.9 299.427C599.328 293.02 619.64 278.371 621.663 282.429C623.687 286.488 615.313 292.274 612.262 295.85C614.893 298.774 615.982 301.931 615.982 301.931C615.982 301.931 617.897 302.662 630.411 298.012C633.01 297.048 632.839 290.345 632.839 290.345C632.839 290.345 620.185 285.104 622.099 281.792C624.014 278.479 640.871 284.404 642.629 290.547C644.388 296.69 641.758 300.282 641.758 300.282C641.758 300.282 669.245 296.628 671.954 297.841C674.662 299.069 674.429 301.029 674.429 301.029C674.429 301.029 676.81 301.464 676.67 304.497C676.468 309.287 650.676 315.15 650.676 315.15C650.676 315.15 673.868 315.865 674.288 320.157C674.724 324.449 627.983 333.189 627.983 333.189L613.274 365.101L592.682 344.386Z" fill="#FAA88D"/>
<path d="M621.337 347.668C615.671 348.352 599.779 335.631 598.425 331.541C595.67 338.757 592.682 344.386 592.682 344.386L611.562 363.375L613.756 364.137L621.337 347.668Z" fill="#EC8777"/>
<path d="M183.635 362.364C183.635 362.364 174.592 336.097 183.635 315.056C186.281 306.425 171.775 290.827 166.358 293.144C160.941 295.462 173.004 308.867 173.004 308.867L166.763 316.549L150.388 302.351C150.388 302.351 167.588 297.872 165.004 292.958C162.42 288.044 140.271 292.18 140.271 299.209C140.271 306.239 145.657 310.344 145.657 310.344C145.657 310.344 121.22 298.929 113.188 302.615C110.9 303.875 112.379 305.461 112.379 305.461C112.379 305.461 107.958 304.45 107.958 307.856C107.958 311.262 131.399 324.605 131.399 324.605C131.399 324.605 108.892 319.706 107.694 323.843C106.495 327.98 150.886 345.008 150.886 345.008L162.996 379.33L183.635 362.364Z" fill="#FAA88D"/>
<path d="M158.685 367.091C162.747 365.878 179.915 360.482 181.658 355.148C180.865 351.867 180.024 347.777 179.464 343.531C172.786 351.898 159.556 357.963 155.027 356.75L158.685 367.091Z" fill="#EC8777"/>
<path d="M429.265 224.827C429.265 224.827 438.635 215.994 442.122 223.287C445.624 230.581 434.355 244.251 428.269 241.576C422.183 238.901 429.265 224.827 429.265 224.827Z" fill="#FAA88D"/>
<path d="M429.11 226.989C429.11 226.989 436.238 220.27 438.9 225.807C441.562 231.359 433.001 241.747 428.363 239.71C423.724 237.688 429.11 226.989 429.11 226.989Z" fill="#EC8777"/>
<path d="M280.122 424.165L287.22 394.369C287.22 394.369 249.381 449.623 203.278 432.765C157.175 415.907 154.171 364.37 154.171 364.37C159.541 366.734 183.682 349.845 182.094 344.433C182.094 344.433 196.118 383.156 223.855 379.781C251.592 376.407 278.955 314.979 330.677 299.256C382.399 283.534 431.865 287.281 458.854 302.631C485.844 317.98 513.223 368.895 546.578 368.895C579.934 368.895 596.386 333.874 596.386 333.874C595.312 339.348 614.955 353.22 622.457 351.042C622.457 351.042 613.881 404.586 571.155 424.134C528.43 443.682 487.681 392.72 487.681 392.72L493.673 417.058L280.122 424.165Z" fill="#D2EBFF"/>
<path d="M376.453 314.994L397.7 303.875L417.42 314.932L401.248 299.038L394.026 300.003L376.453 314.994Z" fill="#9DC9EC"/>
<path d="M571.171 424.118C589.179 415.876 601.118 401.6 608.9 387.837C604.293 394.431 585.491 417.385 547.497 415.005C502.312 412.159 480.956 356.594 480.956 356.594L488.023 392.86C488.163 392.922 488.49 393.436 489.004 394.244C496.272 402.611 532.928 441.614 571.171 424.118Z" fill="#B7DCFF"/>
<path d="M287.08 394.306L298.131 353.142C298.131 353.142 278.83 421.413 220.991 421.148C186.063 420.993 169.113 407.261 162.7 394.975C169.487 409.267 181.643 424.834 203.294 432.75C218.127 438.177 232.089 436.124 244.229 430.868C269.445 418.94 287.08 394.306 287.08 394.306Z" fill="#B7DCFF"/>
<path d="M375.566 276.053V259.351L419.833 261.217L419.304 279.584L398.058 299.038L375.566 276.053Z" fill="#EC8777"/>
<path d="M589.693 483.354C589.32 423.465 496.272 419.795 496.272 419.795C496.272 419.795 341.183 416.56 280.216 424.103C280.216 424.103 169.051 435.409 174.296 491.565C177.596 526.96 280.153 543.056 355.488 550.101C355.301 552.947 354.694 555.373 353.604 557.099C353.604 557.099 371.177 556.072 396.735 553.351C419.491 554.828 434.464 555.264 434.464 555.264C433.546 553.864 433.359 551.609 433.717 548.81C502.28 539.246 589.927 519.838 589.693 483.354ZM477.766 485.904L395.318 497.786L280.2 485.453L477.766 485.904Z" fill="#2E6589"/>
<path d="M282.566 413.279H492.63L496.039 419.795L279.982 424.118L282.566 413.279Z" fill="#6F3D47"/>
<path d="M395.661 413.73C395.396 413.73 395.194 413.512 395.194 413.264L397.591 299.038C397.591 298.79 397.824 298.618 398.058 298.587C398.307 298.587 398.525 298.805 398.509 299.054L396.112 413.279C396.128 413.544 395.925 413.73 395.661 413.73Z" fill="#719FD1"/>
<path d="M395.349 317.42L383.582 369.751L398.104 384.229L412.626 370.964L401.342 317.42H395.349Z" fill="#FF9100"/>
<path d="M357.34 292.693L376.189 314.792L398.431 296.348L417.81 314.699L439.507 294.668L419.304 279.584L398.431 296.348L375.566 276.053L357.34 292.693Z" fill="#D2EBFF"/>
<path d="M384.656 307.856L395.349 317.42H401.342L411.568 308.882L398.431 296.348L384.656 307.856Z" fill="#FF9100"/>
<path d="M398.431 296.815L408.751 311.231L411.568 308.882L398.431 296.348L384.656 307.856L388.189 311.029L398.431 296.815Z" fill="#FF771D"/>
<path d="M380.998 197.907C379.909 211.157 375.722 218.187 369.029 224.454L372.92 262.228C372.92 262.228 388.688 277.173 392.096 277.344C395.505 277.515 398.447 276.753 401.389 276.753C404.33 276.753 406.867 277.702 410.992 277.344C415.117 276.986 427.039 262.399 427.039 262.399L429.265 224.811L425.374 209.618C425.374 209.649 391.925 216.056 380.998 197.907Z" fill="#FAA88D"/>
<path d="M403.334 241.016H393.699C393.45 241.016 393.248 240.814 393.232 240.565L392.33 214.998C392.314 214.75 392.516 214.532 392.781 214.516C393.015 214.501 393.248 214.703 393.264 214.967L394.151 240.083H403.334C403.583 240.083 403.801 240.285 403.801 240.549C403.785 240.814 403.583 241.016 403.334 241.016Z" fill="#EC8777"/>
<path d="M400.019 249.911C398.353 249.911 397.186 249.74 397.046 249.725C396.797 249.694 396.626 249.445 396.657 249.196C396.688 248.947 396.937 248.761 397.186 248.807C397.295 248.823 408.377 250.409 412.517 243.178C412.642 242.96 412.922 242.882 413.156 243.007C413.374 243.131 413.451 243.411 413.327 243.644C410.214 249.056 403.801 249.911 400.019 249.911Z" fill="#522D34"/>
<path d="M345.09 369.751C339.16 369.751 333.572 367.807 328.358 363.919C328.233 363.826 328.171 363.686 328.171 363.53L329.307 341.012C329.307 340.887 329.37 340.763 329.463 340.685C329.556 340.607 329.681 340.561 329.805 340.576C341.09 341.711 351.114 342.225 363.379 341.074C363.503 341.074 363.644 341.105 363.753 341.198C363.846 341.292 363.908 341.432 363.893 341.556L362.383 364.525C362.367 364.681 362.274 364.821 362.149 364.899C356.204 368.133 350.507 369.751 345.09 369.751ZM329.121 363.312C338.771 370.419 349.371 370.715 361.48 364.199L362.928 342.022C351.02 343.096 341.183 342.613 330.195 341.525L329.121 363.312Z" fill="#719FD1"/>
<path d="M286.192 401.6C286.146 401.6 286.115 401.6 286.068 401.585C285.819 401.522 285.663 401.273 285.726 401.025L298.535 346.999C298.598 346.75 298.847 346.595 299.096 346.657C299.345 346.719 299.5 346.968 299.438 347.217L286.628 401.242C286.582 401.46 286.395 401.6 286.192 401.6Z" fill="#719FD1"/>
<path d="M488.91 401.429C488.692 401.429 488.505 401.273 488.459 401.056L477.501 344.791C477.454 344.542 477.61 344.293 477.875 344.246C478.124 344.2 478.373 344.355 478.419 344.62L489.377 400.885C489.424 401.133 489.268 401.382 489.004 401.429C488.972 401.429 488.941 401.429 488.91 401.429Z" fill="#719FD1"/>
<path d="M157.766 382.238C168.428 381.29 182.732 369.968 190.53 360.467C190.359 360.202 190.188 359.953 190.017 359.689C182.405 369.129 168.055 380.575 157.502 381.337C157.579 381.648 157.673 381.943 157.766 382.238Z" fill="#719FD1"/>
<path d="M599.468 368.444C593.149 363.11 586.814 355.335 586.518 348.539C586.238 348.865 585.973 349.192 585.677 349.503C586.502 356.361 592.697 363.919 598.876 369.144C603.421 372.985 609.025 376.469 613.897 377.915C614.021 377.62 614.161 377.34 614.286 377.044C609.943 375.816 604.573 372.768 599.468 368.444Z" fill="#719FD1"/>
<path d="M356.997 293.004L375.846 315.087C375.94 315.196 376.064 315.243 376.204 315.243C376.313 315.243 376.407 315.212 376.5 315.134L398.416 296.97L417.42 315.103C417.592 315.274 417.872 315.274 418.059 315.103L439.834 295.011C439.896 294.948 439.958 294.808 439.958 294.808L439.071 294.326L417.747 314.139L398.758 296.021C398.587 295.866 398.322 295.85 398.135 296.006L376.251 314.139L357.682 292.398L356.904 292.88C356.919 292.864 356.951 292.958 356.997 293.004Z" fill="#719FD1"/>
<path d="M407.583 411.724H380.687V423.294H407.583V411.724Z" fill="#FF9100"/>
<path d="M405.062 413.963H383.364V420.993H405.062V413.963Z" fill="#6F3D47"/>
<path d="M375.271 220.644C375.271 220.644 375.753 228.45 383.458 228.824C391.162 229.197 390.104 220.022 389.326 217.409C388.547 214.796 375.271 220.644 375.271 220.644Z" fill="#EC8777"/>
<path d="M390.166 216.274C390.96 219.431 383.847 220.302 378.71 220.924C375.737 221.281 374.726 221.608 374.399 221.25C374.072 220.892 374.648 219.26 377.232 217.736C381.855 215.014 389.372 213.07 390.166 216.274Z" fill="#6F3D47"/>
<path d="M383.115 229.29C383.1 229.29 383.1 229.29 383.115 229.29C380.205 229.29 377.761 227.922 376.734 225.713C376.625 225.48 376.734 225.2 376.952 225.091C377.185 224.983 377.465 225.076 377.574 225.309C378.446 227.175 380.563 228.342 383.1 228.357H383.115C385.31 228.357 388.112 227.393 389.372 224.703C389.481 224.469 389.761 224.376 389.995 224.485C390.228 224.594 390.322 224.874 390.213 225.107C388.983 227.688 386.275 229.29 383.115 229.29Z" fill="#522D34"/>
<path d="M403.521 214.998C403.521 214.998 401.544 227.58 410.836 227.782C420.113 227.984 418.494 216.056 418.494 216.056L403.521 214.998Z" fill="#EC8777"/>
<path d="M411.008 228.233C408.097 228.233 405.653 226.864 404.626 224.656C404.517 224.423 404.61 224.143 404.844 224.034C405.077 223.925 405.358 224.018 405.467 224.252C406.338 226.118 408.455 227.284 410.992 227.3C410.992 227.3 410.992 227.3 411.008 227.3C413.202 227.3 416.004 226.335 417.265 223.645C417.374 223.412 417.654 223.318 417.887 223.427C418.121 223.536 418.214 223.816 418.105 224.049C416.891 226.631 414.167 228.233 411.008 228.233Z" fill="#522D34"/>
<path d="M403.272 214.439C402.774 217.658 409.949 216.662 415.101 216.802C418.09 216.88 418.603 217.456 418.883 217.082C419.164 216.694 418.977 214.967 416.269 213.692C411.428 211.406 403.77 211.173 403.272 214.439Z" fill="#6F3D47"/>
<path d="M407.334 267.236C407.334 268.293 404.486 267.842 400.968 267.842C397.451 267.842 394.602 268.293 394.602 267.236C394.602 266.178 397.451 264.312 400.968 264.312C404.486 264.296 407.334 266.163 407.334 267.236Z" fill="#EC8777"/>
<path d="M379.271 183.382C377.434 175.031 387.38 169.153 394.447 168.624C401.778 168.08 408.813 172.108 412.284 178.546C412.642 179.199 413.638 178.624 413.28 177.955C410.354 172.528 404.906 168.546 398.774 167.629C392.501 166.696 385.792 168.873 381.419 173.523C378.85 176.26 377.31 179.899 378.15 183.678C378.306 184.409 379.426 184.113 379.271 183.382Z" fill="#522D34"/>
<path d="M371.379 180.879C364.842 182.029 360.562 188.483 358.912 194.471C356.982 201.422 358.367 208.933 362.523 214.812C362.943 215.418 363.955 214.843 363.519 214.221C359.612 208.7 358.227 201.733 359.924 195.155C361.418 189.401 365.402 183.103 371.691 181.983C372.422 181.874 372.111 180.754 371.379 180.879Z" fill="#522D34"/>
<path d="M166.265 335.024C162.607 333.034 160.381 328.695 161.144 324.558C161.891 320.546 165.253 317.342 169.238 316.611C169.549 316.549 169.658 316.316 169.642 316.083C169.3 316.378 169.113 316.549 169.113 316.549C169.113 316.549 168.708 316.238 167.992 315.709C163.961 316.845 160.646 320.344 159.976 324.512C159.229 329.068 161.642 333.811 165.673 336.02C166.327 336.377 166.918 335.382 166.265 335.024Z" fill="#EC8777"/>
<path d="M144.583 336.222C149.143 332.101 154.747 329.27 160.77 328.042C161.502 327.886 161.19 326.782 160.459 326.922C154.248 328.197 148.474 331.152 143.773 335.398C143.213 335.911 144.022 336.735 144.583 336.222Z" fill="#EC8777"/>
<path d="M113.873 306.55C122.574 309.349 131.15 312.506 139.586 315.989C140.271 316.269 140.582 315.15 139.898 314.87C131.446 311.386 122.87 308.245 114.184 305.43C113.468 305.197 113.173 306.316 113.873 306.55Z" fill="#EC8777"/>
<path d="M134.139 332.272C137.252 322.879 143.011 314.543 150.653 308.26C151.229 307.794 150.404 306.97 149.828 307.436C142.03 313.843 136.193 322.397 133.018 331.961C132.784 332.676 133.905 332.987 134.139 332.272Z" fill="#EC8777"/>
<path d="M150.902 345.008C152.941 346.066 157.144 345.677 157.144 346.921C157.144 348.15 152.085 348.352 152.085 348.352L150.902 345.008Z" fill="#EC8777"/>
<path d="M594.674 347.341C595.312 347.139 595.966 347.17 596.573 347.403C597.335 347.714 597.911 348.321 598.192 349.13C598.472 349.923 598.441 350.809 598.114 351.633C597.429 353.344 595.608 354.246 594.067 353.624C592.526 353.002 591.841 351.105 592.526 349.394C592.853 348.57 593.46 347.916 594.207 347.543C594.363 347.45 594.518 347.388 594.674 347.341ZM595.686 352.8C596.339 352.597 596.946 352.053 597.242 351.291C597.491 350.685 597.507 350.031 597.304 349.441C597.102 348.881 596.713 348.461 596.215 348.259C595.717 348.056 595.141 348.088 594.612 348.352C594.067 348.632 593.631 349.114 593.382 349.72C592.884 350.965 593.335 352.318 594.409 352.753C594.83 352.924 595.265 352.924 595.686 352.8Z" fill="#719FD1"/>
<path d="M178.296 360.7C176.895 360.7 175.588 359.627 175.214 358.056C175.012 357.201 175.121 356.314 175.526 355.568C175.93 354.806 176.6 354.293 177.394 354.106C178.187 353.919 179.012 354.09 179.713 354.588C180.398 355.07 180.88 355.817 181.082 356.672C181.503 358.476 180.538 360.249 178.919 360.622C178.701 360.669 178.499 360.7 178.296 360.7ZM178.016 354.961C177.876 354.961 177.736 354.977 177.611 355.008C177.082 355.132 176.631 355.49 176.351 356.003C176.055 356.548 175.977 357.201 176.133 357.838C176.444 359.145 177.596 360 178.717 359.72C179.837 359.456 180.491 358.18 180.195 356.89C180.04 356.252 179.682 355.692 179.184 355.335C178.81 355.086 178.405 354.961 178.016 354.961Z" fill="#719FD1"/>
<path d="M614.846 301.433C614.862 301.542 614.893 301.667 614.986 301.775C619.469 306.845 621.181 314.014 619.484 320.562C619.298 321.277 620.418 321.588 620.605 320.873C622.364 314.123 620.667 306.783 616.216 301.449C615.593 301.76 615.235 301.931 615.235 301.931C615.235 301.931 615.079 301.744 614.846 301.433Z" fill="#EC8777"/>
<path d="M621.103 313.952C626.924 314.59 632.31 317.902 635.532 322.785C635.937 323.407 636.948 322.832 636.528 322.194C633.073 316.938 627.345 313.47 621.103 312.786C620.372 312.724 620.372 313.874 621.103 313.952Z" fill="#EC8777"/>
<path d="M637.571 295.928C642.318 304.17 645.789 313.081 647.89 322.365C648.062 323.096 649.167 322.785 649.011 322.054C646.894 312.677 643.361 303.673 638.567 295.337C638.209 294.7 637.213 295.29 637.571 295.928Z" fill="#EC8777"/>
<path d="M648.311 306.923C656.093 304.419 664.171 303.004 672.343 302.771C673.09 302.755 673.09 301.589 672.343 301.62C664.078 301.869 655.875 303.284 647.999 305.819C647.299 306.037 647.61 307.156 648.311 306.923Z" fill="#EC8777"/>
<path d="M627.998 333.205C624.512 333.656 618.908 331.696 618.052 332.832C617.196 333.967 622.504 338.446 626.162 337.186L627.998 333.205Z" fill="#EC8777"/>
<path d="M404.361 240.549C404.361 241.436 401.871 242.151 398.789 242.151C395.707 242.151 393.373 241.607 393.373 240.721C393.373 239.834 395.629 240.285 398.711 240.285C401.793 240.301 404.361 239.663 404.361 240.549Z" fill="#EC8777"/>
<path d="M367.239 419.158C368.15 419.158 368.889 418.42 368.889 417.509C368.889 416.599 368.15 415.861 367.239 415.861C366.328 415.861 365.589 416.599 365.589 417.509C365.589 418.42 366.328 419.158 367.239 419.158Z" fill="#522D34"/>
<path d="M351.223 417.509C351.223 418.427 350.476 419.158 349.573 419.158C348.655 419.158 347.923 418.411 347.923 417.509C347.923 416.592 348.67 415.861 349.573 415.861C350.476 415.861 351.223 416.592 351.223 417.509Z" fill="#522D34"/>
<path d="M405.482 416.778H392.812V418.364H405.482V416.778Z" fill="#FF9100"/>
<path d="M383.037 413.512C385.621 413.372 388.205 413.357 390.789 413.481C391.536 413.512 391.536 412.362 390.789 412.331C388.205 412.206 385.621 412.206 383.037 412.362C382.306 412.393 382.306 413.559 383.037 413.512Z" fill="white"/>
<path d="M393.715 413.652C395.738 413.699 397.746 413.761 399.77 413.808C400.517 413.823 400.517 412.673 399.77 412.657C397.746 412.61 395.738 412.548 393.715 412.502C392.968 412.47 392.968 413.637 393.715 413.652Z" fill="white"/>
<path d="M386.259 422.501C389.59 422.719 392.937 422.688 396.252 422.392C396.984 422.33 396.999 421.164 396.252 421.241C392.921 421.537 389.59 421.568 386.259 421.35C385.512 421.304 385.512 422.455 386.259 422.501Z" fill="white"/>
<path d="M347.907 351.991C341.837 351.991 335.891 351.167 329.307 349.907C329.058 349.86 328.887 349.612 328.934 349.363C328.98 349.114 329.229 348.943 329.479 348.99C341.199 351.229 350.865 352.069 362.803 349.316C363.052 349.254 363.301 349.409 363.363 349.658C363.426 349.907 363.27 350.156 363.021 350.218C357.651 351.462 352.733 351.991 347.907 351.991Z" fill="#719FD1"/>
<path d="M329.79 340.685C340.779 342.427 350.771 342.691 363.426 341.183C352.126 340.343 340.903 340.156 329.79 340.685Z" fill="#719FD1"/>
<path d="M395.349 317.42C395.349 317.42 398.851 324.434 401.342 317.42C399.785 316.643 397.108 316.658 395.349 317.42Z" fill="#FF771D"/>
<path d="M378.337 529.853C378.088 529.853 377.885 529.65 377.87 529.402C377.854 529.153 378.057 528.935 378.306 528.92C379.831 528.857 531.06 521.999 558.018 488.501C561.38 484.318 562.688 479.839 561.863 475.174C557.411 449.747 442.231 439.297 337.448 445.471C255.763 450.292 204.445 463.572 203.527 480.119C203.2 486.075 205.364 491.518 209.971 496.262C220.898 507.505 246.175 515.421 283.095 519.138C311.05 521.952 336.047 521.377 336.296 521.377C336.545 521.377 336.763 521.579 336.778 521.828C336.778 522.077 336.576 522.295 336.327 522.31C336.078 522.326 311.034 522.901 283.017 520.071C245.334 516.276 220.54 508.485 209.302 496.915C204.508 491.969 202.251 486.309 202.593 480.073C203.091 470.928 216.882 463.044 243.576 456.637C267.172 450.96 299.609 446.777 337.385 444.553C388.47 441.536 443.912 442.578 485.688 447.321C546.609 454.257 561.24 466.201 562.781 475.018C563.637 479.948 562.283 484.676 558.75 489.077C547.31 503.291 513.456 514.472 458.138 522.31C417 528.142 378.726 529.822 378.337 529.837C378.352 529.853 378.352 529.853 378.337 529.853Z" fill="#719FD1"/>
<path d="M354.974 528.235C359.815 542.294 360.951 554.393 356.359 555.979C351.768 557.55 343.191 548.017 338.351 533.943C333.51 519.884 334.319 507.132 338.911 505.561C343.503 503.975 350.133 514.177 354.974 528.235Z" fill="#112633"/>
<path d="M368.391 548.623C367.831 549.603 354.554 556.866 354.554 556.866C354.554 556.866 332.296 560.458 326.241 565.248C320.171 570.038 319.906 530.428 328.965 529.215C339.829 527.753 351.783 519.931 358.709 516.245C371.395 509.48 368.391 548.623 368.391 548.623Z" fill="#FAA88D"/>
<path d="M340.685 525.701C349.168 524.099 356.281 551.423 354.538 556.881C354.538 556.881 356.095 556.026 358.165 554.875C361.527 552.573 366.009 548.219 365.963 541.283C365.916 533.678 359.815 523.414 356.001 517.738C351.316 520.366 340.685 525.701 340.685 525.701Z" fill="#EC8777"/>
<path d="M344.436 505.11L339.362 505.437C353.137 507.148 361.667 551.92 353.371 557.099L378.415 555.077L373.87 502.171L344.436 505.11Z" fill="#2E6589"/>
<path d="M394.555 498.268C394.54 498.268 394.524 498.268 394.509 498.268L245.35 482.25C245.101 482.219 244.914 482.001 244.945 481.737C244.976 481.488 245.194 481.301 245.459 481.332L394.618 497.35C394.867 497.381 395.054 497.599 395.022 497.863C394.991 498.097 394.789 498.268 394.555 498.268Z" fill="#719FD1"/>
<path d="M378.633 555.155C381.481 547.97 380.438 538.764 379.317 533.087C376.765 520.257 370.694 507.878 364.593 502.171L363.566 502.498C369.589 507.863 375.878 520.506 378.399 533.258C379.535 538.935 380.578 548.219 377.574 555.233C377.932 555.217 378.275 555.186 378.633 555.155Z" fill="#719FD1"/>
<path d="M339.222 505.468C339.269 505.437 339.347 505.39 339.409 505.375L508.942 480.912C509.191 480.881 509.425 481.052 509.471 481.301C509.503 481.55 509.331 481.783 509.082 481.83L341.417 506.028C341.417 506.028 340.514 505.592 339.222 505.468Z" fill="#719FD1"/>
<path d="M328.949 529.215C316.233 531.159 304.73 526.416 294.909 530.957C273.336 540.956 292.574 610.316 316.03 610.984C339.471 611.653 320.155 570.038 326.225 565.248C327.86 563.957 330.661 562.76 333.883 561.686C340.498 552.838 332.047 530.49 328.949 529.215Z" fill="white"/>
<path d="M294.924 530.972C289.025 533.709 286.192 540.879 285.648 549.852C286.504 549.976 287.375 550.038 288.247 550.038C298.784 550.038 307.33 541.501 307.33 530.972C307.33 530.288 307.299 529.604 307.221 528.951C302.878 528.826 298.769 529.184 294.924 530.972Z" fill="#FFDCD1"/>
<path d="M297.679 596.335C302.862 604.888 309.275 610.798 316.03 610.985C325.525 611.249 328 604.577 328 596.226C322.35 592.587 311.626 588.513 297.679 596.335Z" fill="#FFDCD1"/>
<path d="M320.264 529.682C319.797 529.666 319.315 529.651 318.848 529.635C325.774 540.117 326.288 553.118 326.039 565.419C326.101 565.357 326.163 565.294 326.225 565.248C326.521 565.014 326.848 564.797 327.206 564.579C327.408 552.573 326.77 539.977 320.264 529.682Z" fill="#FFDCD1"/>
<path d="M398.104 384.229L400.065 335.926L412.626 370.964L398.104 384.229Z" fill="#FF771D"/>
<path d="M257.887 75.3074L200.7 98.8968L217.901 140.524L275.088 116.935L257.887 75.3074Z" fill="#2E6589"/>
<path d="M241.708 117.74C241.77 117.74 241.832 117.724 241.879 117.709C242.004 117.662 242.097 117.569 242.128 117.444L258.129 75.9376L257.864 75.3156L257.273 75.5644L241.428 116.667L201.255 98.6738L200.663 98.9226L200.928 99.5447L241.49 117.724C241.583 117.724 241.646 117.74 241.708 117.74Z" fill="#1B3C51"/>
<path d="M217.909 140.523L218.594 140.243L233.163 113.463C233.287 113.245 233.209 112.95 232.976 112.841C232.758 112.717 232.462 112.81 232.353 113.028L217.691 139.978L217.909 140.523Z" fill="#1B3C51"/>
<path d="M244.868 107.927C244.79 108.176 244.93 108.425 245.179 108.502L274.41 117.211L275.095 116.931L274.861 116.387L245.443 107.616C245.194 107.554 244.945 107.694 244.868 107.927Z" fill="#1B3C51"/>
<path d="M258.176 90.2294C266.497 90.2294 273.242 83.4896 273.242 75.1756C273.242 66.8616 266.497 60.1218 258.176 60.1218C249.854 60.1218 243.109 66.8616 243.109 75.1756C243.109 83.4896 249.854 90.2294 258.176 90.2294Z" fill="#FF9100"/>
<path d="M528.227 120.104L548.508 108.145L507.619 78.317L494.187 138.485L513.97 128.641L532.725 136.993L528.227 120.104Z" fill="#2E6589"/>
<path d="M513.97 128.641L509.814 87.8189L522.048 123.976L532.725 136.993L513.97 128.641Z" fill="#112633"/>
<path d="M571.731 170.988L541.831 155.079C539.138 153.648 538.111 150.289 539.543 147.599L572.198 86.326C573.63 83.6356 576.992 82.6092 579.685 84.0399L609.585 99.949C612.278 101.38 613.305 104.739 611.873 107.429L579.218 168.702C577.786 171.408 574.424 172.434 571.731 170.988Z" fill="#2E6589"/>
<path d="M578.44 166.54L541.753 147.023L573.552 87.3835C574.611 85.3774 577.101 84.6309 579.109 85.6884L608.542 101.349C610.55 102.406 611.297 104.894 610.239 106.901L578.44 166.54Z" fill="#FFDCD1"/>
<path d="M597.709 95.097C596.76 96.8699 594.565 97.5386 592.791 96.5899C591.016 95.6413 590.347 93.4486 591.296 91.6757C592.246 89.9028 592.728 92.4377 594.503 93.3863C596.277 94.335 598.659 93.3241 597.709 95.097Z" fill="#2E6589"/>
<path d="M557.583 145.297C556.4 147.521 553.629 148.361 551.403 147.179C549.178 145.997 548.337 143.229 549.52 141.005C550.703 138.781 553.474 137.941 555.699 139.123C557.925 140.321 558.766 143.073 557.583 145.297Z" fill="#FF5962"/>
<path d="M579.125 156.774C577.942 158.998 575.171 159.838 572.945 158.656C570.719 157.474 569.879 154.706 571.062 152.482C572.245 150.258 575.015 149.418 577.241 150.6C579.467 151.782 580.307 154.55 579.125 156.774Z" fill="#81AC60"/>
<path d="M564.322 152.14C563.809 152.14 563.279 152.015 562.797 151.766C561.225 150.927 560.618 148.952 561.458 147.381C561.863 146.619 562.548 146.059 563.373 145.81C564.198 145.561 565.085 145.639 565.848 146.043C567.42 146.883 568.027 148.858 567.186 150.429C566.61 151.518 565.474 152.14 564.322 152.14ZM564.322 146.572C564.089 146.572 563.871 146.603 563.637 146.681C563.046 146.868 562.563 147.256 562.268 147.801C561.661 148.92 562.097 150.336 563.217 150.927C564.338 151.533 565.754 151.098 566.346 149.978C566.953 148.858 566.517 147.443 565.396 146.852C565.069 146.666 564.696 146.572 564.322 146.572Z" fill="white"/>
<mask id="mask0_6:11" style="mask-type:alpha" maskUnits="userSpaceOnUse" x="541" y="97" width="71" height="52">
<path d="M611.017 105.439C611.655 104.241 611.204 102.764 610.005 102.126L600.495 97.0565L554.547 123.043L541.769 147.008L544.088 148.236L607.235 112.515L611.017 105.439Z" fill="url(#paint0_linear_6:11)"/>
</mask>
<g mask="url(#mask0_6:11)">
<path d="M611.017 105.439C611.655 104.241 611.204 102.764 610.005 102.126L600.495 97.0565L554.547 123.043L541.769 147.008L544.088 148.236L607.235 112.515L611.017 105.439Z" fill="url(#paint1_linear_6:11)"/>
</g>
<mask id="mask1_6:11" style="mask-type:alpha" maskUnits="userSpaceOnUse" x="547" y="117" width="58" height="38">
<path d="M554.937 154.037L598.129 129.621L604.589 117.507L547.232 149.931L554.937 154.037Z" fill="url(#paint2_linear_6:11)"/>
</mask>
<g mask="url(#mask1_6:11)">
<path d="M554.937 154.037L598.129 129.621L604.589 117.507L547.232 149.931L554.937 154.037Z" fill="url(#paint3_linear_6:11)"/>
</g>
<path d="M694.861 130.807L643.86 114.322L620.15 187.545L671.151 204.031L694.861 130.807Z" fill="#FFDCD1"/>
<path d="M688.845 135.611L645.397 121.567L644.122 125.503L687.571 139.547L688.845 135.611Z" fill="white"/>
<path d="M677.495 138.949L652.661 130.921L651.387 134.857L676.221 142.884L677.495 138.949Z" fill="white"/>
<path d="M675.565 153.244C675.518 153.244 675.471 153.244 675.425 153.228L639.003 141.456C638.754 141.378 638.629 141.114 638.707 140.865C638.785 140.616 639.049 140.492 639.299 140.569L675.72 152.342C675.969 152.42 676.094 152.684 676.016 152.933C675.938 153.119 675.767 153.244 675.565 153.244Z" fill="white"/>
<path d="M674.413 156.805C674.366 156.805 674.32 156.805 674.273 156.789L637.851 145.017C637.602 144.939 637.477 144.675 637.555 144.426C637.633 144.177 637.898 144.053 638.147 144.131L674.569 155.903C674.818 155.981 674.942 156.245 674.864 156.494C674.787 156.681 674.615 156.805 674.413 156.805Z" fill="white"/>
<path d="M673.261 160.366C673.214 160.366 673.168 160.366 673.121 160.351L636.699 148.578C636.45 148.501 636.326 148.236 636.403 147.987C636.481 147.739 636.746 147.614 636.995 147.692L673.417 159.464C673.666 159.542 673.79 159.806 673.713 160.055C673.635 160.242 673.448 160.366 673.261 160.366Z" fill="white"/>
<path d="M659.082 159.713C659.035 159.713 658.988 159.713 658.941 159.698L635.532 152.124C635.283 152.046 635.158 151.782 635.236 151.533C635.314 151.284 635.578 151.16 635.812 151.238L659.222 158.811C659.471 158.889 659.595 159.153 659.517 159.402C659.455 159.589 659.284 159.713 659.082 159.713Z" fill="white"/>
<path d="M641.913 186.508C641.867 186.508 641.82 186.508 641.773 186.493L626.053 181.407C625.804 181.33 625.679 181.065 625.757 180.816C625.835 180.568 626.099 180.443 626.348 180.521L642.069 185.606C642.318 185.684 642.443 185.948 642.365 186.197C642.303 186.384 642.116 186.508 641.913 186.508Z" fill="white"/>
<path d="M635.143 188.266C635.096 188.266 635.049 188.266 635.003 188.25L624.901 184.984C624.652 184.906 624.527 184.642 624.605 184.393C624.683 184.144 624.948 184.02 625.197 184.098L635.298 187.364C635.547 187.441 635.672 187.706 635.594 187.955C635.516 188.126 635.345 188.266 635.143 188.266Z" fill="white"/>
<path d="M716.281 174.103L674.174 140.96L626.508 201.416L668.615 234.558L716.281 174.103Z" fill="white"/>
<path d="M668.607 235.06C668.514 235.06 668.405 235.029 668.327 234.966L626.224 201.826C626.131 201.749 626.068 201.64 626.053 201.515C626.037 201.391 626.068 201.267 626.146 201.173L673.822 140.725C673.977 140.523 674.273 140.492 674.475 140.647L716.578 173.787C716.672 173.865 716.734 173.974 716.75 174.098C716.765 174.223 716.734 174.347 716.656 174.44L668.981 234.889C668.887 234.998 668.747 235.06 668.607 235.06ZM627.158 201.375L668.545 233.956L715.644 174.223L674.257 141.642L627.158 201.375Z" fill="#FFDCD1"/>
<path d="M708.979 176.517L673.107 148.283L670.545 151.532L706.417 179.767L708.979 176.517Z" fill="#FFDCD1"/>
<path d="M697.142 175.717L676.639 159.578L674.077 162.828L694.58 178.966L697.142 175.717Z" fill="#FFDCD1"/>
<path d="M690.538 188.468C690.445 188.468 690.336 188.437 690.258 188.374L660.187 164.705C659.984 164.55 659.953 164.254 660.109 164.052C660.265 163.85 660.56 163.819 660.763 163.974L690.834 187.644C691.036 187.799 691.068 188.095 690.912 188.297C690.818 188.406 690.678 188.468 690.538 188.468Z" fill="#FFDCD1"/>
<path d="M688.219 191.407C688.126 191.407 688.017 191.376 687.939 191.314L657.868 167.644C657.665 167.489 657.634 167.193 657.79 166.991C657.945 166.789 658.241 166.758 658.443 166.913L688.515 190.583C688.717 190.738 688.748 191.034 688.593 191.236C688.499 191.345 688.359 191.407 688.219 191.407Z" fill="#FFDCD1"/>
<path d="M685.9 194.346C685.807 194.346 685.698 194.315 685.62 194.253L655.548 170.584C655.346 170.428 655.315 170.133 655.47 169.93C655.626 169.728 655.922 169.697 656.124 169.853L686.196 193.522C686.398 193.677 686.429 193.973 686.273 194.175C686.18 194.3 686.04 194.346 685.9 194.346Z" fill="#FFDCD1"/>
<path d="M672.825 188.825C672.732 188.825 672.623 188.794 672.545 188.732L653.229 173.523C653.027 173.367 652.996 173.072 653.151 172.87C653.307 172.668 653.603 172.636 653.805 172.792L673.121 188.001C673.323 188.157 673.355 188.452 673.199 188.654C673.106 188.763 672.965 188.825 672.825 188.825Z" fill="#FFDCD1"/>
<path d="M647.423 208.016C647.33 208.016 647.221 207.985 647.143 207.923L634.162 197.705C633.96 197.55 633.929 197.254 634.084 197.052C634.24 196.85 634.536 196.819 634.738 196.974L647.719 207.192C647.922 207.347 647.953 207.643 647.797 207.845C647.704 207.954 647.564 208.016 647.423 208.016Z" fill="#FFDCD1"/>
<path d="M640.466 207.301C640.372 207.301 640.264 207.269 640.186 207.207L631.843 200.644C631.641 200.489 631.609 200.194 631.765 199.991C631.921 199.789 632.216 199.758 632.419 199.914L640.762 206.476C640.964 206.632 640.995 206.927 640.839 207.129C640.746 207.238 640.606 207.301 640.466 207.301Z" fill="#FFDCD1"/>
<path d="M354.214 12.3836L310.62 26.1316L330.396 88.7283L373.989 74.9803L354.214 12.3836Z" fill="white"/>
<path d="M330.412 89.1874C330.335 89.1874 330.272 89.1719 330.195 89.1408C330.086 89.0786 330.008 88.9853 329.961 88.8764L310.194 26.2819C310.116 26.0331 310.256 25.7843 310.489 25.7065L354.087 11.9591C354.211 11.928 354.336 11.928 354.445 11.9902C354.554 12.0524 354.631 12.1457 354.678 12.2545L374.446 74.849C374.523 75.0979 374.383 75.3467 374.15 75.4244L330.552 89.1719C330.506 89.1874 330.459 89.1874 330.412 89.1874ZM311.221 26.4374L330.708 88.1455L373.418 74.678L353.931 12.9699L311.221 26.4374Z" fill="#FFDCD1"/>
<path d="M352.406 18.6802L315.27 30.392L316.333 33.7584L353.47 22.0466L352.406 18.6802Z" fill="#FFDCD1"/>
<path d="M346.166 26.6316L324.941 33.3254L326.005 36.6918L347.23 29.998L346.166 26.6316Z" fill="#FFDCD1"/>
<path d="M320.529 47.463C320.326 47.463 320.155 47.3386 320.093 47.1364C320.015 46.8876 320.155 46.6387 320.389 46.561L351.518 36.748C351.768 36.6703 352.017 36.8102 352.094 37.0435C352.172 37.2923 352.032 37.5412 351.799 37.6189L320.669 47.4319C320.622 47.4474 320.575 47.463 320.529 47.463Z" fill="#FFDCD1"/>
<path d="M321.494 50.4955C321.291 50.4955 321.12 50.3711 321.058 50.1689C320.98 49.9201 321.12 49.6713 321.354 49.5935L352.483 39.7806C352.733 39.7028 352.982 39.8428 353.059 40.076C353.137 40.3249 352.997 40.5737 352.764 40.6514L321.634 50.4644C321.587 50.4955 321.54 50.4955 321.494 50.4955Z" fill="#FFDCD1"/>
<path d="M322.443 53.5436C322.241 53.5436 322.07 53.4192 322.007 53.217C321.93 52.9682 322.07 52.7193 322.303 52.6416L353.433 42.8286C353.682 42.7509 353.931 42.8908 354.009 43.1241C354.087 43.3729 353.947 43.6218 353.713 43.6995L322.583 53.5125C322.537 53.5436 322.49 53.5436 322.443 53.5436Z" fill="#FFDCD1"/>
<path d="M323.408 56.5916C323.206 56.5916 323.035 56.4672 322.972 56.2651C322.895 56.0162 323.035 55.7674 323.268 55.6897L343.269 49.3758C343.518 49.298 343.767 49.438 343.845 49.6713C343.923 49.9201 343.783 50.1689 343.549 50.2467L323.548 56.5605C323.502 56.5761 323.455 56.5916 323.408 56.5916Z" fill="#FFDCD1"/>
<path d="M331.315 81.6139C331.113 81.6139 330.942 81.4895 330.879 81.2873C330.802 81.0385 330.942 80.7897 331.175 80.7119L344.623 76.4664C344.872 76.3886 345.121 76.5286 345.199 76.7618C345.277 77.0107 345.137 77.2595 344.903 77.3372L331.455 81.5828C331.409 81.6139 331.362 81.6139 331.315 81.6139Z" fill="#FFDCD1"/>
<path d="M332.28 84.662C332.078 84.662 331.907 84.5376 331.844 84.3354C331.767 84.0866 331.907 83.8378 332.14 83.76L340.779 81.0385C341.028 80.9607 341.277 81.1007 341.355 81.334C341.432 81.5828 341.292 81.8316 341.059 81.9094L332.42 84.6309C332.374 84.662 332.327 84.662 332.28 84.662Z" fill="#FFDCD1"/>
<path d="M438.911 61.6255C446.169 38.6141 433.383 14.0806 410.351 6.82833C387.32 -0.423941 362.765 12.3513 355.507 35.3627C348.248 58.374 361.034 82.9076 384.066 90.1598C407.097 97.4121 431.652 84.6368 438.911 61.6255Z" fill="white"/>
<path d="M397.186 92.6399C372.827 92.6399 352.997 72.8429 352.997 48.4894C352.997 24.1514 372.811 4.33887 397.186 4.33887C421.561 4.33887 441.375 24.1358 441.375 48.4894C441.375 72.8429 421.561 92.6399 397.186 92.6399ZM397.186 5.2875C373.34 5.2875 353.931 24.6801 353.931 48.5049C353.931 72.3297 373.34 91.7223 397.186 91.7223C421.031 91.7223 440.441 72.3297 440.441 48.5049C440.456 24.6646 421.047 5.2875 397.186 5.2875Z" fill="#112633"/>
<path d="M398.369 51.6463C398.151 51.6463 397.949 51.5686 397.777 51.4286L376.765 33.9643C376.376 33.6378 376.313 33.0468 376.64 32.658C376.967 32.2692 377.559 32.207 377.948 32.5336L398.431 49.5624L413.965 39.2207C414.385 38.9408 414.961 39.0496 415.257 39.4851C415.537 39.905 415.428 40.4804 414.992 40.7759L398.883 51.5063C398.727 51.5997 398.54 51.6463 398.369 51.6463Z" fill="#112633"/>
<path d="M398.369 53.7613C400.14 53.7613 401.575 52.327 401.575 50.5577C401.575 48.7884 400.14 47.3541 398.369 47.3541C396.598 47.3541 395.163 48.7884 395.163 50.5577C395.163 52.327 396.598 53.7613 398.369 53.7613Z" fill="#2E6589"/>
<path d="M397.186 17.4487C396.937 17.4487 396.719 17.2465 396.719 16.9822V9.09758C396.719 8.84876 396.921 8.63104 397.186 8.63104C397.435 8.63104 397.653 8.83321 397.653 9.09758V16.9822C397.653 17.231 397.451 17.4487 397.186 17.4487Z" fill="#112633"/>
<path d="M397.186 88.3632C396.937 88.3632 396.719 88.1611 396.719 87.8967V80.0121C396.719 79.7633 396.921 79.5456 397.186 79.5456C397.435 79.5456 397.653 79.7477 397.653 80.0121V87.8967C397.653 88.1611 397.451 88.3632 397.186 88.3632Z" fill="#112633"/>
<path d="M436.628 48.9714H428.736C428.487 48.9714 428.269 48.7693 428.269 48.5049C428.269 48.2561 428.472 48.0384 428.736 48.0384H436.628C436.877 48.0384 437.095 48.2405 437.095 48.5049C437.095 48.7537 436.877 48.9714 436.628 48.9714Z" fill="#112633"/>
<path d="M365.651 48.9714H357.76C357.511 48.9714 357.293 48.7693 357.293 48.5049C357.293 48.2561 357.495 48.0384 357.76 48.0384H365.651C365.9 48.0384 366.118 48.2405 366.118 48.5049C366.103 48.7537 365.9 48.9714 365.651 48.9714Z" fill="#112633"/>
<path d="M422.292 23.887C422.168 23.887 422.059 23.8404 421.965 23.7471C421.779 23.5604 421.779 23.2805 421.965 23.0939L424.752 20.3102C424.938 20.1236 425.218 20.1236 425.405 20.3102C425.592 20.4968 425.592 20.7767 425.405 20.9633L422.619 23.7471C422.526 23.8404 422.401 23.887 422.292 23.887Z" fill="#112633"/>
<path d="M369.309 76.8241C369.185 76.8241 369.076 76.7774 368.982 76.6841C368.796 76.4975 368.796 76.2176 368.982 76.0309L371.768 73.2472C371.955 73.0606 372.235 73.0606 372.422 73.2472C372.609 73.4338 372.609 73.7138 372.422 73.9004L369.636 76.6841C369.543 76.7774 369.434 76.8241 369.309 76.8241Z" fill="#112633"/>
<path d="M425.078 76.8241C424.954 76.8241 424.845 76.7774 424.752 76.6841L421.965 73.9004C421.779 73.7138 421.779 73.4338 421.965 73.2472C422.152 73.0606 422.432 73.0606 422.619 73.2472L425.405 76.0309C425.592 76.2176 425.592 76.4975 425.405 76.6841C425.312 76.7774 425.187 76.8241 425.078 76.8241Z" fill="#112633"/>
<path d="M372.095 23.887C371.971 23.887 371.862 23.8404 371.768 23.7471L368.982 20.9633C368.796 20.7767 368.796 20.4968 368.982 20.3102C369.169 20.1236 369.449 20.1236 369.636 20.3102L372.422 23.0939C372.609 23.2805 372.609 23.5604 372.422 23.7471C372.329 23.8404 372.22 23.887 372.095 23.887Z" fill="#112633"/>
<path d="M413.28 84.9263C413.109 84.9263 412.938 84.8175 412.86 84.6464L411.257 81.054C411.148 80.8208 411.257 80.5408 411.49 80.4475C411.724 80.3387 412.004 80.4475 412.097 80.6808L413.7 84.2732C413.809 84.5065 413.7 84.7864 413.467 84.8797C413.405 84.9263 413.342 84.9263 413.28 84.9263Z" fill="#112633"/>
<path d="M382.711 16.5934C382.539 16.5934 382.368 16.4845 382.29 16.3134L380.687 12.7211C380.578 12.4878 380.687 12.2079 380.921 12.1146C381.154 12.0057 381.434 12.1146 381.528 12.3478L383.131 15.9402C383.24 16.1735 383.131 16.4534 382.897 16.5467C382.835 16.5778 382.773 16.5934 382.711 16.5934Z" fill="#112633"/>
<path d="M434.028 63.0299C433.966 63.0299 433.919 63.0144 433.857 62.9988L430.168 61.5992C429.935 61.5059 429.81 61.2415 429.903 61.0082C429.997 60.775 430.261 60.6506 430.495 60.7439L434.184 62.1435C434.417 62.2368 434.542 62.5012 434.448 62.7344C434.386 62.9211 434.215 63.0299 434.028 63.0299Z" fill="#112633"/>
<path d="M364.033 36.3126C363.97 36.3126 363.924 36.297 363.861 36.2815L360.173 34.8819C359.939 34.7885 359.815 34.5242 359.908 34.2909C360.001 34.0576 360.266 33.9332 360.499 34.0265L364.188 35.4262C364.422 35.5195 364.546 35.7838 364.453 36.0171C364.406 36.1882 364.219 36.3126 364.033 36.3126Z" fill="#112633"/>
<path d="M429.592 34.4931C429.421 34.4931 429.25 34.3842 429.172 34.2131C429.063 33.9799 429.172 33.7 429.405 33.6066L433.001 32.0048C433.234 31.896 433.515 32.0048 433.608 32.2381C433.717 32.4714 433.608 32.7513 433.374 32.8446L429.779 34.4464C429.717 34.4775 429.654 34.4931 429.592 34.4931Z" fill="#112633"/>
<path d="M361.2 65.0516C361.029 65.0516 360.857 64.9428 360.78 64.7717C360.671 64.5384 360.78 64.2585 361.013 64.1652L364.609 62.5634C364.842 62.4545 365.122 62.5634 365.216 62.7967C365.325 63.03 365.216 63.3099 364.982 63.4032L361.387 65.005C361.324 65.0361 361.262 65.0516 361.2 65.0516Z" fill="#112633"/>
<path d="M409.856 15.8469C409.794 15.8469 409.747 15.8314 409.685 15.8158C409.451 15.7225 409.327 15.4581 409.42 15.2249L410.821 11.5392C410.914 11.3059 411.179 11.1815 411.412 11.2748C411.646 11.3681 411.77 11.6325 411.677 11.8658L410.292 15.5515C410.214 15.7225 410.043 15.8469 409.856 15.8469Z" fill="#112633"/>
<path d="M383.115 85.7661C383.053 85.7661 383.006 85.7506 382.944 85.735C382.711 85.6417 382.586 85.3773 382.679 85.1441L384.08 81.4584C384.174 81.2251 384.438 81.1007 384.672 81.194C384.905 81.2873 385.03 81.5517 384.936 81.785L383.536 85.4706C383.473 85.6573 383.302 85.7661 383.115 85.7661Z" fill="#112633"/>
<path d="M506.716 112.484C508.693 104.408 503.742 96.2605 495.659 94.2859C487.576 92.3113 479.421 97.2577 477.445 105.334C475.468 113.41 480.419 121.558 488.502 123.532C496.585 125.507 504.74 120.561 506.716 112.484Z" fill="#81AC60"/>
<path d="M493.471 115.905C493.284 115.905 493.097 115.889 492.91 115.843L483.354 113.494C482.108 113.183 481.346 111.939 481.657 110.695C481.968 109.451 483.213 108.689 484.459 109L491.774 110.788L494.405 100.089C494.716 98.8449 495.961 98.0828 497.206 98.3939C498.451 98.7049 499.214 99.949 498.903 101.193L495.728 114.132C495.463 115.205 494.514 115.905 493.471 115.905Z" fill="white"/>
<path d="M261.724 82.2826C261.911 83.62 260.962 84.8486 259.623 85.0352C258.285 85.2218 257.055 84.2732 256.868 82.9358C256.681 81.5984 257.631 80.3698 258.969 80.1832C260.324 79.9966 261.553 80.9452 261.724 82.2826Z" fill="white"/>
<path d="M260.448 77.695L256.884 78.177L254.393 64.5073L259.25 63.8542L260.448 77.695Z" fill="white"/>
<path d="M28.2815 267.904C27.5344 267.904 26.7717 267.718 26.0713 267.345L2.39701 254.421C0.17122 253.208 -0.653722 250.394 0.560343 248.17L1.64989 246.195C2.24136 245.122 3.22195 244.328 4.40488 243.986C5.58782 243.644 6.83301 243.769 7.92256 244.36L29.122 255.93C29.3399 256.054 29.4333 256.334 29.3088 256.552C29.1843 256.77 28.9041 256.863 28.6862 256.739L7.47117 245.153C6.59954 244.686 5.60338 244.577 4.66949 244.857C3.72003 245.137 2.94178 245.759 2.47483 246.63L1.38528 248.605C0.404694 250.394 1.07399 252.633 2.84839 253.613L26.5227 266.536C28.3126 267.5 30.554 266.847 31.5346 265.074L32.1105 264.032C33.0911 262.244 32.4218 260.004 30.6474 259.025L18.5534 252.415C16.7634 251.435 14.5221 252.104 13.5415 253.877C12.5609 255.665 13.2302 257.905 15.0046 258.885L24.6393 264.141C24.8572 264.265 24.9506 264.545 24.8261 264.763C24.7016 264.981 24.4214 265.074 24.2035 264.95L14.5688 259.693C12.343 258.48 11.5181 255.665 12.7321 253.442C13.9462 251.202 16.7634 250.378 18.9892 251.607L31.0832 258.216C33.309 259.429 34.1339 262.244 32.9198 264.468L32.3439 265.51C31.5034 267.049 29.9158 267.904 28.2815 267.904Z" fill="#FAA88D"/>
<path d="M54.773 246.303C54.3372 246.303 53.8858 246.257 53.45 246.164C51.8779 245.821 50.5393 244.873 49.6833 243.52L30.3361 213.101C28.5617 210.302 29.3866 206.585 32.1883 204.812L34.7409 203.195C36.0951 202.34 37.7138 202.044 39.2703 202.402C40.8424 202.744 42.181 203.693 43.037 205.046L60.3608 232.276C60.5009 232.494 60.4386 232.774 60.2207 232.914C60.0028 233.054 59.7226 232.991 59.5826 232.774L42.2588 205.543C41.5272 204.392 40.391 203.599 39.068 203.304C37.745 203.008 36.3753 203.242 35.239 203.973L32.6864 205.59C30.3205 207.098 29.6201 210.24 31.1143 212.604L50.4615 243.022C51.1931 244.173 52.3293 244.966 53.6523 245.262C54.9753 245.557 56.3451 245.324 57.4813 244.593L58.8199 243.737C61.1858 242.229 61.8862 239.088 60.3919 236.724L50.5082 221.172C49.7767 220.022 48.6404 219.228 47.3174 218.933C45.9944 218.638 44.6247 218.871 43.4884 219.602C42.3366 220.333 41.5428 221.468 41.2471 222.79C40.9513 224.112 41.1848 225.48 41.9164 226.615L49.7767 238.979C49.9167 239.196 49.8545 239.476 49.6366 239.616C49.4187 239.756 49.1385 239.694 48.9984 239.476L41.1381 227.113C40.2821 225.76 40.0019 224.143 40.3443 222.588C40.6867 221.017 41.6362 219.679 42.9904 218.824C44.3445 217.969 45.9633 217.689 47.5197 218.031C49.0918 218.373 50.4304 219.322 51.2865 220.675L61.1702 236.226C62.9446 239.025 62.1197 242.742 59.318 244.515L57.9794 245.37C57.0144 245.992 55.9092 246.303 54.773 246.303Z" fill="#522D34"/>
<path d="M696.826 289.35C696.468 289.35 696.095 289.303 695.737 289.194L694.834 288.93C692.857 288.339 691.737 286.24 692.328 284.264L698.507 263.845C698.803 262.881 699.441 262.104 700.329 261.622C701.216 261.155 702.227 261.046 703.177 261.342L704.889 261.855C706.866 262.446 707.987 264.545 707.395 266.52L701.869 284.793C701.792 285.042 701.543 285.182 701.294 285.104C701.138 285.058 701.029 284.949 700.982 284.793L700.406 286.675C700.111 287.639 699.473 288.417 698.585 288.899C698.041 289.194 697.434 289.35 696.826 289.35ZM702.103 262.088C701.652 262.088 701.185 262.197 700.78 262.43C700.111 262.788 699.628 263.379 699.41 264.094L693.231 284.513C692.78 286.006 693.62 287.577 695.114 288.028L696.017 288.292C696.733 288.51 697.496 288.432 698.165 288.075C698.834 287.717 699.317 287.126 699.535 286.411L702.694 275.976C703.146 274.483 702.305 272.912 700.811 272.461C700.095 272.243 699.332 272.321 698.663 272.679C697.994 273.036 697.511 273.627 697.293 274.343L694.787 282.647C694.71 282.896 694.461 283.036 694.212 282.958C693.963 282.88 693.822 282.632 693.9 282.383L696.406 274.078C696.702 273.114 697.34 272.337 698.227 271.854C699.115 271.388 700.126 271.279 701.076 271.575C702.803 272.103 703.877 273.752 703.722 275.478L706.523 266.24C706.975 264.747 706.134 263.177 704.64 262.726L702.928 262.213C702.648 262.135 702.368 262.088 702.103 262.088Z" fill="#522D34"/>
<path d="M718.913 307.825C718.898 307.825 718.866 307.825 718.851 307.825C717.559 307.809 716.345 307.281 715.442 306.363L714.571 305.461C713.668 304.528 713.17 303.315 713.185 302.009C713.201 300.718 713.73 299.505 714.648 298.603L735.085 278.697C736.019 277.795 737.249 277.344 738.541 277.329C739.832 277.344 741.046 277.873 741.949 278.79L743.615 280.501C744.517 281.434 745.016 282.647 745 283.953C744.984 285.244 744.455 286.457 743.537 287.359L725.248 305.181C725.061 305.368 724.766 305.352 724.594 305.166C724.423 304.979 724.423 304.684 724.61 304.512L742.899 286.691C743.646 285.96 744.066 284.98 744.082 283.938C744.097 282.896 743.693 281.901 742.961 281.154L741.296 279.444C740.564 278.697 739.583 278.277 738.541 278.262C737.498 278.246 736.502 278.65 735.754 279.381L715.318 299.287C714.571 300.018 714.15 300.998 714.135 302.04C714.119 303.082 714.524 304.077 715.255 304.823L716.127 305.725C716.859 306.472 717.839 306.892 718.882 306.907C719.925 306.892 720.921 306.534 721.668 305.788L732.112 295.617C732.859 294.886 733.28 293.906 733.295 292.864C733.311 291.823 732.906 290.827 732.174 290.081C731.443 289.334 730.462 288.914 729.42 288.899C728.377 288.883 727.38 289.288 726.633 290.019L718.322 298.105C718.135 298.292 717.839 298.276 717.668 298.09C717.497 297.903 717.497 297.608 717.684 297.437L725.995 289.35C726.929 288.448 728.159 287.981 729.451 287.966C730.743 287.981 731.957 288.51 732.859 289.428C733.762 290.361 734.26 291.574 734.245 292.88C734.229 294.171 733.7 295.384 732.782 296.286L722.337 306.456C721.388 307.327 720.189 307.809 718.913 307.825Z" fill="#FAA88D"/>
<path d="M429.826 150.864C428.861 150.864 427.896 150.46 427.211 149.682L414.339 134.986C413.078 133.54 413.218 131.347 414.665 130.088L415.895 129.015C416.595 128.408 417.483 128.097 418.417 128.159C419.335 128.222 420.191 128.641 420.798 129.341L432.316 142.498C432.487 142.684 432.472 142.98 432.269 143.151C432.176 143.229 432.067 143.244 431.958 143.26L433.079 144.535C434.339 145.981 434.184 148.174 432.752 149.434L432.098 149.994C431.46 150.584 430.635 150.864 429.826 150.864ZM426.728 147.707L427.911 149.06C428.83 150.118 430.448 150.227 431.507 149.294L432.16 148.734C433.219 147.816 433.328 146.199 432.394 145.141L425.81 137.63C424.892 136.573 423.273 136.464 422.214 137.397C421.156 138.314 421.047 139.932 421.981 140.989L427.211 146.961C427.382 147.148 427.366 147.443 427.164 147.614C427.04 147.723 426.884 147.754 426.728 147.707ZM418.183 129.077C417.56 129.077 416.985 129.295 416.518 129.699L415.288 130.772C414.23 131.689 414.121 133.307 415.055 134.364L420.891 141.036C420.082 139.636 420.362 137.801 421.623 136.697C422.79 135.671 424.471 135.577 425.732 136.355L420.113 129.932C419.662 129.419 419.039 129.108 418.37 129.061C418.292 129.077 418.245 129.077 418.183 129.077Z" fill="#FAA88D"/>
<path d="M260.993 183.305C260.868 183.305 260.759 183.258 260.666 183.165L252.883 175.389C252.79 175.296 252.743 175.187 252.743 175.062C252.743 174.938 252.79 174.829 252.883 174.736L260.666 166.96C260.853 166.774 261.133 166.774 261.32 166.96L269.102 174.736C269.289 174.922 269.289 175.202 269.102 175.389L261.32 183.165C261.242 183.258 261.117 183.305 260.993 183.305ZM253.864 175.062L260.993 182.185L268.122 175.062L260.993 167.94L253.864 175.062Z" fill="#FAA88D"/>
<path d="M608.962 178.484C608.838 178.484 608.729 178.437 608.636 178.344L605.087 174.798C604.9 174.611 604.9 174.332 605.087 174.145L608.636 170.599C608.822 170.413 609.103 170.413 609.289 170.599L612.838 174.145C613.025 174.332 613.025 174.611 612.838 174.798L609.289 178.344C609.196 178.437 609.071 178.484 608.962 178.484ZM606.067 174.471L608.947 177.348L611.826 174.471L608.947 171.594L606.067 174.471Z" fill="#FAA88D"/>
<path d="M496.35 192.247C496.226 192.247 496.117 192.2 496.023 192.107L489.253 185.342C489.066 185.155 489.066 184.875 489.253 184.689L496.023 177.924C496.21 177.737 496.49 177.737 496.677 177.924L503.448 184.689C503.635 184.875 503.635 185.155 503.448 185.342L496.677 192.107C496.599 192.2 496.475 192.247 496.35 192.247ZM490.233 185.015L496.35 191.127L502.467 185.015L496.35 178.904L490.233 185.015Z" fill="#FAA88D"/>
<path d="M36.4998 90.5249C36.3753 90.5249 36.2663 90.4782 36.1729 90.3849L29.1998 83.4179C29.013 83.2313 29.013 82.9513 29.1998 82.7647C29.3866 82.5781 29.6668 82.5781 29.8536 82.7647L36.8266 89.7318C37.0134 89.9184 37.0134 90.1983 36.8266 90.3849C36.7488 90.4782 36.6243 90.5249 36.4998 90.5249Z" fill="#FAA88D"/>
<path d="M29.5267 90.5249C29.4022 90.5249 29.2932 90.4782 29.1998 90.3849C29.013 90.1983 29.013 89.9184 29.1998 89.7318L36.1729 82.7647C36.3597 82.5781 36.6399 82.5781 36.8266 82.7647C37.0134 82.9513 37.0134 83.2313 36.8266 83.4179L29.8536 90.3849C29.7602 90.4782 29.6512 90.5249 29.5267 90.5249Z" fill="#FAA88D"/>
<path d="M82.9608 415.674C82.8363 415.674 82.7273 415.627 82.6339 415.534L75.6608 408.567C75.4741 408.38 75.4741 408.101 75.6608 407.914C75.8476 407.727 76.1278 407.727 76.3146 407.914L83.2876 414.881C83.4744 415.068 83.4744 415.348 83.2876 415.534C83.1943 415.627 83.0697 415.674 82.9608 415.674Z" fill="#FAA88D"/>
<path d="M75.9724 415.674C75.8479 415.674 75.739 415.627 75.6456 415.534C75.4588 415.348 75.4588 415.068 75.6456 414.881L82.6187 407.914C82.8055 407.727 83.0856 407.727 83.2724 407.914C83.4592 408.101 83.4592 408.38 83.2724 408.567L76.2993 415.534C76.2059 415.627 76.097 415.674 75.9724 415.674Z" fill="#FAA88D"/>
<path d="M505.72 16.4845C505.595 16.4845 505.486 16.4379 505.393 16.3446L498.42 9.37753C498.233 9.19092 498.233 8.91099 498.42 8.72437C498.607 8.53776 498.887 8.53776 499.074 8.72437L506.047 15.6914C506.234 15.878 506.234 16.158 506.047 16.3446C505.953 16.4379 505.829 16.4845 505.72 16.4845Z" fill="#FAA88D"/>
<path d="M498.732 16.4845C498.607 16.4845 498.498 16.4379 498.405 16.3446C498.218 16.158 498.218 15.878 498.405 15.6914L505.378 8.72437C505.565 8.53776 505.845 8.53776 506.032 8.72437C506.218 8.91099 506.218 9.19092 506.032 9.37753L499.058 16.3446C498.981 16.4379 498.856 16.4845 498.732 16.4845Z" fill="#FAA88D"/>
<path d="M341.697 189.51C341.572 189.51 341.464 189.463 341.37 189.37L327.377 175.389C327.191 175.202 327.191 174.922 327.377 174.736C327.564 174.549 327.844 174.549 328.031 174.736L342.024 188.717C342.211 188.903 342.211 189.183 342.024 189.37C341.946 189.463 341.822 189.51 341.697 189.51Z" fill="#FAA88D"/>
<path d="M327.704 189.51C327.58 189.51 327.471 189.463 327.377 189.37C327.191 189.183 327.191 188.903 327.377 188.717L341.37 174.736C341.557 174.549 341.837 174.549 342.024 174.736C342.211 174.922 342.211 175.202 342.024 175.389L328.031 189.37C327.938 189.463 327.829 189.51 327.704 189.51Z" fill="#FAA88D"/>
<path d="M731.521 374.058C731.396 374.058 731.287 374.012 731.194 373.918L723.489 366.221C723.302 366.034 723.302 365.754 723.489 365.567C723.676 365.381 723.956 365.381 724.143 365.567L731.848 373.265C732.034 373.452 732.034 373.732 731.848 373.918C731.77 374.012 731.645 374.058 731.521 374.058Z" fill="#FAA88D"/>
<path d="M723.816 374.058C723.692 374.058 723.583 374.012 723.489 373.918C723.302 373.732 723.302 373.452 723.489 373.265L731.194 365.567C731.381 365.381 731.661 365.381 731.848 365.567C732.034 365.754 732.034 366.034 731.848 366.221L724.143 373.918C724.05 374.012 723.941 374.058 723.816 374.058Z" fill="#FAA88D"/>
<path d="M614.846 252.68C611.391 252.68 608.589 249.88 608.589 246.428C608.589 242.976 611.391 240.176 614.846 240.176C618.301 240.176 621.103 242.976 621.103 246.428C621.103 249.88 618.286 252.68 614.846 252.68ZM614.846 241.109C611.904 241.109 609.523 243.504 609.523 246.428C609.523 249.367 611.92 251.747 614.846 251.747C617.772 251.747 620.169 249.352 620.169 246.428C620.169 243.504 617.772 241.109 614.846 241.109Z" fill="#FAA88D"/>
<path d="M201.69 256.863C194.64 256.863 188.912 251.14 188.912 244.095C188.912 237.05 194.64 231.327 201.69 231.327C208.741 231.327 214.469 237.05 214.469 244.095C214.454 251.124 208.726 256.863 201.69 256.863ZM201.69 232.245C195.153 232.245 189.846 237.548 189.846 244.08C189.846 250.611 195.153 255.914 201.69 255.914C208.228 255.914 213.535 250.611 213.535 244.08C213.535 237.564 208.212 232.245 201.69 232.245Z" fill="#FAA88D"/>
<path d="M671.767 421.008C664.716 421.008 658.988 415.285 658.988 408.241C658.988 401.196 664.716 395.473 671.767 395.473C678.818 395.473 684.546 401.196 684.546 408.241C684.546 415.285 678.818 421.008 671.767 421.008ZM671.767 396.39C665.23 396.39 659.922 401.693 659.922 408.225C659.922 414.757 665.23 420.06 671.767 420.06C678.304 420.06 683.612 414.757 683.612 408.225C683.612 401.693 678.304 396.39 671.767 396.39Z" fill="#FAA88D"/>
<path d="M152.941 191.251L64.2054 150.398L38.4921 171.859C36.0951 173.865 35.706 177.846 37.636 180.754L75.1008 237.221C75.6145 237.983 76.3771 238.45 77.1865 238.481L134.995 240.534L214.983 173.787C216.321 172.667 217.178 170.957 217.364 169.013L152.941 191.251Z" fill="#1B3C51"/>
<path d="M156.77 169.542L118.511 111.893C116.908 109.466 113.982 108.86 111.974 110.524L38.9746 171.439C36.9823 173.103 36.6554 176.431 38.2586 178.857L75.8946 235.573C76.2837 236.164 76.8908 236.522 77.5289 236.537L135.119 237.657L217.349 169.028L156.77 169.542Z" fill="#2E6589"/>
<path d="M151.307 168.329L77.1398 230.208L40.7179 175.327L114.885 113.448L151.307 168.329Z" fill="white"/>
<path d="M159.867 210.364L145.734 210.084C145.548 210.084 145.376 209.96 145.299 209.773C145.236 209.587 145.283 209.384 145.439 209.26L164.77 193.118C164.848 193.055 164.957 193.009 165.066 193.009L179.666 192.884C179.837 192.838 180.04 193.009 180.102 193.18C180.164 193.366 180.117 193.569 179.962 193.693L160.148 210.224C160.085 210.333 159.976 210.364 159.867 210.364ZM147.011 209.198L159.712 209.447L178.39 193.849L165.253 193.957L147.011 209.198Z" fill="#1B3C51"/>
<path d="M111.927 234.002L83.1012 233.66C82.9144 233.66 82.7276 233.536 82.6654 233.349C82.6031 233.163 82.6498 232.96 82.8055 232.836L154.809 172.745C154.887 172.683 154.996 172.636 155.105 172.636L184.569 172.45C184.756 172.45 184.943 172.574 185.005 172.761C185.067 172.947 185.02 173.15 184.865 173.274L112.223 233.909C112.145 233.971 112.036 234.002 111.927 234.002ZM84.3619 232.758L111.756 233.085L183.277 173.398L155.276 173.569L84.3619 232.758Z" fill="#1B3C51"/>
<path d="M86.8056 233.707C86.6655 233.707 86.541 233.645 86.4476 233.536C86.2764 233.334 86.3076 233.054 86.5099 232.883L158.747 172.59C158.949 172.419 159.229 172.45 159.4 172.652C159.572 172.854 159.541 173.134 159.338 173.305L87.1014 233.598C87.008 233.676 86.899 233.707 86.8056 233.707Z" fill="#1B3C51"/>
<path d="M92.16 233.831C92.0199 233.831 91.8954 233.769 91.802 233.66C91.6308 233.458 91.6619 233.178 91.8642 233.007L164.101 172.714C164.303 172.543 164.584 172.574 164.755 172.776C164.926 172.979 164.895 173.258 164.693 173.43L92.4557 233.722C92.3779 233.8 92.2689 233.831 92.16 233.831Z" fill="#1B3C51"/>
<path d="M97.7167 233.676C97.5766 233.676 97.4521 233.614 97.3587 233.505C97.1875 233.303 97.2186 233.023 97.4209 232.852L169.658 172.559C169.86 172.388 170.14 172.419 170.312 172.621C170.483 172.823 170.452 173.103 170.249 173.274L98.0124 233.567C97.9346 233.629 97.8256 233.676 97.7167 233.676Z" fill="#1B3C51"/>
<path d="M102.775 233.66C102.635 233.66 102.511 233.598 102.417 233.489C102.246 233.287 102.277 233.007 102.48 232.836L174.716 172.543C174.919 172.372 175.199 172.403 175.37 172.605C175.541 172.807 175.51 173.087 175.308 173.258L103.071 233.551C102.978 233.629 102.869 233.66 102.775 233.66Z" fill="#1B3C51"/>
<path d="M107.772 233.707C107.632 233.707 107.507 233.645 107.414 233.536C107.242 233.334 107.274 233.054 107.476 232.883L179.713 172.59C179.915 172.419 180.195 172.45 180.366 172.652C180.538 172.854 180.507 173.134 180.304 173.305L108.067 233.598C107.974 233.66 107.865 233.707 107.772 233.707Z" fill="#1B3C51"/>
<path d="M116.021 230.597L91.1638 230.068C90.9148 230.068 90.6969 229.85 90.7124 229.601C90.7124 229.352 90.9304 229.104 91.1794 229.15L116.037 229.679C116.286 229.679 116.488 229.897 116.488 230.146C116.488 230.394 116.286 230.597 116.021 230.597Z" fill="#1B3C51"/>
<path d="M120.986 226.444L96.129 225.916C95.88 225.916 95.6621 225.698 95.6776 225.449C95.6776 225.2 95.8956 224.951 96.1446 224.998L121.002 225.527C121.251 225.527 121.453 225.745 121.453 225.993C121.453 226.258 121.235 226.444 120.986 226.444Z" fill="#1B3C51"/>
<path d="M125.951 222.308C125.936 222.308 125.936 222.308 125.951 222.308L101.094 221.779C100.845 221.779 100.643 221.561 100.643 221.312C100.643 221.064 100.861 220.815 101.11 220.861L125.967 221.39C126.216 221.39 126.418 221.608 126.418 221.857C126.403 222.105 126.2 222.308 125.951 222.308Z" fill="#1B3C51"/>
<path d="M130.901 218.171L106.044 217.642C105.795 217.642 105.577 217.425 105.593 217.176C105.593 216.927 105.795 216.678 106.059 216.725L130.917 217.253C131.166 217.253 131.368 217.471 131.368 217.72C131.368 217.969 131.15 218.171 130.901 218.171Z" fill="#1B3C51"/>
<path d="M135.866 214.034C135.866 214.034 135.851 214.034 135.866 214.034L111.009 213.506C110.76 213.506 110.558 213.288 110.558 213.039C110.558 212.79 110.76 212.541 111.025 212.588L135.882 213.117C136.131 213.117 136.333 213.334 136.333 213.583C136.318 213.832 136.115 214.034 135.866 214.034Z" fill="#1B3C51"/>
<path d="M140.832 209.898C140.816 209.898 140.816 209.898 140.832 209.898L115.974 209.369C115.725 209.369 115.523 209.151 115.523 208.902C115.523 208.654 115.725 208.405 115.99 208.451L140.847 208.98C141.096 208.98 141.298 209.198 141.298 209.447C141.283 209.695 141.081 209.898 140.832 209.898Z" fill="#1B3C51"/>
<path d="M145.781 205.761L120.924 205.232C120.675 205.232 120.473 205.014 120.473 204.766C120.473 204.517 120.675 204.268 120.94 204.315L145.797 204.843C146.046 204.843 146.248 205.061 146.248 205.31C146.248 205.559 146.03 205.761 145.781 205.761Z" fill="#1B3C51"/>
<path d="M150.746 201.624C150.746 201.624 150.731 201.624 150.746 201.624L125.889 201.096C125.64 201.096 125.438 200.878 125.438 200.629C125.438 200.38 125.656 200.131 125.905 200.178L150.762 200.707C151.011 200.707 151.213 200.924 151.213 201.173C151.198 201.422 150.995 201.624 150.746 201.624Z" fill="#1B3C51"/>
<path d="M155.696 197.472L130.839 196.943C130.59 196.943 130.387 196.726 130.387 196.477C130.387 196.228 130.605 195.979 130.854 196.026L155.712 196.554C155.961 196.554 156.163 196.772 156.163 197.021C156.163 197.285 155.961 197.472 155.696 197.472Z" fill="#1B3C51"/>
<path d="M160.661 193.335L135.804 192.807C135.555 192.807 135.353 192.589 135.353 192.34C135.353 192.091 135.571 191.842 135.82 191.889L160.677 192.418C160.926 192.418 161.128 192.636 161.128 192.884C161.113 193.133 160.91 193.335 160.661 193.335Z" fill="#1B3C51"/>
<path d="M165.626 189.199C165.611 189.199 165.611 189.199 165.626 189.199L140.769 188.67C140.52 188.67 140.318 188.452 140.318 188.203C140.318 187.955 140.536 187.706 140.785 187.752L165.642 188.281C165.891 188.281 166.093 188.499 166.093 188.748C166.078 188.996 165.875 189.199 165.626 189.199Z" fill="#1B3C51"/>
<path d="M170.576 185.062L145.719 184.533C145.47 184.533 145.268 184.316 145.268 184.067C145.268 183.818 145.485 183.631 145.734 183.616L170.592 184.144C170.841 184.144 171.043 184.362 171.043 184.611C171.043 184.86 170.825 185.062 170.576 185.062Z" fill="#1B3C51"/>
<path d="M175.541 180.925C175.541 180.925 175.526 180.925 175.541 180.925L150.684 180.397C150.435 180.397 150.217 180.179 150.233 179.93C150.233 179.681 150.451 179.495 150.7 179.479L175.557 180.008C175.806 180.008 176.008 180.225 176.008 180.474C175.993 180.723 175.79 180.925 175.541 180.925Z" fill="#1B3C51"/>
<path d="M180.491 176.789L155.634 176.26C155.385 176.26 155.182 176.042 155.182 175.793C155.182 175.545 155.4 175.358 155.649 175.342L180.507 175.871C180.756 175.871 180.958 176.089 180.958 176.338C180.958 176.586 180.756 176.789 180.491 176.789Z" fill="#1B3C51"/>
<path d="M79.1321 233.769C78.992 233.769 78.8675 233.707 78.7741 233.598C78.6029 233.396 78.6341 233.116 78.8364 232.945L153.533 170.615C153.735 170.444 154.015 170.475 154.186 170.677C154.357 170.879 154.326 171.159 154.124 171.33L79.4279 233.66C79.3345 233.738 79.2411 233.769 79.1321 233.769Z" fill="#1B3C51"/>
<path d="M123.835 146.23L109.842 157.909C108.472 159.044 108.254 161.315 109.359 162.963L114.838 171.221C115.928 172.87 117.935 173.29 119.29 172.154L133.283 160.475C134.652 159.34 134.87 157.069 133.765 155.421L128.286 147.163C127.197 145.515 125.189 145.095 123.835 146.23Z" fill="#FFDCD1"/>
<path d="M134.45 158.111L124.224 157.629L126.994 145.981C126.714 145.826 126.418 145.717 126.123 145.655L122.527 160.771L108.705 160.071C108.659 160.382 108.643 160.677 108.674 161.004L119.367 161.548L116.83 172.714C117.142 172.792 117.453 172.823 117.764 172.792L120.301 161.595L122.854 161.719C122.87 161.719 122.87 161.719 122.885 161.719C123.103 161.719 123.29 161.579 123.337 161.362L124.006 158.547L134.248 159.029C134.341 158.733 134.419 158.438 134.45 158.111Z" fill="#522D34"/>
<path d="M121.298 182.512L101.826 198.763C100.798 199.618 100.643 201.313 101.468 202.557C102.293 203.801 103.787 204.112 104.814 203.257L124.286 187.006C125.313 186.151 125.469 184.455 124.644 183.211C123.819 181.983 122.325 181.672 121.298 182.512Z" fill="#FFDCD1"/>
<path d="M113.391 117.538L44.0955 175.373C43.5663 175.824 43.4729 176.711 43.9087 177.348C44.3445 178.002 45.1227 178.157 45.652 177.706L114.947 119.87C115.476 119.419 115.57 118.533 115.134 117.895C114.714 117.258 113.92 117.087 113.391 117.538Z" fill="#FFDCD1"/>
<path d="M105.297 185.917L73.5288 212.432L56.4073 186.633L88.1754 160.118L105.297 185.917Z" fill="#FAA88D"/>
<path d="M85.934 159.495L56.2361 184.284C55.7536 184.689 55.6758 185.497 56.0649 186.104L56.4229 186.633L88.1909 160.117L88.0664 159.931C87.5372 159.153 86.5877 158.951 85.934 159.495Z" fill="#FFDCD1"/>
<path d="M56.9054 184.969C57.0299 185.155 56.9988 185.389 56.8587 185.513C56.7031 185.637 56.5007 185.591 56.3762 185.404C56.2517 185.217 56.2828 184.984 56.4229 184.86C56.563 184.751 56.7809 184.798 56.9054 184.969Z" fill="#E50027"/>
<path d="M57.8704 184.16C57.9949 184.347 57.9638 184.58 57.8237 184.704C57.6681 184.829 57.4657 184.782 57.3412 184.595C57.2167 184.409 57.2478 184.176 57.3879 184.051C57.528 183.942 57.7459 183.989 57.8704 184.16Z" fill="#FFBC00"/>
<path d="M58.8354 183.351C58.96 183.538 58.9288 183.771 58.7888 183.896C58.6331 184.02 58.4308 183.973 58.3062 183.787C58.1817 183.6 58.2129 183.367 58.3529 183.242C58.5086 183.134 58.7265 183.18 58.8354 183.351Z" fill="#63990E"/>
<path d="M81.2645 206.445C81.1089 206.445 80.9688 206.367 80.8754 206.243L63.4271 179.961C63.287 179.743 63.3493 179.463 63.5516 179.323C63.7695 179.184 64.0497 179.246 64.1898 179.448L81.6381 205.73C81.7782 205.948 81.7159 206.227 81.5136 206.367C81.4357 206.43 81.3423 206.445 81.2645 206.445Z" fill="#FFDCD1"/>
<mask id="mask2_6:11" style="mask-type:alpha" maskUnits="userSpaceOnUse" x="75" y="122" width="30" height="109">
<path d="M104.129 122.421L83.2568 139.838L75.5055 227.735L77.1398 230.208L96.0045 214.485L104.129 122.421Z" fill="url(#paint4_linear_6:11)"/>
</mask>
<g mask="url(#mask2_6:11)">
<path d="M104.129 122.421L83.2568 139.838L75.5055 227.735L77.1398 230.208L96.0045 214.485L104.129 122.421Z" fill="url(#paint5_linear_6:11)"/>
</g>
<mask id="mask3_6:11" style="mask-type:alpha" maskUnits="userSpaceOnUse" x="100" y="113" width="16" height="99">
<path d="M107.056 205.248L115.118 113.805L114.885 113.448L108.223 119L100.098 211.064L107.056 205.248Z" fill="url(#paint6_linear_6:11)"/>
</mask>
<g mask="url(#mask3_6:11)">
<path d="M107.056 205.248L115.118 113.805L114.885 113.448L108.223 119L100.098 211.064L107.056 205.248Z" fill="url(#paint7_linear_6:11)"/>
</g>
<path d="M687.06 221.664L636.839 209.045L627.637 245.603L677.858 258.222L687.06 221.664Z" fill="#2E6589"/>
<path d="M655.424 241.156L637.477 209.182L636.855 209.027L636.684 209.68L650.583 234.422L627.796 244.997L627.656 245.573L628.372 245.759L651.05 235.231L654.863 242.027C654.926 242.136 655.035 242.213 655.159 242.245C655.19 242.26 655.237 242.26 655.268 242.26C655.361 242.26 655.439 242.229 655.517 242.182L662.148 237.983L677.168 258.014L677.884 258.2L678.024 257.625L662.926 237.501L686.912 222.292L687.083 221.639L686.46 221.483L655.424 241.156Z" fill="#1B3C51"/>
</g>
<defs>
<linearGradient id="paint0_linear_6:11" x1="512.998" y1="167.702" x2="600.299" y2="103.415" gradientUnits="userSpaceOnUse">
<stop/>
<stop offset="1" stop-color="white"/>
</linearGradient>
<linearGradient id="paint1_linear_6:11" x1="512.998" y1="167.702" x2="600.299" y2="103.415" gradientUnits="userSpaceOnUse">
<stop stop-color="white"/>
<stop offset="1" stop-color="white"/>
</linearGradient>
<linearGradient id="paint2_linear_6:11" x1="520.617" y1="178.048" x2="607.919" y2="113.761" gradientUnits="userSpaceOnUse">
<stop/>
<stop offset="1" stop-color="white"/>
</linearGradient>
<linearGradient id="paint3_linear_6:11" x1="520.617" y1="178.048" x2="607.919" y2="113.761" gradientUnits="userSpaceOnUse">
<stop stop-color="white"/>
<stop offset="1" stop-color="white"/>
</linearGradient>
<linearGradient id="paint4_linear_6:11" x1="90.029" y1="259.87" x2="89.6411" y2="108.304" gradientUnits="userSpaceOnUse">
<stop/>
<stop offset="1" stop-color="white"/>
</linearGradient>
<linearGradient id="paint5_linear_6:11" x1="90.029" y1="259.87" x2="89.6411" y2="108.304" gradientUnits="userSpaceOnUse">
<stop stop-color="white"/>
<stop offset="1" stop-color="white"/>
</linearGradient>
<linearGradient id="paint6_linear_6:11" x1="107.864" y1="260.72" x2="107.475" y2="108.57" gradientUnits="userSpaceOnUse">
<stop/>
<stop offset="1" stop-color="white"/>
</linearGradient>
<linearGradient id="paint7_linear_6:11" x1="107.864" y1="260.72" x2="107.475" y2="108.57" gradientUnits="userSpaceOnUse">
<stop stop-color="white"/>
<stop offset="1" stop-color="white"/>
</linearGradient>
<clipPath id="clip0_6:11">
<rect width="745" height="611" fill="white"/>
</clipPath>
</defs>
</svg>
