<svg width="152" height="40" viewBox="0 0 152 40" fill="none" xmlns="http://www.w3.org/2000/svg">
<path d="M35.5139 35.6H24.1868V33.4333H33.3484V25.0667H35.5139V35.6Z" fill="white"/>
<path d="M35.5139 13.9666H33.3484V6.2833H24.1868V4.1333H35.5139V13.9666Z" fill="white"/>
<path d="M6.21327 15.3H4.06445V4.1333H15.3916V6.2833H6.21327V15.3Z" fill="white"/>
<path d="M15.3916 35.5999H4.06445V24.3999H6.21327V33.4332H15.3916V35.5999Z" fill="white"/>
<path d="M19.7892 40C16.7575 40 14.3088 37.55 14.3088 34.5167C14.3088 31.4833 16.7575 29.0333 19.7892 29.0333C22.8208 29.0333 25.2695 31.4833 25.2695 34.5167C25.2528 37.55 22.8042 40 19.7892 40ZM19.7892 31.2C17.9568 31.2 16.4743 32.6833 16.4743 34.5167C16.4743 36.35 17.9568 37.8333 19.7892 37.8333C21.6215 37.8333 23.104 36.35 23.104 34.5167C23.104 32.6833 21.6215 31.2 19.7892 31.2Z" fill="white"/>
<path d="M10.361 24.95H0V14.5834H10.361V24.95ZM2.16548 22.8H8.19551V16.75H2.16548V22.8Z" fill="white"/>
<path d="M34.5478 27.1L27.2185 19.7833L34.5478 12.45L41.8605 19.7833L34.5478 27.1ZM30.2835 19.7666L34.5478 24.0333L38.8122 19.7666L34.5478 15.5L30.2835 19.7666Z" fill="white"/>
<path d="M22.8374 10.4167H16.824L13.8257 5.2L16.8407 0H22.8541L25.8524 5.2L22.8374 10.4167ZM18.0734 8.26667H21.5881L23.3538 5.21667L21.6048 2.16667H18.09L16.3243 5.2L18.0734 8.26667Z" fill="white"/>
<path d="M26.1689 25.6667H24.3365C24.0034 25.6667 23.7202 25.3833 23.7202 25.05C23.7202 24.7167 24.0034 24.4333 24.3365 24.4333H26.1689C26.502 24.4333 26.7852 24.7167 26.7852 25.05C26.7852 25.3833 26.5187 25.6667 26.1689 25.6667Z" fill="white"/>
<path d="M15.3417 15.2499H13.0763C12.7431 15.2499 12.46 14.9666 12.46 14.6333C12.46 14.2999 12.7431 14.0166 13.0763 14.0166H15.3417C15.6749 14.0166 15.958 14.2999 15.958 14.6333C15.958 14.9666 15.6749 15.2499 15.3417 15.2499Z" fill="white"/>
<path d="M26.169 15.2499H18.2567C17.9236 15.2499 17.6404 14.9666 17.6404 14.6333C17.6404 14.2999 17.9236 14.0166 18.2567 14.0166H26.169C26.5022 14.0166 26.7854 14.2999 26.7854 14.6333C26.7854 14.9666 26.5188 15.2499 26.169 15.2499Z" fill="white"/>
<path d="M26.1689 18.9333H21.1217C20.7885 18.9333 20.5054 18.65 20.5054 18.3166C20.5054 17.9833 20.7885 17.7 21.1217 17.7H26.1856C26.5187 17.7 26.8019 17.9833 26.8019 18.3166C26.8019 18.65 26.5187 18.9333 26.1689 18.9333Z" fill="white"/>
<path d="M18.0569 18.9333H13.0763C12.7431 18.9333 12.46 18.65 12.46 18.3166C12.46 17.9833 12.7431 17.7 13.0763 17.7H18.0569C18.39 17.7 18.6732 17.9833 18.6732 18.3166C18.6732 18.65 18.4067 18.9333 18.0569 18.9333Z" fill="white"/>
<path d="M22.1046 22.3H17.7737C17.4405 22.3167 17.1407 22.05 17.124 21.7167C17.1074 21.3833 17.3739 21.0833 17.707 21.0667C17.7237 21.0667 17.757 21.0667 17.7737 21.0667H22.1046C22.4378 21.05 22.7376 21.3167 22.7543 21.65C22.7709 21.9833 22.5044 22.2833 22.1713 22.3C22.1546 22.3 22.1213 22.3 22.1046 22.3Z" fill="white"/>
<path d="M18.3734 25.6667H13.0763C12.7431 25.6667 12.46 25.3833 12.46 25.05C12.46 24.7167 12.7431 24.4333 13.0763 24.4333H18.3734C18.7065 24.4333 18.9897 24.7167 18.9897 25.05C18.9897 25.3833 18.7232 25.6667 18.3734 25.6667Z" fill="white"/>
<path d="M21.9213 25.6667H21.1051C20.7719 25.6667 20.4888 25.3833 20.4888 25.05C20.4888 24.7167 20.7719 24.4333 21.1051 24.4333H21.9213C22.2545 24.4333 22.5376 24.7167 22.5376 25.05C22.5376 25.3833 22.2545 25.6667 21.9213 25.6667Z" fill="white"/>
<path d="M15.1417 22.3H13.0762C12.743 22.3167 12.4432 22.05 12.4265 21.7167C12.4099 21.3833 12.6764 21.0833 13.0095 21.0667C13.0262 21.0667 13.0595 21.0667 13.0762 21.0667H15.1417C15.4749 21.05 15.7747 21.3167 15.7913 21.65C15.808 21.9833 15.5415 22.2833 15.2083 22.3C15.175 22.3 15.1584 22.3 15.1417 22.3Z" fill="white"/>
<path d="M26.1689 22.3H24.803C24.4698 22.3167 24.17 22.05 24.1533 21.7167C24.1367 21.3833 24.4032 21.0833 24.7363 21.0667C24.753 21.0667 24.7863 21.0667 24.803 21.0667H26.1689C26.502 21.05 26.8019 21.3167 26.8185 21.65C26.8352 21.9833 26.5687 22.2833 26.2355 22.3C26.2189 22.3 26.2022 22.3 26.1689 22.3Z" fill="white"/>
<path d="M63.0322 7.34989H57.9183V19.0499H54.2204V7.34989H49.0898V3.96655H63.0322V7.34989Z" fill="white"/>
<path d="M63.5818 3.96655H75.5086V7.24989H67.2964V10.0832H75.2087V12.8999H67.2964V15.7499H75.4919V19.0332H63.5818V3.96655Z" fill="white"/>
<path d="M76.408 11.5167C76.408 6.75006 79.5229 3.4834 84.0538 3.4834C87.2187 3.4834 90.4336 4.9834 91.0333 9.65007H87.5019C86.9688 7.80007 85.7029 6.9834 84.0538 6.9834C81.8217 6.9834 80.1059 8.8334 80.1059 11.5167C80.1059 14.2001 81.8217 16.0501 84.0538 16.0501C85.7029 16.0501 86.9688 15.2001 87.5019 13.3334H91.0333C90.4169 18.0167 87.2354 19.5501 84.0538 19.5501C79.5063 19.5501 76.408 16.2667 76.408 11.5167Z" fill="white"/>
<path d="M106.125 3.96655V19.0332H102.411V13.1999H96.0474V19.0499H92.3328V3.96655H96.0474V9.81655H102.411V3.96655H106.125Z" fill="white"/>
<path d="M59.8005 33.3667H53.2874L52.5212 35.7167H48.6899L53.9537 20.65H59.1509L64.4147 35.7167H60.5834L59.8005 33.3667ZM58.8177 30.3334L56.8854 24.45H56.2191L54.2702 30.3334H58.8177Z" fill="white"/>
<path d="M63.532 28.1834C63.532 23.4167 66.6469 20.15 71.1778 20.15C74.3427 20.15 77.5576 21.65 78.1573 26.3167H74.6092C74.0762 24.4667 72.8102 23.65 71.1611 23.65C68.929 23.65 67.2133 25.5 67.2133 28.1834C67.2133 30.8667 68.929 32.7167 71.1611 32.7167C72.8102 32.7167 74.0762 31.8667 74.6092 30H78.1573C77.541 34.6834 74.3594 36.2167 71.1778 36.2167C66.6469 36.2167 63.532 32.9334 63.532 28.1834Z" fill="white"/>
<path d="M88.3183 33.3667H81.8052L81.039 35.7167H77.2078L82.4715 20.65H87.6687L92.9325 35.7167H89.1012L88.3183 33.3667ZM87.3355 30.3334L85.4033 24.45H84.7203L82.788 30.3334H87.3355Z" fill="white"/>
<path d="M106.792 28.1833C106.792 32.4666 104.776 35.7166 99.3123 35.7166H92.7659V20.65H99.3123C104.793 20.6333 106.792 23.8666 106.792 28.1833ZM103.077 28.1833C103.077 25.4333 101.711 24.0333 99.3289 24.0333H96.5138L96.4972 32.3H99.3289C101.711 32.3 103.077 30.9 103.077 28.1833Z" fill="white"/>
<path d="M108.357 20.6333H120.284V23.9166H112.088V26.75H120.001V29.5666H112.088V32.4166H120.284V35.7H108.357V20.6333Z" fill="white"/>
<path d="M121.35 20.6333H126.081L129.113 30.5333H129.396L132.427 20.6333H137.158V35.7H133.61V27.4333H133.294L130.695 35.7H127.847L125.248 27.4333H124.931V35.7H121.367V20.6333H121.35Z" fill="white"/>
<path d="M146.303 30.9334V35.7H142.588V30.9L136.892 20.6167H140.823L144.271 27H144.621L148.085 20.6167H152L146.303 30.9334Z" fill="white"/>
</svg>
