<svg width="148" height="124" viewBox="0 0 148 124" fill="none" xmlns="http://www.w3.org/2000/svg">
<path fill-rule="evenodd" clip-rule="evenodd" d="M61.6711 48.4434H64.8681V52.047H61.6711V48.4434ZM56.1953 52.7051H59.8675V57.1395H56.1953V52.7051ZM56.1953 42.8007H59.241V46.879H56.1953V42.8007ZM67.3954 62.3075V66.1053C67.3954 67.1087 66.5746 67.9287 65.5701 67.9287H55.3636C54.3592 67.9287 53.5383 67.1087 53.5383 66.1053V63.408C57.6101 63.6453 62.3516 63.3001 67.3954 62.3075ZM55.3744 40.0602H65.5809C66.5854 40.0602 67.4062 40.8802 67.4062 41.8836V59.4052C62.4488 60.6891 57.6533 61.4444 53.5599 61.3473V41.8728C53.5599 40.8802 54.37 40.0602 55.3744 40.0602Z" fill="#252767"/>
<path fill-rule="evenodd" clip-rule="evenodd" d="M78.8116 30.1989L79.0169 30.7599L79.6865 30.6305L79.2221 31.062L79.6865 31.4936L79.0169 31.3641L78.8116 31.9252L78.6064 31.3641L77.9368 31.4936L78.4012 31.062L77.9368 30.6305L78.6064 30.7599L78.8116 30.1989ZM82.2678 24.7072L82.5054 25.3654L83.2831 25.2143L82.743 25.7214L83.2831 26.2285L82.5054 26.0774L82.2678 26.7356L82.0302 26.0774L81.2526 26.2285L81.7926 25.7214L81.2526 25.2143L82.0302 25.3654L82.2678 24.7072ZM76.6407 9.82894L77.1268 11.3394L78.7252 10.9942L77.6128 12.1594L78.7252 13.3246L77.1268 12.9794L76.6407 14.4899L76.1547 12.9794L74.5562 13.3246L75.6687 12.1594L74.5562 10.9942L76.1547 11.3394L76.6407 9.82894ZM85.8644 0L72.2125 11.2639L72.1477 19.345L76.3491 22.1825L76.8459 65.6845H73.0658V65.8463H81.1338V44.6996C81.1338 43.8364 81.8358 43.1351 82.6998 43.1351H85.8644V0Z" fill="#252767"/>
<path fill-rule="evenodd" clip-rule="evenodd" d="M70.8841 23.6715L71.2837 24.8798L72.569 24.5993L71.6833 25.538L72.569 26.4766L71.2837 26.1961L70.8841 27.4045L70.4952 26.1961L69.21 26.4766L70.0956 25.538L69.21 24.5993L70.4952 24.8798L70.8841 23.6715ZM64.4145 32.9286L64.6629 33.6838L65.4622 33.5112L64.9114 34.0938L65.4622 34.6764L64.6629 34.5038L64.4145 35.259L64.1661 34.5038L63.3669 34.6764L63.9177 34.0938L63.3669 33.5112L64.1661 33.6838L64.4145 32.9286ZM60.8828 13.6267L75.0963 23.1212L75.5931 63.9906L68.4539 64.3251L68.4431 40.7291C68.4431 39.6718 67.5791 38.8087 66.5206 38.8087H60.8936V13.6267H60.8828Z" fill="#2C2F81"/>
<path fill-rule="evenodd" clip-rule="evenodd" d="M60.8828 14.3604L75.6579 64.5193L60.8828 64.0445V14.3604Z" fill="#222360"/>
<path fill-rule="evenodd" clip-rule="evenodd" d="M88.3269 55.3809H91.3187V58.9089H88.3269V55.3809ZM83.4127 46.879H86.1236V49.9971H83.4127V46.879ZM83.8771 59.416H86.7717V62.8685H83.8771V59.416ZM82.2354 53.989L82.3866 45.6382C82.3974 44.7751 83.0887 44.0738 83.9527 44.0738H92.712C93.576 44.0738 94.3428 44.7751 94.278 45.6382L94.0944 47.85C90.7787 50.0618 86.6961 52.0038 82.2354 53.989ZM73.9946 63.9906C76.846 63.9906 79.6433 64.1093 82.3866 64.3359V57.83C86.3936 56.2548 90.4222 54.3235 94.2672 51.993V65.1235C94.2672 65.4471 94.17 65.7492 93.9972 65.9974C106.418 68.576 116.873 73.4851 123.753 79.8075C111.689 73.6253 93.8676 69.7089 73.9946 69.7089C54.1216 69.7089 36.3007 73.6253 24.2365 79.8075C34.5834 70.3131 52.9983 63.9906 73.9946 63.9906Z" fill="#2C2F82"/>
<path fill-rule="evenodd" clip-rule="evenodd" d="M58.863 36.1977C21.9575 58.4665 46.1508 69.1802 74.8479 60.4518C84.8816 57.3984 96.1033 52.3707 104.582 44.0738C110.976 37.8161 99.9915 31.0512 97.2698 31.5475C97.1618 29.0445 95.0557 27.0485 92.4744 27.0485C90.6923 27.0485 89.137 27.9979 88.3053 29.4113L91.1783 29.4221L94.2673 31.7418L91.1783 33.878L88.1865 33.8672C88.975 35.3993 90.6059 36.4458 92.4744 36.4458C94.3321 36.4458 95.9521 35.4101 96.7514 33.8996C99.0303 34.2772 100.834 36.7803 101.903 38.5497C107.109 47.1595 54.262 71.5646 43.375 58.5852C41.4633 56.3087 41.0097 52.8022 43.0726 49.5763C48.3217 41.3441 59.1222 38.1937 59.2411 37.3737C59.3491 36.5969 58.9062 36.1329 58.863 36.1977Z" fill="#2D3083"/>
<path d="M140.31 97.5881V88.9244H145.289C146.132 88.9244 146.79 89.1294 147.276 89.5501C147.762 89.9709 148 90.5427 148 91.2656C148 92.0209 147.762 92.6251 147.298 93.089C146.834 93.5529 146.207 93.7903 145.429 93.7903H141.39V97.5881H140.31ZM141.379 92.7761H145.213C145.753 92.7761 146.175 92.6574 146.445 92.4093C146.726 92.1719 146.866 91.8159 146.866 91.3519C146.866 90.8988 146.726 90.5428 146.445 90.2946C146.164 90.0357 145.775 89.917 145.257 89.917H141.379V92.7761ZM131.886 88.9244V94.5347C131.886 95.4303 132.058 96.0344 132.393 96.3473C132.728 96.6494 133.398 96.8005 134.38 96.8005C135.374 96.8005 136.033 96.6494 136.368 96.3473C136.703 96.0344 136.865 95.441 136.865 94.5347V88.9244H137.945V94.8261C137.945 95.8942 137.664 96.6602 137.113 97.1241C136.562 97.5881 135.644 97.8147 134.37 97.8147C133.095 97.8147 132.188 97.5881 131.626 97.1241C131.076 96.6602 130.795 95.8942 130.795 94.8261V88.9244H131.886ZM124.628 97.8147C123.332 97.8147 122.251 97.3831 121.409 96.5307C120.567 95.6784 120.145 94.5887 120.145 93.2724C120.145 91.9561 120.567 90.8664 121.42 90.0141C122.262 89.1617 123.342 88.7302 124.628 88.7302C125.924 88.7302 127.004 89.1617 127.857 90.0141C128.71 90.8664 129.131 91.9561 129.131 93.2724C129.131 94.5887 128.71 95.6676 127.857 96.5307C127.015 97.3831 125.934 97.8147 124.628 97.8147ZM124.638 96.8005C125.61 96.8005 126.42 96.466 127.058 95.8079C127.695 95.1389 128.019 94.2974 128.019 93.2832C128.019 92.2582 127.695 91.4167 127.069 90.7477C126.431 90.0788 125.621 89.7551 124.649 89.7551C123.677 89.7551 122.867 90.0896 122.23 90.7585C121.593 91.4275 121.269 92.269 121.269 93.2832C121.269 94.3082 121.593 95.1497 122.23 95.8079C122.856 96.466 123.666 96.8005 124.638 96.8005ZM111.181 97.5881V88.9244H116.16C117.002 88.9244 117.672 89.1402 118.147 89.5609C118.622 89.9817 118.871 90.5751 118.871 91.3304C118.871 91.9561 118.687 92.4956 118.309 92.9379C117.931 93.3803 117.434 93.6608 116.819 93.7687L118.99 97.5773H117.802L115.631 93.7795H112.261V97.5773H111.181V97.5881ZM112.261 92.7761H116.095C116.635 92.7761 117.056 92.6574 117.326 92.4093C117.607 92.1719 117.748 91.8159 117.748 91.3519C117.748 90.8988 117.607 90.5428 117.326 90.2946C117.046 90.0357 116.657 89.917 116.138 89.917H112.261V92.7761ZM107.93 95.236V93.9737H105.565V92.9811H109.01V95.5813C108.589 96.3042 108.049 96.8544 107.368 97.2428C106.699 97.6204 105.932 97.8147 105.079 97.8147C103.783 97.8147 102.713 97.3831 101.86 96.5307C101.018 95.6784 100.596 94.5887 100.596 93.2724C100.596 91.9561 101.018 90.8664 101.871 90.0141C102.724 89.1617 103.793 88.7302 105.079 88.7302C105.878 88.7302 106.612 88.9028 107.271 89.2588C107.93 89.6149 108.47 90.1112 108.88 90.7585L107.984 91.4059C107.714 90.888 107.314 90.478 106.807 90.1867C106.299 89.8954 105.716 89.7443 105.089 89.7443C104.117 89.7443 103.307 90.0788 102.67 90.7477C102.033 91.4167 101.709 92.2582 101.709 93.2724C101.709 94.2974 102.033 95.1389 102.67 95.7971C103.307 96.466 104.117 96.7897 105.089 96.7897C105.694 96.7897 106.234 96.6602 106.709 96.4013C107.174 96.1423 107.584 95.7539 107.93 95.236ZM86.2748 97.5881V88.9244H91.2539C92.0963 88.9244 92.766 89.1402 93.2412 89.5609C93.7164 89.9817 93.9648 90.5751 93.9648 91.3304C93.9648 91.9561 93.7812 92.4956 93.4032 92.9379C93.0252 93.3803 92.5284 93.6608 91.9127 93.7687L94.0836 97.5773H92.8848L90.7139 93.7795H87.3441V97.5773H86.2748V97.5881ZM87.3441 92.7761H91.1783C91.7183 92.7761 92.1395 92.6574 92.4095 92.4093C92.6904 92.1719 92.8308 91.8159 92.8308 91.3519C92.8308 90.8988 92.6904 90.5428 92.4095 90.2946C92.1287 90.0357 91.7399 89.917 91.2323 89.917H87.3441V92.7761ZM75.5607 97.5881L79.8161 88.9244H80.7125L85.0112 97.5881H83.8339L82.6566 95.2576H77.8612L76.7163 97.5881H75.5607ZM78.358 94.2434H82.1814L80.2589 90.4025L78.358 94.2434ZM68.8211 97.5881V88.9244H69.9012V96.5955H75.5607V97.5881H68.8211ZM58.9062 97.5881V88.9244H59.9971V92.3445H65.1165V88.9244H66.1966V97.5881H65.1165V93.3479H59.9971V97.5881H58.9062ZM48.4729 96.2826L49.0993 95.3547C49.715 95.8294 50.3522 96.1855 51.011 96.4444C51.6699 96.6926 52.3287 96.822 52.9767 96.822C53.776 96.822 54.4348 96.6494 54.9316 96.315C55.4284 95.9697 55.6769 95.5381 55.6769 95.0095C55.6769 94.5887 55.4932 94.2434 55.1368 93.9629C54.7804 93.6932 54.2836 93.5314 53.6464 93.4774C53.4951 93.4666 53.2791 93.445 52.9875 93.4342C51.5619 93.3371 50.5898 93.1645 50.0714 92.9272C49.6718 92.7329 49.3585 92.4848 49.1533 92.1719C48.9481 91.859 48.8401 91.5246 48.8401 91.1362C48.8401 90.4349 49.1533 89.863 49.7798 89.4099C50.4062 88.9567 51.2162 88.7302 52.2099 88.7302C52.9335 88.7302 53.6464 88.8488 54.3484 89.0862C55.0504 89.3236 55.7201 89.6796 56.3573 90.1436L55.7309 91.039C55.1908 90.6075 54.6292 90.2838 54.046 90.068C53.4519 89.8522 52.8471 89.7443 52.2315 89.7443C51.5727 89.7443 51.0434 89.8738 50.6114 90.1328C50.1902 90.3917 49.9742 90.7046 49.9742 91.093C49.9742 91.244 50.0066 91.3843 50.0714 91.503C50.1362 91.6325 50.2442 91.7511 50.3846 91.859C50.741 92.1288 51.5078 92.2906 52.6959 92.3661C53.2359 92.3985 53.668 92.4309 53.9596 92.4632C54.8344 92.5603 55.5365 92.8408 56.0549 93.3048C56.5625 93.7687 56.8217 94.3405 56.8217 95.0203C56.8217 95.8294 56.4653 96.4984 55.7633 97.0163C55.0612 97.5341 54.1324 97.8039 52.9875 97.8039C52.1235 97.8039 51.3242 97.6744 50.579 97.4262C49.8446 97.1889 49.1425 96.8005 48.4729 96.2826ZM38.5364 97.5881L42.7918 88.9244H43.6882L47.9869 97.5881H46.8204L45.6431 95.2576H40.8477L39.7028 97.5881H38.5364ZM41.3337 94.2434H45.1571L43.2346 90.4025L41.3337 94.2434ZM33.6761 88.9244C35.037 88.9244 36.1387 89.3236 36.9703 90.1328C37.8019 90.9419 38.2232 91.9885 38.2232 93.2832C38.2232 94.5887 37.8127 95.6352 36.9919 96.4121C36.1711 97.1997 35.0586 97.5881 33.6761 97.5881H29.9607V88.9244H33.6761ZM33.6761 89.917H31.03V96.5847H33.6761C34.7454 96.5847 35.5878 96.2826 36.1927 95.6892C36.8083 95.085 37.1107 94.2758 37.1107 93.2616C37.1107 92.2582 36.7975 91.449 36.1711 90.8341C35.5554 90.2299 34.7238 89.917 33.6761 89.917ZM20.2942 97.5881V88.9244H25.2733C26.1157 88.9244 26.7854 89.1402 27.2606 89.5609C27.7358 89.9817 27.9842 90.5751 27.9842 91.3304C27.9842 91.9561 27.8006 92.4956 27.4226 92.9379C27.0446 93.3803 26.5478 93.6608 25.9321 93.7687L28.103 97.5773H26.915L24.7441 93.7795H21.3743V97.5773H20.2942V97.5881ZM21.3743 92.7761H25.2085C25.7485 92.7761 26.1697 92.6574 26.4398 92.4093C26.7206 92.1719 26.861 91.8159 26.861 91.3519C26.861 90.8988 26.7206 90.5428 26.4398 90.2946C26.1589 90.0357 25.7701 89.917 25.2517 89.917H21.3743V92.7761ZM9.59089 97.5881L13.8463 88.9244H14.7428L19.0414 97.5881H17.8641L16.6869 95.2576H11.8914L10.7466 97.5881H9.59089ZM12.3882 94.2434H16.2008L14.2783 90.4025L12.3882 94.2434ZM5.06546 97.7823C4.97906 97.7931 4.88185 97.8039 4.78465 97.8039C4.68744 97.8147 4.55783 97.8147 4.38503 97.8147C3.14296 97.8147 2.09531 97.3831 1.25286 96.52C0.421222 95.6568 0 94.5779 0 93.2724C0 91.9561 0.421222 90.8664 1.27447 90.0141C2.11691 89.1617 3.19696 88.7302 4.48223 88.7302C5.7783 88.7302 6.85835 89.1617 7.7116 90.0141C8.56484 90.8664 8.98606 91.9561 8.98606 93.2724C8.98606 94.2542 8.73765 95.1174 8.24082 95.8618C7.744 96.6063 7.05276 97.1673 6.14552 97.5341L6.72875 98.7209H5.52988L5.06546 97.7823ZM4.60104 96.7789L4.07181 95.6676H5.28147L5.71349 96.5847C6.39393 96.315 6.92316 95.8942 7.30118 95.3116C7.67919 94.7289 7.8736 94.0492 7.8736 93.2724C7.8736 92.2474 7.54959 91.4059 6.91235 90.737C6.27512 90.068 5.46508 89.7336 4.49303 89.7336C3.52098 89.7336 2.71094 90.068 2.07371 90.737C1.43647 91.4059 1.11246 92.2474 1.11246 93.2616C1.11246 94.2758 1.42567 95.1174 2.06291 95.7755C2.68934 96.4336 3.48858 96.7681 4.46063 96.7681H4.60104V96.7789Z" fill="#2C2F82"/>
<path d="M116.873 123.838H120.988V122.608H118.298V121.044H120.88V119.814H118.298V118.239H120.988V117.009H116.873V123.838ZM112.293 118.249H113.136C113.471 118.249 114.551 118.282 114.551 119.264C114.551 120.245 113.46 120.278 113.136 120.278H112.293V118.249ZM110.868 123.838H112.283V121.324H112.304L114.291 123.838H116.041L113.892 121.324C115.145 121.216 115.966 120.278 115.966 119.188C115.966 118.53 115.663 117.019 113.082 117.019H110.868V123.838ZM104.247 117.019V121.27C104.247 123.514 105.791 124 106.861 124C108.265 124 109.474 123.212 109.474 121.27V117.019H108.06V121.324C108.06 121.864 108.006 122.781 106.882 122.781C105.748 122.781 105.683 121.875 105.683 121.324V117.019H104.247ZM100.661 123.838H102.076V118.249H103.491V117.019H99.2355V118.249H100.65V123.838H100.661ZM93.2628 117.019V121.27C93.2628 123.514 94.8073 124 95.8765 124C97.2806 124 98.4903 123.212 98.4903 121.27V117.019H97.0754V121.324C97.0754 121.864 97.0214 122.781 95.8981 122.781C94.7641 122.781 94.6993 121.875 94.6993 121.324V117.019H93.2628ZM88.2945 123.838H89.7094V121.044H92.0747V119.814H89.7094V118.239H92.1827V117.009H88.2837V123.838H88.2945ZM80.0537 122.608V118.249H80.6801C81.4578 118.249 83.4559 118.314 83.4559 120.472C83.4559 122.533 81.5334 122.619 80.7557 122.619H80.0537V122.608ZM78.6388 123.838H80.7882C84.6656 123.838 84.8708 121.195 84.8708 120.472C84.8708 119.145 84.2767 117.03 80.7557 117.03H78.628V123.838H78.6388ZM74.081 123.838H77.8396V122.608H75.4959V117.019H74.081V123.838ZM71.2081 123.838H72.6229V117.019H71.2081V123.838ZM64.5549 117.019V121.27C64.5549 123.514 66.0994 124 67.1686 124C68.5727 124 69.7824 123.212 69.7824 121.27V117.019H68.3675V121.324C68.3675 121.864 68.3135 122.781 67.1903 122.781C66.0562 122.781 65.9914 121.875 65.9914 121.324V117.019H64.5549ZM59.9647 119.652V118.249H60.6235C60.9367 118.249 61.628 118.282 61.628 118.951C61.628 119.123 61.5524 119.652 60.6235 119.652H59.9647ZM59.9647 122.608V120.871H60.8827C61.9952 120.871 62.0924 121.497 62.0924 121.756C62.0924 122.608 61.0447 122.608 60.8827 122.608H59.9647ZM58.5498 123.838H60.4615C62.9132 123.838 63.5181 122.748 63.5181 121.767C63.5181 121.001 63.0428 120.364 62.2112 120.116C62.4164 120.019 63.0536 119.663 63.0536 118.821C63.0536 117.03 60.8719 117.03 60.3967 117.03H58.5498V123.838ZM50.7518 123.838H54.8668V122.608H52.1667V121.044H54.748V119.814H52.1667V118.239H54.856V117.009H50.741V123.838H50.7518ZM43.0078 123.838H44.1419L45.3947 119.339L46.6476 123.838H47.7709L49.9958 117.019H48.5485L47.2092 121.788L45.9024 117.019H44.8655L43.5586 121.788L42.2194 117.019H40.7721L43.0078 123.838Z" fill="#2C2F82"/>
</svg>
