<svg xmlns="http://www.w3.org/2000/svg" width="211" height="398.105" viewBox="0 0 211 398.105">
  <g id="Group_102" data-name="Group 102" transform="translate(-1043 -274.895)">
    <g id="Group_100" data-name="Group 100">
      <g id="Group_99" data-name="Group 99">
        <ellipse id="Ellipse_2" data-name="Ellipse 2" cx="82" cy="20.5" rx="82" ry="20.5" transform="translate(1043 632)" fill="#fff" opacity="0.15"/>
        <g id="Group_14" data-name="Group 14" transform="translate(2194.28 1630.784)">
          <path id="Path_28" data-name="Path 28" d="M-1065.177-1220.671l.92-31.292.165-5.314c-20.308-25.815-12.077-71.867-12.077-71.867l-4.151-1.262s52.648-9.508,50.95,43.263l.047,35.18S-1000.122-1203.732-1065.177-1220.671Z" transform="translate(47.61 25.708)" fill="#272324"/>
          <g id="Group_11" data-name="Group 11" transform="translate(-1126.28 -1355.89)">
            <g id="Group_10" data-name="Group 10" transform="translate(14.432)">
              <path id="Path_29" data-name="Path 29" d="M-1054.857-1222.73c-2.712.346-5.9-3.115-6.509-8.978-.071-2.423-.473-4.866-.543-7.289,0,0-2.24-10.464-6.58-34.264l14.671-2.585,1.346,36.85.8,7.105C-1051.365-1226.964-1052.332-1223.035-1054.857-1222.73Z" transform="translate(1171.714 1438.808)" fill="#ffa7ac"/>
              <path id="Path_30" data-name="Path 30" d="M-1093.854-1272.78l-7.525,36.85c-.069,2.423-.165,4.866-.234,7.289-.615,5.863-4.931,9.324-7.643,8.978-2.5-.305-5.118-4.051-4.813-8.978-12.028,10.75.9-7.289.9-7.289s3.371-18.3,6.863-42.876Z" transform="translate(1119.191 1435.742)" fill="#ffa7ac"/>
              <path id="Path_31" data-name="Path 31" d="M-1007.851-1216.9l-14.671,2.585c-3.893-21.316-7.572-43.548-7.572-51.244l-1.368,46.622h-62.319v-30.335l-6.629,32.371-12.454-6.026c3.775-26.874,7.714-61.2,7.5-87.3-.022-5.171,3.137-9.955,8.327-12.561l19.767-9.956,8.256,9.161,16.157-7.411a15.21,15.21,0,0,0,6.252,2.321s33.022,8.144,33.022,30.539C-1013.582-1285.33-1010.492-1247.2-1007.851-1216.9Z" transform="translate(1125.746 1379.865)" fill="#4e52c7"/>
              <path id="Path_32" data-name="Path 32" d="M-1060.526-1323.694a64.67,64.67,0,0,1-13,7.736,4.318,4.318,0,0,0-2.288,2.362c-.945-2.118-3.3-4.113-2.807-6.332a2.486,2.486,0,0,1,.118-.387c1.676-4.56,15.19-9.1,14.742-13.722a4.143,4.143,0,0,0-3.915-3.583c-2.335.1-6.723,4.7-9.035,5.049-.918.143-3.182-.59-3.349-1.364-.967-4.215,10.45-8.347,10.05-9.528-2.052-5.9-13.4-4.031-20.1-6.026l-3.538-1.018s28.659-15.147,38.495,5.375C-1051.584-1337.722-1053.708-1329.15-1060.526-1323.694Z" transform="translate(1145.657 1355.89)" fill="#272324"/>
              <path id="Path_33" data-name="Path 33" d="M-1071.4-1323.185c-.495,2.219,1.863,4.214,2.807,6.332a3.307,3.307,0,0,0-.165,1.975,7.454,7.454,0,0,0,3.207,4.6l-16.157,7.411-8.256-9.162,2.36-14.251s-21.231-4.072-9.437-16.287v-4.072h4.717l9.436-6.108c6.7,2,18.044.122,20.1,6.026.4,1.181-11.016,5.314-10.049,9.528.167.774,2.431,1.507,3.349,1.364,2.313-.346,6.7-4.947,9.035-5.049a4.144,4.144,0,0,1,3.915,3.583c.448,4.621-13.066,9.161-14.742,13.722A2.5,2.5,0,0,0-1071.4-1323.185Z" transform="translate(1138.442 1359.147)" fill="#ffa7ac"/>
              <path id="Path_34" data-name="Path 34" d="M-1029.17-1276.846l-5.708,193.614h-18.87l-4.717-171.016h-9.435l-28.305,171.016h-18.87l23.588-191.375v-2.239Z" transform="translate(1123.454 1437.772)" fill="#87276d"/>
              <path id="Path_35" data-name="Path 35" d="M-1080.482-1225.2l65.586-35.181,27.173,41.044-60.465,36.646Z" transform="translate(1159.291 1454.834)" fill="#c7c8ca"/>
              <path id="Path_36" data-name="Path 36" d="M-1059.82-1250.641l-.8-7.106S-1047.792-1239.891-1059.82-1250.641Z" transform="translate(1179.863 1457.558)" fill="#ffa7ac"/>
            </g>
            <path id="Path_37" data-name="Path 37" d="M-1088.528-1175.816l-.4,12.623h-37.351l24.956-12.623S-1098.529-1169.586-1088.528-1175.816Z" transform="translate(1126.28 1542.429)" fill="#272324"/>
            <path id="Path_38" data-name="Path 38" d="M-1111.852-1181.746l-2.17,12.073s2.783,6.23,12.783,0l1.2-12.073Z" transform="translate(1138.978 1536.286)" fill="#ffa7ac"/>
            <path id="Path_39" data-name="Path 39" d="M-1058.625-1175.816l1.958,12.623-37.729,4.214,22.975-16.837S-1068.626-1169.586-1058.625-1175.816Z" transform="translate(1159.309 1542.429)" fill="#272324"/>
            <path id="Path_40" data-name="Path 40" d="M-1083.2-1181.746l.189,12.073s2.783,6.23,12.783,0l-1.154-12.073Z" transform="translate(1170.903 1536.286)" fill="#ffa7ac"/>
          </g>
          <path id="Path_41" data-name="Path 41" d="M-1061.789-1257.616l-.165,5.314s-32.2-31.068-16.063-78.443l4.151,1.262S-1082.1-1283.431-1061.789-1257.616Z" transform="translate(45.308 26.048)" fill="#272324"/>
        </g>
      </g>
    </g>
  </g>
</svg>
