<svg xmlns="http://www.w3.org/2000/svg" width="115.637" height="63.022" viewBox="0 0 115.637 63.022">
  <g id="Group_100" data-name="Group 100" transform="translate(-211.638 -319.262)">
    <circle id="Ellipse_8" data-name="Ellipse 8" cx="4.725" cy="4.725" r="4.725" transform="translate(302.951 336.614)"/>
    <circle id="Ellipse_9" data-name="Ellipse 9" cx="4.183" cy="4.183" r="4.183" transform="translate(294.429 329.177)"/>
    <circle id="Ellipse_10" data-name="Ellipse 10" cx="3.021" cy="3.021" r="3.021" transform="translate(320.768 335.22)" fill="#5f3990"/>
    <circle id="Ellipse_11" data-name="Ellipse 11" cx="2.401" cy="2.401" r="2.401" transform="translate(321.078 330.107)" fill="#5f3990"/>
    <circle id="Ellipse_12" data-name="Ellipse 12" cx="3.021" cy="3.021" r="3.021" transform="translate(314.57 346.995)" fill="#5f3990"/>
    <circle id="Ellipse_13" data-name="Ellipse 13" cx="3.021" cy="3.021" r="3.021" transform="translate(307.599 346.995)" fill="#5f3990"/>
    <circle id="Ellipse_14" data-name="Ellipse 14" cx="2.944" cy="2.944" r="2.944" transform="translate(316.43 340.642)" fill="#5f3990"/>
    <circle id="Ellipse_15" data-name="Ellipse 15" cx="2.247" cy="2.247" r="2.247" transform="translate(322.782 342.192)" fill="#5f3990"/>
    <circle id="Ellipse_16" data-name="Ellipse 16" cx="2.247" cy="2.247" r="2.247" transform="translate(313.331 336.769)" fill="#5f3990"/>
    <circle id="Ellipse_17" data-name="Ellipse 17" cx="1.782" cy="1.782" r="1.782" transform="translate(316.895 333.051)" fill="#5f3990"/>
    <circle id="Ellipse_18" data-name="Ellipse 18" cx="1.782" cy="1.782" r="1.782" transform="translate(312.556 343.586)" fill="#5f3990"/>
    <circle id="Ellipse_19" data-name="Ellipse 19" cx="1.782" cy="1.782" r="1.782" transform="translate(321.388 347.46)" fill="#5f3990"/>
    <circle id="Ellipse_20" data-name="Ellipse 20" cx="1.162" cy="1.162" r="1.162" transform="translate(314.416 357.375)" fill="#5f3990"/>
    <circle id="Ellipse_21" data-name="Ellipse 21" cx="2.092" cy="2.092" r="2.092" transform="translate(311.937 352.727)" fill="#5f3990"/>
    <circle id="Ellipse_22" data-name="Ellipse 22" cx="2.247" cy="2.247" r="2.247" transform="translate(296.443 347.15)" fill="#5f3990"/>
    <circle id="Ellipse_23" data-name="Ellipse 23" cx="3.021" cy="3.021" r="3.021" transform="translate(289.781 343.741)" fill="#5f3990"/>
    <circle id="Ellipse_24" data-name="Ellipse 24" cx="2.866" cy="2.866" r="2.866" transform="translate(283.429 342.502)" fill="#5f3990"/>
    <circle id="Ellipse_25" data-name="Ellipse 25" cx="3.796" cy="3.796" r="3.796" transform="translate(281.725 334.29)" fill="#5f3990"/>
    <circle id="Ellipse_26" data-name="Ellipse 26" cx="2.247" cy="2.247" r="2.247" transform="translate(290.091 338.164)" fill="#5f3990"/>
    <circle id="Ellipse_27" data-name="Ellipse 27" cx="2.247" cy="2.247" r="2.247" transform="translate(289.007 332.741)" fill="#5f3990"/>
    <circle id="Ellipse_28" data-name="Ellipse 28" cx="3.331" cy="3.331" r="3.331" transform="translate(295.359 338.628)"/>
    <circle id="Ellipse_29" data-name="Ellipse 29" cx="3.021" cy="3.021" r="3.021" transform="translate(277.541 329.332)" fill="#5f3990"/>
    <circle id="Ellipse_30" data-name="Ellipse 30" cx="3.021" cy="3.021" r="3.021" transform="translate(283.739 327.473)" fill="#5f3990"/>
    <circle id="Ellipse_31" data-name="Ellipse 31" cx="2.247" cy="2.247" r="2.247" transform="translate(290.556 326.853)" fill="#5f3990"/>
    <circle id="Ellipse_32" data-name="Ellipse 32" cx="2.711" cy="2.711" r="2.711" transform="translate(287.147 321.276)" fill="#5f3990"/>
    <circle id="Ellipse_33" data-name="Ellipse 33" cx="2.711" cy="2.711" r="2.711" transform="translate(293.655 320.811)" fill="#5f3990"/>
    <circle id="Ellipse_34" data-name="Ellipse 34" cx="2.711" cy="2.711" r="2.711" transform="translate(306.669 325.149)" fill="#5f3990"/>
    <circle id="Ellipse_35" data-name="Ellipse 35" cx="3.176" cy="3.176" r="3.176" transform="translate(299.542 323.135)" fill="#5f3990"/>
    <circle id="Ellipse_36" data-name="Ellipse 36" cx="2.711" cy="2.711" r="2.711" transform="translate(309.768 331.192)" fill="#5f3990"/>
    <circle id="Ellipse_37" data-name="Ellipse 37" cx="3.796" cy="3.796" r="3.796" transform="translate(313.641 324.994)" fill="#5f3990"/>
    <circle id="Ellipse_38" data-name="Ellipse 38" cx="2.247" cy="2.247" r="2.247" transform="translate(304.19 331.037)" fill="#5f3990"/>
    <circle id="Ellipse_39" data-name="Ellipse 39" cx="1.627" cy="1.627" r="1.627" transform="translate(311.472 322.515)" fill="#5f3990"/>
    <circle id="Ellipse_40" data-name="Ellipse 40" cx="1.627" cy="1.627" r="1.627" transform="translate(299.542 319.262)" fill="#5f3990"/>
    <circle id="Ellipse_41" data-name="Ellipse 41" cx="1.007" cy="1.007" r="1.007" transform="translate(303.415 320.036)" fill="#5f3990"/>
    <circle id="Ellipse_42" data-name="Ellipse 42" cx="2.247" cy="2.247" r="2.247" transform="translate(306.049 320.191)" fill="#5f3990"/>
    <circle id="Ellipse_43" data-name="Ellipse 43" cx="1.782" cy="1.782" r="1.782" transform="translate(301.401 345.29)" fill="#5f3990"/>
    <circle id="Ellipse_44" data-name="Ellipse 44" cx="1.472" cy="1.472" r="1.472" transform="translate(277.851 335.84)" fill="#5f3990"/>
    <circle id="Ellipse_45" data-name="Ellipse 45" cx="1.472" cy="1.472" r="1.472" transform="translate(280.485 341.262)" fill="#5f3990"/>
    <path id="Path_50" data-name="Path 50" d="M223.726,438.267a6.246,6.246,0,0,1,1.9,4.585v5.391a1.05,1.05,0,0,1-.318.772,1.036,1.036,0,0,1-.76.318,1.013,1.013,0,0,1-.76-.318,1.049,1.049,0,0,1-.318-.772v-.568a6.476,6.476,0,1,1,.261-9.408Zm-4.585.261a4.32,4.32,0,1,0,3.053,1.26A4.158,4.158,0,0,0,219.141,438.528Z" transform="translate(-0.842 -96.383)" fill="#5f3990"/>
    <path id="Path_51" data-name="Path 51" d="M296.587,438.528a1.084,1.084,0,0,1-1.078-1.078,1.065,1.065,0,0,1,1.078-1.078h8.591a2.125,2.125,0,0,1,1.2.363,2.033,2.033,0,0,1,.794.965,2.253,2.253,0,0,1,.136,1.294,1.913,1.913,0,0,1-.715,1.158l-8.807,7.014h8.92a1.085,1.085,0,0,1,1.078,1.078,1.051,1.051,0,0,1-.318.772,1.037,1.037,0,0,1-.76.318h-8.932a2.077,2.077,0,0,1-1.2-.374,2.033,2.033,0,0,1-.794-.965,2.219,2.219,0,0,1-.136-1.282,1.869,1.869,0,0,1,.715-1.158l8.807-7.025Z" transform="translate(-69.027 -96.383)"/>
    <path id="Path_52" data-name="Path 52" d="M382.005,445.939a1.052,1.052,0,0,1,.727.386,1.072,1.072,0,0,1,.249.794,1.049,1.049,0,0,1-.386.726,7.806,7.806,0,0,1-2.168,1.1,8.1,8.1,0,0,1-2.531.386,6.384,6.384,0,0,1-4.7-1.907,6.48,6.48,0,1,1,11.065-4.574,1.085,1.085,0,0,1-1.078,1.078H373.6a4.33,4.33,0,0,0,4.3,3.234,6.09,6.09,0,0,0,1.8-.25,5.482,5.482,0,0,0,1.509-.738A1.052,1.052,0,0,1,382.005,445.939Zm-8.41-4.176h8.376a4.27,4.27,0,0,0-1.135-1.975,4.329,4.329,0,0,0-6.106,0A4.266,4.266,0,0,0,373.6,441.763Z" transform="translate(-131.406 -96.383)"/>
    <path id="Path_53" data-name="Path 53" d="M464.805,442.875a1.037,1.037,0,0,1-.76.318,1.066,1.066,0,0,1-1.078-1.078,3.586,3.586,0,0,0-7.173,0v6.14a1.066,1.066,0,0,1-1.078,1.078,1.085,1.085,0,0,1-1.078-1.078v-6.14a5.743,5.743,0,1,1,11.485,0A1.038,1.038,0,0,1,464.805,442.875Z" transform="translate(-199.169 -96.383)"/>
    <path id="Path_54" data-name="Path 54" d="M532.742,433.149a1.05,1.05,0,0,1-.318.771,1.013,1.013,0,0,1-.76.318,1.036,1.036,0,0,1-.76-.318,1.05,1.05,0,0,1-.318-.771V422.356a1.066,1.066,0,0,1,1.078-1.078,1.033,1.033,0,0,1,.76.306,1.051,1.051,0,0,1,.318.772Zm-.306-14.8a1.1,1.1,0,0,1,0,1.544,1.076,1.076,0,0,1-1.526,0,1.11,1.11,0,0,1,0-1.544,1.075,1.075,0,0,1,1.526,0Z" transform="translate(-262.498 -81.289)"/>
    <path id="Path_55" data-name="Path 55" d="M222.851,551.316a1.052,1.052,0,0,1-.3.738,1,1,0,0,1-.715.318.986.986,0,0,1-.738-.284,4.555,4.555,0,0,0-1.612-.976,6.546,6.546,0,0,0-2.145-.363v.012h-.011a5.7,5.7,0,0,0-2.713.579,1.44,1.44,0,0,0-.919,1.226,1.246,1.246,0,0,0,.828,1.226,8.252,8.252,0,0,0,2.837.363,11.546,11.546,0,0,1,3.529.408,3.1,3.1,0,0,1,2.122,3.2,3.275,3.275,0,0,1-1.748,2.894,7.317,7.317,0,0,1-3.87.987,8.284,8.284,0,0,1-2.917-.488,7.173,7.173,0,0,1-2.451-1.475,1.029,1.029,0,0,1-.057-1.453.991.991,0,0,1,.715-.34,1.006,1.006,0,0,1,.738.272,5.1,5.1,0,0,0,1.759,1.056,6.227,6.227,0,0,0,2.2.363,5.252,5.252,0,0,0,2.792-.681,1.336,1.336,0,0,0,.761-1.135,1.2,1.2,0,0,0-.761-1.26,9.514,9.514,0,0,0-2.826-.284,10.446,10.446,0,0,1-3.609-.511,3.136,3.136,0,0,1-2.111-3.143,3.376,3.376,0,0,1,2-3.042,7.7,7.7,0,0,1,3.711-.84,8.494,8.494,0,0,1,2.849.488,6.557,6.557,0,0,1,2.327,1.419A.992.992,0,0,1,222.851,551.316Z" transform="translate(0 -188.817)" fill="#5f3990"/>
    <path id="Path_56" data-name="Path 56" d="M286.342,531.422a1.078,1.078,0,0,1,2.156,0v2.156h6.73a1.014,1.014,0,0,1,.76.318,1.051,1.051,0,0,1,.318.772,1.038,1.038,0,0,1-.318.76,1.014,1.014,0,0,1-.76.318H288.5v5.266a3.39,3.39,0,0,0,3.382,3.382,3.285,3.285,0,0,0,1.634-.42,3.369,3.369,0,0,0,1.237-1.18,1.053,1.053,0,0,1,.669-.477,1.071,1.071,0,0,1,.817.125,1.058,1.058,0,0,1,.477.681,1.01,1.01,0,0,1-.136.806,5.314,5.314,0,0,1-2.009,1.918,5.427,5.427,0,0,1-2.69.7,5.541,5.541,0,0,1-5.538-5.538Z" transform="translate(-61.482 -173.723)"/>
    <path id="Path_57" data-name="Path 57" d="M364.219,549.761a1.05,1.05,0,0,1,.318-.772,1.033,1.033,0,0,1,.76-.307,1.066,1.066,0,0,1,1.078,1.078v5.4a6.48,6.48,0,0,1-12.961,0v-5.4a1.066,1.066,0,0,1,1.078-1.078,1.033,1.033,0,0,1,.76.307,1.051,1.051,0,0,1,.318.772v5.4a4.324,4.324,0,0,0,8.648,0Z" transform="translate(-116.684 -188.817)"/>
    <path id="Path_58" data-name="Path 58" d="M447.067,531.422a1.036,1.036,0,0,1,.318-.76,1.013,1.013,0,0,1,.76-.318,1.085,1.085,0,0,1,1.078,1.078v8.648a6.484,6.484,0,1,1-6.48-6.48,6.3,6.3,0,0,1,4.324,1.646Zm-1.271,11.7a4.329,4.329,0,1,0-3.053,1.26A4.163,4.163,0,0,0,445.8,543.123Z" transform="translate(-184.869 -173.723)"/>
    <path id="Path_59" data-name="Path 59" d="M529.813,558.25a1.051,1.051,0,0,1,.727.386,1.072,1.072,0,0,1,.25.794,1.05,1.05,0,0,1-.386.726,7.8,7.8,0,0,1-2.167,1.1,8.093,8.093,0,0,1-2.531.386,6.385,6.385,0,0,1-4.7-1.907,6.48,6.48,0,1,1,11.065-4.574,1.085,1.085,0,0,1-1.078,1.078H521.4a4.331,4.331,0,0,0,4.3,3.234,6.083,6.083,0,0,0,1.8-.25,5.474,5.474,0,0,0,1.509-.738A1.051,1.051,0,0,1,529.813,558.25Zm-8.41-4.177h8.376a4.268,4.268,0,0,0-1.135-1.975,4.329,4.329,0,0,0-6.106,0A4.267,4.267,0,0,0,521.4,554.074Z" transform="translate(-253.054 -188.817)"/>
    <path id="Path_60" data-name="Path 60" d="M614.278,560.554a1.051,1.051,0,0,1-.318.772,1.038,1.038,0,0,1-.76.318,1.013,1.013,0,0,1-.76-.318,1.05,1.05,0,0,1-.318-.772v-5.391a4.324,4.324,0,1,0-8.648,0v5.391a1.05,1.05,0,0,1-.318.772,1.014,1.014,0,0,1-.76.318,1.036,1.036,0,0,1-.76-.318,1.048,1.048,0,0,1-.318-.772v-5.391a6.48,6.48,0,1,1,12.961,0Z" transform="translate(-320.711 -188.817)"/>
    <path id="Path_61" data-name="Path 61" d="M687.5,531.422a1.078,1.078,0,0,1,2.156,0v2.156h6.73a1.014,1.014,0,0,1,.76.318,1.051,1.051,0,0,1,.318.772,1.038,1.038,0,0,1-.318.76,1.014,1.014,0,0,1-.76.318h-6.73v5.266a3.39,3.39,0,0,0,3.382,3.382,3.285,3.285,0,0,0,1.634-.42,3.369,3.369,0,0,0,1.237-1.18,1.053,1.053,0,0,1,.669-.477,1.07,1.07,0,0,1,.817.125,1.058,1.058,0,0,1,.477.681,1.01,1.01,0,0,1-.136.806,5.316,5.316,0,0,1-2.009,1.918,5.427,5.427,0,0,1-2.69.7,5.541,5.541,0,0,1-5.538-5.538Z" transform="translate(-391.64 -173.723)"/>
    <g id="Group_17" data-name="Group 17" transform="translate(259.296 375.983)">
      <path id="Path_62" data-name="Path 62" d="M484.4,641.675a1.588,1.588,0,0,1-1.8,1.595h-.773v1.672h-.92v-4.917H482.6A1.628,1.628,0,0,1,484.4,641.675Zm-.92,0c0-.555-.372-.8-.927-.8h-.724v1.6h.724C483.109,642.475,483.481,642.237,483.481,641.675Z" transform="translate(-480.91 -639.975)"/>
      <path id="Path_63" data-name="Path 63" d="M504.956,647.352v-.477h.906v3.653h-.906V650a1.078,1.078,0,0,1-1.082.6,1.895,1.895,0,0,1,0-3.786A1.2,1.2,0,0,1,504.956,647.352ZM502.94,648.7a1.036,1.036,0,0,0,1.054,1.1,1.1,1.1,0,0,0,0-2.185A1.034,1.034,0,0,0,502.94,648.7Z" transform="translate(-498.318 -645.561)"/>
      <path id="Path_64" data-name="Path 64" d="M530.175,646.865v.864a1.275,1.275,0,0,0-.225-.014,1.3,1.3,0,0,0-1.307,1.222v1.623h-.906v-3.653h.906v.92a1.288,1.288,0,0,1,1.278-.976A1.486,1.486,0,0,1,530.175,646.865Z" transform="translate(-519.45 -645.593)"/>
      <path id="Path_65" data-name="Path 65" d="M546.478,646v.751a1.609,1.609,0,0,1-.716.127c-.52,0-.97-.19-.97-1.131v-1.819h-.506v-.745h.506v-.857h.906v.857h.773v.745H545.7v1.805c0,.183.056.351.3.351A1.3,1.3,0,0,0,546.478,646Z" transform="translate(-533.069 -641.869)"/>
      <path id="Path_66" data-name="Path 66" d="M563.611,648.452v2.107h-.9v-2.051c0-.632-.274-.871-.7-.871a1.126,1.126,0,0,0-.991.829v2.093h-.906v-3.653h.906v.716a1.326,1.326,0,0,1,1.2-.773C562.923,646.851,563.611,647.307,563.611,648.452Z" transform="translate(-546.101 -645.593)"/>
      <path id="Path_67" data-name="Path 67" d="M586.692,649.024h-2.76a1.038,1.038,0,0,0,1.089.808,1.473,1.473,0,0,0,.941-.281l.506.485a1.958,1.958,0,1,1-1.545-3.224A1.809,1.809,0,0,1,586.692,649.024Zm-2.753-.654h1.96a.991.991,0,0,0-.976-.786A1.021,1.021,0,0,0,583.938,648.37Z" transform="translate(-564.946 -645.561)"/>
      <path id="Path_68" data-name="Path 68" d="M609.821,646.865v.864a1.276,1.276,0,0,0-.225-.014,1.3,1.3,0,0,0-1.307,1.222v1.623h-.906v-3.653h.906v.92a1.288,1.288,0,0,1,1.278-.976A1.487,1.487,0,0,1,609.821,646.865Z" transform="translate(-585 -645.593)"/>
      <path id="Path_69" data-name="Path 69" d="M639.36,648.7a1.806,1.806,0,0,1-1.812,1.9,1.078,1.078,0,0,1-1.082-.6v1.862h-.906v-4.987h.906v.477a1.2,1.2,0,0,1,1.082-.541A1.817,1.817,0,0,1,639.36,648.7Zm-.878,0a1.034,1.034,0,0,0-1.053-1.089,1.1,1.1,0,0,0,0,2.185A1.036,1.036,0,0,0,638.482,648.7Z" transform="translate(-608.189 -645.561)"/>
      <path id="Path_70" data-name="Path 70" d="M663.416,648.707a1.9,1.9,0,1,1-1.9-1.9A1.879,1.879,0,0,1,663.416,648.707Zm-2.929,0a1.031,1.031,0,1,0,1.026-1.1A1.036,1.036,0,0,0,660.487,648.707Z" transform="translate(-627.982 -645.561)"/>
      <path id="Path_71" data-name="Path 71" d="M687.048,646.865v.864a1.275,1.275,0,0,0-.225-.014,1.3,1.3,0,0,0-1.306,1.222v1.623h-.906v-3.653h.906v.92a1.288,1.288,0,0,1,1.278-.976A1.486,1.486,0,0,1,687.048,646.865Z" transform="translate(-648.558 -645.593)"/>
      <path id="Path_72" data-name="Path 72" d="M703.351,646v.751a1.608,1.608,0,0,1-.716.127c-.52,0-.969-.19-.969-1.131v-1.819h-.506v-.745h.506v-.857h.906v.857h.773v.745h-.773v1.805c0,.183.056.351.3.351A1.3,1.3,0,0,0,703.351,646Z" transform="translate(-662.178 -641.869)"/>
      <path id="Path_73" data-name="Path 73" d="M718.379,647.352v-.477h.906v3.653h-.906V650a1.078,1.078,0,0,1-1.082.6,1.895,1.895,0,0,1,0-3.786A1.2,1.2,0,0,1,718.379,647.352Zm-2.016,1.349a1.036,1.036,0,0,0,1.054,1.1,1.1,1.1,0,0,0,0-2.185A1.034,1.034,0,0,0,716.363,648.7Z" transform="translate(-673.968 -645.561)"/>
      <path id="Path_74" data-name="Path 74" d="M742.068,644.712h-.906v-4.966h.906Z" transform="translate(-695.101 -639.746)"/>
    </g>
  </g>
</svg>
