<svg xmlns="http://www.w3.org/2000/svg" viewBox="0 0 79.6 79.6"><defs><style>.cls-1{opacity:0.6;}.cls-2{fill:#fff;}</style></defs><title>Asset 2</title><g id="Layer_2" data-name="Layer 2"><g id="Layer_1-2" data-name="Layer 1"><g class="cls-1"><rect x="20.54" width="38.51" height="38.51" rx="5.14"/><rect y="41.08" width="38.51" height="38.51" rx="5.14"/><rect x="41.08" y="41.08" width="38.51" height="38.51" rx="5.14"/></g><path class="cls-2" d="M40.83,11.46H38.77l-5,13.25h2.4l1.07-3.09h5.13l1.08,3.09h2.4Zm-3,8.31,1.92-5.5,1.92,5.5Z"/><path class="cls-2" d="M23.59,60a2.91,2.91,0,0,0-1.66-1.09,3.25,3.25,0,0,0,1.44-1.13,2.83,2.83,0,0,0,.49-1.64,3.18,3.18,0,0,0-1.17-2.68,5.53,5.53,0,0,0-3.42-.9H14.73V65.79h4.83a5.29,5.29,0,0,0,3.43-1,3.56,3.56,0,0,0,1.19-2.87A3.17,3.17,0,0,0,23.59,60ZM17,54.39h2.24a2.84,2.84,0,0,1,1.74.44,1.69,1.69,0,0,1,.56,1.42A1.66,1.66,0,0,1,21,57.63a2.57,2.57,0,0,1-1.68.49H17Zm4.25,9a2.47,2.47,0,0,1-1.69.54H17V59.81h2.75a1.89,1.89,0,0,1,2.11,2.11A1.87,1.87,0,0,1,21.28,63.41Z"/><path class="cls-2" d="M63.42,61.47h2.29a4.75,4.75,0,0,1-1.56,3.31A5.34,5.34,0,0,1,60.52,66a5.15,5.15,0,0,1-2.79-.75,4.87,4.87,0,0,1-1.86-2.14,7.51,7.51,0,0,1-.68-3.21V58.63a7.81,7.81,0,0,1,.66-3.3,5,5,0,0,1,1.91-2.2,5.33,5.33,0,0,1,2.87-.77,5,5,0,0,1,3.52,1.19,4.89,4.89,0,0,1,1.56,3.35H63.42a3.33,3.33,0,0,0-.83-2.06,2.77,2.77,0,0,0-2-.63,2.69,2.69,0,0,0-2.31,1.1,5.43,5.43,0,0,0-.82,3.22V59.7A5.85,5.85,0,0,0,58.26,63a2.58,2.58,0,0,0,2.26,1.13,3,3,0,0,0,2-.61A3.17,3.17,0,0,0,63.42,61.47Z"/></g></g></svg>