<svg xmlns="http://www.w3.org/2000/svg" viewBox="0 0 63.23 90.86"><defs><style>.cls-1{fill:#be271d;}.cls-2{fill:none;}.cls-3{fill:#f3f3f7;}</style></defs><title>Asset 3 hover</title><g id="Layer_2" data-name="Layer 2"><g id="Layer_1-2" data-name="Layer 1"><path class="cls-1" d="M63.23,5.14V62.59A7.72,7.72,0,0,1,61,68.05l-9.29,9.28a7.7,7.7,0,0,1-5.46,2.27H5.14A5.14,5.14,0,0,1,0,74.46V5.14A5.14,5.14,0,0,1,5.14,0h53A5.14,5.14,0,0,1,63.23,5.14Z"/><polyline class="cls-2" points="49.29 79.71 49.41 79.6 63.23 65.79"/><rect class="cls-3" x="10.88" y="11.46" width="29.39" height="3.81" rx="1.49"/><rect class="cls-3" x="10.88" y="19.99" width="29.39" height="3.81" rx="1.49"/><rect class="cls-3" x="10.88" y="28.52" width="18.55" height="3.81" rx="1.49"/><path class="cls-3" d="M28.27,63.67A3,3,0,0,0,25.57,59a2.94,2.94,0,0,1-3-1.74,3,3,0,0,0-5.39,0,2.94,2.94,0,0,1-3,1.74,3,3,0,0,0-2.7,4.67,3,3,0,0,1,0,3.49,3,3,0,0,0,2.7,4.67,2.84,2.84,0,0,1,1.56.26v18.4a.36.36,0,0,0,.6.28l3.13-2.58a.64.64,0,0,1,.84,0l3.13,2.58a.36.36,0,0,0,.6-.28V72.09a2.87,2.87,0,0,1,1.56-.26,3,3,0,0,0,2.7-4.67A3,3,0,0,1,28.27,63.67Zm-8.41-2.16A3.91,3.91,0,1,1,16,65.42,3.91,3.91,0,0,1,19.86,61.51Z"/></g></g></svg>