<svg xmlns="http://www.w3.org/2000/svg" viewBox="0 0 100.28 59.45"><defs><style>.cls-1{fill:#be271d;}</style></defs><title>Asset 4 hover</title><g id="Layer_2" data-name="Layer 2"><g id="Layer_1-2" data-name="Layer 1"><path class="cls-1" d="M99.68,16.32,51.59.24a4.5,4.5,0,0,0-2.9,0L.6,16.32A.92.92,0,0,0,.6,18L48.69,34.12a4.5,4.5,0,0,0,2.9,0l38-12.7V38.24l-3,4.49a1,1,0,0,0,.29,1.41,1,1,0,0,0,.56.17,1,1,0,0,0,.85-.46l2.16-3.28,1.6,3.18a1,1,0,0,0,.91.56,1.11,1.11,0,0,0,.46-.11,1,1,0,0,0,.45-1.37L91.61,38.3V20.74L99.68,18A.92.92,0,0,0,99.68,16.32Z"/><path class="cls-1" d="M80.12,27.92,51.59,37.46a4.5,4.5,0,0,1-2.9,0L20.15,27.92a1,1,0,0,0-1.33,1V52.42c0,3.88,14,7,31.32,7s31.32-3.15,31.32-7V28.88A1,1,0,0,0,80.12,27.92Z"/></g></g></svg>