<?xml version="1.0" encoding="UTF-8"?>
<svg xmlns="http://www.w3.org/2000/svg" xmlns:xlink="http://www.w3.org/1999/xlink" width="38px" height="28px" viewBox="0 0 38 28">
<clipPath id="clip0"><rect x="0" y="0" width="38" height="28"/></clipPath><g><rect x="0" y="0" width="38" height="28" fill="rgb(255,255,255)"/><g><rect x="0" y="0" width="38" height="28" fill="rgb(255,255,255)"/><path fillRule="evenodd" d="M-0 28C-0 28-0 19-0 19-0 19 38 19 38 19 38 19 38 28 38 28 38 28-0 28-0 28ZM-0-0C-0-0 38-0 38-0 38-0 38 9 38 9 38 9-0 9-0 9-0 9-0-0-0-0Z" fill="rgb(237,49,35)" clip-path="url(#clip0)"/></g></g></svg>