<svg width="23" height="26" viewBox="0 0 23 26" fill="none" xmlns="http://www.w3.org/2000/svg">
<path d="M21.9818 5.51339C22.2613 5.78423 22.5009 6.15179 22.7005 6.61607C22.9002 7.08036 23 7.50595 23 7.89286V24.6071C23 24.994 22.8602 25.3229 22.5807 25.5938C22.3012 25.8646 21.9618 26 21.5625 26H1.4375C1.03819 26 0.698785 25.8646 0.419271 25.5938C0.139757 25.3229 0 24.994 0 24.6071V1.39286C0 1.00595 0.139757 0.677083 0.419271 0.40625C0.698785 0.135417 1.03819 0 1.4375 0H14.8542C15.2535 0 15.6927 0.0967262 16.1719 0.290179C16.651 0.483631 17.0304 0.715774 17.3099 0.986607L21.9818 5.51339ZM15.3333 1.97321V7.42857H20.9635C20.8637 7.14807 20.7539 6.94978 20.6341 6.8337L15.9473 2.29241C15.8275 2.17634 15.6228 2.06994 15.3333 1.97321ZM21.0833 24.1429V9.28571H14.8542C14.4549 9.28571 14.1155 9.1503 13.8359 8.87946C13.5564 8.60863 13.4167 8.27976 13.4167 7.89286V1.85714H1.91667V24.1429H21.0833ZM13.3867 15.5391C13.7161 15.7906 14.1354 16.0614 14.6445 16.3516C15.2335 16.2839 15.8175 16.25 16.3965 16.25C17.8639 16.25 18.7474 16.487 19.0469 16.9609C19.2066 17.1737 19.2166 17.4252 19.0768 17.7154C19.0768 17.7251 19.0718 17.7347 19.0618 17.7444L19.0319 17.7734V17.7879C18.972 18.1555 18.6176 18.3393 17.9688 18.3393C17.4896 18.3393 16.9156 18.2426 16.2467 18.0491C15.5779 17.8557 14.929 17.5993 14.3001 17.2801C12.094 17.5123 10.1374 17.9137 8.43034 18.4844C6.90299 21.0186 5.6951 22.2857 4.80664 22.2857C4.6569 22.2857 4.51714 22.2519 4.38737 22.1842L4.02799 22.01C4.01801 22.0004 3.98806 21.9762 3.93815 21.9375C3.83832 21.8408 3.80838 21.6667 3.84831 21.4152C3.93815 21.0283 4.21766 20.5858 4.68685 20.0876C5.15603 19.5895 5.81489 19.1228 6.66341 18.6875C6.80317 18.6004 6.91797 18.6295 7.00781 18.7746C7.02778 18.7939 7.03776 18.8132 7.03776 18.8326C7.55686 18.0104 8.09093 17.0577 8.63997 15.9743C9.31879 14.6589 9.83789 13.3917 10.1973 12.173C9.95768 11.3798 9.80545 10.6084 9.74056 9.85882C9.67567 9.10919 9.70812 8.49256 9.83789 8.00893C9.9477 7.62202 10.1573 7.42857 10.4668 7.42857H10.7962C11.0258 7.42857 11.2005 7.50112 11.3203 7.6462C11.5 7.84933 11.5449 8.1782 11.4551 8.63281C11.4351 8.69085 11.4151 8.72954 11.3952 8.74888C11.4052 8.7779 11.4102 8.81659 11.4102 8.86495V9.30022C11.3902 10.49 11.3203 11.4185 11.2005 12.0859C11.7496 13.6722 12.4783 14.8233 13.3867 15.5391ZM4.76172 21.5022C5.28082 21.2701 5.96463 20.506 6.81315 19.2098C6.30404 19.5967 5.8673 20.003 5.50293 20.4286C5.13856 20.8542 4.89149 21.2121 4.76172 21.5022ZM10.7214 8.15402C10.5716 8.56027 10.5616 9.19866 10.6914 10.0692C10.7014 10.0015 10.7363 9.78869 10.7962 9.4308C10.7962 9.40179 10.8312 9.19382 10.901 8.80692C10.911 8.76823 10.931 8.72954 10.9609 8.69085C10.951 8.68118 10.946 8.6715 10.946 8.66183C10.936 8.64248 10.931 8.62798 10.931 8.6183C10.921 8.40551 10.8561 8.2314 10.7363 8.09598C10.7363 8.10565 10.7313 8.11533 10.7214 8.125V8.15402ZM8.86458 17.7444C10.2122 17.2221 11.6298 16.8304 13.1172 16.5692C13.0972 16.5595 13.0323 16.5136 12.9225 16.4314C12.8127 16.3491 12.7329 16.2839 12.6829 16.2355C11.9243 15.5874 11.2904 14.7362 10.7812 13.6819C10.5117 14.5138 10.0974 15.4665 9.53841 16.5402C9.23893 17.0818 9.01432 17.4833 8.86458 17.7444ZM18.5378 17.5123C18.2982 17.2801 17.5994 17.1641 16.4414 17.1641C17.2001 17.4349 17.819 17.5703 18.2982 17.5703C18.4379 17.5703 18.5278 17.5655 18.5677 17.5558C18.5677 17.5461 18.5577 17.5316 18.5378 17.5123Z" fill="#059FF8"/>
</svg>
