<svg width="18" height="14" viewBox="0 0 18 14" fill="none" xmlns="http://www.w3.org/2000/svg">
  <path fill-rule="evenodd" clip-rule="evenodd" d="M1.05776 5.30752C1.11582 5.24931 1.18479 5.20314 1.26072 5.17163C1.33665 5.14012 1.41805 5.1239 1.50026 5.1239C1.58247 5.1239 1.66387 5.14012 1.7398 5.17163C1.81574 5.20314 1.88471 5.24931 1.94276 5.30752L9.00026 12.3663L16.0578 5.30752C16.1751 5.19016 16.3343 5.12423 16.5003 5.12423C16.6662 5.12423 16.8254 5.19016 16.9428 5.30752C17.0601 5.42488 17.1261 5.58405 17.1261 5.75002C17.1261 5.91599 17.0601 6.07516 16.9428 6.19252L9.44276 13.6925C9.38471 13.7507 9.31574 13.7969 9.2398 13.8284C9.16387 13.8599 9.08247 13.8761 9.00026 13.8761C8.91805 13.8761 8.83665 13.8599 8.76072 13.8284C8.68479 13.7969 8.61582 13.7507 8.55776 13.6925L1.05776 6.19252C0.999559 6.13446 0.95338 6.06549 0.921872 5.98956C0.890364 5.91363 0.874146 5.83223 0.874146 5.75002C0.874146 5.66781 0.890364 5.58641 0.921872 5.51048C0.95338 5.43454 0.999559 5.36558 1.05776 5.30752Z" fill="white"/>
  <path fill-rule="evenodd" clip-rule="evenodd" d="M1.05776 0.307519C1.11582 0.249314 1.18479 0.203136 1.26072 0.171628C1.33665 0.14012 1.41805 0.123901 1.50026 0.123901C1.58247 0.123901 1.66387 0.14012 1.7398 0.171628C1.81574 0.203136 1.88471 0.249314 1.94276 0.307519L9.00026 7.36627L16.0578 0.307519C16.1159 0.249409 16.1849 0.203313 16.2608 0.171865C16.3367 0.140416 16.4181 0.124229 16.5003 0.124229C16.5824 0.124229 16.6638 0.140416 16.7397 0.171865C16.8157 0.203313 16.8847 0.249409 16.9428 0.307519C17.0009 0.365628 17.047 0.434615 17.0784 0.510539C17.1099 0.586464 17.1261 0.667839 17.1261 0.750019C17.1261 0.832198 17.1099 0.913574 17.0784 0.989498C17.047 1.06542 17.0009 1.13441 16.9428 1.19252L9.44276 8.69252C9.38471 8.75072 9.31574 8.7969 9.2398 8.82841C9.16387 8.85992 9.08247 8.87613 9.00026 8.87613C8.91805 8.87613 8.83665 8.85992 8.76072 8.82841C8.68479 8.7969 8.61582 8.75072 8.55776 8.69252L1.05776 1.19252C0.999559 1.13446 0.95338 1.06549 0.921872 0.989561C0.890364 0.913629 0.874146 0.832228 0.874146 0.750019C0.874146 0.667809 0.890364 0.586408 0.921872 0.510476C0.95338 0.434545 0.999559 0.365576 1.05776 0.307519Z" fill="white"/>
  </svg>
  