<svg width="70" height="60" viewBox="0 0 70 60" fill="none" xmlns="http://www.w3.org/2000/svg">
  <path d="M7 59.4998C3.134 59.4998 -1.36992e-07 56.3657 -3.0598e-07 52.4998L-2.29484e-06 7.00003C-2.46382e-06 3.13404 3.134 3.41953e-05 7 3.40263e-05L62.1247 3.16167e-05C65.9907 3.14477e-05 69.1247 3.13404 69.1247 7.00003L69.1247 59.4998L7 59.4998Z" fill="#0AB86E"/>
  <path d="M25.9126 13.4264C28.4178 10.5922 31.8155 9 35.3584 9V44.6224H30.0589C29.5284 34.7712 22 32.446 22 24.1125C22 20.1044 23.4074 16.2605 25.9126 13.4264Z" fill="#1D1D1B"/>
  <path d="M44.1682 13.4264C41.663 10.5922 38.2653 9 34.7224 9V44.6224H40.0219C40.5524 34.7712 48.0808 32.446 48.0808 24.1125C48.0808 20.1044 46.6734 16.2605 44.1682 13.4264Z" fill="#00FF9B"/>
  <rect x="28.3613" y="42.0779" width="12.7223" height="3.81669" fill="#1D1D1B"/>
  <rect x="28.3613" y="47.1669" width="12.7223" height="3.81669" fill="#1D1D1B"/>
  </svg>
  