<svg width="65" height="65" viewBox="0 0 65 65" fill="none" xmlns="http://www.w3.org/2000/svg">
<path d="M27.1912 55.9954L27.1912 65L32.0772 65L32.0772 2.80336e-06L27.1912 2.37635e-06L27.1912 8.13796C24.1327 8.76789 21.2245 9.9819 18.626 11.7134L12.7493 5.83851L5.84047 12.7451L11.7172 18.6199C9.98518 21.2175 8.77079 24.1248 8.14065 27.1823L3.30721e-06 27.1823L1.9837e-05 36.9511L8.14065 36.9511C8.77079 40.0086 9.98518 42.9159 11.7172 45.5135L5.39855 51.8301L12.7493 58.2948L18.626 52.42C21.2244 54.1515 24.1327 55.3655 27.1912 55.9954Z" fill="#0AB86E"/>
<path d="M37.0261 55.9954L37.0261 65L32.0771 65L32.0771 2.84057e-06L37.0261 2.41356e-06L37.0261 8.13796C40.1241 8.76789 43.0698 9.9819 45.7017 11.7134L51.2246 6.26254L58.2217 13.1699L52.6997 18.6199C54.454 21.2175 55.6841 24.1248 56.3223 27.1823L64.9993 27.1823L64.9993 36.9511L56.3223 36.9511C55.6841 40.0086 54.454 42.9159 52.6997 45.5135L58.9729 51.7048L52.0856 58.7205L45.7017 52.42C43.0698 54.1515 40.1241 55.3655 37.0261 55.9954Z" fill="#1D1D1B"/>
<ellipse cx="31.8452" cy="32.0539" rx="14.9624" ry="15.0605" fill="#00FF9B"/>
<path d="M24.4795 30.3427L30.0718 36.3469L39.3924 26.3398" stroke="white" stroke-width="2"/>
</svg>
