<svg width="47" height="68" viewBox="0 0 47 68" fill="none" xmlns="http://www.w3.org/2000/svg">
  <path d="M47 43.8455C47 41.6363 45.2091 39.8455 43 39.8455H21.8856V67.1991H43C45.2091 67.1991 47 65.4082 47 63.1991V43.8455Z" fill="#1D1D1B"/>
  <path d="M0 43.8455C0 41.6363 1.79086 39.8455 4 39.8455H25.1144V67.1991H4C1.79086 67.1991 0 65.4082 0 63.1991V43.8455Z" fill="#1D1D1B"/>
  <rect x="6.26807" y="39" width="4.17765" height="12.5329" fill="#00FF9B"/>
  <rect x="36.5559" y="39" width="4.17765" height="12.5329" fill="#00FF9B"/>
  <path d="M3.13501 48.3998H43.8671V64.1992C43.8671 65.8561 42.5239 67.1992 40.8671 67.1992H6.13501C4.47816 67.1992 3.13501 65.856 3.13501 64.1992V48.3998Z" fill="#00FF9B"/>
  <path d="M22.8156 2.24902C4.01524 2.24902 5.43048 21.8974 5.43048 21.8974C5.43048 21.8974 10.2946 18.0445 22.8751 18.0445C35.4555 18.0445 39.8468 21.4742 39.8468 21.4742C39.8468 21.4742 41.6159 2.24902 22.8156 2.24902Z" fill="#0AB86E"/>
  <path d="M26.5365 13.5987H19.2141V1.80009C19.2141 0.805586 20.0097 0 20.9919 0H24.7587C25.7409 0 26.5365 0.805586 26.5365 1.80009V13.5987Z" fill="#00FF9B"/>
  <path d="M3 23.9024C3 20.359 5.87245 17.4866 9.4158 17.4866H36.282C39.8253 17.4866 42.6978 20.359 42.6978 23.9024H3Z" fill="#1D1D1B"/>
  <path d="M23.1516 37C31.1973 37 37.902 31.3499 39.8485 23.7576H6.45459C8.40113 31.3499 15.1059 37 23.1516 37Z" fill="#1D1D1B"/>
  </svg>
  