<svg width="69" height="66" viewBox="0 0 69 66" fill="none" xmlns="http://www.w3.org/2000/svg">
  <path d="M13.5556 40.5998L5.45117 40.5998L5.45117 36.106L63.9532 36.106L63.9532 40.5998L56.6288 40.5998C56.0618 43.4128 55.5584 45.4984 54 47.8882L59.3091 52.5L53.4108 58.5349L48.0264 54C45.6885 55.593 42.2402 57.5416 39.4883 58.1212L39.4883 66L30.696 66L30.696 58.1212C27.9442 57.5416 24.4958 55.593 22.1579 54L16.5 59.6107L10.3288 53.5L16 47.7039C14.4416 45.3141 14.1225 43.4128 13.5556 40.5998Z" fill="#1D1D1B"/>
  <ellipse cx="35.1895" cy="35.5191" rx="14.9737" ry="14.6255" fill="#00FF9B"/>
  <path d="M34.4164 3.90613C1.76323 3.90613 4.22129 38.0323 4.22129 38.0323C4.22129 38.0323 12.6695 31.3403 34.5198 31.3403C56.37 31.3403 63.997 37.2973 63.997 37.2973C63.997 37.2973 67.0696 3.90613 34.4164 3.90613Z" fill="#0AB86E"/>
  <path d="M40.8787 23.6188H28.1609V3.12648C28.1609 1.39918 29.5427 0 31.2486 0H37.791C39.4969 0 40.8787 1.39918 40.8787 3.12648V23.6188Z" fill="#00FF9B"/>
  <path d="M0 40.3713C0 34.8485 4.47715 30.3713 10 30.3713H58.9488C64.4716 30.3713 68.9488 34.8485 68.9488 40.3713V41.5146H0V40.3713Z" fill="#1D1D1B"/>
  </svg>
  