<svg width="82" height="82" viewBox="0 0 82 82" fill="none" xmlns="http://www.w3.org/2000/svg">
  <path d="M-1.79217e-06 41C-8.0238e-07 63.6437 18.3563 82 41 82L41 -1.79217e-06C18.3563 -8.0238e-07 -2.78195e-06 18.3563 -1.79217e-06 41Z" fill="#00FF9B"/>
  <path d="M82 41C82 18.3563 63.6437 2.18897e-07 41 4.8892e-07L41 82C63.6437 82 82 63.6437 82 41Z" fill="#0AB86E"/>
  <path d="M21.6222 39.8151L21.6222 43.0016L23.3512 43.0016L23.3512 20L21.6222 20L21.6222 22.8798C20.5398 23.1027 19.5107 23.5323 18.5912 24.145L16.5116 22.0661L14.0668 24.5101L16.1464 26.5891C15.5335 27.5083 15.1037 28.5371 14.8807 29.619L12 29.619L12 33.0759L14.8807 33.0759C15.1037 34.1579 15.5335 35.1867 16.1464 36.1059L13.9104 38.3411L16.5116 40.6288L18.5912 38.5499C19.5107 39.1626 20.5398 39.5922 21.6222 39.8151Z" fill="#0AB86E"/>
  <path d="M25.1014 39.8151L25.1014 43.0016L23.3501 43.0016L23.3501 20L25.1014 20L25.1014 22.8798C26.1977 23.1027 27.2401 23.5323 28.1714 24.145L30.1258 22.2162L32.6019 24.6605L30.6478 26.5891C31.2686 27.5083 31.7039 28.5371 31.9297 29.619L35.0002 29.619L35.0002 33.0759L31.9297 33.0759C31.7039 34.1579 31.2686 35.1867 30.6478 36.1059L32.8677 38.2968L30.4305 40.7795L28.1714 38.5499C27.2401 39.1626 26.1977 39.5922 25.1014 39.8151Z" fill="#1D1D1B"/>
  <circle cx="22.9522" cy="30.9531" r="5.47633" fill="#00FF9B"/>
  <path d="M56.6222 58.8151L56.6222 62.0016L58.3512 62.0016L58.3512 39L56.6222 39L56.6222 41.8798C55.5398 42.1027 54.5107 42.5323 53.5912 43.145L51.5116 41.0661L49.0668 43.5101L51.1464 45.5891C50.5335 46.5083 50.1037 47.5371 49.8807 48.619L47 48.619L47 52.0759L49.8807 52.0759C50.1037 53.1579 50.5335 54.1867 51.1464 55.1059L48.9104 57.3411L51.5116 59.6288L53.5912 57.5499C54.5107 58.1626 55.5398 58.5922 56.6222 58.8151Z" fill="#00FF9B"/>
  <path d="M60.1014 58.8151L60.1014 62.0016L58.3501 62.0016L58.3501 39L60.1014 39L60.1014 41.8798C61.1977 42.1027 62.2401 42.5323 63.1714 43.145L65.1258 41.2162L67.6019 43.6605L65.6478 45.5891C66.2686 46.5083 66.7039 47.5371 66.9297 48.619L70.0002 48.619L70.0002 52.0759L66.9297 52.0759C66.7039 53.1579 66.2686 54.1867 65.6478 55.1059L67.8677 57.2968L65.4305 59.7795L63.1714 57.5499C62.2401 58.1626 61.1977 58.5922 60.1014 58.8151Z" fill="#1D1D1B"/>
  <circle cx="57.9519" cy="49.9531" r="5.47633" fill="#0AB86E"/>
  </svg>
  