<svg width="47" height="66" viewBox="0 0 47 66" fill="none" xmlns="http://www.w3.org/2000/svg">
  <rect y="39.8096" width="47" height="26.1905" rx="4" fill="#1D1D1B"/>
  <path d="M4.98486 6C4.98486 2.68629 7.67115 0 10.9849 0H34.8758C38.1895 0 40.8758 2.68629 40.8758 6V24C40.8758 31.732 34.6078 38 26.8758 38H20.9849C12.1483 38 4.98486 30.8366 4.98486 22V6Z" fill="#0AB86E"/>
  <path d="M4.98486 5.99999C4.98486 2.68629 7.67115 0 10.9849 0H23.5448V38.087H18.9849C11.2529 38.087 4.98486 31.819 4.98486 24.087V5.99999Z" fill="#1D1D1B"/>
  <rect x="11" y="14" width="23.9273" height="11" fill="#00FF9B"/>
  <rect x="11" y="9" width="24" height="2" fill="#00FF9B"/>
  <path d="M47 43.8096C47 41.6004 45.2091 39.8096 43 39.8096H24.0222V66H43C45.2091 66 47 64.2092 47 62V43.8096Z" fill="#1D1D1B"/>
  <rect x="7" y="39" width="4" height="12" fill="#00FF9B"/>
  <rect x="36" y="39" width="4" height="12" fill="#00FF9B"/>
  <path d="M4 48H43V63C43 64.6569 41.6569 66 40 66H7C5.34315 66 4 64.6569 4 63V48Z" fill="#00FF9B"/>
  </svg>
  
  