<svg width="16" height="16" viewBox="0 0 16 16" fill="none" xmlns="http://www.w3.org/2000/svg">
  <path d="M7.77726 5.17067C6.34881 5.17067 5.18308 6.33316 5.18308 7.75765C5.18308 9.18214 6.34881 10.3446 7.77726 10.3446C9.20571 10.3446 10.3714 9.18214 10.3714 7.75765C10.3714 6.33316 9.20571 5.17067 7.77726 5.17067ZM15.5578 7.75765C15.5578 6.68637 15.5676 5.6248 15.5072 4.55546C15.4469 3.31339 15.1628 2.21106 14.252 1.3028C13.3393 0.392603 12.2358 0.111199 10.9903 0.0510361C9.91604 -0.00912639 8.85151 0.000577257 7.7792 0.000577257C6.70495 0.000577257 5.64042 -0.00912639 4.56811 0.0510361C3.3226 0.111199 2.2172 0.394544 1.30642 1.3028C0.393694 2.213 0.111507 3.31339 0.0511778 4.55546C-0.00915175 5.62674 0.000578861 6.68831 0.000578861 7.75765C0.000578861 8.82699 -0.00915175 9.89051 0.0511778 10.9598C0.111507 12.2019 0.39564 13.3042 1.30642 14.2125C2.21915 15.1227 3.3226 15.4041 4.56811 15.4643C5.64237 15.5244 6.70689 15.5147 7.7792 15.5147C8.85346 15.5147 9.91798 15.5244 10.9903 15.4643C12.2358 15.4041 13.3412 15.1208 14.252 14.2125C15.1647 13.3023 15.4469 12.2019 15.5072 10.9598C15.5695 9.89051 15.5578 8.82893 15.5578 7.75765ZM7.77726 11.7381C5.56842 11.7381 3.78577 9.96037 3.78577 7.75765C3.78577 5.55493 5.56842 3.77723 7.77726 3.77723C9.9861 3.77723 11.7687 5.55493 11.7687 7.75765C11.7687 9.96037 9.9861 11.7381 7.77726 11.7381ZM11.9322 4.54381C11.4165 4.54381 11 4.1285 11 3.61421C11 3.09991 11.4165 2.6846 11.9322 2.6846C12.4479 2.6846 12.8644 3.09991 12.8644 3.61421C12.8646 3.73633 12.8405 3.85728 12.7938 3.97013C12.747 4.08299 12.6783 4.18553 12.5917 4.27188C12.5051 4.35823 12.4023 4.4267 12.2891 4.47336C12.176 4.52003 12.0547 4.54397 11.9322 4.54381Z" fill="#2F2F30"/>
  </svg>
  