<svg width="16" height="15" viewBox="0 0 16 15" fill="none" xmlns="http://www.w3.org/2000/svg">
  <path fill-rule="evenodd" clip-rule="evenodd" d="M0.666748 1.22534C0.666748 0.900356 0.795845 0.588688 1.02564 0.358893C1.25543 0.129099 1.5671 1.63354e-06 1.89208 1.63354e-06H14.1067C14.2678 -0.000261401 14.4273 0.0312436 14.5762 0.0927128C14.725 0.154182 14.8603 0.244408 14.9742 0.358226C15.0882 0.472043 15.1786 0.607217 15.2402 0.756008C15.3018 0.904799 15.3335 1.06429 15.3334 1.22534V13.44C15.3336 13.6011 15.302 13.7606 15.2405 13.9095C15.1789 14.0583 15.0886 14.1936 14.9748 14.3075C14.8609 14.4215 14.7257 14.5118 14.5768 14.5735C14.428 14.6351 14.2685 14.6668 14.1074 14.6667H1.89208C1.73111 14.6667 1.57172 14.635 1.42301 14.5733C1.2743 14.5117 1.1392 14.4214 1.0254 14.3075C0.911613 14.1937 0.821369 14.0585 0.75983 13.9098C0.69829 13.761 0.666661 13.6016 0.666748 13.4407V1.22534ZM6.47208 5.592H8.45808V6.58934C8.74475 6.016 9.47808 5.5 10.5801 5.5C12.6927 5.5 13.1934 6.642 13.1934 8.73734V12.6187H11.0554V9.21467C11.0554 8.02134 10.7687 7.348 10.0407 7.348C9.03075 7.348 8.61075 8.074 8.61075 9.21467V12.6187H6.47208V5.592ZM2.80542 12.5273H4.94408V5.5H2.80542V12.5267V12.5273ZM5.25008 3.208C5.25411 3.39112 5.22153 3.57319 5.15424 3.74354C5.08695 3.9139 4.98632 4.06909 4.85824 4.20002C4.73016 4.33095 4.57721 4.43498 4.40839 4.50601C4.23956 4.57703 4.05824 4.61361 3.87508 4.61361C3.69192 4.61361 3.51061 4.57703 3.34178 4.50601C3.17295 4.43498 3.02001 4.33095 2.89193 4.20002C2.76385 4.06909 2.66321 3.9139 2.59592 3.74354C2.52863 3.57319 2.49605 3.39112 2.50008 3.208C2.508 2.84857 2.65634 2.50653 2.91334 2.25513C3.17034 2.00372 3.51556 1.86295 3.87508 1.86295C4.2346 1.86295 4.57982 2.00372 4.83682 2.25513C5.09383 2.50653 5.24217 2.84857 5.25008 3.208Z" fill="#2F2F30"/>
  </svg>
  