<svg width="17" height="17" viewBox="0 0 17 17" fill="none" xmlns="http://www.w3.org/2000/svg">
  <path d="M12.25 12.25L16 16" stroke="#2F2F30" stroke-width="1.5" stroke-linecap="round" stroke-linejoin="round"/>
  <path d="M1 7.42857C1 8.27278 1.16628 9.10873 1.48935 9.88868C1.81241 10.6686 2.28594 11.3773 2.88289 11.9743C3.47983 12.5712 4.18851 13.0447 4.96846 13.3678C5.74841 13.6909 6.58436 13.8571 7.42857 13.8571C8.27278 13.8571 9.10873 13.6909 9.88868 13.3678C10.6686 13.0447 11.3773 12.5712 11.9743 11.9743C12.5712 11.3773 13.0447 10.6686 13.3678 9.88868C13.6909 9.10873 13.8571 8.27278 13.8571 7.42857C13.8571 5.72361 13.1798 4.08848 11.9743 2.88289C10.7687 1.67729 9.13353 1 7.42857 1C5.72361 1 4.08848 1.67729 2.88289 2.88289C1.67729 4.08848 1 5.72361 1 7.42857V7.42857Z" stroke="#2F2F30" stroke-width="1.5" stroke-linecap="round" stroke-linejoin="round"/>
  </svg>
  