<svg width="25" height="25" viewBox="0 0 25 25" fill="none" xmlns="http://www.w3.org/2000/svg">
  <path d="M18.25 18.25L24 24" stroke="white" stroke-width="1.5" stroke-linecap="round" stroke-linejoin="round"/>
  <path d="M1 10.8571C1 12.1516 1.25496 13.4334 1.75033 14.6293C2.2457 15.8252 2.97177 16.9119 3.88709 17.8272C4.80241 18.7425 5.88905 19.4686 7.08498 19.964C8.2809 20.4593 9.56268 20.7143 10.8571 20.7143C12.1516 20.7143 13.4334 20.4593 14.6293 19.964C15.8252 19.4686 16.9119 18.7425 17.8272 17.8272C18.7425 16.9119 19.4686 15.8252 19.964 14.6293C20.4593 13.4334 20.7143 12.1516 20.7143 10.8571C20.7143 8.24287 19.6758 5.73566 17.8272 3.88709C15.9786 2.03852 13.4714 1 10.8571 1C8.24287 1 5.73566 2.03852 3.88709 3.88709C2.03852 5.73566 1 8.24287 1 10.8571V10.8571Z" stroke="white" stroke-width="1.5" stroke-linecap="round" stroke-linejoin="round"/>
  </svg>
  