<svg width="17" height="14" viewBox="0 0 17 14" fill="none" xmlns="http://www.w3.org/2000/svg">
  <path d="M16.1936 1.55841C15.5981 1.81459 14.9501 1.99895 14.2825 2.07076C14.9756 1.66017 15.4946 1.01151 15.7421 0.24648C15.0918 0.632275 14.3794 0.902801 13.6364 1.04606C13.3259 0.715022 12.9504 0.451304 12.5332 0.271336C12.116 0.0913678 11.6661 -0.000993231 11.2116 8.05479e-06C9.37249 8.05479e-06 7.89344 1.4866 7.89344 3.31088C7.89344 3.56706 7.92458 3.82324 7.97518 4.06971C5.22143 3.92609 2.76543 2.61416 1.13264 0.605514C0.835127 1.11227 0.679221 1.68926 0.68114 2.27648C0.68114 3.42539 1.26692 4.43845 2.16019 5.03425C1.63377 5.01357 1.11968 4.86928 0.659733 4.61311V4.65386C0.659733 6.26273 1.80016 7.596 3.32007 7.90264C3.03469 7.97656 2.74112 8.01438 2.44627 8.0152C2.23025 8.0152 2.02591 7.99385 1.81962 7.96474C2.23998 9.27667 3.46409 10.2296 4.92173 10.2606C3.7813 11.1514 2.35285 11.6754 0.8018 11.6754C0.523505 11.6754 0.266618 11.6657 0 11.6347C1.47126 12.5759 3.21693 13.1193 5.09688 13.1193C11.1999 13.1193 14.5394 8.0773 14.5394 3.70097C14.5394 3.55736 14.5394 3.41374 14.5297 3.27013C15.1758 2.79853 15.7421 2.21437 16.1936 1.55841Z" fill="#2F2F30"/>
  </svg>
  