<svg width="17" height="12" viewBox="0 0 17 12" fill="none" xmlns="http://www.w3.org/2000/svg">
<path d="M16.6451 2.02964C16.5464 1.70279 16.3581 1.40507 16.0987 1.16534C15.8392 0.925599 15.5173 0.751958 15.1641 0.661227C13.8382 0.333023 8.5081 0.333024 8.5081 0.333024C8.5081 0.333024 3.18812 0.325151 1.84843 0.661227C1.49578 0.752356 1.17448 0.92618 0.915596 1.1659C0.656707 1.40561 0.468982 1.70311 0.370564 2.02964C0.11878 3.28647 -0.00522718 4.56239 0.000168768 5.84064C-0.00228801 7.11275 0.1217 8.38237 0.370564 9.63344C0.4693 9.96014 0.657081 10.2579 0.91588 10.498C1.17468 10.7382 1.4958 10.9127 1.84843 11.0048C3.1743 11.333 8.5081 11.333 8.5081 11.333C8.5081 11.333 13.8249 11.333 15.1641 11.0048C15.5173 10.9131 15.839 10.7387 16.0984 10.4986C16.3578 10.2584 16.546 9.96047 16.6451 9.63344C16.889 8.38311 17.0081 7.11163 16.9996 5.84064C17.0081 4.56129 16.8917 3.28784 16.6451 2.02964ZM6.80545 8.19613V3.47482L11.2422 5.84064L6.80545 8.19613Z" fill="#2F2F30"/>
</svg>
