<svg xmlns="http://www.w3.org/2000/svg" width="407.89" height="347.812" viewBox="0 0 407.89 347.812">
  <g id="Group_39" data-name="Group 39" transform="translate(-187.11 -954.094)">
    <ellipse id="Ellipse_56" data-name="Ellipse 56" cx="13.371" cy="13.371" rx="13.371" ry="13.371" transform="translate(523.146 1224.912) rotate(101)" fill="#6e42a7"/>
    <ellipse id="Ellipse_55" data-name="Ellipse 55" cx="5.794" cy="5.794" rx="5.794" ry="5.794" transform="translate(491.792 1246.061) rotate(101)" fill="#4a66af"/>
    <ellipse id="Ellipse_54" data-name="Ellipse 54" cx="3.566" cy="3.566" rx="3.566" ry="3.566" transform="translate(473.77 1259.357) rotate(101)" fill="#7178dc"/>
    <g id="Group_25" data-name="Group 25" transform="translate(-7.89 -59.906)">
      <path id="Path_124" data-name="Path 124" d="M-2319.5,1136.308c25.152-57.186-51.255-170.69-116.846-168.807-38.66,1.109-42.192,41.406-106.269,80.021-90.12,54.311-158.515,20.024-176.137,56.089-25.243,51.669,82.9,187.963,168.1,177.517,37.1-4.55,39.217-33.165,117.447-79.952C-2359.842,1157.3-2331.982,1164.687-2319.5,1136.308Z" transform="translate(2917.481 80.114)" fill="#384d85" opacity="0.2"/>
      <path id="Union_1" data-name="Union 1" d="M214.889,209.237c0-9.019,28.4-16.331,63.442-16.331,22.793,0,42.778,3.094,53.964,7.74,7.823-2.107,18.867-3.42,31.109-3.42,23.718,0,42.945,4.929,42.945,11.011s-19.228,11.011-42.945,11.011a133.837,133.837,0,0,1-28.281-2.724c-10.4,5.361-31.927,9.043-56.792,9.043C243.293,225.566,214.889,218.255,214.889,209.237Z" transform="translate(87.19 1028.095)" fill="#fff" stroke="rgba(0,0,0,0)" stroke-width="1" opacity="0.3"/>
      <rect id="Rectangle_37" data-name="Rectangle 37" width="3.47" height="41.44" transform="translate(381.821 1182.372)" fill="#403f42"/>
      <rect id="Rectangle_38" data-name="Rectangle 38" width="6.652" height="23.089" transform="translate(380.229 1200.723)" fill="#403f42"/>
      <path id="Path_122" data-name="Path 122" d="M-2635.945,1053.9h6.665a14.444,14.444,0,0,1,14.443,14.444h0" transform="translate(3019.378 169.913)" fill="none" stroke="#403f42" stroke-miterlimit="10" stroke-width="0.5"/>
      <path id="Path_123" data-name="Path 123" d="M-2641.883,1068.344h0a14.445,14.445,0,0,1,14.444-14.444h6.664l.008,14.444" transform="translate(3004.321 169.913)" fill="none" stroke="#403f42" stroke-miterlimit="10" stroke-width="0.5"/>
      <ellipse id="Ellipse_50" data-name="Ellipse 50" cx="3.326" cy="3.326" rx="3.326" ry="3.326" transform="translate(380.229 1234.93)" fill="#403f42"/>
      <ellipse id="Ellipse_51" data-name="Ellipse 51" cx="3.326" cy="3.326" rx="3.326" ry="3.326" transform="translate(401.216 1234.93)" fill="#403f42"/>
      <ellipse id="Ellipse_52" data-name="Ellipse 52" cx="3.326" cy="3.326" rx="3.326" ry="3.326" transform="translate(359.113 1234.93)" fill="#403f42"/>
      <g id="Group_24" data-name="Group 24" transform="translate(262.514 1014)">
        <path id="Path_95" data-name="Path 95" d="M-2605.18,1000.951c-.1-1.376-.334-3.4-.751-5.818-.48-2.732-.709-4.087-1.168-4.942-1.564-3.045-5.38-3.921-10.469-5a51.542,51.542,0,0,0-9.468-1.126l-5.923,54.928h-1.314v9.843l26.818-.5a4.715,4.715,0,0,0,4.629-4.984Q-2603.982,1022.169-2605.18,1000.951Zm-12.387,38.037.875-34.033,1.752,34.033Z" transform="translate(2750.705 -915.888)" fill="#4a66af"/>
        <path id="Path_96" data-name="Path 96" d="M-2629.485,1010.4v9.843c-2.94.063-5.881.1-8.821.167h-.375V1010.4Z" transform="translate(2745.918 -887.3)" fill="#fff"/>
        <path id="Path_97" data-name="Path 97" d="M-2619.587,1038.254h-3.9c-4-5.505-14.264-3.128-14.264-3.128l.375-23.648-8.4,13.784-6.9-19.769,3.228-4.765a46.232,46.232,0,0,1,16.6-14.912l2.033-1.08a14.42,14.42,0,0,0,8.458,4.554Z" transform="translate(2730.723 -915.154)" fill="#4a66af"/>
        <path id="Path_98" data-name="Path 98" d="M-2626.677,984.068-2632.6,1039h-2l.688-45.794,1.606-6.11a14.2,14.2,0,0,0,2.711-3.024C-2628.574,984.047-2627.615,984.047-2626.677,984.068Z" transform="translate(2750.346 -915.896)" fill="#fff"/>
        <path id="Path_99" data-name="Path 99" d="M-2611.541,987.27a9.178,9.178,0,0,1-.876-.6,7.726,7.726,0,0,1-.876-.772,7.043,7.043,0,0,1-.646-.709,7.388,7.388,0,0,1-.626-.792,7.882,7.882,0,0,1-.438-.709,3.848,3.848,0,0,1-.271-.5,1.129,1.129,0,0,1-.083-.146,5.09,5.09,0,0,1-.334-.772,10.5,10.5,0,0,1-.542-1.793l-.459-2.252c-.042-.209-.1-.417-.167-.626a4.75,4.75,0,0,0-.876-1.668,4.563,4.563,0,0,0-1.96-1.523,3.2,3.2,0,0,0-.542-.167,1.51,1.51,0,0,0-1.377.271,1.2,1.2,0,0,0-.312.334c-.021.021,0,.021,0,.021a1.627,1.627,0,0,0-.251.459c-.062.167-.124.355-.187.542-.543,2.273.25,6.027.25,6.027h-2.815a.664.664,0,0,1-.625-.4l-2.065-4.359-17.913,1.043,1.022,3.086-1.564,6.777a.987.987,0,0,0,1,1.23l3.379-.125,2.652,5.305a10.045,10.045,0,0,0,3.278,3.814,14.331,14.331,0,0,0,6.268,2.475,12.693,12.693,0,0,0,3.942-.146,12.958,12.958,0,0,0,5.735-2.794,24.822,24.822,0,0,0,2.961-2.586s1.814-2.377,5.318-7.945" transform="translate(2737.86 -926.606)" fill="#8b5d61"/>
        <path id="Path_100" data-name="Path 100" d="M-2632.15,983.829" transform="translate(2753.007 -916.139)" fill="#8b5d61"/>
        <path id="Path_101" data-name="Path 101" d="M-2610.831,994.884l-.6.9a9.214,9.214,0,0,1-.876-.6,7.762,7.762,0,0,1-.876-.772,7.034,7.034,0,0,1-.646-.709,7.346,7.346,0,0,1-.626-.792,7.889,7.889,0,0,1-.438-.709,2.935,2.935,0,0,1-.271-.5,1.125,1.125,0,0,1-.083-.146,6.186,6.186,0,0,1-.334-.772,10.5,10.5,0,0,1-.542-1.793l-.459-2.252c-.042-.208-.1-.417-.167-.626a4.749,4.749,0,0,0-.875-1.668,4.564,4.564,0,0,0-1.96-1.522,3.206,3.206,0,0,0-.542-.167,1.525,1.525,0,0,0-1.377.271,1.2,1.2,0,0,0-.312.334c-.021.021,0,.021,0,.021a1.974,1.974,0,0,0-.251.459c-.062.167-.125.355-.187.542-.543,2.273.25,6.027.25,6.027h-2.815a.663.663,0,0,1-.625-.4l-2.065-4.358-17.913,1.043v-.021a13.994,13.994,0,0,1,1.439-12.2,18.008,18.008,0,0,1,6.715-6.089c8.842-4.63,17.412.042,18.018.375a18.685,18.685,0,0,1,6.381,5.631,20.233,20.233,0,0,1,3.535,9.728A16.973,16.973,0,0,1-2610.831,994.884Z" transform="translate(2737.754 -935.116)" fill="#403f42"/>
        <path id="Path_102" data-name="Path 102" d="M-2632.5,975.02a4.749,4.749,0,0,1,.875,1.668A5.121,5.121,0,0,0-2632.5,975.02Z" transform="translate(2752.625 -925.7)" fill="#403f42"/>
        <path id="Path_103" data-name="Path 103" d="M-2633.636,990.666v45.294h-1.731L-2638.141,987a12.693,12.693,0,0,0,3.942-.146Z" transform="translate(2746.504 -912.86)" fill="#fff"/>
        <path id="Path_104" data-name="Path 104" d="M-2628.8,1012.294v10.01h-11.762a5.205,5.205,0,0,1-2.794-.814,5.446,5.446,0,0,1-1.251-1.147l-2.232-2.857a4.461,4.461,0,0,1,.125-5.651v-.021a3.911,3.911,0,0,1,.917-.834l2.732-1.814S-2632.8,1006.788-2628.8,1012.294Z" transform="translate(2736.036 -889.194)" fill="#8b5d61"/>
        <path id="Path_105" data-name="Path 105" d="M-2606.19,1039.816h-55.387a2.4,2.4,0,0,1-2.314-1.731l-17.788-43.208a1.829,1.829,0,0,1,1.751-2.356h54.532a3.819,3.819,0,0,1,3.586,2.544l.689,1.981,6.9,19.769,4.379,12.512v.021a4.461,4.461,0,0,0-.125,5.651l2.232,2.857a5.452,5.452,0,0,0,1.251,1.147Z" transform="translate(2699.164 -906.706)" fill="gray"/>
        <path id="Path_107" data-name="Path 107" d="M-2630.225,985.51l-1.606,6.11a280.667,280.667,0,0,1,.1,35.833c-.207,3.391-.055,6.713-.445,9.962h-3.566c-.594-4.828-.486-9.912-.657-15.233a229.1,229.1,0,0,1,1-30.06q-.282-1.908-.563-3.816A12.958,12.958,0,0,0-2630.225,985.51Z" transform="translate(2748.265 -914.314)" fill="#403f42"/>
        <g id="Group_22" data-name="Group 22" transform="translate(0 131.024)">
          <rect id="Rectangle_33" data-name="Rectangle 33" width="100.505" height="5.021" transform="translate(18.701 6.098) rotate(90)" fill="#363636"/>
          <rect id="Rectangle_34" data-name="Rectangle 34" width="100.505" height="5.021" transform="translate(259.183 6.098) rotate(90)" fill="#363636"/>
          <rect id="Rectangle_35" data-name="Rectangle 35" width="235.46" height="52.25" transform="translate(18.701 6.098)" fill="#bbbace"/>
          <path id="Path_109" data-name="Path 109" d="M-2463.815,1017.124h-200.61l200.61,21.178Z" transform="translate(2717.977 -1011.026)" fill="#363636" opacity="0.15"/>
          <rect id="Rectangle_36" data-name="Rectangle 36" width="272.863" height="8.508" fill="#e0e5e9"/>
        </g>
        <g id="Group_23" data-name="Group 23" transform="translate(150.879)">
          <path id="Path_110" data-name="Path 110" d="M-2561.648,1007.734q-10.836,10.235-21.671,20.451a6.927,6.927,0,0,1-2.5,1.51,8.956,8.956,0,0,1-2.563.54c-1.751.042-3.066-.9-1.459-4.755a23.016,23.016,0,0,1,1.48-3,7.769,7.769,0,0,1-2.5-.062c-.73-.188-1.189-.646-.521-1.627a3.219,3.219,0,0,1,1.741-1.408s1.206-.8,7.539-1.658l13.763-14.639-17.064-22.176c-.1.229-.16.53-.285.78,1.773-4.087,1.355-9.7,2.356-13.39l.039-.021c6.966,2.169,11.178,8.842,16.561,18.812,1.522,2.794,3.545,6.318,6.235,10.322A8.055,8.055,0,0,1-2561.648,1007.734Z" transform="translate(2646.021 -933.017)" fill="#ebc0cf"/>
          <path id="Path_111" data-name="Path 111" d="M-2584.016,993.514a26.542,26.542,0,0,0,.771-7.486,24.333,24.333,0,0,0-4.8-14.013,24.231,24.231,0,0,1-5.839,2.189,25.285,25.285,0,0,1-7.925.563,69.779,69.779,0,0,0,1.105,14.243v.021c.6,2.732,1.522,5.109,2.9,6.256l-6.506,1.752a84.127,84.127,0,0,1-3.316-8.779c-1.793-5.693-3.482-13.179-2.565-19.248a.773.773,0,0,1,.019-.208,18.574,18.574,0,0,1,6.362-13.3c6.571-5.528,17-5.574,24.557.279a15.2,15.2,0,0,1,4.085,5.132c1.162,2.25,2.307,4.7,3.389,7.351a92.089,92.089,0,0,1,5.255,17.892Z" transform="translate(2625.683 -951.369)" fill="#543619"/>
          <path id="Path_112" data-name="Path 112" d="M-2561.212,968.616a13.468,13.468,0,0,0-.292,1.376.186.186,0,0,0-.021.1c-.062.4-.125.792-.187,1.21-.062.584-.125,1.168-.188,1.793-.042.375-.062.772-.125,1.168-.1,1.272-.229,2.565-.459,3.816-.083.5-.187,1-.291,1.481a1.321,1.321,0,0,0-.042.146c-.125.5-.271,1.022-.438,1.5-.021.021-.021.021-.021.042a7.984,7.984,0,0,1-.292.751c-.229.542-.459,1.043-.687,1.522-3.024,6.631-6.9,15.765-7.028,25.149a37.489,37.489,0,0,0,2.023,12.429c-.667.98-.208,1.439.521,1.626.334,1,.667,2,1.022,3.065-1.606,3.858-.292,4.8,1.459,4.755,2.106,7.778,3.712,18.977,1.314,33.8h-45.94c-2.961-22.792.042-35.826,3.712-43.688a42.39,42.39,0,0,0,3.775-19.143,41.923,41.923,0,0,0-2.753-13.325c-.021-.083-.042-.188-.062-.271-.042-.229-.1-.459-.167-.688-.25-1.084-.563-2.19-.9-3.336a64.432,64.432,0,0,0-3-8.154,32.856,32.856,0,0,1,5.192-3.274,34.305,34.305,0,0,0,2.482,6.36.159.159,0,0,0,.042.1.25.25,0,0,0,.042.063l6.507-1.752c-1.377-1.147-2.294-3.524-2.9-6.256,0,0,11.365,12.116,17.454-3a26.475,26.475,0,0,1-.772,7.486l17.5-7.361C-2563.3,967.969-2563.381,967.969-2561.212,968.616Z" transform="translate(2623.904 -933.33)" fill="#6e42a7"/>
          <path id="Path_113" data-name="Path 113" d="M-2606.131,1020.257a373.657,373.657,0,0,0-2.627,40.789l.375,1.877a7.808,7.808,0,0,1,.188,1.126c.063.479.042.646-.083.771a.63.63,0,0,1-.563.188c-.438-.083-.771-.751-.834-1.689-.542.813-2.461,3.441-5.484,3.754-.647.063-1.856.188-2.356-.459-.709-.938.208-3.107,2.377-5.568-.042-4.275-.062-10.239,0-17.329.063-6.736.146-12.908.375-20.833.251-8.758.855-15.035,2.065-27.589.479-4.9.98-9.7,3.565-15.39a29.955,29.955,0,0,1,4.776-7.924,2.646,2.646,0,0,1,.229-.271,64.475,64.475,0,0,1,3,8.154c.334,1.147.646,2.252.9,3.336.063.229.125.459.167.688.021.083.042.188.063.271C-2602.419,995.086-2604.567,1007.161-2606.131,1020.257Z" transform="translate(2617.753 -929.292)" fill="#ebc0cf"/>
          <path id="Path_114" data-name="Path 114" d="M-2587.733,975.282c-6.089,15.119-17.454,3-17.454,3v-.021a69.779,69.779,0,0,1-1.105-14.243,25.283,25.283,0,0,0,7.925-.563,24.231,24.231,0,0,0,5.839-2.189A24.333,24.333,0,0,1-2587.733,975.282Z" transform="translate(2630.172 -940.624)" fill="#edc0c8"/>
        </g>
        <path id="Path_115" data-name="Path 115" d="M-2650.761,1042.18l3.922,33.449a2.5,2.5,0,0,1-2.129,2.711l-16.819,2.94a1.281,1.281,0,0,1-.909-2.377l12.9-6.8-10.327-29.925Z" transform="translate(2714.749 -852.808)" fill="#403f42"/>
        <path id="Path_116" data-name="Path 116" d="M-2645.035,1042.18l-2.7,30.05-7.194,13.617c-.449,1.23,2.874,2.377,4.07,1.48l9.018-8.946a1.62,1.62,0,0,0,.375-1.084l-.35-4.254,11.313-30.863Z" transform="translate(2728.243 -852.808)" fill="#403f42"/>
        <path id="Path_117" data-name="Path 117" d="M-2595.069,1055.71v1.168a4.191,4.191,0,0,1-2.335,3.733l-9.051,4.463a2.479,2.479,0,0,1-1.063.25,2.377,2.377,0,0,1-2.335-1.918,2.4,2.4,0,0,1,1.1-2.523l.6-.354a3.1,3.1,0,0,0,1.481,1.835c1.668.813,3.9-.709,6.756-2.669A36.531,36.531,0,0,0-2595.069,1055.71Z" transform="translate(2777.151 -838.123)" fill="#403f42"/>
        <path id="Path_118" data-name="Path 118" d="M-2595.275,1042.18l-.71,28.214a36.515,36.515,0,0,1-4.838,3.983c-2.856,1.96-5.088,3.483-6.756,2.669a3.1,3.1,0,0,1-1.481-1.835l7.028-4.254-2.346-28.778Z" transform="translate(2778.067 -852.808)" fill="#ebc0cf"/>
        <path id="Path_119" data-name="Path 119" d="M-2597.79,1056.71" transform="translate(2790.299 -837.038)" fill="#403f42"/>
        <path id="Path_120" data-name="Path 120" d="M-2584.553,1062.095a2.269,2.269,0,0,1-2.211,1.835,2.189,2.189,0,0,1-.938-.208l-8.738-3.9a3.206,3.206,0,0,1-1.9-2.711l-.062-1a48.033,48.033,0,0,0,6.068,4.046c2.94,1.626,4.171,1.9,5.151,1.439a3.29,3.29,0,0,0,1.563-1.877A2.228,2.228,0,0,1-2584.553,1062.095Z" transform="translate(2789.637 -837.689)" fill="#403f42"/>
        <path id="Path_121" data-name="Path 121" d="M-2585.226,1074.836a3.29,3.29,0,0,1-1.563,1.877c-.98.458-2.211.187-5.151-1.439a48.051,48.051,0,0,1-6.068-4.046l-.751-29.049h8.509l-2.315,28.214Z" transform="translate(2789.246 -852.808)" fill="#ebc0cf"/>
      </g>
      <path id="Path_125" data-name="Path 125" d="M26.295,26.344C12.67,37.459,12.741,52.494,8.994,52.126c-5.764-.566-16.973-37.232,0-48.793C23.653-6.651,50.1,8.382,49.532,14.641,49.169,18.653,37.91,16.87,26.295,26.344Z" transform="translate(596.051 1218.436) rotate(159)" fill="#6c40a4" opacity="0.15"/>
    </g>
  </g>
</svg>
