<svg xmlns="http://www.w3.org/2000/svg" width="443.065" height="424.934" viewBox="0 0 443.065 424.934">
  <g id="Group_102" data-name="Group 102" transform="translate(-156.738 -2772)">
    <g id="Group_65" data-name="Group 65" transform="translate(0 -15)">
      <g id="Group_64" data-name="Group 64" transform="matrix(-0.866, -0.5, 0.5, -0.866, 471.755, 3211.933)">
        <path id="Path_176" data-name="Path 176" d="M340.494,35.264c22.7,21.382,22.876,45.685,23.209,92.007.276,38.452.807,112.3-43.621,126.824-21.821,7.135-35.13-6.365-78.85-16-103.939-22.91-154.255,25.716-202.612.132C-15.322,209.686-.7,123.791,11.348,87.676c7.178-21.512,16.287-48.807,47.684-68.282C94.114-2.366,135.34-.913,189.681,1,255.912,3.337,308.567,5.194,340.494,35.264Z" transform="translate(0 0)" fill="#f5b7ff"/>
        <path id="Path_177" data-name="Path 177" d="M27.028,97.71C21.356,99.869-4.553,71.357.7,41.759,5.517,14.6,34.748-3.159,39.594.469c3.745,2.8-8.944,16.974-13.165,46.077C21.93,77.57,31.33,96.071,27.028,97.71Z" transform="translate(18.601 120.973)" fill="#fff" opacity="0.2"/>
      </g>
      <rect id="Rectangle_103" data-name="Rectangle 103" width="221.735" height="267.262" rx="10" transform="translate(288.648 2787)" fill="#d5d9d9"/>
      <rect id="Rectangle_104" data-name="Rectangle 104" width="170.954" height="19.933" rx="5" transform="translate(311.444 2887.107)" fill="#fff"/>
      <rect id="Rectangle_105" data-name="Rectangle 105" width="113.087" height="41.357" rx="5" transform="translate(311.444 2797.605)" fill="#fff"/>
      <rect id="Rectangle_106" data-name="Rectangle 106" width="170.954" height="19.933" rx="5" transform="translate(311.444 2854.123)" fill="#fff"/>
      <rect id="Rectangle_107" data-name="Rectangle 107" width="170.954" height="19.933" rx="5" transform="translate(311.444 2953.075)" fill="#fff"/>
      <rect id="Rectangle_108" data-name="Rectangle 108" width="170.954" height="19.933" rx="5" transform="translate(311.444 2920.091)" fill="#fff"/>
      <rect id="Rectangle_109" data-name="Rectangle 109" width="170.954" height="19.933" rx="5" transform="translate(311.444 3019.043)" fill="#fff"/>
      <rect id="Rectangle_110" data-name="Rectangle 110" width="170.954" height="19.933" rx="5" transform="translate(311.444 2986.059)" fill="#fff"/>
      <g id="Group_57" data-name="Group 57" transform="translate(441.467 2801.193)">
        <ellipse id="Ellipse_78" data-name="Ellipse 78" cx="17.09" cy="17.09" rx="17.09" ry="17.09" transform="translate(0 0)" fill="#fff" stroke="#4d81de" stroke-miterlimit="10" stroke-width="7"/>
        <line id="Line_3" data-name="Line 3" y1="10.457" x2="6.648" transform="translate(17.09 6.633)" fill="none" stroke="#4d81de" stroke-miterlimit="10" stroke-width="1"/>
        <line id="Line_4" data-name="Line 4" x1="9.707" transform="translate(7.383 17.09)" fill="none" stroke="#4d81de" stroke-miterlimit="10" stroke-width="2"/>
        <ellipse id="Ellipse_79" data-name="Ellipse 79" cx="0.919" cy="0.919" rx="0.919" ry="0.919" transform="translate(16.171 16.171)" fill="#4d81de"/>
      </g>
      <g id="Group_58" data-name="Group 58" transform="translate(320.142 2859.784)">
        <line id="Line_5" data-name="Line 5" x2="53.58" transform="translate(0 0)" fill="none" stroke="#4d81de" stroke-miterlimit="10" stroke-width="0.25"/>
        <line id="Line_6" data-name="Line 6" x2="53.58" transform="translate(0 2.87)" fill="none" stroke="#4d81de" stroke-miterlimit="10" stroke-width="0.25"/>
        <line id="Line_7" data-name="Line 7" x2="53.58" transform="translate(0 5.741)" fill="none" stroke="#4d81de" stroke-miterlimit="10" stroke-width="0.25"/>
        <line id="Line_8" data-name="Line 8" x2="53.58" transform="translate(0 8.611)" fill="none" stroke="#4d81de" stroke-miterlimit="10" stroke-width="0.25"/>
      </g>
      <g id="Group_59" data-name="Group 59" transform="translate(420.127 2859.784)">
        <line id="Line_9" data-name="Line 9" x2="53.58" transform="translate(0 0)" fill="none" stroke="#4d81de" stroke-miterlimit="10" stroke-width="0.25"/>
        <line id="Line_10" data-name="Line 10" x2="53.58" transform="translate(0 2.87)" fill="none" stroke="#4d81de" stroke-miterlimit="10" stroke-width="0.25"/>
        <line id="Line_11" data-name="Line 11" x2="53.58" transform="translate(0 5.741)" fill="none" stroke="#4d81de" stroke-miterlimit="10" stroke-width="0.25"/>
        <line id="Line_12" data-name="Line 12" x2="53.58" transform="translate(0 8.611)" fill="none" stroke="#4d81de" stroke-miterlimit="10" stroke-width="0.25"/>
      </g>
      <g id="Group_60" data-name="Group 60" transform="translate(420.127 2892.768)">
        <line id="Line_13" data-name="Line 13" x2="53.58" transform="translate(0 0)" fill="none" stroke="#4d81de" stroke-miterlimit="10" stroke-width="0.25"/>
        <line id="Line_14" data-name="Line 14" x2="53.58" transform="translate(0 2.87)" fill="none" stroke="#4d81de" stroke-miterlimit="10" stroke-width="0.25"/>
        <line id="Line_15" data-name="Line 15" x2="53.58" transform="translate(0 5.741)" fill="none" stroke="#4d81de" stroke-miterlimit="10" stroke-width="0.25"/>
        <line id="Line_16" data-name="Line 16" x2="53.58" transform="translate(0 8.611)" fill="none" stroke="#4d81de" stroke-miterlimit="10" stroke-width="0.25"/>
      </g>
      <g id="Group_61" data-name="Group 61" transform="translate(320.142 2925.752)">
        <line id="Line_17" data-name="Line 17" x2="53.58" transform="translate(0 0)" fill="none" stroke="#4d81de" stroke-miterlimit="10" stroke-width="0.25"/>
        <line id="Line_18" data-name="Line 18" x2="53.58" transform="translate(0 2.87)" fill="none" stroke="#4d81de" stroke-miterlimit="10" stroke-width="0.25"/>
        <line id="Line_19" data-name="Line 19" x2="53.58" transform="translate(0 5.741)" fill="none" stroke="#4d81de" stroke-miterlimit="10" stroke-width="0.25"/>
        <line id="Line_20" data-name="Line 20" x2="53.58" transform="translate(0 8.611)" fill="none" stroke="#4d81de" stroke-miterlimit="10" stroke-width="0.25"/>
      </g>
      <g id="Group_62" data-name="Group 62" transform="translate(422.06 2991.72)">
        <line id="Line_21" data-name="Line 21" x2="53.58" transform="translate(0 0)" fill="none" stroke="#4d81de" stroke-miterlimit="10" stroke-width="0.25"/>
        <line id="Line_22" data-name="Line 22" x2="53.58" transform="translate(0 2.87)" fill="none" stroke="#4d81de" stroke-miterlimit="10" stroke-width="0.25"/>
        <line id="Line_23" data-name="Line 23" x2="53.58" transform="translate(0 5.741)" fill="none" stroke="#4d81de" stroke-miterlimit="10" stroke-width="0.25"/>
        <line id="Line_24" data-name="Line 24" x2="53.58" transform="translate(0 8.611)" fill="none" stroke="#4d81de" stroke-miterlimit="10" stroke-width="0.25"/>
      </g>
      <text id="_" data-name="$" transform="translate(467 2934)" fill="#4d81de" font-size="13" font-family="MyriadPro-Regular, Myriad Pro"><tspan x="0" y="0">$</tspan></text>
      <text id="_2" data-name="$" transform="translate(467 2967)" fill="#4d81de" font-size="13" font-family="MyriadPro-Regular, Myriad Pro"><tspan x="0" y="0">$</tspan></text>
      <rect id="Rectangle_111" data-name="Rectangle 111" width="103.173" height="5.58" rx="2.79" transform="translate(316.4 2801.886)" fill="#4d81de" opacity="0.4"/>
      <rect id="Rectangle_112" data-name="Rectangle 112" width="61.468" height="5.58" rx="2.79" transform="translate(316.4 2810.958)" fill="#4d81de" opacity="0.4"/>
      <rect id="Rectangle_113" data-name="Rectangle 113" width="36.802" height="5.58" rx="2.79" transform="translate(382.772 2810.958)" fill="#4d81de" opacity="0.4"/>
      <rect id="Rectangle_114" data-name="Rectangle 114" width="103.173" height="5.58" rx="2.79" transform="translate(316.4 2820.029)" fill="#4d81de" opacity="0.4"/>
      <rect id="Rectangle_115" data-name="Rectangle 115" width="103.173" height="5.58" rx="2.79" transform="translate(316.4 2829.1)" fill="#4d81de" opacity="0.4"/>
      <ellipse id="Ellipse_80" data-name="Ellipse 80" cx="49.867" cy="12.882" rx="49.867" ry="12.882" transform="translate(310.257 3092.267)" fill="#fff" opacity="0.15"/>
      <g id="Group_63" data-name="Group 63" transform="translate(331.874 2866.644)">
        <path id="Path_166" data-name="Path 166" d="M-4182.611,105.6a14.324,14.324,0,0,0-4.173-6.807,5.832,5.832,0,0,0-3.491,2.194c-1.188,1.754-.589,3.674-1.3,3.89s-1.48-1.637-3.691-4.189c-2.468-2.842-3.656-3.025-3.79-4.189-.141-1.272,1.031-3.241,7.33-6.192-.515-2.211,1.147-3.408.616-5.668-.7-2.917-4.43-4.87-7.348-5.294-5.277-.765-9.333,3.258-10.971,4.887-1.437,1.421-4.08,4.048-4.587,8.078-.548,4.338,1.7,7.746,4.088,11.37a32.493,32.493,0,0,0,6.907,7.53,9.619,9.619,0,0,0,7.057-6.316s1.7,8.12,5.835,9.018c.681-.033,1.5.233,2.593.216a6.5,6.5,0,0,0,4.488-1.787C-4181.357,110.453-4182.171,107.312-4182.611,105.6Zm-14.953-3a3.273,3.273,0,0,1-3.848-.1,3.34,3.34,0,0,1-.108-4.455.738.738,0,0,1,1.122,0l2.975,3.457A.732.732,0,0,1-4197.564,102.6Z" transform="translate(4218.496 -79.249)" fill="#172d32"/>
        <path id="Path_167" data-name="Path 167" d="M-4181.435,99.444c0,.482-.624,1.022-2.293,1.6a5.831,5.831,0,0,0-3.492,2.194c-1.188,1.754-.589,3.674-1.3,3.89s-1.479-1.637-3.691-4.189c-2.468-2.842-3.655-3.025-3.79-4.189-.141-1.272,1.031-3.241,7.331-6.192a3.215,3.215,0,0,0,.15.507c.723,1.995,2.717,3.374,3.665,4.039C-4182.931,98.43-4181.426,98.688-4181.435,99.444Z" transform="translate(4215.442 -81.496)" fill="#ffcea7"/>
        <path id="Path_168" data-name="Path 168" d="M-4187.874,119.122a1.379,1.379,0,0,0-.848.291,2.652,2.652,0,0,0-.749,2.169,59.548,59.548,0,0,1-11.294-3.216V116.42a9.619,9.619,0,0,0,7.056-6.316S-4192.013,118.224-4187.874,119.122Z" transform="translate(4216.246 -84.46)" fill="#ffcea7"/>
        <path id="Path_169" data-name="Path 169" d="M-4167.749,170.476a6.293,6.293,0,0,1-5.094,1.82c-3.366-.382-6.341-4.056-7.355-9.317a33.691,33.691,0,0,0-4.488,16.157c0,.44.008.873.025,1.288h-27.1c.125-2.576-.224-3.989-2.951-14.3-3.591-13.58-3.515-13.132-3.591-13.564-1.038-6.051-2.867-16.7,3.159-24.775a22.455,22.455,0,0,1,11.229-7.738,59.538,59.538,0,0,0,11.294,3.216,27.635,27.635,0,0,1,14.063,7.7c2.993,3.158,4.431,7.139,7.181,14.96C-4166.809,158.907-4164.149,166.736-4167.749,170.476Z" transform="translate(4219.391 -86.139)" fill="#6f3378"/>
        <path id="Path_170" data-name="Path 170" d="M-4175.091,326.694h-2.218l-6.657.2-1.8.075-10.472-90.733-9.026,90.558-1.5.025-6.882.175h-1.5c2.277-83.219,2.227-102.2,1.246-109.408a40.619,40.619,0,0,1-.3-11.27c.822-6.99,2.884-7.945,3.149-13.622h27.095a32.144,32.144,0,0,0,3.067,12.425,15.354,15.354,0,0,1,.556,1.454,11.853,11.853,0,0,1,.69,3.482,38.077,38.077,0,0,1,.184,4.205c-.083,2.859.166,5.718.19,8.577C-4179.221,226.429-4178.25,242.212-4175.091,326.694Z" transform="translate(4218.672 -98.408)" fill="#0d2f35"/>
        <path id="Path_171" data-name="Path 171" d="M-4206.452,354.074l-.009,1.13h-6.815c-.017-.324-.042-.64-.058-.956Z" transform="translate(4218.368 -125.663)" fill="#ffcea7"/>
        <path id="Path_172" data-name="Path 172" d="M-4207.355,355.434l-.091,10.962c-1.42.091-3.474.191-5.975.258-4.172.1-4.9-.05-5.136-.49-.175-.349-.441-1.587,4.679-5.8-.1-1.646-.191-3.291-.291-4.928Z" transform="translate(4219.263 -125.893)" fill="#0d2f35"/>
        <path id="Path_173" data-name="Path 173" d="M-4170.944,355.221l-6.657.15c-.016-.416-.024-.831-.033-1.247l6.657-.2Z" transform="translate(4212.339 -125.638)" fill="#ffcea7"/>
        <path id="Path_174" data-name="Path 174" d="M-4155.187,366.205c-.109.549-2.145.549-7.181.6-6.342.066-11.494.158-14.96.224q-.138-5.7-.266-11.395l6.657-.15.116,4.737C-4158,363.953-4155.046,365.516-4155.187,366.205Z" transform="translate(4212.332 -125.901)" fill="#0d2f35"/>
        <path id="Path_175" data-name="Path 175" d="M-4195.169,106.366a3.273,3.273,0,0,1-3.848-.1,3.34,3.34,0,0,1-.109-4.455.739.739,0,0,1,1.123,0l2.975,3.457A.733.733,0,0,1-4195.169,106.366Z" transform="translate(4216.103 -83.016)" fill="#ffcea7"/>
      </g>
    </g>
    <ellipse id="Ellipse_119" data-name="Ellipse 119" cx="7.528" cy="7.528" rx="7.528" ry="7.528" transform="translate(261.549 3099.451) rotate(174)" fill="#d18bbd"/>
    <ellipse id="Ellipse_120" data-name="Ellipse 120" cx="12.928" cy="12.928" rx="12.928" ry="12.928" transform="translate(294.849 3126.417) rotate(174)" fill="#9b67df"/>
  </g>
</svg>
