<svg xmlns="http://www.w3.org/2000/svg" width="331.417" height="368.763" viewBox="0 0 331.417 368.763">
  <g id="Group_21" data-name="Group 21" transform="translate(-923.623 -1174.684)">
    <path id="Path_91" data-name="Path 91" d="M775.132-3463.687c36.75-16.771,98.27,11.935,120.172,55.367,32.075,63.6-20.157,160.085-94.905,190.039-72.833,29.186-141.046-13.907-147.871-18.383-58.2-38.171-93.2-114.39-73.477-138.7,20.774-25.6,86.766,25.42,138.066-9.2C753.242-3408.945,742.272-3448.692,775.132-3463.687Z" transform="translate(350.106 4730.983)" fill="#d18bbd"/>
    <ellipse id="Ellipse_47" data-name="Ellipse 47" cx="7.528" cy="7.528" rx="7.528" ry="7.528" transform="translate(976.896 1516.003) rotate(162)" fill="#d18bbd"/>
    <ellipse id="Ellipse_46" data-name="Ellipse 46" cx="12.928" cy="12.928" rx="12.928" ry="12.928" transform="translate(1015.075 1535.456) rotate(162)" fill="#5f3990"/>
    <path id="Path_92" data-name="Path 92" d="M631.812-3467.136c10.626-4.849,28.414,3.451,34.747,16.009,9.274,18.39-5.828,46.287-27.441,54.948-21.059,8.439-40.782-4.021-42.755-5.315-16.829-11.037-26.949-33.074-21.245-40.1,6.007-7.4,25.087,7.35,39.92-2.659C625.483-3451.308,622.311-3462.8,631.812-3467.136Z" transform="translate(542.556 4774.178)" fill="#ffc1fe" opacity="0.5"/>
    <ellipse id="Ellipse_53" data-name="Ellipse 53" cx="61" cy="20" rx="61" ry="20" transform="translate(1041.879 1457.684)" fill="#fff" opacity="0.15"/>
    <g id="Group_20" data-name="Group 20" transform="translate(1029.539 1174.684)">
      <g id="Group_19" data-name="Group 19">
        <path id="Path_75" data-name="Path 75" d="M-1329.42,1466.67c-1.86-5.667-7.819-9.7-14.62-10.026-7.586-.36-14.679,3.974-16.612,10.375l-.524,6.592.131,9.4a30.7,30.7,0,0,0,2.093,5.835,32.492,32.492,0,0,0,3.009,5.079,13.283,13.283,0,0,0,9.5,4.791,14.19,14.19,0,0,0,10.508-3.6,17.7,17.7,0,0,0,3.749-5.7,15.5,15.5,0,0,0,1.09-5.319,28.872,28.872,0,0,0,1.4-3.77,27.2,27.2,0,0,0,.959-4.659C-1328.97,1472.661-1329.187,1469.672-1329.42,1466.67Zm-3.415,6.256c-.175,3.146-.349,6.688-3.488,8.646-2.427,1.513-5.508,1.393-7.325,1.153.13,2.449-1.788,4.083-3.14,4.034-1.322-.048-2.993-1.705-2.79-4.034a6.121,6.121,0,0,1-4.186.72c-3.241-.78-5.377-5.571-4.186-11.959a30.806,30.806,0,0,0,12.034,0,27.053,27.053,0,0,0,12.034-5.62A18.191,18.191,0,0,1-1332.835,1472.925Z" transform="translate(1415.25 -1456.623)" fill="#c55b3a"/>
        <path id="Path_76" data-name="Path 76" d="M-1330.135,1493.742l-14.984,15.021-18.211-15.021,1.148-.757,6.671-5.3a13.283,13.283,0,0,0,9.505,4.791,14.189,14.189,0,0,0,10.508-3.6Z" transform="translate(1414.818 -1450.386)" fill="#f5aba5"/>
        <path id="Path_77" data-name="Path 77" d="M-1307.077,1501.375l-32.614,8.97-33.093-10.182,11.351-7.432,18.211,15.021,14.984-15.021Z" transform="translate(1412.92 -1449.374)" fill="#0a6a8f"/>
        <path id="Path_78" data-name="Path 78" d="M-1331.5,1474.714l-.77,3.542a3.787,3.787,0,0,1-3.852,2.654,28.869,28.869,0,0,0,1.4-3.771,27.193,27.193,0,0,0,.959-4.659C-1332.342,1472.48-1331.252,1473.549-1331.5,1474.714Z" transform="translate(1420.28 -1453.439)" fill="#f5aba5"/>
        <path id="Path_79" data-name="Path 79" d="M-1360.576,1480.175a3.977,3.977,0,0,1-2.136-1.1,2.771,2.771,0,0,1-.8-1.981l.131-4.455a2.23,2.23,0,0,1,2.674-1.861Z" transform="translate(1414.781 -1453.786)" fill="#f5aba5"/>
        <path id="Path_80" data-name="Path 80" d="M-1333.318,1471.38c-.175,3.146-.349,6.688-3.488,8.646a10.266,10.266,0,0,1-5.777,1.286,1.552,1.552,0,0,0-1.641,1.019,3.5,3.5,0,0,1-3.046,2.882,3.254,3.254,0,0,1-2.626-2.428,1.713,1.713,0,0,0-2.034-.93,4.895,4.895,0,0,1-2.316.043c-3.241-.78-5.377-5.572-4.186-11.959a30.807,30.807,0,0,0,12.034,0,27.054,27.054,0,0,0,12.034-5.62A18.188,18.188,0,0,1-1333.318,1471.38Z" transform="translate(1415.734 -1455.078)" fill="#f5aba5"/>
        <path id="Path_81" data-name="Path 81" d="M-1349.326,1580.166h-20.609l.116-6.916Z" transform="translate(1413.492 -1433.21)" fill="#0a6a8f"/>
        <path id="Path_82" data-name="Path 82" d="M-1322.633,1574.37v5.572h-15.493Z" transform="translate(1419.877 -1432.985)" fill="#0a6a8f"/>
        <line id="Line_1" data-name="Line 1" y1="0.012" transform="translate(97.245 141.373)" fill="none" stroke="#215942" stroke-miterlimit="10" stroke-width="1"/>
        <path id="Path_83" data-name="Path 83" d="M-1315.776,1579.01v146.671h-12.557l-9.752-134.207-7.979-.048-12.266,134.256h-13.952l2.819-146.671" transform="translate(1413.021 -1432.054)"/>
        <path id="Path_84" data-name="Path 84" d="M-1265.18,1493.774v80.666a1.281,1.281,0,0,1-.92,1.159l-43.554,15.664v.012l-15.493,5.572-7.925,2.849a1.831,1.831,0,0,1-1.189.011l-8.472-2.86-20.492-6.916-38.609-13.043a1.288,1.288,0,0,1-.952-1.171v-84.29a1.516,1.516,0,0,1,2.064-1.185l33.965,10.437,32.587,10.026a1.836,1.836,0,0,0,1.018.016l32.1-8.829,33.855-9.317A1.508,1.508,0,0,1-1265.18,1493.774Z" transform="translate(1406.898 -1449.89)" fill="#c3c8cc"/>
        <path id="Path_85" data-name="Path 85" d="M-1283.03,1525.355c0,3.023-.06,5.475-3.721,5.475s-6.627-1.251-6.627-4.275,2.967-6.676,6.627-6.676S-1283.03,1522.332-1283.03,1525.355Z" transform="translate(1428.861 -1443.924)" fill="#f5aba5"/>
        <path id="Path_86" data-name="Path 86" d="M-1406.21,1525.355c0,3.023.06,5.475,3.721,5.475s6.627-1.251,6.627-4.275-2.967-6.676-6.627-6.676S-1406.21,1522.332-1406.21,1525.355Z" transform="translate(1406.21 -1443.924)" fill="#f5aba5"/>
      </g>
      <path id="Path_87" data-name="Path 87" d="M-1351.3,1715.655l-19.068-4.142a1.353,1.353,0,0,1-1.177-1.525l1.1-4.947,9.826,1.513,9.839,8.357C-1350.379,1715.234-1350.757,1715.763-1351.3,1715.655Z" transform="translate(1413.165 -1406.754)"/>
      <path id="Path_88" data-name="Path 88" d="M-1360.8,1707.332l-9.825-1.513.451-4.659h8.022Z" transform="translate(1413.354 -1407.533)" fill="#f5aba5"/>
      <path id="Path_89" data-name="Path 89" d="M-1314.911,1715.655l-19.068-4.142a1.354,1.354,0,0,1-1.177-1.525l1.1-4.947,9.824,1.513,9.839,8.357C-1314,1715.234-1314.374,1715.763-1314.911,1715.655Z" transform="translate(1420.469 -1406.754)"/>
      <path id="Path_90" data-name="Path 90" d="M-1324.416,1707.332l-9.825-1.513.45-4.659h8.022Z" transform="translate(1420.657 -1407.533)" fill="#f5aba5"/>
    </g>
  </g>
</svg>
