<svg xmlns="http://www.w3.org/2000/svg" width="399.789" height="338.699" viewBox="0 0 399.789 338.699">
  <g id="Group_101" data-name="Group 101" transform="translate(-801.186 -2335)">
    <g id="Group_54" data-name="Group 54" transform="translate(-45.274 -11.332)">
      <path id="Path_164" data-name="Path 164" d="M331.533,164.935c-9.666,15.543-30.586,49.184-75.577,69.024-82.306,36.3-166.932-8.1-174.2-12.049-17.949-9.766-85.27-46.4-81.612-103.4,2.77-43.162,44.881-76.838,81.278-89.3,36.363-12.455,46.124,3.42,105.4-6.965,55.584-9.739,64.344-26.738,95.329-21.14,34.2,6.178,60.218,33.509,70.762,58.848C370.513,102.252,346.056,141.58,331.533,164.935Z" transform="translate(846.46 2441.455) rotate(-11)" fill="#d0b9ee"/>
      <path id="Path_165" data-name="Path 165" d="M63.593,28.478A30.613,30.613,0,0,1,49.1,40.4c-15.787,6.267-32.02-1.4-33.414-2.08C12.239,36.629-.674,30.3.028,20.463.559,13.01,8.636,7.2,15.618,5.044s8.847.59,20.217-1.2C46.5,2.159,48.177-.776,54.12.191A18.775,18.775,0,0,1,67.694,10.352C71.07,17.655,66.379,24.446,63.593,28.478Z" transform="translate(1170.605 2464.308) rotate(-143)" fill="#fff" opacity="0.2"/>
      <ellipse id="Ellipse_77" data-name="Ellipse 77" cx="60.077" cy="15.258" rx="60.077" ry="15.258" transform="translate(905.145 2585.369)" fill="#fff" opacity="0.15"/>
      <g id="Group_41" data-name="Group 41" transform="translate(914.68 2379.811)">
        <path id="Path_142" data-name="Path 142" d="M-1078.413,384.762c-.827,2.5-5.147,2.911-12.195,3.6-6.113.6-9.192.858-10.847-.919-2.988-3.217-.291-9.728-.092-10.2h7.538a9.222,9.222,0,0,0,5.975,2.819c2.926.046,4.259-1.838,6.343-1.164C-1079.5,379.6-1077.723,382.709-1078.413,384.762Z" transform="translate(1171.724 -162.607)" fill="#050505"/>
        <path id="Path_143" data-name="Path 143" d="M-1115.3,384.019c-1.287,1.946-4.565,1.823-11.092,1.5-7.124-.337-10.709-.552-12.21-2.681-2.191-3.125-.276-7.905.352-9.3l10.495.153c.505,1.486,1.471,3.478,3.355,4.29,3.079,1.318,5.975-1.67,8.135-.245C-1114.583,378.856-1114.077,382.15-1115.3,384.019Z" transform="translate(1152.159 -164.575)" fill="#050505"/>
        <path id="Path_144" data-name="Path 144" d="M-1115.745,256.9c-.582,3.309,2.65,5.852,1.655,7.354-1.073,1.624-5.224-.735-6.71.919-2.038,2.252,3.968,8.579,1.838,12.593-1.118,2.084-4,2.712-6.067,2.941A34.517,34.517,0,0,1-1136.06,269.4c-2.268-3.8-5.791-9.713-4.412-16.546,1.823-9.008,11.735-17.342,20.131-15.443,4.657,1.057,9.682,5.454,9.79,9.79.062,2.3-1.287,3.57-1.486,5.1C-1113.478,253.195-1115.362,254.7-1115.745,256.9Z" transform="translate(1151.544 -237.142)" fill="#403f42"/>
        <path id="Path_145" data-name="Path 145" d="M-1077.272,272.45c-.551,1.854-.582,2.421-1.762,11.061-3.125,22.812-3.6,23.976-5.01,25.141-5.27,4.3-15.412,1.762-20.82.414l-.873-.23c-2.114-8.932,5.209-14.217,5.209-14.217,2.65,1.2,4.014,1.348,5.5.659,1.532-.72,3.309-5.27,6.8-14.34,2.589-6.71,3.049-8.549,2.466-10.831-.919-3.6-3.417-4.473-3.386-7.737.015-1.808.781-2.267,3.861-7.17,4.09-6.526,4.92-10.326,7.172-10.25a.924.924,0,0,1,.841.441c1.41,1.731-2.811,6.541-2.542,10.484.9,2.221,4.32,1.133,5.744,3.461C-1072.385,262.094-1075.265,265.617-1077.272,272.45Z" transform="translate(1169.986 -232.682)" fill="#d8b1b7"/>
        <path id="Path_146" data-name="Path 146" d="M-1097.965,296.474c-1.042-.291-3.309-.9-8.227-2.252-22.75-9.928-12-25.462-12-25.462,2.773,1.624,6.986,3.738,13.1,6.986,6.1,3.248,9.8,5.362,12.333,6.511C-1092.756,282.257-1100.079,287.543-1097.965,296.474Z" transform="translate(1162.214 -220.321)" fill="#ebebeb"/>
        <path id="Path_147" data-name="Path 147" d="M-1110.414,270.452c-5.791,1.134-24.926.551-24.926.551a57.727,57.727,0,0,1,7.415-5.423s8.687,1.241,12.961,0C-1114.995,267.265-1113.738,268.506-1110.414,270.452Z" transform="translate(1154.44 -222.012)" fill="#ebebeb"/>
        <path id="Path_148" data-name="Path 148" d="M-1117.539,275.444c-4.274,1.241-12.961,0-12.961,0,2.068-.23,4.948-.858,6.067-2.941,2.13-4.014-3.876-10.341-1.839-12.593,1.486-1.655,5.638.7,6.71-.919,1-1.5-2.237-4.045-1.655-7.354.383-2.206,2.267-3.707,3.708-4.6a2.761,2.761,0,0,0,.153,1.379c1.21,3.279,6.695,2.88,7.262,5.791.337,1.731-1.5,2.405-1.379,4.964.107,2.344,1.7,3,2.114,4.688C-1108.3,268.213-1117.478,270.97-1117.539,275.444Z" transform="translate(1157.015 -231.876)" fill="#d8b1b7"/>
        <path id="Path_149" data-name="Path 149" d="M-1136.588,303.318c-10.1-3.355-10.6-4.473-10.6-4.673v-.031a53.885,53.885,0,0,1,7.277-19.518,59.379,59.379,0,0,1,3.416-4.887A270.156,270.156,0,0,0-1136.588,303.318Z" transform="translate(1148.136 -217.421)" fill="#ebebeb"/>
        <path id="Path_150" data-name="Path 150" d="M-1135.54,302.968c-1.3,4.642-3.952,7.538-6.266,7.369-2.16-.153-3.554-2.926-4.213-4.244-2.329-4.627-2.022-9.514-1.1-14.524.092-.46.169-.919.26-1.409,0,.2.505,1.318,10.6,4.673C-1136.092,297.606-1135.862,300.348-1135.54,302.968Z" transform="translate(1147.807 -208.935)" fill="#d8b1b7"/>
        <path id="Path_151" data-name="Path 151" d="M-1092.361,333.335c-19.3,12.18-43.678,2.375-43.678,2.375-1.118-8.687-2.359-15.964-3.386-21.356-.322-2.62-.551-5.362-.72-8.135a270.192,270.192,0,0,1,.092-29.108,55.558,55.558,0,0,1,7.461-7.8s19.135.582,24.926-.551c0,0-10.755,15.535,12,25.462a171.881,171.881,0,0,0,.4,17.909A168.788,168.788,0,0,0-1092.361,333.335Z" transform="translate(1151.693 -220.321)" fill="#d18bbd"/>
        <path id="Path_152" data-name="Path 152" d="M-1074.921,412.529h-7.538c-.98-4.78-2.466-11.567-4.6-19.671-2.758-10.448-4.121-15.673-6.618-20.958-3.417-7.262-5.745-8.932-12.869-19.671-3.279-4.948-7.614-12.5-7.614-12.5-.475,4.5-1.073,9.1-1.762,13.788a350.95,350.95,0,0,1-12.318,53.5l-10.494-.153a248.719,248.719,0,0,0,4.244-30c1.946-24.42-.169-43.709-1.839-58.186-.214-1.854-.444-3.646-.659-5.393,0,0,24.374,9.8,43.678-2.375,3.615,17.465,7.476,19.518,11.582,35.9,1.762,6.986,2.5,13.727,4,27.193C-1076.591,384.141-1074.921,412.529-1074.921,412.529Z" transform="translate(1152.637 -197.896)" fill="#262a44"/>
      </g>
      <g id="Group_42" data-name="Group 42" transform="translate(963.314 2346.332)">
        <rect id="Rectangle_101" data-name="Rectangle 101" width="128.625" height="26.385" rx="13.192" transform="translate(0 0)" fill="#819fce"/>
        <circle id="Ellipse_69" data-name="Ellipse 69" cx="10.994" cy="10.994" r="10.994" transform="translate(2.644 2.199)" fill="#94ebb8"/>
        <path id="Path_153" data-name="Path 153" d="M-1105.653,187.434a10.936,10.936,0,0,1-2.869,7.4c-.594-2.924-4-5.156-8.124-5.156s-7.531,2.221-8.135,5.145a10.9,10.9,0,0,1-2.858-7.388,10.991,10.991,0,0,1,10.994-10.994A11,11,0,0,1-1105.653,187.434Z" transform="translate(1155.626 -174.241)" fill="#fff"/>
        <circle id="Ellipse_70" data-name="Ellipse 70" cx="3.982" cy="3.982" r="3.982" transform="translate(34.993 6.572)" fill="#c5c5c9"/>
        <path id="Path_154" data-name="Path 154" d="M-1108.78,193.636a10.949,10.949,0,0,1-8.124,3.595,10.931,10.931,0,0,1-8.124-3.595h-.011v-.011c.6-2.924,4.013-5.145,8.135-5.145S-1109.374,190.712-1108.78,193.636Z" transform="translate(1155.885 -173.045)" fill="#c5c5c9"/>
        <circle id="Ellipse_71" data-name="Ellipse 71" cx="10.994" cy="10.994" r="10.994" transform="translate(53.319 2.199)" fill="#fff"/>
        <circle id="Ellipse_72" data-name="Ellipse 72" cx="10.994" cy="10.994" r="10.994" transform="translate(78.657 2.199)" fill="#fff"/>
        <circle id="Ellipse_73" data-name="Ellipse 73" cx="10.994" cy="10.994" r="10.994" transform="translate(103.994 2.199)" fill="#fff"/>
        <path id="Path_155" data-name="Path 155" d="M-1135.595,186.211h-4.023v-4.023h-1.3v4.023h-4.023v1.3h4.023v4.023h1.3v-4.023h4.023Z" transform="translate(1153.907 -173.67)" fill="#fff"/>
        <circle id="Ellipse_74" data-name="Ellipse 74" cx="3.982" cy="3.982" r="3.982" transform="translate(60.333 6.572)" fill="#c5c5c9"/>
        <path id="Path_156" data-name="Path 156" d="M-1085.73,193.636a10.949,10.949,0,0,1-8.124,3.595,10.931,10.931,0,0,1-8.124-3.595h-.011v-.011c.6-2.924,4.013-5.145,8.135-5.145S-1086.324,190.712-1085.73,193.636Z" transform="translate(1158.175 -173.045)" fill="#c5c5c9"/>
        <circle id="Ellipse_75" data-name="Ellipse 75" cx="3.982" cy="3.982" r="3.982" transform="translate(85.669 6.572)" fill="#c5c5c9"/>
        <path id="Path_157" data-name="Path 157" d="M-1062.684,193.636a10.949,10.949,0,0,1-8.124,3.595,10.931,10.931,0,0,1-8.124-3.595h-.011v-.011c.6-2.924,4.013-5.145,8.135-5.145S-1063.278,190.712-1062.684,193.636Z" transform="translate(1160.465 -173.045)" fill="#c5c5c9"/>
        <circle id="Ellipse_76" data-name="Ellipse 76" cx="3.982" cy="3.982" r="3.982" transform="translate(111.006 6.572)" fill="#c5c5c9"/>
        <path id="Path_158" data-name="Path 158" d="M-1039.638,193.636a10.948,10.948,0,0,1-8.124,3.595,10.931,10.931,0,0,1-8.125-3.595h-.011v-.011c.6-2.924,4.013-5.145,8.135-5.145S-1040.231,190.712-1039.638,193.636Z" transform="translate(1162.755 -173.045)" fill="#c5c5c9"/>
      </g>
      <g id="Group_53" data-name="Group 53" transform="translate(997.018 2451.726)">
        <g id="Group_52" data-name="Group 52" transform="translate(17.494)">
          <rect id="Rectangle_102" data-name="Rectangle 102" width="36.768" height="36.768" rx="9.36" transform="translate(5.752 3.918) rotate(9)" fill="#e85050"/>
          <path id="Path_163" data-name="Path 163" d="M15.333,8.385,8.385,15.333,1.438,8.385A4.912,4.912,0,0,1,8.385,1.439a4.912,4.912,0,0,1,6.947,6.947Z" transform="translate(13.95 16.067) rotate(9)" fill="#fff"/>
          <rect id="Rectangle_102-2" data-name="Rectangle 102" width="36.768" height="36.768" rx="9.36" transform="translate(38.573 6.143) rotate(20)" fill="#e85050"/>
          <path id="Path_163-2" data-name="Path 163" d="M15.333,8.385,8.385,15.333,1.438,8.385A4.912,4.912,0,0,1,8.385,1.439a4.912,4.912,0,1,1,6.947,6.947Z" transform="translate(44.303 19.634) rotate(20)" fill="#fff"/>
          <rect id="Rectangle_102-3" data-name="Rectangle 102" width="36.768" height="36.768" rx="9.36" transform="translate(100.413 32.873) rotate(-40)" fill="#e85050"/>
          <path id="Path_163-3" data-name="Path 163" d="M15.333,8.385,8.385,15.333,1.438,8.385A4.912,4.912,0,1,1,8.385,1.439a4.912,4.912,0,0,1,6.947,6.947Z" transform="translate(114.961 34.656) rotate(-40)" fill="#e85050"/>
          <rect id="Rectangle_102-4" data-name="Rectangle 102" width="36.768" height="36.768" rx="9.36" transform="matrix(0.998, 0.07, -0.07, 0.998, 82.087, 20.273)" fill="#e85050"/>
          <path id="Path_163-4" data-name="Path 163" d="M15.333,8.385,8.386,15.333,1.438,8.385A4.912,4.912,0,0,1,8.386,1.439a4.912,4.912,0,1,1,6.947,6.947Z" transform="matrix(0.998, 0.07, -0.07, 0.998, 91.313, 31.661)" fill="#fff"/>
          <rect id="Rectangle_102-5" data-name="Rectangle 102" width="36.768" height="36.768" rx="9.36" transform="matrix(0.875, -0.485, 0.485, 0.875, 21.173, 46.312)" fill="#e85050"/>
          <path id="Path_163-5" data-name="Path 163" d="M15.333,8.385,8.385,15.333,1.438,8.385A4.912,4.912,0,1,1,8.385,1.439a4.912,4.912,0,0,1,6.947,6.947Z" transform="matrix(0.875, -0.485, 0.485, 0.875, 35.114, 50.838)" fill="#fff"/>
          <rect id="Rectangle_102-6" data-name="Rectangle 102" width="36.768" height="36.768" rx="9.36" transform="translate(49.77 39.774) rotate(-20)" fill="#e85050"/>
          <path id="Path_163-6" data-name="Path 163" d="M15.333,8.385,8.386,15.333,1.438,8.385A4.912,4.912,0,1,1,8.386,1.439a4.912,4.912,0,0,1,6.947,6.947Z" transform="translate(62.831 46.425) rotate(-20)" fill="#fff"/>
          <rect id="Rectangle_102-7" data-name="Rectangle 102" width="36.768" height="36.768" rx="9.36" transform="matrix(0.914, -0.407, 0.407, 0.914, 49.062, 14.955)" fill="#e85050"/>
          <path id="Path_163-7" data-name="Path 163" d="M15.333,8.385,8.385,15.333,1.438,8.385A4.912,4.912,0,1,1,8.385,1.439a4.912,4.912,0,0,1,6.947,6.947Z" transform="matrix(0.914, -0.407, 0.407, 0.914, 62.555, 20.679)" fill="#fff"/>
          <rect id="Rectangle_102-8" data-name="Rectangle 102" width="36.768" height="36.768" rx="9.36" transform="translate(81.373 8.266) rotate(-7)" fill="#e85050"/>
          <path id="Path_163-8" data-name="Path 163" d="M15.333,8.385,8.386,15.333,1.438,8.385A4.912,4.912,0,1,1,8.386,1.439a4.912,4.912,0,0,1,6.947,6.947Z" transform="translate(92.603 17.684) rotate(-7)" fill="#fff"/>
          <rect id="Rectangle_102-9" data-name="Rectangle 102" width="36.768" height="36.768" rx="9.36" transform="matrix(0.914, 0.407, -0.407, 0.914, 123.108, 6.113)" fill="#e85050"/>
          <path id="Path_163-9" data-name="Path 163" d="M15.333,8.385,8.385,15.333,1.438,8.385A4.912,4.912,0,0,1,8.385,1.439a4.912,4.912,0,1,1,6.947,6.947Z" transform="matrix(0.914, 0.407, -0.407, 0.914, 127.883, 19.971)" fill="#fff"/>
        </g>
        <g id="Group_51" data-name="Group 51" transform="translate(0 28.581)">
          <path id="Path_160" data-name="Path 160" d="M43.2-46.641l67.783,31.68V48.885L43.2,17.205Z" transform="translate(-24.281 46.641)" fill="#a869fc"/>
          <path id="Path_159" data-name="Path 159" d="M0-14.016,83.6-43.693V20.154L0,49.831Z" transform="translate(86.707 45.696)" fill="#b899e1"/>
          <path id="Path_161" data-name="Path 161" d="M0-14.016,83.6-43.693l28.034,29.677-83.6,29.677Z" transform="translate(86.707 45.696)" fill="#9f74d6"/>
          <path id="Path_162" data-name="Path 162" d="M34.267-46.641l67.783,31.68L83.126,10.8,15.343-20.882Z" transform="translate(-15.343 46.641)" fill="#884ad8"/>
        </g>
      </g>
    </g>
    <g id="Group_77" data-name="Group 77" transform="translate(1200.005 2505.124) rotate(83)">
      <ellipse id="Ellipse_66" data-name="Ellipse 66" cx="8.895" cy="8.895" rx="8.895" ry="8.895" transform="translate(33.705 30.599) rotate(-11)" fill="#d18bbd"/>
      <ellipse id="Ellipse_68" data-name="Ellipse 68" cx="5.35" cy="5.35" rx="5.35" ry="5.35" transform="translate(55.586 47.582) rotate(-11)" fill="#b9a4d4"/>
    </g>
  </g>
</svg>
