<?xml version="1.0" standalone="no"?>
<!DOCTYPE svg PUBLIC "-//W3C//DTD SVG 1.1//EN" "http://www.w3.org/Graphics/SVG/1.1/DTD/svg11.dtd" >
<svg xmlns="http://www.w3.org/2000/svg" xmlns:xlink="http://www.w3.org/1999/xlink" version="1.1">
<metadata>
Created by FontForge 20170731 at Wed Jan 10 02:36:44 2018
 By Aleksey,,,
(c) 2011 Sergiy S. Tkachenko / 4th february
(c) 2011 ArchyStudio.com
http://creativecommons.org/licenses/by-nd/3.0
http://creativecommons.org/licenses/by-nd/3.0/deed.ru
</metadata>
<defs>
<font id="Designosaur" horiz-adv-x="564" >
  <font-face 
    font-family="Designosaur"
    font-weight="400"
    font-stretch="normal"
    units-per-em="1000"
    panose-1="0 0 0 0 0 0 0 0 0 0"
    ascent="800"
    descent="-200"
    x-height="520"
    cap-height="720"
    bbox="-112.429 -400.261 1121 1196"
    underline-thickness="50"
    underline-position="-200"
    unicode-range="U+0020-25FF"
  />
<missing-glyph horiz-adv-x="300" 
 />
    <glyph glyph-name=".notdef" horiz-adv-x="300" 
 />
    <glyph glyph-name=".null" horiz-adv-x="0" 
 />
    <glyph glyph-name="nonmarkingreturn" horiz-adv-x="333" 
 />
    <glyph glyph-name="space" unicode=" " horiz-adv-x="300" 
 />
    <glyph glyph-name="exclam" unicode="!" horiz-adv-x="226" 
d="M136 220h-46q-19 0 -20 20l-20 460q-1 20 20 20h86q21 0 20 -20l-20 -460q-1 -20 -20 -20zM156 120h-86q-20 0 -20 -20v-80q0 -20 20 -20h86q20 0 20 20v80q0 20 -20 20z" />
    <glyph glyph-name="quotedbl" unicode="&#x22;" horiz-adv-x="348" 
d="M117 520h-46q-19 0 -20 20l-10 160q-1 20 20 20h66q21 0 20 -20l-10 -160q-1 -20 -20 -20zM277 520h-46q-19 0 -20 20l-10 160q-1 20 20 20h66q21 0 20 -20l-10 -160q-1 -20 -20 -20z" />
    <glyph glyph-name="numbersign" unicode="#" horiz-adv-x="569" 
d="M315 6l-48 13q-20 4 -14 24l50 186h-108l-56 -209q-4 -20 -24 -14l-48 13q-20 4 -14 24l50 186h-43q-20 0 -20 20v50q0 20 20 20h67l24 90h-52q-20 0 -20 20v50q0 20 20 20h76l54 201q4 20 24 14l48 -13q20 -4 14 -24l-48 -178h108l54 201q4 20 24 14l48 -13
q20 -4 14 -24l-48 -178h42q20 0 20 -20v-50q0 -20 -20 -20h-66l-24 -90h51q20 0 20 -20v-50q0 -20 -20 -20h-75l-56 -209q-4 -20 -24 -14zM243 409l-24 -90h108l24 90h-108z" />
    <glyph glyph-name="dollar" unicode="$" horiz-adv-x="555" 
d="M306 282l-97 36q-164 61 -164 184q0 74 52 123t135 62v73q0 20 20 20h50q20 0 20 -20v-70q54 -5 105.5 -20.5t66.5 -26.5q8 -6 1 -26l-16 -42q-3 -9 -26 -2q-89 24 -161 24q-70 0 -100.5 -25t-30.5 -57q0 -47 86 -77l96 -33q86 -31 129 -83.5t43 -114.5q0 -69 -52 -115
t-141 -59v-73q0 -20 -20 -20h-50q-20 0 -20 20v69q-56 4 -112.5 19t-73.5 29q-8 7 -1 26l16 42q3 9 26 2q89 -24 171 -24q62 0 101.5 20.5t39.5 53.5q0 51 -93 85z" />
    <glyph glyph-name="percent" unicode="%" horiz-adv-x="708" 
d="M140 10l-41 29q-16 12 -5 28l448 638q11 16 28 5l41 -29q16 -12 5 -28l-448 -638q-11 -16 -28 -5zM521 -11q-60 0 -98 48t-38 138t38 138t98 48q61 0 99 -48t38 -138t-38 -138t-99 -48zM521 78q50 0 50 97q0 96 -50 96q-49 0 -49 -96q0 -97 49 -97zM186 356q-60 0 -98 48
t-38 138t38 138t98 48q61 0 99 -48t38 -138t-38 -138t-99 -48zM186 445q50 0 50 97q0 96 -50 96q-49 0 -49 -96q0 -97 49 -97z" />
    <glyph glyph-name="ampersand" unicode="&#x26;" horiz-adv-x="713" 
d="M40 168q0 85 52.5 143.5t146.5 110.5l-25 29q-46 64 -46 136q0 65 49.5 103.5t129.5 38.5q87 0 140.5 -37.5t53.5 -98.5q0 -106 -140 -197l89 -137l97 89q14 14 27 -3l47 -61q12 -16 -3 -29l-103 -89l105 -150q13 -16 -8 -16h-112q-20 0 -31 17l-47 68
q-59 -50 -107.5 -71.5t-102.5 -21.5q-97 0 -154.5 50t-57.5 126zM252 92q53 0 148 84l-100 157q-69 -41 -102 -78t-33 -83q0 -33 24.5 -56.5t62.5 -23.5zM293 589q0 -39 47 -107q76 57 76 110q0 21 -18.5 34.5t-50.5 13.5q-22 0 -38 -13t-16 -38z" />
    <glyph glyph-name="quotesingle" unicode="'" horiz-adv-x="188" 
d="M117 520h-46q-19 0 -20 20l-10 160q-1 20 20 20h66q21 0 20 -20l-10 -160q-1 -20 -20 -20z" />
    <glyph glyph-name="parenleft" unicode="(" horiz-adv-x="372" 
d="M172 360q0 -136 18 -215.5t49.5 -109t82.5 -29.5q20 0 20 -20v-56q0 -20 -20 -20h-27q-113 0 -184 115.5t-71 335.5t71 335.5t184 115.5h27q20 0 20 -20v-56q0 -20 -20 -20q-77 0 -113.5 -78t-36.5 -278z" />
    <glyph glyph-name="parenright" unicode=")" horiz-adv-x="372" 
d="M200 360q0 200 -36.5 278t-113.5 78q-20 0 -20 20v56q0 20 20 20h27q113 0 184 -115.5t71 -335.5t-71 -335.5t-184 -115.5h-27q-20 0 -20 20v56q0 20 20 20q51 0 82.5 29.5t49.5 109t18 215.5z" />
    <glyph glyph-name="asterisk" unicode="*" horiz-adv-x="428" 
d="M185 627l-3 113q0 20 19 20h26q19 0 19 -20l-3 -113l101 38q19 7 25 -12l7 -24q6 -19 -14 -25l-103 -31l71 -88q13 -15 -5 -27l-21 -13q-17 -10 -28 6l-62 90l-62 -90q-11 -16 -28 -6l-21 13q-18 12 -5 27l71 88l-103 31q-20 6 -14 25l7 24q6 19 25 12z" />
    <glyph glyph-name="plus" unicode="+" horiz-adv-x="450" 
d="M270 529v-120h120q20 0 20 -20v-50q0 -20 -20 -20h-120v-120q0 -20 -20 -20h-50q-20 0 -20 20v120h-120q-20 0 -20 20v50q0 20 20 20h120v120q0 20 20 20h50q20 0 20 -20z" />
    <glyph glyph-name="comma" unicode="," horiz-adv-x="240" 
d="M106 0h-36q-20 0 -20 20v100q0 20 20 20h100q20 0 20 -20v-115q0 -45 -16 -88.5t-33 -61.5q-10 -12 -26 -1l-32 21q-9 6 -2 26q1 3 6.5 17t9 24t6.5 26.5t3 31.5z" />
    <glyph glyph-name="hyphen" unicode="-" horiz-adv-x="370" 
d="M300 319h-230q-20 0 -20 20v50q0 20 20 20h230q20 0 20 -20v-50q0 -20 -20 -20z" />
    <glyph glyph-name="period" unicode="." horiz-adv-x="240" 
d="M70 140h100q20 0 20 -20v-100q0 -20 -20 -20h-100q-20 0 -20 20v100q0 20 20 20z" />
    <glyph glyph-name="slash" unicode="/" horiz-adv-x="438" 
d="M68 -22l-45 21q-19 9 -10 27l330 706q9 19 27 10l45 -21q19 -9 10 -27l-330 -706q-9 -19 -27 -10z" />
    <glyph glyph-name="zero" unicode="0" horiz-adv-x="626" 
d="M313 -12q-120 0 -196.5 96t-76.5 276q0 181 76 276.5t197 95.5t197 -95.5t76 -276.5q0 -180 -76.5 -276t-196.5 -96zM313 83q63 0 102 66.5t39 210.5t-39 210.5t-102 66.5t-102 -66.5t-39 -210.5t39 -210.5t102 -66.5z" />
    <glyph glyph-name="one" unicode="1" horiz-adv-x="328" 
d="M10 528v56q0 21 18 29l232 113q18 8 18 -11v-695q0 -20 -20 -20h-85q-20 0 -20 20v553l-125 -57q-18 -8 -18 12z" />
    <glyph glyph-name="two" unicode="2" horiz-adv-x="508" 
d="M47 20v28q0 24 10 38l212 324q0 1 4.5 6.5t8 10.5t9.5 14.5t11 18t10 20t8.5 22t6 23t2.5 23.5q0 38 -23.5 63.5t-69.5 25.5q-50 0 -149 -24q-24 -6 -26 2l-16 42q-7 19 1 26q18 15 82 32t122 17q89 0 147.5 -46.5t61.5 -136.5q3 -86 -53 -156l-241 -303h283q20 0 20 -20
v-50q0 -20 -20 -20h-381q-20 0 -20 20z" />
    <glyph glyph-name="three" unicode="3" horiz-adv-x="532" 
d="M194 385v21q0 20 11 37l105 187h-233q-20 0 -20 20v50q0 20 20 20h361q20 0 20 -20v-28q0 -24 -10 -38l-138 -190q82 -13 132 -71t50 -146q0 -102 -69.5 -170.5t-166.5 -68.5q-59 0 -124.5 16.5t-85.5 32.5q-8 7 -1 26l16 42q3 9 26 2q89 -24 168 -24q43 0 74.5 36.5
t32.5 100.5q1 66 -33.5 106t-89.5 39h-25q-20 0 -20 20z" />
    <glyph glyph-name="four" unicode="4" horiz-adv-x="578" 
d="M349 261v262h-2l-162 -262h164zM389 720h66q20 0 20 -20v-439h63q20 0 20 -20v-49q0 -20 -20 -20h-63v-152q0 -20 -20 -20h-86q-20 0 -20 20v152h-289q-20 0 -20 20v10q0 21 11 36l307 466q12 16 31 16z" />
    <glyph glyph-name="five" unicode="5" horiz-adv-x="526" 
d="M102 361l-6 5q-15 12 -13 34l16 300q1 20 21 20h295q20 0 20 -20v-50q0 -20 -20 -20h-231l-9 -180q48 10 85 10q86 0 156 -62t70 -170q0 -102 -65.5 -171t-164.5 -69q-59 0 -124.5 16.5t-85.5 32.5q-8 7 -1 26l16 42q3 9 26 2q89 -24 168 -24q41 0 70.5 36t30.5 107
q1 58 -26.5 98.5t-70.5 40.5q-51 0 -123 -16q-18 -4 -34 12z" />
    <glyph glyph-name="six" unicode="6" horiz-adv-x="550" 
d="M297 637q-149 0 -150 -273q31 119 147 119q113 0 164.5 -67t51.5 -176q0 -113 -56.5 -182.5t-176.5 -69.5q-112 0 -174.5 93.5t-62.5 274.5q0 185 69 280.5t183 95.5q57 0 119 -22t62 -37q0 -7 -4 -16l-16 -42q-3 -5 -10 -5l-62 16q-51 11 -84 11zM161 210
q1 -61 33.5 -94t73.5 -33q122 0 122 160q0 68 -24.5 106.5t-88.5 38.5q-118 0 -116 -178z" />
    <glyph glyph-name="seven" unicode="7" horiz-adv-x="482" 
d="M214 0h-93q-20 0 -14 19l210 611h-267q-20 0 -20 20v50q0 20 20 20h382q20 0 20 -20v-36q0 -15 -10 -38l-202 -607q-6 -19 -26 -19z" />
    <glyph glyph-name="eight" unicode="8" horiz-adv-x="574" 
d="M409 209q0 61 -35.5 98t-86.5 37t-86.5 -37t-35.5 -97q0 -58 35.5 -93t86.5 -35t86.5 34.5t35.5 92.5zM379 547q0 40 -27 65.5t-66 25.5t-65 -26.5t-26 -64.5q0 -42 26.5 -72.5t65.5 -30.5q37 0 64.5 29.5t27.5 73.5zM40 207q0 66 37 114.5t108 74.5q-115 47 -115 150
q0 86 54 136t163 50t163 -49.5t54 -135.5q0 -102 -115 -151q145 -55 145 -190q0 -105 -65 -161.5t-182 -56.5q-120 0 -183.5 56.5t-63.5 162.5z" />
    <glyph glyph-name="nine" unicode="9" horiz-adv-x="550" 
d="M253 83q149 0 150 273q-18 -67 -54.5 -93t-92.5 -26q-113 0 -164.5 67t-51.5 176q0 113 56.5 182.5t176.5 69.5q112 0 174.5 -93.5t62.5 -274.5q0 -185 -69 -280.5t-183 -95.5q-57 0 -119 22t-62 37q0 7 4 16l16 42q3 5 10 5l62 -16q51 -11 84 -11zM379 510
q-1 61 -30.5 94t-66.5 33q-122 0 -122 -160q0 -68 24.5 -106.5t88.5 -38.5q108 0 106 178z" />
    <glyph glyph-name="colon" unicode=":" horiz-adv-x="240" 
d="M70 140h100q20 0 20 -20v-100q0 -20 -20 -20h-100q-20 0 -20 20v100q0 20 20 20zM70 464h100q20 0 20 -20v-100q0 -20 -20 -20h-100q-20 0 -20 20v100q0 20 20 20z" />
    <glyph glyph-name="semicolon" unicode=";" horiz-adv-x="240" 
d="M70 464h100q20 0 20 -20v-100q0 -20 -20 -20h-100q-20 0 -20 20v100q0 20 20 20zM106 0h-36q-20 0 -20 20v100q0 20 20 20h100q20 0 20 -20v-115q0 -45 -16 -88.5t-33 -61.5q-10 -12 -26 -1l-32 21q-9 6 -2 26q1 3 6.5 17t9 24t6.5 26.5t3 31.5z" />
    <glyph glyph-name="less" unicode="&#x3c;" horiz-adv-x="606" 
d="M538 522l-354 -159l354 -159q18 -8 18 -28v-54q0 -20 -18 -12l-470 211q-18 8 -18 28v28q0 20 18 28l470 211q18 8 18 -12v-54q0 -20 -18 -28z" />
    <glyph glyph-name="equal" unicode="=" horiz-adv-x="486" 
d="M40 438v44q0 20 20 20h366q20 0 20 -20v-44q0 -20 -20 -20h-366q-20 0 -20 20zM40 244v44q0 20 20 20h366q20 0 20 -20v-44q0 -20 -20 -20h-366q-20 0 -20 20z" />
    <glyph glyph-name="greater" unicode="&#x3e;" horiz-adv-x="606" 
d="M422 363l-354 159q-18 8 -18 28v54q0 20 18 12l470 -211q18 -8 18 -28v-28q0 -20 -18 -28l-470 -211q-18 -8 -18 12v54q0 20 18 28z" />
    <glyph glyph-name="question" unicode="?" horiz-adv-x="508" 
d="M292 220h-86q-20 0 -20 20v14q0 41 18 71.5t65 84.5q8 9 19.5 26t26 50.5t14.5 61.5q0 38 -23.5 63.5t-71.5 25.5q-42 0 -147 -24q-24 -5 -26 2l-16 42q-7 19 1 26q18 15 82 32t122 17q87 0 145.5 -44.5t63.5 -138.5q4 -90 -53 -156q-1 -1 -18 -17t-32.5 -32.5t-29.5 -42
t-14 -47.5v-14q0 -20 -20 -20zM292 120h-86q-20 0 -20 -20v-80q0 -20 20 -20h86q20 0 20 20v80q0 20 -20 20z" />
    <glyph glyph-name="at" unicode="@" horiz-adv-x="816" 
d="M491 262q0 63 -19.5 90t-60.5 27q-36 0 -53.5 -25t-17.5 -93t17.5 -94t53.5 -26q41 0 60.5 28.5t19.5 92.5zM504 101l-13 31h-2q-20 -42 -42.5 -58.5t-61.5 -16.5q-71 0 -118 48.5t-47 155.5q0 106 47 154t119 48q37 0 60 -16t43 -59h2l10 42q2 11 6 15.5t14 4.5h50
q20 0 20 -20v-280q0 -12 18 -12q34 0 45.5 33t11.5 97q0 162 -53 225.5t-173 63.5q-141 0 -215.5 -72.5t-74.5 -212.5q0 -148 79.5 -218.5t219.5 -70.5q81 0 213 24q16 3 20.5 2.5t5.5 -4.5l16 -37q10 -23 -1 -31q-21 -16 -102.5 -32.5t-160.5 -16.5q-179 0 -289.5 96
t-110.5 283q0 179 104.5 272t291.5 93q168 0 254 -83t86 -271q0 -112 -38 -166t-139 -54q-19 0 -34.5 2t-25 5.5t-16.5 7t-10.5 8.5t-5 8t-2.5 7z" />
    <glyph glyph-name="A" unicode="A" horiz-adv-x="672" 
d="M647 0h-95q-20 0 -27 19l-62 158h-284l-62 -158q-7 -19 -27 -19h-65q-21 0 -12 18l273 684q8 18 28 18h44q20 0 28 -18l273 -684q9 -18 -12 -18zM430 261l-89 259l-20 75l-19 -75l-90 -259h218z" />
    <glyph glyph-name="B" unicode="B" 
d="M295 0h-225q-20 0 -20 20v680q0 20 20 20h148q118 0 185.5 -49.5t67.5 -140.5q0 -105 -95 -150v-2q71 -11 109.5 -57.5t38.5 -115.5q0 -87 -66 -146t-163 -59zM176 409h60q46 0 77.5 32.5t31.5 86.5q0 51 -31.5 79.5t-96.5 28.5h-41v-227zM176 84h86q136 0 136 120
q0 51 -32 86t-104 35h-86v-241z" />
    <glyph glyph-name="C" unicode="C" horiz-adv-x="639" 
d="M578 105l16 -37q8 -23 -1 -31q-22 -16 -81.5 -32.5t-118.5 -16.5q-156 0 -254.5 96t-98.5 276q0 181 98 276.5t255 95.5q59 0 118.5 -16.5t81.5 -32.5q8 -7 1 -26l-16 -42q-6 -8 -26 -2q-93 24 -159 24q-99 0 -160 -67t-61 -210t61.5 -210t159.5 -67q66 0 159 24
q20 7 26 -2z" />
    <glyph glyph-name="D" unicode="D" horiz-adv-x="645" 
d="M276 0h-206q-20 0 -20 20v680q0 20 20 20h230q125 0 215 -102t90 -255q0 -154 -95.5 -257.5t-233.5 -105.5zM176 90h99q86 0 142.5 79.5t55.5 198.5q-1 115 -60.5 188.5t-145.5 73.5h-91v-540z" />
    <glyph glyph-name="E" unicode="E" horiz-adv-x="483" 
d="M423 0h-353q-20 0 -20 20v680q0 20 20 20h353q20 0 20 -20v-50q0 -20 -20 -20h-247v-221h197q20 0 20 -20v-50q0 -20 -20 -20h-197v-229h247q20 0 20 -20v-50q0 -20 -20 -20z" />
    <glyph glyph-name="F" unicode="F" horiz-adv-x="483" 
d="M156 0h-86q-20 0 -20 20v680q0 20 20 20h353q20 0 20 -20v-50q0 -20 -20 -20h-247v-221h197q20 0 20 -20v-50q0 -20 -20 -20h-197v-299q0 -20 -20 -20z" />
    <glyph glyph-name="G" unicode="G" horiz-adv-x="649" 
d="M472 84v235h-88q-20 0 -20 20v50q0 20 20 20h194q20 0 20 -20v-338q1 -9 -5 -14q-22 -16 -81.5 -32.5t-118.5 -16.5q-156 0 -254.5 96t-98.5 276q0 181 98 276.5t255 95.5q59 0 118.5 -16.5t81.5 -32.5q8 -7 1 -26l-16 -37q-6 -8 -26 -2q-93 24 -159 24q-99 0 -160 -68
t-61 -214t61.5 -214t159.5 -68q41 0 79 6z" />
    <glyph glyph-name="H" unicode="H" horiz-adv-x="609" 
d="M539 0h-86q-20 0 -20 20v304h-257v-304q0 -20 -20 -20h-86q-20 0 -20 20v680q0 20 20 20h86q20 0 20 -20v-286h257v286q0 20 20 20h86q20 0 20 -20v-680q0 -20 -20 -20z" />
    <glyph glyph-name="I" unicode="I" horiz-adv-x="226" 
d="M156 0h-86q-20 0 -20 20v680q0 20 20 20h86q20 0 20 -20v-680q0 -20 -20 -20z" />
    <glyph glyph-name="J" unicode="J" horiz-adv-x="356" 
d="M10 22v48q0 20 20 20h13q76 0 111.5 42.5t35.5 147.5v420q0 20 20 20h86q20 0 20 -20v-441q-1 -125 -68 -192t-182 -67l-38 1q-18 1 -18 21z" />
    <glyph glyph-name="K" unicode="K" horiz-adv-x="637" 
d="M567 0h-118q-20 0 -32 16l-241 311v-307q0 -20 -20 -20h-86q-20 0 -20 20v680q0 20 20 20h86q20 0 20 -20v-308l248 312q12 16 32 16h103q20 0 8 -16l-279 -335l287 -353q12 -16 -8 -16z" />
    <glyph glyph-name="L" unicode="L" horiz-adv-x="463" 
d="M443 70v-50q0 -20 -20 -20h-353q-20 0 -20 20v680q0 20 20 20h86q20 0 20 -20v-610h247q20 0 20 -20z" />
    <glyph glyph-name="M" unicode="M" horiz-adv-x="835" 
d="M765 0h-86q-20 0 -20 20v280l10 201h-2l-202 -483q-8 -18 -29 -18h-65q-20 0 -30 17l-193 484h-2l10 -201v-280q0 -20 -20 -20h-66q-20 0 -20 20v680q0 20 20 20h91q20 0 30 -17l225 -546l238 545q10 18 30 18h81q20 0 20 -20v-680q0 -20 -20 -20z" />
    <glyph glyph-name="N" unicode="N" horiz-adv-x="636" 
d="M566 0h-70q-22 0 -33 16l-305 488h-2l10 -204v-280q0 -20 -20 -20h-76q-20 0 -20 20v680q0 20 20 20h70q22 0 33 -16l305 -488h2l-10 204v280q0 20 20 20h76q20 0 20 -20v-680q0 -20 -20 -20z" />
    <glyph glyph-name="O" unicode="O" horiz-adv-x="786" 
d="M393 -12q-156 0 -254.5 96t-98.5 276q0 181 98 276.5t255 95.5t255 -95.5t98 -276.5q0 -180 -98.5 -276t-254.5 -96zM393 83q98 0 159.5 67t61.5 210t-61 210t-160 67t-160 -67t-61 -210t61.5 -210t159.5 -67z" />
    <glyph glyph-name="P" unicode="P" horiz-adv-x="557" 
d="M156 0h-86q-20 0 -20 20v680q0 20 20 20h190q112 0 184.5 -72.5t72.5 -178.5q0 -104 -73 -177t-184 -73h-84v-199q0 -20 -20 -20zM176 308h64q151 0 151 161q0 160 -151 162h-64v-323z" />
    <glyph glyph-name="Q" unicode="Q" horiz-adv-x="786" 
d="M715 -106h-110q-20 0 -30 17l-60 94q-59 -17 -122 -17q-156 0 -254.5 96t-98.5 276q0 181 98 276.5t255 95.5t255 -95.5t98 -276.5q0 -201 -125 -300l102 -150q12 -16 -8 -16zM459 91l-99 149q-12 16 8 16h110q20 0 30 -17l50 -82q56 70 56 203q0 143 -61 210t-160 67
t-160 -67t-61 -210t61.5 -210t159.5 -67q38 0 66 8z" />
    <glyph glyph-name="R" unicode="R" horiz-adv-x="567" 
d="M521 0h-110q-20 0 -30 17l-127 202h-78v-199q0 -20 -20 -20h-86q-20 0 -20 20v680q0 20 20 20h190q112 0 184.5 -72.5t72.5 -178.5q0 -73 -38.5 -133.5t-103.5 -91.5l154 -228q12 -16 -8 -16zM176 308h64q151 0 151 161q0 160 -151 162h-64v-323z" />
    <glyph glyph-name="S" unicode="S" horiz-adv-x="555" 
d="M306 281l-97 38q-164 64 -164 203q0 95 70 152.5t173 57.5q60 0 124 -17.5t82 -31.5q8 -6 1 -26l-16 -42q-3 -9 -26 -2q-89 24 -159 24q-72 0 -102.5 -31t-30.5 -72q0 -61 86 -94l96 -36q84 -31 128 -89.5t44 -127.5q0 -91 -71.5 -145t-187.5 -54q-59 0 -124.5 16.5
t-85.5 32.5q-8 7 -1 26l16 42q3 9 26 2q89 -24 168 -24q65 0 104.5 26t39.5 67q0 34 -26 61.5t-67 43.5z" />
    <glyph glyph-name="T" unicode="T" horiz-adv-x="480" 
d="M283 0h-86q-20 0 -20 20v610h-147q-20 0 -20 20v50q0 20 20 20h420q20 0 20 -20v-50q0 -20 -20 -20h-147v-610q0 -20 -20 -20z" />
    <glyph glyph-name="U" unicode="U" horiz-adv-x="636" 
d="M490 284v416q0 20 20 20h56q20 0 20 -20v-444q0 -117 -76 -192.5t-194 -75.5q-115 0 -190.5 76.5t-75.5 191.5v444q0 20 20 20h86q20 0 20 -20v-416q0 -89 37.5 -147.5t104.5 -58.5q81 0 126.5 58t45.5 148z" />
    <glyph glyph-name="V" unicode="V" horiz-adv-x="622" 
d="M328 0h-44q-20 0 -28 18l-243 684q-9 18 12 18h95q20 0 27 -19l105 -322l49 -179l20 -75l19 75l40 139l125 362q7 19 27 19h65q21 0 12 -18l-253 -684q-8 -18 -28 -18z" />
    <glyph glyph-name="W" unicode="W" horiz-adv-x="872" 
d="M628 0h-64q-24 0 -28 18l-102 486l-108 -486q-4 -18 -28 -18h-64q-22 0 -28 18l-193 684q-9 18 12 18h95q23 0 27 -19l96 -401l28 -175l28 175l96 401q4 19 25 19h62q21 0 25 -19l89 -401l25 -175l31 175l103 401q7 19 27 19h65q21 0 12 -18l-203 -684q-6 -18 -28 -18z
" />
    <glyph glyph-name="X" unicode="X" horiz-adv-x="587" 
d="M559 0h-94q-24 0 -37 19l-142 249l-149 -249q-11 -19 -38 -19h-71q-16 0 -17.5 5t6.5 17l205 346l-194 330q-7 12 -5 17t16 5h94q27 0 37 -19l127 -229l137 229q11 19 39 19h70q16 0 18 -5t-7 -17l-194 -320l211 -356q15 -22 -12 -22z" />
    <glyph glyph-name="Y" unicode="Y" horiz-adv-x="628" 
d="M352 0h-86q-20 0 -20 20v243l-232 440q-10 17 10 17h107q20 0 30 -17l160 -324l172 323q8 18 29 18h82q19 0 11 -18l-243 -439v-243q0 -20 -20 -20z" />
    <glyph glyph-name="Z" unicode="Z" horiz-adv-x="486" 
d="M456 0h-426q-20 0 -20 20v36q0 19 10 38l303 536h-287q-20 0 -20 20v50q0 20 20 20h412q20 0 20 -20v-36q0 -19 -10 -38l-302 -536h300q20 0 20 -20v-50q0 -20 -20 -20z" />
    <glyph glyph-name="bracketleft" unicode="[" horiz-adv-x="273" 
d="M223 -150h-153q-20 0 -20 20v980q0 20 20 20h153q20 0 20 -20v-50q0 -20 -20 -20h-47v-840h47q20 0 20 -20v-50q0 -20 -20 -20z" />
    <glyph glyph-name="backslash" unicode="\" horiz-adv-x="438" 
d="M415 -1l-45 -21q-18 -9 -27 10l-330 706q-9 18 10 27l45 21q18 9 27 -10l330 -706q9 -18 -10 -27z" />
    <glyph glyph-name="bracketright" unicode="]" horiz-adv-x="273" 
d="M203 -150h-153q-20 0 -20 20v50q0 20 20 20h47v840h-47q-20 0 -20 20v50q0 20 20 20h153q20 0 20 -20v-980q0 -20 -20 -20z" />
    <glyph glyph-name="asciicircum" unicode="^" horiz-adv-x="504" 
d="M220 740h64q17 0 28 -18l179 -284q9 -18 -12 -18h-72q-15 0 -26 19l-129 231l-129 -231q-11 -19 -26 -19h-72q-21 0 -12 18l179 284q11 18 28 18z" />
    <glyph glyph-name="underscore" unicode="_" horiz-adv-x="670" 
d="M650 -250h-630q-20 0 -20 20v50q0 20 20 20h630q20 0 20 -20v-50q0 -20 -20 -20z" />
    <glyph glyph-name="grave" unicode="`" horiz-adv-x="299" 
d="M185 723l60 -98q10 -17 -10 -17h-31q-20 0 -35 14l-111 104q-15 14 5 14h91q20 0 31 -17z" />
    <glyph glyph-name="a" unicode="a" horiz-adv-x="514" 
d="M454 0h-50q-10 0 -14 4.5t-6 15.5l-10 41h-2q-40 -73 -144 -73q-81 0 -134.5 46.5t-53.5 134.5q0 163 209 163h103q-2 19 -7.5 36.5t-17 37t-33.5 31.5t-51 12q-33 0 -113 -25q-20 -6 -26 2l-21 32q-9 14 1 26q16 18 66.5 33.5t106.5 15.5q217 0 217 -267v-246
q0 -20 -20 -20zM354 219v29h-105q-40 0 -64 -20t-24 -56q0 -37 23.5 -68.5t71.5 -31.5q98 0 98 147z" />
    <glyph glyph-name="b" unicode="b" horiz-adv-x="581" 
d="M120 0h-50q-20 0 -20 20v700q0 20 20 20h80q20 0 20 -20v-261h2q48 73 154 73q97 0 156 -64t59 -210q0 -144 -58.5 -207.5t-153.5 -63.5q-118 0 -177 75h-2l-10 -42q-2 -11 -6 -15.5t-14 -4.5zM308 71q59 0 86 39.5t27 147.5q0 110 -27.5 150t-84.5 40q-139 0 -139 -190
q0 -187 138 -187z" />
    <glyph glyph-name="c" unicode="c" horiz-adv-x="479" 
d="M412 95l21 -32q9 -14 -1 -26q-16 -19 -59 -34t-101 -15q-232 0 -232 273q0 272 242 272q45 0 88.5 -16t61.5 -33q12 -10 1 -26l-21 -32q-6 -9 -26 -2q-3 1 -17 6.5t-24 9t-26.5 6.5t-31.5 3q-127 0 -127 -189q0 -188 126 -188q30 0 100 25q20 7 26 -2z" />
    <glyph glyph-name="d" unicode="d" horiz-adv-x="581" 
d="M511 0h-50q-10 0 -14 4.5t-6 15.5l-10 42h-2q-59 -75 -177 -75q-95 0 -153.5 63.5t-58.5 207.5q0 146 59 210t156 64q106 0 154 -73h2v261q0 20 20 20h80q20 0 20 -20v-700q0 -20 -20 -20zM273 71q138 0 138 187q0 190 -139 190q-57 0 -84.5 -40t-27.5 -150
q0 -108 27 -147.5t86 -39.5z" />
    <glyph glyph-name="e" unicode="e" horiz-adv-x="516" 
d="M432 95l21 -32q9 -14 -1 -26q-16 -18 -66.5 -33.5t-110.5 -15.5q-235 0 -235 267q0 125 53.5 201.5t168.5 76.5q95 0 154.5 -55t59.5 -160q0 -58 -23.5 -79t-85.5 -21h-205q7 -69 35.5 -107.5t90.5 -38.5q39 0 118 25q20 6 26 -2zM162 302h154q24 0 31.5 6t7.5 28
q0 46 -24.5 79.5t-63.5 33.5q-94 0 -105 -147z" />
    <glyph glyph-name="f" unicode="f" horiz-adv-x="295" 
d="M202 441v-421q0 -20 -20 -20h-80q-20 0 -20 20v421h-52q-20 0 -20 20v39q0 20 20 20h52v64q0 156 138 156h37q20 0 20 -20v-44q0 -20 -20 -20h-7q-19 0 -33.5 -17.5t-14.5 -51.5v-67h63q20 0 20 -20v-39q0 -20 -20 -20h-63z" />
    <glyph glyph-name="g" unicode="g" horiz-adv-x="581" 
d="M411 19v42h-2q-48 -73 -154 -73q-97 0 -156 64t-59 210q0 144 58.5 207.5t153.5 63.5q118 0 177 -75h2l10 42q2 11 6 15.5t14 4.5h50q20 0 20 -20v-470q0 -118 -66 -188.5t-173 -70.5q-59 0 -124.5 16.5t-85.5 32.5q-8 7 -1 26l16 42q3 9 26 2q89 -24 168 -24
q54 0 87 42.5t33 110.5zM272 72q139 0 139 190q0 187 -138 187q-59 0 -86 -39.5t-27 -147.5q0 -110 27.5 -150t84.5 -40z" />
    <glyph glyph-name="h" unicode="h" horiz-adv-x="551" 
d="M481 0h-80q-20 0 -20 20v238q0 110 -22.5 150t-69.5 40q-119 0 -119 -160v-268q0 -20 -20 -20h-80q-20 0 -20 20v700q0 20 20 20h80q20 0 20 -20v-261h2q40 73 134 73q88 0 141.5 -64t53.5 -210v-238q0 -20 -20 -20z" />
    <glyph glyph-name="i" unicode="i" horiz-adv-x="220" 
d="M150 620h-80q-20 0 -20 20v80q0 20 20 20h80q20 0 20 -20v-80q0 -20 -20 -20zM150 0h-80q-20 0 -20 20v480q0 20 20 20h80q20 0 20 -20v-480q0 -20 -20 -20z" />
    <glyph glyph-name="j" unicode="j" horiz-adv-x="220" 
d="M150 620h-80q-20 0 -20 20v80q0 20 20 20h80q20 0 20 -20v-80q0 -20 -20 -20zM32 -220h-17q-20 0 -20 20v44q0 20 20 20h7q11 0 19.5 20t8.5 59v557q0 20 20 20h80q20 0 20 -20v-564q0 -156 -138 -156z" />
    <glyph glyph-name="k" unicode="k" horiz-adv-x="487" 
d="M463 0h-98q-20 0 -32 16l-164 211v-207q0 -20 -20 -20h-79q-20 0 -20 20v700q0 20 20 20h79q20 0 20 -20v-428l168 212q12 16 32 16h83q22 0 8 -16l-199 -235l210 -253q14 -16 -8 -16z" />
    <glyph glyph-name="l" unicode="l" horiz-adv-x="226" 
d="M205 0h-17q-138 0 -138 156v564q0 20 20 20h80q20 0 20 -20v-557q0 -39 8.5 -59t19.5 -20h7q20 0 20 -20v-44q0 -20 -20 -20z" />
    <glyph glyph-name="m" unicode="m" horiz-adv-x="772" 
d="M703 0h-82q-19 0 -19 20v282q0 146 -71 146q-83 0 -85 -149v-279q0 -20 -19 -20h-82q-19 0 -19 20v282q0 146 -71 146q-85 0 -85 -156v-272q0 -20 -20 -20h-80q-20 0 -20 20v480q0 20 20 20h50q10 0 14 -4.5t6 -15.5l10 -41h2q14 34 46.5 53.5t66.5 19.5q98 0 148 -82
q20 38 55.5 60t72.5 22q77 0 129 -52.5t52 -143.5v-316q0 -20 -19 -20z" />
    <glyph glyph-name="n" unicode="n" horiz-adv-x="536" 
d="M467 0h-82q-19 0 -19 20v282q0 146 -91 146q-105 0 -105 -156v-272q0 -20 -20 -20h-80q-20 0 -20 20v480q0 20 20 20h50q10 0 14 -4.5t6 -15.5l10 -41h2q17 34 55 53.5t78 19.5q86 0 143.5 -52.5t57.5 -143.5v-316q0 -20 -19 -20z" />
    <glyph glyph-name="o" unicode="o" 
d="M282 -12q-70 0 -118.5 21t-75 59.5t-37.5 84.5t-11 106t11 106.5t37.5 86t75 60.5t118.5 21q242 0 242 -273q0 -60 -11 -106t-37.5 -85t-75 -60t-118.5 -21zM282 78q69 0 95.5 48.5t26.5 133.5t-26.5 134t-95.5 49t-95.5 -49t-26.5 -134t26.5 -133.5t95.5 -48.5z" />
    <glyph glyph-name="p" unicode="p" horiz-adv-x="581" 
d="M150 -220h-80q-20 0 -20 20v700q0 20 20 20h50q10 0 14 -4.5t6 -15.5l10 -42h2q59 75 177 75q95 0 153.5 -63.5t58.5 -207.5q0 -146 -59 -210t-156 -64q-106 0 -154 73h-2v-261q0 -20 -20 -20zM309 72q57 0 84.5 40t27.5 150q0 108 -27 147.5t-86 39.5q-138 0 -138 -187
q0 -190 139 -190z" />
    <glyph glyph-name="q" unicode="q" horiz-adv-x="581" 
d="M511 -220h-80q-20 0 -20 20v261h-2q-48 -73 -154 -73q-97 0 -156 64t-59 210q0 144 58.5 207.5t153.5 63.5q118 0 177 -75h2l10 42q2 11 6 15.5t14 4.5h50q20 0 20 -20v-700q0 -20 -20 -20zM272 72q139 0 139 190q0 187 -138 187q-59 0 -86 -39.5t-27 -147.5
q0 -110 27.5 -150t84.5 -40z" />
    <glyph glyph-name="r" unicode="r" horiz-adv-x="316" 
d="M150 0h-80q-20 0 -20 20v480q0 20 20 20h50q3 0 5.5 -0.5t4.5 -1.5t3.5 -3t2 -3.5t2 -5.5t2.5 -6l10 -38h2q15 23 32 37.5t37.5 20t31.5 6.5t35 2q11 0 14.5 -2.5t3.5 -12.5v-75q0 -9 -4 -13t-9 -4t-14.5 1t-13.5 1q-95 0 -95 -97v-306q0 -20 -20 -20z" />
    <glyph glyph-name="s" unicode="s" horiz-adv-x="474" 
d="M242 201l-86 26q-106 33 -106 145q0 71 49 116t138 45q59 0 107 -15t67 -34q10 -10 0 -26l-21 -32q-4 -9 -26 -2q-69 25 -116 25q-84 0 -84 -65q0 -38 39 -49l117 -34q63 -18 88.5 -54t25.5 -97q0 -77 -60 -119.5t-148 -42.5q-62 0 -113.5 14.5t-66.5 34.5q-9 13 -1 26
l21 32q6 9 26 2q75 -25 128 -25q100 0 100 67q0 23 -16.5 35.5t-61.5 26.5z" />
    <glyph glyph-name="t" unicode="t" horiz-adv-x="315" 
d="M257 0h-37q-138 0 -138 156v285h-52q-20 0 -20 20v39q0 20 20 20h52v77q0 3 0.5 5t1 3.5t1.5 3t2 2l3 1.5l3 1.5t4.5 2t4.5 1.5l80 30q9 4 14.5 -2.5t5.5 -17.5v-107h63q20 0 20 -20v-39q0 -20 -20 -20h-63v-288q0 -34 14.5 -51.5t33.5 -17.5h7q20 0 20 -20v-44
q0 -20 -20 -20z" />
    <glyph glyph-name="u" unicode="u" horiz-adv-x="536" 
d="M466 0h-50q-10 0 -14 4.5t-6 15.5l-10 41h-2q-17 -34 -55 -53.5t-78 -19.5q-86 0 -143.5 52.5t-57.5 143.5v316q0 20 19 20h82q19 0 19 -20v-282q0 -146 91 -146q105 0 105 156v272q0 20 20 20h80q20 0 20 -20v-480q0 -20 -20 -20z" />
    <glyph glyph-name="v" unicode="v" horiz-adv-x="504" 
d="M284 0h-64q-19 0 -28 18l-179 484q-9 18 12 18h92q20 0 26 -19l109 -381l109 381q4 19 26 19h92q21 0 12 -18l-179 -484q-9 -18 -28 -18z" />
    <glyph glyph-name="w" unicode="w" horiz-adv-x="784" 
d="M584 0h-64q-19 0 -28 18l-100 324l-100 -324q-9 -18 -28 -18h-64q-19 0 -28 18l-159 484q-9 18 12 18h92q20 0 26 -19l89 -381l99 381q4 19 25 19h72q21 0 25 -19l99 -381l89 381q4 19 26 19h92q21 0 12 -18l-159 -484q-9 -18 -28 -18z" />
    <glyph glyph-name="x" unicode="x" horiz-adv-x="504" 
d="M481 0h-110q-20 0 -30 17l-89 177l-94 -177q-10 -17 -31 -17h-104q-20 0 -8 16l168 250l-160 238q-12 16 8 16h110q20 0 30 -17l81 -170l86 170q10 17 31 17h104q20 0 8 -16l-160 -238l168 -250q12 -16 -8 -16z" />
    <glyph glyph-name="y" unicode="y" horiz-adv-x="524" 
d="M209 -220h-89q-21 0 -12 18l94 210l-189 494q-9 18 12 18h92q20 0 26 -19l121 -382l122 382q7 19 27 19h86q21 0 12 -18l-274 -704q-9 -18 -28 -18z" />
    <glyph glyph-name="z" unicode="z" horiz-adv-x="426" 
d="M376 0h-326q-20 0 -20 20v36q0 19 10 38l210 347h-194q-20 0 -20 20v39q0 20 20 20h312q20 0 20 -20v-36q0 -19 -10 -38l-209 -347h207q20 0 20 -20v-39q0 -20 -20 -20z" />
    <glyph glyph-name="braceleft" unicode="{" horiz-adv-x="407" 
d="M70 319q-20 0 -20 20v50q0 20 20 20q38 0 60 38t22 92v144q0 57 41.5 93t96.5 36h47q20 0 20 -20v-56q0 -20 -20 -20h-14q-46 0 -46 -97v-112q0 -111 -82 -142v-2q82 -28 82 -142v-118q0 -97 46 -97h14q20 0 20 -20v-56q0 -20 -20 -20h-47q-54 0 -96 35t-42 94v150
q0 55 -21.5 92.5t-60.5 37.5z" />
    <glyph glyph-name="bar" unicode="|" horiz-adv-x="190" 
d="M120 -150h-50q-20 0 -20 20v880q0 20 20 20h50q20 0 20 -20v-880q0 -20 -20 -20z" />
    <glyph glyph-name="braceright" unicode="}" horiz-adv-x="407" 
d="M337 319q-39 0 -60.5 -37.5t-21.5 -92.5v-150q0 -59 -42 -94t-96 -35h-47q-20 0 -20 20v56q0 20 20 20h14q46 0 46 97v118q0 114 82 142v2q-82 31 -82 142v112q0 97 -46 97h-14q-20 0 -20 20v56q0 20 20 20h47q55 0 96.5 -36t41.5 -93v-144q0 -54 22 -92t60 -38
q20 0 20 -20v-50q0 -20 -20 -20z" />
    <glyph glyph-name="asciitilde" unicode="~" horiz-adv-x="381" 
d="M96 309h-30q-7 0 -11.5 5t-4.5 11q4 99 88 99q22 0 66 -19q37 -16 40 -16q10 0 18.5 16.5t23.5 16.5h30q6 0 10.5 -5t4.5 -11q-1 -44 -22 -71.5t-65 -27.5q-14 0 -34 8q-71 27 -72 27q-10 0 -20.5 -16.5t-21.5 -16.5z" />
    <glyph glyph-name="exclamdown" unicode="&#xa1;" horiz-adv-x="226" 
d="M136 250h-46q-19 0 -20 -20l-20 -460q-1 -20 20 -20h86q21 0 20 20l-20 460q-1 20 -20 20zM156 350h-86q-20 0 -20 20v80q0 20 20 20h86q20 0 20 -20v-80q0 -20 -20 -20z" />
    <glyph glyph-name="cent" unicode="&#xa2;" horiz-adv-x="479" 
d="M412 95l21 -32q9 -14 -1 -26q-29 -33 -103 -44v-123q0 -20 -20 -20h-50q-20 0 -20 20v120q-199 18 -199 271q0 246 199 269v120q0 20 20 20h50q20 0 20 -20v-122q67 -12 103 -44q12 -10 1 -26l-21 -32q-6 -9 -26 -2q-3 1 -17 6.5t-24 9t-26.5 6.5t-31.5 3
q-127 0 -127 -189q0 -188 126 -188q30 0 100 25q20 7 26 -2z" />
    <glyph glyph-name="yen" unicode="&#xa5;" horiz-adv-x="628" 
d="M111 278v44q0 20 20 20h73l-190 361q-10 17 10 17h107q20 0 30 -17l160 -324l172 323q8 18 29 18h82q19 0 11 -18l-200 -360h82q20 0 20 -20v-44q0 -20 -20 -20h-125v-70h125q20 0 20 -20v-44q0 -20 -20 -20h-125v-84q0 -20 -20 -20h-86q-20 0 -20 20v84h-115
q-20 0 -20 20v44q0 20 20 20h115v70h-115q-20 0 -20 20z" />
    <glyph glyph-name="dieresis" unicode="&#xa8;" horiz-adv-x="400" 
d="M140 610h-70q-20 0 -20 20v70q0 20 20 20h70q20 0 20 -20v-70q0 -20 -20 -20zM330 610h-70q-20 0 -20 20v70q0 20 20 20h70q20 0 20 -20v-70q0 -20 -20 -20z" />
    <glyph glyph-name="copyright" unicode="&#xa9;" horiz-adv-x="700" 
d="M50 280q0 124 88 212t212 88t212 -88t88 -212t-88 -212t-212 -88t-212 88t-88 212zM90 280q0 -108 76 -184t184 -76t184 76t76 184t-76 184t-184 76t-184 -76t-76 -184zM463 158l8 -18q4 -11 -1 -16q-11 -8 -40.5 -16t-59.5 -8q-78 0 -127 48t-49 138t49 138t127 48
q30 0 59.5 -8.5t40.5 -16.5q5 -3 1 -13l-8 -21q-3 -3 -13 -1q-48 12 -80 12q-49 0 -79.5 -33.5t-30.5 -104.5q0 -72 30.5 -105.5t79.5 -33.5q32 0 80 12q9 4 13 -1z" />
    <glyph glyph-name="guillemotleft" unicode="&#xab;" horiz-adv-x="536" 
d="M328 522l-204 -159l204 -159q18 -15 18 -28v-54q0 -20 -18 -12l-270 211q-18 15 -18 28v28q0 13 18 28l270 211q18 8 18 -12v-54q0 -13 -18 -28zM478 482l-154 -119l154 -119q18 -15 18 -28v-54q0 -20 -18 -12l-220 171q-18 15 -18 28v28q0 13 18 28l220 171q18 9 18 -12
v-54q0 -13 -18 -28z" />
    <glyph glyph-name="registered" unicode="&#xae;" horiz-adv-x="700" 
d="M50 460q0 124 88 212t212 88t212 -88t88 -212t-88 -212t-212 -88t-212 88t-88 212zM90 460q0 -108 76 -184t184 -76t184 76t76 184t-76 184t-184 76t-184 -76t-76 -184zM482 287h-55q-10 0 -15 8l-63 101h-39v-99q0 -10 -10 -10h-43q-10 0 -10 10v340q0 10 10 10h95
q56 0 92 -36.5t36 -89.5q0 -37 -19 -67t-52 -45l77 -114q5 -8 -4 -8zM310 441h32q75 0 75 80q0 81 -75 81h-32v-161z" />
    <glyph glyph-name="macron" unicode="&#xaf;" horiz-adv-x="450" 
d="M380 630h-310q-20 0 -20 20v30q0 20 20 20h310q20 0 20 -20v-30q0 -20 -20 -20z" />
    <glyph glyph-name="acute" unicode="&#xb4;" horiz-adv-x="299" 
d="M54 625l60 98q11 17 31 17h91q20 0 5 -14l-111 -104q-15 -14 -35 -14h-31q-20 0 -10 17z" />
    <glyph glyph-name="cedilla" unicode="&#xb8;" horiz-adv-x="276" 
d="M93 -89l22 89h55l-14 -54q33 -4 51.5 -24.5t18.5 -50.5q0 -40 -32 -66.5t-84 -26.5q-42 0 -41 4q-19 1 -18 22l1 18q1 20 21 19v-1v0v0h1h1h1h1h1h1h1h1h1h1h1h1h9q64 0 64 38q0 33 -65 33z" />
    <glyph glyph-name="guillemotright" unicode="&#xbb;" horiz-adv-x="536" 
d="M412 363l-204 159q-18 15 -18 28v54q0 20 18 12l270 -211q18 -15 18 -28v-28q0 -13 -18 -28l-270 -211q-18 -8 -18 12v54q0 13 18 28zM212 363l-154 119q-18 15 -18 28v54q0 21 18 12l220 -171q18 -15 18 -28v-28q0 -13 -18 -28l-220 -171q-18 -8 -18 12v54q0 13 18 28z
" />
    <glyph glyph-name="questiondown" unicode="&#xbf;" horiz-adv-x="508" 
d="M209 262h86q20 0 20 -20v-14q0 -41 -18 -71.5t-65 -84.5q-8 -9 -19.5 -26t-26 -50.5t-14.5 -61.5q0 -38 23.5 -63.5t71.5 -25.5q42 0 147 24q24 5 26 -2l16 -42q7 -19 -1 -26q-18 -15 -82 -32t-122 -17q-87 0 -145.5 44.5t-63.5 138.5q-4 87 53 156q1 1 18 17t32.5 32.5
t29.5 42t14 47.5v14q0 20 20 20zM295 362h-86q-20 0 -20 20v80q0 20 20 20h86q20 0 20 -20v-80q0 -20 -20 -20z" />
    <glyph glyph-name="Agrave" unicode="&#xc0;" horiz-adv-x="672" 
d="M647 0h-95q-20 0 -27 19l-62 158h-284l-62 -158q-7 -19 -27 -19h-65q-21 0 -12 18l273 684q8 18 28 18h44q20 0 28 -18l273 -684q9 -18 -12 -18zM430 261l-89 259l-20 75l-19 -75l-90 -259h218zM309 923l60 -98q10 -17 -10 -17h-31q-20 0 -35 14l-111 104q-15 14 5 14h91
q20 0 31 -17z" />
    <glyph glyph-name="Aacute" unicode="&#xc1;" horiz-adv-x="672" 
d="M647 0h-95q-20 0 -27 19l-62 158h-284l-62 -158q-7 -19 -27 -19h-65q-21 0 -12 18l273 684q8 18 28 18h44q20 0 28 -18l273 -684q9 -18 -12 -18zM430 261l-89 259l-20 75l-19 -75l-90 -259h218zM317 825l60 98q11 17 31 17h91q20 0 5 -14l-111 -104q-15 -14 -35 -14h-31
q-20 0 -10 17z" />
    <glyph glyph-name="Acircumflex" unicode="&#xc2;" horiz-adv-x="672" 
d="M647 0h-95q-20 0 -27 19l-62 158h-284l-62 -158q-7 -19 -27 -19h-65q-21 0 -12 18l273 684q8 18 28 18h44q20 0 28 -18l273 -684q9 -18 -12 -18zM430 261l-89 259l-20 75l-19 -75l-90 -259h218zM336 884l-62 -62q-14 -14 -34 -14h-34q-20 0 -8 16l72 100q12 16 32 16h68
q20 0 32 -16l72 -100q12 -16 -8 -16h-34q-20 0 -34 14z" />
    <glyph glyph-name="Atilde" unicode="&#xc3;" horiz-adv-x="672" 
d="M647 0h-95q-20 0 -27 19l-62 158h-284l-62 -158q-7 -19 -27 -19h-65q-21 0 -12 18l273 684q8 18 28 18h44q20 0 28 -18l273 -684q9 -18 -12 -18zM430 261l-89 259l-20 75l-19 -75l-90 -259h218zM241 809h-30q-7 0 -11.5 5t-4.5 11q4 99 88 99q22 0 66 -19q37 -16 40 -16
q10 0 18.5 16.5t23.5 16.5h30q6 0 10.5 -5t4.5 -11q-1 -44 -22 -71.5t-65 -27.5q-14 0 -34 8q-71 27 -72 27q-10 0 -20.5 -16.5t-21.5 -16.5z" />
    <glyph glyph-name="Adieresis" unicode="&#xc4;" horiz-adv-x="672" 
d="M647 0h-95q-20 0 -27 19l-62 158h-284l-62 -158q-7 -19 -27 -19h-65q-21 0 -12 18l273 684q8 18 28 18h44q20 0 28 -18l273 -684q9 -18 -12 -18zM430 261l-89 259l-20 75l-19 -75l-90 -259h218zM276 810h-70q-20 0 -20 20v70q0 20 20 20h70q20 0 20 -20v-70
q0 -20 -20 -20zM466 810h-70q-20 0 -20 20v70q0 20 20 20h70q20 0 20 -20v-70q0 -20 -20 -20z" />
    <glyph glyph-name="Aring" unicode="&#xc5;" horiz-adv-x="672" 
d="M647 0h-95q-20 0 -27 19l-62 158h-284l-62 -158q-7 -19 -27 -19h-65q-21 0 -12 18l273 684q8 18 28 18h44q20 0 28 -18l273 -684q9 -18 -12 -18zM430 261l-89 259l-20 75l-19 -75l-90 -259h218zM243 868q0 39 27.5 66t65.5 27q40 0 66.5 -26.5t26.5 -66.5
q0 -38 -27 -65.5t-66 -27.5q-37 0 -65 27.5t-28 65.5zM285 868q0 -20 15.5 -35.5t35.5 -15.5q21 0 36 14.5t15 36.5t-14 36.5t-37 14.5q-22 0 -36.5 -15.5t-14.5 -35.5z" />
    <glyph glyph-name="AE" unicode="&#xc6;" horiz-adv-x="717" 
d="M657 0h-303q-20 0 -20 20v157h-155l-62 -158q-7 -19 -27 -19h-65q-19 0 -12 18l273 684q8 18 28 18h343q20 0 20 -20v-50q0 -20 -20 -20h-197v-221h147q20 0 20 -20v-50q0 -20 -20 -20h-147v-229h197q20 0 20 -20v-50q0 -20 -20 -20zM302 520l-90 -259h122v334h-13z" />
    <glyph glyph-name="Ccedilla" unicode="&#xc7;" horiz-adv-x="639" 
d="M342 -70l14 60q-142 10 -229 105t-87 265q0 181 98 276.5t255 95.5q59 0 118.5 -16.5t81.5 -32.5q8 -7 1 -26l-16 -42q-6 -8 -26 -2q-93 24 -159 24q-99 0 -160 -67t-61 -210t61.5 -210t159.5 -67q66 0 159 24q20 7 26 -2l16 -37q8 -23 -1 -31q-21 -15 -73.5 -30
t-108.5 -18l-11 -43q33 -4 51.5 -24.5t18.5 -50.5q0 -40 -32 -66.5t-84 -26.5q-42 0 -41 4q-19 1 -18 22l1 18q1 20 21 19v-1v0v0h1h1h1h1h1h1h1h1h1h1h1h1h9q64 0 64 38q0 10 -6 14.5t-13.5 6t-27.5 3.5q-21 2 -13 28z" />
    <glyph glyph-name="Egrave" unicode="&#xc8;" horiz-adv-x="483" 
d="M423 0h-353q-20 0 -20 20v680q0 20 20 20h353q20 0 20 -20v-50q0 -20 -20 -20h-247v-221h197q20 0 20 -20v-50q0 -20 -20 -20h-197v-229h247q20 0 20 -20v-50q0 -20 -20 -20zM245 923l60 -98q10 -17 -10 -17h-31q-20 0 -35 14l-111 104q-15 14 5 14h91q20 0 31 -17z" />
    <glyph glyph-name="Eacute" unicode="&#xc9;" horiz-adv-x="483" 
d="M423 0h-353q-20 0 -20 20v680q0 20 20 20h353q20 0 20 -20v-50q0 -20 -20 -20h-247v-221h197q20 0 20 -20v-50q0 -20 -20 -20h-197v-229h247q20 0 20 -20v-50q0 -20 -20 -20zM185 825l60 98q11 17 31 17h91q20 0 5 -14l-111 -104q-15 -14 -35 -14h-31q-20 0 -10 17z" />
    <glyph glyph-name="Ecircumflex" unicode="&#xca;" horiz-adv-x="483" 
d="M423 0h-353q-20 0 -20 20v680q0 20 20 20h353q20 0 20 -20v-50q0 -20 -20 -20h-247v-221h197q20 0 20 -20v-50q0 -20 -20 -20h-197v-229h247q20 0 20 -20v-50q0 -20 -20 -20zM241 884l-62 -62q-14 -14 -34 -14h-34q-20 0 -8 16l72 100q12 16 32 16h68q20 0 32 -16
l72 -100q12 -16 -8 -16h-34q-20 0 -34 14z" />
    <glyph glyph-name="Edieresis" unicode="&#xcb;" horiz-adv-x="483" 
d="M423 0h-353q-20 0 -20 20v680q0 20 20 20h353q20 0 20 -20v-50q0 -20 -20 -20h-247v-221h197q20 0 20 -20v-50q0 -20 -20 -20h-197v-229h247q20 0 20 -20v-50q0 -20 -20 -20zM181 810h-70q-20 0 -20 20v70q0 20 20 20h70q20 0 20 -20v-70q0 -20 -20 -20zM371 810h-70
q-20 0 -20 20v70q0 20 20 20h70q20 0 20 -20v-70q0 -20 -20 -20z" />
    <glyph glyph-name="Igrave" unicode="&#xcc;" horiz-adv-x="226" 
d="M156 0h-86q-20 0 -20 20v680q0 20 20 20h86q20 0 20 -20v-680q0 -20 -20 -20zM107 923l60 -98q10 -17 -10 -17h-31q-20 0 -35 14l-111 104q-15 14 5 14h91q20 0 31 -17z" />
    <glyph glyph-name="Iacute" unicode="&#xcd;" horiz-adv-x="226" 
d="M156 0h-86q-20 0 -20 20v680q0 20 20 20h86q20 0 20 -20v-680q0 -20 -20 -20zM56 825l60 98q11 17 31 17h91q20 0 5 -14l-111 -104q-15 -14 -35 -14h-31q-20 0 -10 17z" />
    <glyph glyph-name="Icircumflex" unicode="&#xce;" horiz-adv-x="226" 
d="M156 0h-86q-20 0 -20 20v680q0 20 20 20h86q20 0 20 -20v-680q0 -20 -20 -20zM113 884l-62 -62q-14 -14 -34 -14h-34q-20 0 -8 16l72 100q12 16 32 16h68q20 0 32 -16l72 -100q12 -16 -8 -16h-34q-20 0 -34 14z" />
    <glyph glyph-name="Idieresis" unicode="&#xcf;" horiz-adv-x="226" 
d="M156 0h-86q-20 0 -20 20v680q0 20 20 20h86q20 0 20 -20v-680q0 -20 -20 -20zM53 810h-70q-20 0 -20 20v70q0 20 20 20h70q20 0 20 -20v-70q0 -20 -20 -20zM243 810h-70q-20 0 -20 20v70q0 20 20 20h70q20 0 20 -20v-70q0 -20 -20 -20z" />
    <glyph glyph-name="Eth" unicode="&#xd0;" horiz-adv-x="705" 
d="M336 0h-206q-20 0 -20 20v299h-50q-20 0 -20 20v50q0 20 20 20h50v291q0 20 20 20h230q125 0 215 -102t90 -255q0 -154 -95.5 -257.5t-233.5 -105.5zM236 90h99q86 0 142.5 79.5t55.5 198.5q-1 115 -60.5 188.5t-145.5 73.5h-91v-221h154q20 0 20 -20v-50q0 -20 -20 -20
h-154v-229z" />
    <glyph glyph-name="Ntilde" unicode="&#xd1;" horiz-adv-x="636" 
d="M566 0h-70q-22 0 -33 16l-305 488h-2l10 -204v-280q0 -20 -20 -20h-76q-20 0 -20 20v680q0 20 20 20h70q22 0 33 -16l305 -488h2l-10 204v280q0 20 20 20h76q20 0 20 -20v-680q0 -20 -20 -20zM223 809h-30q-7 0 -11.5 5t-4.5 11q4 99 88 99q22 0 66 -19q37 -16 40 -16
q10 0 18.5 16.5t23.5 16.5h30q6 0 10.5 -5t4.5 -11q-1 -44 -22 -71.5t-65 -27.5q-14 0 -34 8q-71 27 -72 27q-10 0 -20.5 -16.5t-21.5 -16.5z" />
    <glyph glyph-name="Ograve" unicode="&#xd2;" horiz-adv-x="786" 
d="M393 -12q-156 0 -254.5 96t-98.5 276q0 181 98 276.5t255 95.5t255 -95.5t98 -276.5q0 -180 -98.5 -276t-254.5 -96zM393 83q98 0 159.5 67t61.5 210t-61 210t-160 67t-160 -67t-61 -210t61.5 -210t159.5 -67zM391 923l60 -98q10 -17 -10 -17h-31q-20 0 -35 14l-111 104
q-15 14 5 14h91q20 0 31 -17z" />
    <glyph glyph-name="Oacute" unicode="&#xd3;" horiz-adv-x="786" 
d="M393 -12q-156 0 -254.5 96t-98.5 276q0 181 98 276.5t255 95.5t255 -95.5t98 -276.5q0 -180 -98.5 -276t-254.5 -96zM393 83q98 0 159.5 67t61.5 210t-61 210t-160 67t-160 -67t-61 -210t61.5 -210t159.5 -67zM344 825l60 98q11 17 31 17h91q20 0 5 -14l-111 -104
q-15 -14 -35 -14h-31q-20 0 -10 17z" />
    <glyph glyph-name="Ocircumflex" unicode="&#xd4;" horiz-adv-x="786" 
d="M393 -12q-156 0 -254.5 96t-98.5 276q0 181 98 276.5t255 95.5t255 -95.5t98 -276.5q0 -180 -98.5 -276t-254.5 -96zM393 83q98 0 159.5 67t61.5 210t-61 210t-160 67t-160 -67t-61 -210t61.5 -210t159.5 -67zM393 884l-62 -62q-14 -14 -34 -14h-34q-20 0 -8 16l72 100
q12 16 32 16h68q20 0 32 -16l72 -100q12 -16 -8 -16h-34q-20 0 -34 14z" />
    <glyph glyph-name="Otilde" unicode="&#xd5;" horiz-adv-x="786" 
d="M393 -12q-156 0 -254.5 96t-98.5 276q0 181 98 276.5t255 95.5t255 -95.5t98 -276.5q0 -180 -98.5 -276t-254.5 -96zM393 83q98 0 159.5 67t61.5 210t-61 210t-160 67t-160 -67t-61 -210t61.5 -210t159.5 -67zM298 809h-30q-7 0 -11.5 5t-4.5 11q4 99 88 99q22 0 66 -19
q37 -16 40 -16q10 0 18.5 16.5t23.5 16.5h30q6 0 10.5 -5t4.5 -11q-1 -44 -22 -71.5t-65 -27.5q-14 0 -34 8q-71 27 -72 27q-10 0 -20.5 -16.5t-21.5 -16.5z" />
    <glyph glyph-name="Odieresis" unicode="&#xd6;" horiz-adv-x="786" 
d="M393 -12q-156 0 -254.5 96t-98.5 276q0 181 98 276.5t255 95.5t255 -95.5t98 -276.5q0 -180 -98.5 -276t-254.5 -96zM393 83q98 0 159.5 67t61.5 210t-61 210t-160 67t-160 -67t-61 -210t61.5 -210t159.5 -67zM333 810h-70q-20 0 -20 20v70q0 20 20 20h70q20 0 20 -20
v-70q0 -20 -20 -20zM523 810h-70q-20 0 -20 20v70q0 20 20 20h70q20 0 20 -20v-70q0 -20 -20 -20z" />
    <glyph glyph-name="multiply" unicode="&#xd7;" horiz-adv-x="392" 
d="M111 512l85 -84l85 84q14 14 28 0l35 -35q14 -14 0 -28l-84 -85l84 -85q14 -14 0 -28l-35 -35q-14 -14 -28 0l-85 84l-85 -84q-14 -14 -28 0l-35 35q-14 14 0 28l84 85l-84 85q-14 14 0 28l35 35q14 14 28 0z" />
    <glyph glyph-name="Oslash" unicode="&#xd8;" horiz-adv-x="786" 
d="M128 10l-38 32q-16 13 -2 29l30 35q-78 97 -78 254q0 181 98 276.5t255 95.5q122 0 208 -58l28 33q13 16 29 3l38 -32q16 -13 2 -29l-30 -36q78 -97 78 -253q0 -180 -98.5 -276t-254.5 -96q-122 0 -208 58l-28 -33q-13 -16 -29 -3zM172 360q0 -95 28 -157l331 388
q-55 46 -138 46q-99 0 -160 -67t-61 -210zM393 83q98 0 159.5 67t61.5 210q0 93 -28 157l-331 -389q53 -45 138 -45z" />
    <glyph glyph-name="Ugrave" unicode="&#xd9;" horiz-adv-x="636" 
d="M490 284v416q0 20 20 20h56q20 0 20 -20v-444q0 -117 -76 -192.5t-194 -75.5q-115 0 -190.5 76.5t-75.5 191.5v444q0 20 20 20h86q20 0 20 -20v-416q0 -89 37.5 -147.5t104.5 -58.5q81 0 126.5 58t45.5 148zM353 923l60 -98q10 -17 -10 -17h-31q-20 0 -35 14l-111 104
q-15 14 5 14h91q20 0 31 -17z" />
    <glyph glyph-name="Uacute" unicode="&#xda;" horiz-adv-x="636" 
d="M490 284v416q0 20 20 20h56q20 0 20 -20v-444q0 -117 -76 -192.5t-194 -75.5q-115 0 -190.5 76.5t-75.5 191.5v444q0 20 20 20h86q20 0 20 -20v-416q0 -89 37.5 -147.5t104.5 -58.5q81 0 126.5 58t45.5 148zM222 825l60 98q11 17 31 17h91q20 0 5 -14l-111 -104
q-15 -14 -35 -14h-31q-20 0 -10 17z" />
    <glyph glyph-name="Ucircumflex" unicode="&#xdb;" horiz-adv-x="636" 
d="M490 284v416q0 20 20 20h56q20 0 20 -20v-444q0 -117 -76 -192.5t-194 -75.5q-115 0 -190.5 76.5t-75.5 191.5v444q0 20 20 20h86q20 0 20 -20v-416q0 -89 37.5 -147.5t104.5 -58.5q81 0 126.5 58t45.5 148zM318 884l-62 -62q-14 -14 -34 -14h-34q-20 0 -8 16l72 100
q12 16 32 16h68q20 0 32 -16l72 -100q12 -16 -8 -16h-34q-20 0 -34 14z" />
    <glyph glyph-name="Udieresis" unicode="&#xdc;" horiz-adv-x="636" 
d="M490 284v416q0 20 20 20h56q20 0 20 -20v-444q0 -117 -76 -192.5t-194 -75.5q-115 0 -190.5 76.5t-75.5 191.5v444q0 20 20 20h86q20 0 20 -20v-416q0 -89 37.5 -147.5t104.5 -58.5q81 0 126.5 58t45.5 148zM258 810h-70q-20 0 -20 20v70q0 20 20 20h70q20 0 20 -20v-70
q0 -20 -20 -20zM448 810h-70q-20 0 -20 20v70q0 20 20 20h70q20 0 20 -20v-70q0 -20 -20 -20z" />
    <glyph glyph-name="Yacute" unicode="&#xdd;" horiz-adv-x="628" 
d="M352 0h-86q-20 0 -20 20v243l-232 440q-10 17 10 17h107q20 0 30 -17l160 -324l172 323q8 18 29 18h82q19 0 11 -18l-243 -439v-243q0 -20 -20 -20zM269 825l60 98q11 17 31 17h91q20 0 5 -14l-111 -104q-15 -14 -35 -14h-31q-20 0 -10 17z" />
    <glyph glyph-name="Thorn" unicode="&#xde;" horiz-adv-x="557" 
d="M176 699v-90h84q112 0 184.5 -72.5t72.5 -178.5q0 -104 -73 -176t-184 -72h-84v-90q0 -20 -20 -20h-86q-20 0 -20 20v679q0 20 20 20h86q20 0 20 -20zM176 199h64q151 0 151 159q0 160 -151 162h-64v-321z" />
    <glyph glyph-name="germandbls" unicode="&#xdf;" horiz-adv-x="627" 
d="M88 520v10q0 105 59.5 162.5t163.5 57.5q105 0 164 -52t59 -148q0 -105 -95 -150v-2q71 -12 109.5 -64t38.5 -129q0 -87 -66 -146t-163 -59h-61q-20 0 -20 20v44q0 20 20 20h28q136 0 136 120q0 60 -32 100.5t-104 40.5h-27q-20 0 -20 20v44q0 20 21 20q46 0 77.5 32.5
t31.5 86.5q0 55 -24 86.5t-72 31.5q-49 0 -73.5 -36.5t-24.5 -101.5v-508q0 -20 -20 -20h-86q-20 0 -20 20v416h-58q-20 0 -20 20v44q0 20 20 20h58z" />
    <glyph glyph-name="agrave" unicode="&#xe0;" horiz-adv-x="514" 
d="M454 0h-50q-10 0 -14 4.5t-6 15.5l-10 41h-2q-40 -73 -144 -73q-81 0 -134.5 46.5t-53.5 134.5q0 163 209 163h103q-2 19 -7.5 36.5t-17 37t-33.5 31.5t-51 12q-33 0 -113 -25q-20 -6 -26 2l-21 32q-9 14 1 26q16 18 66.5 33.5t106.5 15.5q217 0 217 -267v-246
q0 -20 -20 -20zM354 219v29h-105q-40 0 -64 -20t-24 -56q0 -37 23.5 -68.5t71.5 -31.5q98 0 98 147zM237 723l60 -98q10 -17 -10 -17h-31q-20 0 -35 14l-111 104q-15 14 5 14h91q20 0 31 -17z" />
    <glyph glyph-name="aacute" unicode="&#xe1;" horiz-adv-x="514" 
d="M454 0h-50q-10 0 -14 4.5t-6 15.5l-10 41h-2q-40 -73 -144 -73q-81 0 -134.5 46.5t-53.5 134.5q0 163 209 163h103q-2 19 -7.5 36.5t-17 37t-33.5 31.5t-51 12q-33 0 -113 -25q-20 -6 -26 2l-21 32q-9 14 1 26q16 18 66.5 33.5t106.5 15.5q217 0 217 -267v-246
q0 -20 -20 -20zM354 219v29h-105q-40 0 -64 -20t-24 -56q0 -37 23.5 -68.5t71.5 -31.5q98 0 98 147zM218 625l60 98q11 17 31 17h91q20 0 5 -14l-111 -104q-15 -14 -35 -14h-31q-20 0 -10 17z" />
    <glyph glyph-name="acircumflex" unicode="&#xe2;" horiz-adv-x="514" 
d="M454 0h-50q-10 0 -14 4.5t-6 15.5l-10 41h-2q-40 -73 -144 -73q-81 0 -134.5 46.5t-53.5 134.5q0 163 209 163h103q-2 19 -7.5 36.5t-17 37t-33.5 31.5t-51 12q-33 0 -113 -25q-20 -6 -26 2l-21 32q-9 14 1 26q16 18 66.5 33.5t106.5 15.5q217 0 217 -267v-246
q0 -20 -20 -20zM354 219v29h-105q-40 0 -64 -20t-24 -56q0 -37 23.5 -68.5t71.5 -31.5q98 0 98 147zM257 684l-62 -62q-14 -14 -34 -14h-34q-20 0 -8 16l72 100q12 16 32 16h68q20 0 32 -16l72 -100q12 -16 -8 -16h-34q-20 0 -34 14z" />
    <glyph glyph-name="atilde" unicode="&#xe3;" horiz-adv-x="514" 
d="M454 0h-50q-10 0 -14 4.5t-6 15.5l-10 41h-2q-40 -73 -144 -73q-81 0 -134.5 46.5t-53.5 134.5q0 163 209 163h103q-2 19 -7.5 36.5t-17 37t-33.5 31.5t-51 12q-33 0 -113 -25q-20 -6 -26 2l-21 32q-9 14 1 26q16 18 66.5 33.5t106.5 15.5q217 0 217 -267v-246
q0 -20 -20 -20zM354 219v29h-105q-40 0 -64 -20t-24 -56q0 -37 23.5 -68.5t71.5 -31.5q98 0 98 147zM162 609h-30q-7 0 -11.5 5t-4.5 11q4 99 88 99q22 0 66 -19q37 -16 40 -16q10 0 18.5 16.5t23.5 16.5h30q6 0 10.5 -5t4.5 -11q-1 -44 -22 -71.5t-65 -27.5q-14 0 -34 8
q-71 27 -72 27q-10 0 -20.5 -16.5t-21.5 -16.5z" />
    <glyph glyph-name="adieresis" unicode="&#xe4;" horiz-adv-x="514" 
d="M454 0h-50q-10 0 -14 4.5t-6 15.5l-10 41h-2q-40 -73 -144 -73q-81 0 -134.5 46.5t-53.5 134.5q0 163 209 163h103q-2 19 -7.5 36.5t-17 37t-33.5 31.5t-51 12q-33 0 -113 -25q-20 -6 -26 2l-21 32q-9 14 1 26q16 18 66.5 33.5t106.5 15.5q217 0 217 -267v-246
q0 -20 -20 -20zM354 219v29h-105q-40 0 -64 -20t-24 -56q0 -37 23.5 -68.5t71.5 -31.5q98 0 98 147zM197 610h-70q-20 0 -20 20v70q0 20 20 20h70q20 0 20 -20v-70q0 -20 -20 -20zM387 610h-70q-20 0 -20 20v70q0 20 20 20h70q20 0 20 -20v-70q0 -20 -20 -20z" />
    <glyph glyph-name="aring" unicode="&#xe5;" horiz-adv-x="514" 
d="M454 0h-50q-10 0 -14 4.5t-6 15.5l-10 41h-2q-40 -73 -144 -73q-81 0 -134.5 46.5t-53.5 134.5q0 163 209 163h103q-2 19 -7.5 36.5t-17 37t-33.5 31.5t-51 12q-33 0 -113 -25q-20 -6 -26 2l-21 32q-9 14 1 26q16 18 66.5 33.5t106.5 15.5q217 0 217 -267v-246
q0 -20 -20 -20zM354 219v29h-105q-40 0 -64 -20t-24 -56q0 -37 23.5 -68.5t71.5 -31.5q98 0 98 147zM164 668q0 39 27.5 66t65.5 27q40 0 66.5 -26.5t26.5 -66.5q0 -38 -27 -65.5t-66 -27.5q-37 0 -65 27.5t-28 65.5zM206 668q0 -20 15.5 -35.5t35.5 -15.5q21 0 36 14.5
t15 36.5t-14 36.5t-37 14.5q-22 0 -36.5 -15.5t-14.5 -35.5z" />
    <glyph glyph-name="ae" unicode="&#xe6;" horiz-adv-x="826" 
d="M585 -12q-120 0 -179 70q-59 -70 -178 -70q-81 0 -134.5 46.5t-53.5 134.5q0 163 209 163h103q-2 19 -7.5 36.5t-17 37t-33.5 31.5t-51 12q-33 0 -113 -25q-20 -6 -26 2l-21 32q-9 14 1 26q16 18 66.5 33.5t106.5 15.5q104 0 159 -62q56 62 156 62q95 0 154.5 -55
t59.5 -160q0 -58 -23.5 -79t-85.5 -21h-205q7 -69 35.5 -107.5t90.5 -38.5q39 0 118 25q20 6 26 -2l21 -32q9 -14 -1 -26q-16 -18 -66.5 -33.5t-110.5 -15.5zM354 219v29h-105q-40 0 -64 -20t-24 -56q0 -37 23.5 -68.5t71.5 -31.5q98 0 98 147zM472 302h154q24 0 31.5 6
t7.5 28q0 46 -24.5 79.5t-63.5 33.5q-94 0 -105 -147z" />
    <glyph glyph-name="ccedilla" unicode="&#xe7;" horiz-adv-x="479" 
d="M232 -70l14 59q-206 14 -206 272q0 272 242 272q45 0 88.5 -16t61.5 -33q12 -10 1 -26l-21 -32q-6 -9 -26 -2q-3 1 -17 6.5t-24 9t-26.5 6.5t-31.5 3q-127 0 -127 -189q0 -188 126 -188q30 0 100 25q20 7 26 -2l21 -32q9 -14 -1 -26q-13 -16 -48 -30t-83 -18l-11 -43
q33 -4 51.5 -24.5t18.5 -50.5q0 -40 -32 -66.5t-84 -26.5q-42 0 -41 4q-19 1 -18 22l1 18q1 20 21 19v-1v0v0h1h1h1h1h1h1h1h1h1h1h1h1h9q64 0 64 38q0 10 -6 14.5t-13.5 6t-27.5 3.5q-19 1 -13 28z" />
    <glyph glyph-name="egrave" unicode="&#xe8;" horiz-adv-x="516" 
d="M432 95l21 -32q9 -14 -1 -26q-16 -18 -66.5 -33.5t-110.5 -15.5q-235 0 -235 267q0 125 53.5 201.5t168.5 76.5q95 0 154.5 -55t59.5 -160q0 -58 -23.5 -79t-85.5 -21h-205q7 -69 35.5 -107.5t90.5 -38.5q39 0 118 25q20 6 26 -2zM162 302h154q24 0 31.5 6t7.5 28
q0 46 -24.5 79.5t-63.5 33.5q-94 0 -105 -147zM257 723l60 -98q10 -17 -10 -17h-31q-20 0 -35 14l-111 104q-15 14 5 14h91q20 0 31 -17z" />
    <glyph glyph-name="eacute" unicode="&#xe9;" horiz-adv-x="516" 
d="M432 95l21 -32q9 -14 -1 -26q-16 -18 -66.5 -33.5t-110.5 -15.5q-235 0 -235 267q0 125 53.5 201.5t168.5 76.5q95 0 154.5 -55t59.5 -160q0 -58 -23.5 -79t-85.5 -21h-205q7 -69 35.5 -107.5t90.5 -38.5q39 0 118 25q20 6 26 -2zM162 302h154q24 0 31.5 6t7.5 28
q0 46 -24.5 79.5t-63.5 33.5q-94 0 -105 -147zM202 625l60 98q11 17 31 17h91q20 0 5 -14l-111 -104q-15 -14 -35 -14h-31q-20 0 -10 17z" />
    <glyph glyph-name="ecircumflex" unicode="&#xea;" horiz-adv-x="516" 
d="M432 95l21 -32q9 -14 -1 -26q-16 -18 -66.5 -33.5t-110.5 -15.5q-235 0 -235 267q0 125 53.5 201.5t168.5 76.5q95 0 154.5 -55t59.5 -160q0 -58 -23.5 -79t-85.5 -21h-205q7 -69 35.5 -107.5t90.5 -38.5q39 0 118 25q20 6 26 -2zM162 302h154q24 0 31.5 6t7.5 28
q0 46 -24.5 79.5t-63.5 33.5q-94 0 -105 -147zM258 684l-62 -62q-14 -14 -34 -14h-34q-20 0 -8 16l72 100q12 16 32 16h68q20 0 32 -16l72 -100q12 -16 -8 -16h-34q-20 0 -34 14z" />
    <glyph glyph-name="edieresis" unicode="&#xeb;" horiz-adv-x="516" 
d="M432 95l21 -32q9 -14 -1 -26q-16 -18 -66.5 -33.5t-110.5 -15.5q-235 0 -235 267q0 125 53.5 201.5t168.5 76.5q95 0 154.5 -55t59.5 -160q0 -58 -23.5 -79t-85.5 -21h-205q7 -69 35.5 -107.5t90.5 -38.5q39 0 118 25q20 6 26 -2zM162 302h154q24 0 31.5 6t7.5 28
q0 46 -24.5 79.5t-63.5 33.5q-94 0 -105 -147zM198 610h-70q-20 0 -20 20v70q0 20 20 20h70q20 0 20 -20v-70q0 -20 -20 -20zM388 610h-70q-20 0 -20 20v70q0 20 20 20h70q20 0 20 -20v-70q0 -20 -20 -20z" />
    <glyph glyph-name="igrave" unicode="&#xec;" horiz-adv-x="220" 
d="M150 0h-80q-20 0 -20 20v480q0 20 20 20h80q20 0 20 -20v-480q0 -20 -20 -20zM104 723l60 -98q10 -17 -10 -17h-31q-20 0 -35 14l-111 104q-15 14 5 14h91q20 0 31 -17z" />
    <glyph glyph-name="iacute" unicode="&#xed;" horiz-adv-x="220" 
d="M150 0h-80q-20 0 -20 20v480q0 20 20 20h80q20 0 20 -20v-480q0 -20 -20 -20zM56 625l60 98q11 17 31 17h91q20 0 5 -14l-111 -104q-15 -14 -35 -14h-31q-20 0 -10 17z" />
    <glyph glyph-name="icircumflex" unicode="&#xee;" horiz-adv-x="220" 
d="M150 0h-80q-20 0 -20 20v480q0 20 20 20h80q20 0 20 -20v-480q0 -20 -20 -20zM110 684l-62 -62q-14 -14 -34 -14h-34q-20 0 -8 16l72 100q12 16 32 16h68q20 0 32 -16l72 -100q12 -16 -8 -16h-34q-20 0 -34 14z" />
    <glyph glyph-name="idieresis" unicode="&#xef;" horiz-adv-x="220" 
d="M150 0h-80q-20 0 -20 20v480q0 20 20 20h80q20 0 20 -20v-480q0 -20 -20 -20zM50 610h-70q-20 0 -20 20v70q0 20 20 20h70q20 0 20 -20v-70q0 -20 -20 -20zM240 610h-70q-20 0 -20 20v70q0 20 20 20h70q20 0 20 -20v-70q0 -20 -20 -20z" />
    <glyph glyph-name="eth" unicode="&#xf0;" horiz-adv-x="570" 
d="M502 690l-42 -43q70 -99 70 -281q0 -186 -65 -282t-182 -96q-125 0 -184 69.5t-59 182.5t54 183t172 70q59 0 98.5 -26t58.5 -93q-2 143 -30 206l-47 -48q-14 -14 -28 0l-21 21q-14 14 0 28l52 53q-28 18 -71 18q-20 0 -20 20v50q0 20 20 20q76 0 134 -44l41 41
q14 14 28 0l21 -21q14 -14 0 -28zM399 220q2 178 -116 178q-70 0 -96.5 -41t-26.5 -114q0 -165 132 -165q41 0 73.5 37t33.5 105z" />
    <glyph glyph-name="ntilde" unicode="&#xf1;" horiz-adv-x="536" 
d="M467 0h-82q-19 0 -19 20v282q0 146 -91 146q-105 0 -105 -156v-272q0 -20 -20 -20h-80q-20 0 -20 20v480q0 20 20 20h50q10 0 14 -4.5t6 -15.5l10 -41h2q17 34 55 53.5t78 19.5q86 0 143.5 -52.5t57.5 -143.5v-316q0 -20 -19 -20zM173 609h-30q-7 0 -11.5 5t-4.5 11
q4 99 88 99q22 0 66 -19q37 -16 40 -16q10 0 18.5 16.5t23.5 16.5h30q6 0 10.5 -5t4.5 -11q-1 -44 -22 -71.5t-65 -27.5q-14 0 -34 8q-71 27 -72 27q-10 0 -20.5 -16.5t-21.5 -16.5z" />
    <glyph glyph-name="ograve" unicode="&#xf2;" 
d="M282 -12q-70 0 -118.5 21t-75 59.5t-37.5 84.5t-11 106t11 106.5t37.5 86t75 60.5t118.5 21q242 0 242 -273q0 -60 -11 -106t-37.5 -85t-75 -60t-118.5 -21zM282 78q69 0 95.5 48.5t26.5 133.5t-26.5 134t-95.5 49t-95.5 -49t-26.5 -134t26.5 -133.5t95.5 -48.5zM283 723
l60 -98q10 -17 -10 -17h-31q-20 0 -35 14l-111 104q-15 14 5 14h91q20 0 31 -17z" />
    <glyph glyph-name="oacute" unicode="&#xf3;" 
d="M282 -12q-70 0 -118.5 21t-75 59.5t-37.5 84.5t-11 106t11 106.5t37.5 86t75 60.5t118.5 21q242 0 242 -273q0 -60 -11 -106t-37.5 -85t-75 -60t-118.5 -21zM282 78q69 0 95.5 48.5t26.5 133.5t-26.5 134t-95.5 49t-95.5 -49t-26.5 -134t26.5 -133.5t95.5 -48.5zM219 625
l60 98q11 17 31 17h91q20 0 5 -14l-111 -104q-15 -14 -35 -14h-31q-20 0 -10 17z" />
    <glyph glyph-name="ocircumflex" unicode="&#xf4;" 
d="M282 -12q-70 0 -118.5 21t-75 59.5t-37.5 84.5t-11 106t11 106.5t37.5 86t75 60.5t118.5 21q242 0 242 -273q0 -60 -11 -106t-37.5 -85t-75 -60t-118.5 -21zM282 78q69 0 95.5 48.5t26.5 133.5t-26.5 134t-95.5 49t-95.5 -49t-26.5 -134t26.5 -133.5t95.5 -48.5zM282 684
l-62 -62q-14 -14 -34 -14h-34q-20 0 -8 16l72 100q12 16 32 16h68q20 0 32 -16l72 -100q12 -16 -8 -16h-34q-20 0 -34 14z" />
    <glyph glyph-name="otilde" unicode="&#xf5;" 
d="M282 -12q-70 0 -118.5 21t-75 59.5t-37.5 84.5t-11 106t11 106.5t37.5 86t75 60.5t118.5 21q242 0 242 -273q0 -60 -11 -106t-37.5 -85t-75 -60t-118.5 -21zM282 78q69 0 95.5 48.5t26.5 133.5t-26.5 134t-95.5 49t-95.5 -49t-26.5 -134t26.5 -133.5t95.5 -48.5zM187 609
h-30q-7 0 -11.5 5t-4.5 11q4 99 88 99q22 0 66 -19q37 -16 40 -16q10 0 18.5 16.5t23.5 16.5h30q6 0 10.5 -5t4.5 -11q-1 -44 -22 -71.5t-65 -27.5q-14 0 -34 8q-71 27 -72 27q-10 0 -20.5 -16.5t-21.5 -16.5z" />
    <glyph glyph-name="odieresis" unicode="&#xf6;" 
d="M282 -12q-70 0 -118.5 21t-75 59.5t-37.5 84.5t-11 106t11 106.5t37.5 86t75 60.5t118.5 21q242 0 242 -273q0 -60 -11 -106t-37.5 -85t-75 -60t-118.5 -21zM282 78q69 0 95.5 48.5t26.5 133.5t-26.5 134t-95.5 49t-95.5 -49t-26.5 -134t26.5 -133.5t95.5 -48.5zM222 610
h-70q-20 0 -20 20v70q0 20 20 20h70q20 0 20 -20v-70q0 -20 -20 -20zM412 610h-70q-20 0 -20 20v70q0 20 20 20h70q20 0 20 -20v-70q0 -20 -20 -20z" />
    <glyph glyph-name="oslash" unicode="&#xf8;" 
d="M76 -16l-38 32q-16 13 -2 29l38 45q-34 64 -34 169q0 60 11 106.5t37.5 86t75 60.5t118.5 21q84 0 138 -32l29 34q13 16 29 3l38 -32q16 -13 2 -29l-34 -40q40 -66 40 -177q0 -60 -11 -106t-37.5 -85t-75 -60t-118.5 -21q-91 0 -146 36l-31 -37q-13 -16 -29 -3zM282 78
q69 0 95.5 48.5t26.5 133.5q0 40 -6 75l-194 -230q29 -27 78 -27zM160 260q0 -37 4 -64l189 225q-27 22 -71 22q-69 0 -95.5 -49t-26.5 -134z" />
    <glyph glyph-name="ugrave" unicode="&#xf9;" horiz-adv-x="536" 
d="M466 0h-50q-10 0 -14 4.5t-6 15.5l-10 41h-2q-17 -34 -55 -53.5t-78 -19.5q-86 0 -143.5 52.5t-57.5 143.5v316q0 20 19 20h82q19 0 19 -20v-282q0 -146 91 -146q105 0 105 156v272q0 20 20 20h80q20 0 20 -20v-480q0 -20 -20 -20zM262 723l60 -98q10 -17 -10 -17h-31
q-20 0 -35 14l-111 104q-15 14 5 14h91q20 0 31 -17z" />
    <glyph glyph-name="uacute" unicode="&#xfa;" horiz-adv-x="536" 
d="M466 0h-50q-10 0 -14 4.5t-6 15.5l-10 41h-2q-17 -34 -55 -53.5t-78 -19.5q-86 0 -143.5 52.5t-57.5 143.5v316q0 20 19 20h82q19 0 19 -20v-282q0 -146 91 -146q105 0 105 156v272q0 20 20 20h80q20 0 20 -20v-480q0 -20 -20 -20zM214 625l60 98q11 17 31 17h91
q20 0 5 -14l-111 -104q-15 -14 -35 -14h-31q-20 0 -10 17z" />
    <glyph glyph-name="ucircumflex" unicode="&#xfb;" horiz-adv-x="536" 
d="M466 0h-50q-10 0 -14 4.5t-6 15.5l-10 41h-2q-17 -34 -55 -53.5t-78 -19.5q-86 0 -143.5 52.5t-57.5 143.5v316q0 20 19 20h82q19 0 19 -20v-282q0 -146 91 -146q105 0 105 156v272q0 20 20 20h80q20 0 20 -20v-480q0 -20 -20 -20zM268 684l-62 -62q-14 -14 -34 -14h-34
q-20 0 -8 16l72 100q12 16 32 16h68q20 0 32 -16l72 -100q12 -16 -8 -16h-34q-20 0 -34 14z" />
    <glyph glyph-name="udieresis" unicode="&#xfc;" horiz-adv-x="536" 
d="M466 0h-50q-10 0 -14 4.5t-6 15.5l-10 41h-2q-17 -34 -55 -53.5t-78 -19.5q-86 0 -143.5 52.5t-57.5 143.5v316q0 20 19 20h82q19 0 19 -20v-282q0 -146 91 -146q105 0 105 156v272q0 20 20 20h80q20 0 20 -20v-480q0 -20 -20 -20zM208 610h-70q-20 0 -20 20v70
q0 20 20 20h70q20 0 20 -20v-70q0 -20 -20 -20zM398 610h-70q-20 0 -20 20v70q0 20 20 20h70q20 0 20 -20v-70q0 -20 -20 -20z" />
    <glyph glyph-name="yacute" unicode="&#xfd;" horiz-adv-x="524" 
d="M209 -220h-89q-21 0 -12 18l94 210l-189 494q-9 18 12 18h92q20 0 26 -19l121 -382l122 382q7 19 27 19h86q21 0 12 -18l-274 -704q-9 -18 -28 -18zM166 625l60 98q11 17 31 17h91q20 0 5 -14l-111 -104q-15 -14 -35 -14h-31q-20 0 -10 17z" />
    <glyph glyph-name="thorn" unicode="&#xfe;" horiz-adv-x="581" 
d="M150 -220h-80q-20 0 -20 20v920q0 20 20 20h80q20 0 20 -20v-260h2q42 73 134 73q105 0 170 -63.5t65 -207.5q0 -145 -65 -209.5t-170 -64.5q-92 0 -134 73h-2v-261q0 -20 -20 -20zM421 262q0 108 -32.5 147.5t-99.5 39.5q-119 0 -119 -187q0 -190 119 -190q67 0 99.5 40
t32.5 150z" />
    <glyph glyph-name="ydieresis" unicode="&#xff;" horiz-adv-x="524" 
d="M209 -220h-89q-21 0 -12 18l94 210l-189 494q-9 18 12 18h92q20 0 26 -19l121 -382l122 382q7 19 27 19h86q21 0 12 -18l-274 -704q-9 -18 -28 -18zM202 610h-70q-20 0 -20 20v70q0 20 20 20h70q20 0 20 -20v-70q0 -20 -20 -20zM392 610h-70q-20 0 -20 20v70q0 20 20 20
h70q20 0 20 -20v-70q0 -20 -20 -20z" />
    <glyph glyph-name="Amacron" unicode="&#x100;" horiz-adv-x="672" 
d="M647 0h-95q-20 0 -27 19l-62 158h-284l-62 -158q-7 -19 -27 -19h-65q-21 0 -12 18l273 684q8 18 28 18h44q20 0 28 -18l273 -684q9 -18 -12 -18zM430 261l-89 259l-20 75l-19 -75l-90 -259h218zM491 830h-310q-20 0 -20 20v30q0 20 20 20h310q20 0 20 -20v-30
q0 -20 -20 -20z" />
    <glyph glyph-name="amacron" unicode="&#x101;" horiz-adv-x="514" 
d="M454 0h-50q-10 0 -14 4.5t-6 15.5l-10 41h-2q-40 -73 -144 -73q-81 0 -134.5 46.5t-53.5 134.5q0 163 209 163h103q-2 19 -7.5 36.5t-17 37t-33.5 31.5t-51 12q-33 0 -113 -25q-20 -6 -26 2l-21 32q-9 14 1 26q16 18 66.5 33.5t106.5 15.5q217 0 217 -267v-246
q0 -20 -20 -20zM354 219v29h-105q-40 0 -64 -20t-24 -56q0 -37 23.5 -68.5t71.5 -31.5q98 0 98 147zM412 630h-310q-20 0 -20 20v30q0 20 20 20h310q20 0 20 -20v-30q0 -20 -20 -20z" />
    <glyph glyph-name="Abreve" unicode="&#x102;" horiz-adv-x="672" 
d="M647 0h-95q-20 0 -27 19l-62 158h-284l-62 -158q-7 -19 -27 -19h-65q-21 0 -12 18l273 684q8 18 28 18h44q20 0 28 -18l273 -684q9 -18 -12 -18zM430 261l-89 259l-20 75l-19 -75l-90 -259h218zM213 940h43q8 0 13 -10q14 -43 68 -43t67 43q2 10 14 10h42q6 0 10.5 -5
t4.5 -11q-1 -53 -40.5 -85t-97.5 -32q-53 0 -94 31t-45 86q-1 7 3.5 11.5t11.5 4.5z" />
    <glyph glyph-name="abreve" unicode="&#x103;" horiz-adv-x="514" 
d="M454 0h-50q-10 0 -14 4.5t-6 15.5l-10 41h-2q-40 -73 -144 -73q-81 0 -134.5 46.5t-53.5 134.5q0 163 209 163h103q-2 19 -7.5 36.5t-17 37t-33.5 31.5t-51 12q-33 0 -113 -25q-20 -6 -26 2l-21 32q-9 14 1 26q16 18 66.5 33.5t106.5 15.5q217 0 217 -267v-246
q0 -20 -20 -20zM354 219v29h-105q-40 0 -64 -20t-24 -56q0 -37 23.5 -68.5t71.5 -31.5q98 0 98 147zM134 740h43q8 0 13 -10q14 -43 68 -43t67 43q2 10 14 10h42q6 0 10.5 -5t4.5 -11q-1 -53 -40.5 -85t-97.5 -32q-53 0 -94 31t-45 86q-1 7 3.5 11.5t11.5 4.5z" />
    <glyph glyph-name="Aogonek" unicode="&#x104;" horiz-adv-x="672" 
d="M578 0h-26q-20 0 -27 19l-62 158h-284l-62 -158q-7 -19 -27 -19h-65q-21 0 -12 18l273 684q8 18 28 18h44q20 0 28 -18l273 -684q3 -7 3 -18l-37 -58q-15 -25 -15 -43q0 -21 20 -21q4 0 16 7q16 10 24 -11q4 -8 8 -20q1 -4 1.5 -6.5t-0.5 -5t-2.5 -3.5t-5.5 -4t-6 -5
q-33 -26 -67 -26q-37 -1 -57.5 17.5t-20.5 53.5q0 46 29 85zM430 261l-89 259l-20 75l-19 -75l-90 -259h218z" />
    <glyph glyph-name="aogonek" unicode="&#x105;" horiz-adv-x="514" 
d="M404 0q-10 0 -14 4.5t-6 15.5l-10 41h-2q-40 -73 -144 -73q-81 0 -134.5 46.5t-53.5 134.5q0 163 209 163h103q-2 19 -7.5 36.5t-17 37t-33.5 31.5t-51 12q-33 0 -113 -25q-20 -6 -26 2l-21 32q-9 14 1 26q16 18 66.5 33.5t106.5 15.5q217 0 217 -267v-246q0 -19 -12 -37
l-26 -41q-15 -25 -15 -43q0 -21 20 -21q4 0 16 7q16 10 24 -11q4 -8 8 -20q1 -4 1.5 -6.5t-0.5 -5t-2.5 -3.5t-5.5 -4t-6 -5q-30 -24 -67 -26q-78 3 -78 71q0 31 20.5 70t52.5 55zM354 219v29h-105q-40 0 -64 -20t-24 -56q0 -37 23.5 -68.5t71.5 -31.5q98 0 98 147z" />
    <glyph glyph-name="Cacute" unicode="&#x106;" horiz-adv-x="639" 
d="M578 105l16 -37q8 -23 -1 -31q-22 -16 -81.5 -32.5t-118.5 -16.5q-156 0 -254.5 96t-98.5 276q0 181 98 276.5t255 95.5q59 0 118.5 -16.5t81.5 -32.5q8 -7 1 -26l-16 -42q-6 -8 -26 -2q-93 24 -159 24q-99 0 -160 -67t-61 -210t61.5 -210t159.5 -67q66 0 159 24
q20 7 26 -2zM325 825l60 98q11 17 31 17h91q20 0 5 -14l-111 -104q-15 -14 -35 -14h-31q-20 0 -10 17z" />
    <glyph glyph-name="cacute" unicode="&#x107;" horiz-adv-x="479" 
d="M412 95l21 -32q9 -14 -1 -26q-16 -19 -59 -34t-101 -15q-232 0 -232 273q0 272 242 272q45 0 88.5 -16t61.5 -33q12 -10 1 -26l-21 -32q-6 -9 -26 -2q-3 1 -17 6.5t-24 9t-26.5 6.5t-31.5 3q-127 0 -127 -189q0 -188 126 -188q30 0 100 25q20 7 26 -2zM214 625l60 98
q11 17 31 17h91q20 0 5 -14l-111 -104q-15 -14 -35 -14h-31q-20 0 -10 17z" />
    <glyph glyph-name="Ccircumflex" unicode="&#x108;" horiz-adv-x="639" 
d="M578 105l16 -37q8 -23 -1 -31q-22 -16 -81.5 -32.5t-118.5 -16.5q-156 0 -254.5 96t-98.5 276q0 181 98 276.5t255 95.5q59 0 118.5 -16.5t81.5 -32.5q8 -7 1 -26l-16 -42q-6 -8 -26 -2q-93 24 -159 24q-99 0 -160 -67t-61 -210t61.5 -210t159.5 -67q66 0 159 24
q20 7 26 -2zM385 884l-62 -62q-14 -14 -34 -14h-34q-20 0 -8 16l72 100q12 16 32 16h68q20 0 32 -16l72 -100q12 -16 -8 -16h-34q-20 0 -34 14z" />
    <glyph glyph-name="ccircumflex" unicode="&#x109;" horiz-adv-x="479" 
d="M412 95l21 -32q9 -14 -1 -26q-16 -19 -59 -34t-101 -15q-232 0 -232 273q0 272 242 272q45 0 88.5 -16t61.5 -33q12 -10 1 -26l-21 -32q-6 -9 -26 -2q-3 1 -17 6.5t-24 9t-26.5 6.5t-31.5 3q-127 0 -127 -189q0 -188 126 -188q30 0 100 25q20 7 26 -2zM279 684l-62 -62
q-14 -14 -34 -14h-34q-20 0 -8 16l72 100q12 16 32 16h68q20 0 32 -16l72 -100q12 -16 -8 -16h-34q-20 0 -34 14z" />
    <glyph glyph-name="Cdotaccent" unicode="&#x10a;" horiz-adv-x="639" 
d="M578 105l16 -37q8 -23 -1 -31q-22 -16 -81.5 -32.5t-118.5 -16.5q-156 0 -254.5 96t-98.5 276q0 181 98 276.5t255 95.5q59 0 118.5 -16.5t81.5 -32.5q8 -7 1 -26l-16 -42q-6 -8 -26 -2q-93 24 -159 24q-99 0 -160 -67t-61 -210t61.5 -210t159.5 -67q66 0 159 24
q20 7 26 -2zM413 820h-80q-20 0 -20 20v80q0 20 20 20h80q20 0 20 -20v-80q0 -20 -20 -20z" />
    <glyph glyph-name="cdotaccent" unicode="&#x10b;" horiz-adv-x="479" 
d="M412 95l21 -32q9 -14 -1 -26q-16 -19 -59 -34t-101 -15q-232 0 -232 273q0 272 242 272q45 0 88.5 -16t61.5 -33q12 -10 1 -26l-21 -32q-6 -9 -26 -2q-3 1 -17 6.5t-24 9t-26.5 6.5t-31.5 3q-127 0 -127 -189q0 -188 126 -188q30 0 100 25q20 7 26 -2zM319 620h-80
q-20 0 -20 20v80q0 20 20 20h80q20 0 20 -20v-80q0 -20 -20 -20z" />
    <glyph glyph-name="Ccaron" unicode="&#x10c;" horiz-adv-x="639" 
d="M578 105l16 -37q8 -23 -1 -31q-22 -16 -81.5 -32.5t-118.5 -16.5q-156 0 -254.5 96t-98.5 276q0 181 98 276.5t255 95.5q59 0 118.5 -16.5t81.5 -32.5q8 -7 1 -26l-16 -42q-6 -8 -26 -2q-93 24 -159 24q-99 0 -160 -67t-61 -210t61.5 -210t159.5 -67q66 0 159 24
q20 7 26 -2zM323 926l62 -62l62 62q14 14 34 14h34q20 0 8 -16l-72 -100q-12 -16 -32 -16h-68q-20 0 -32 16l-72 100q-12 16 8 16h34q20 0 34 -14z" />
    <glyph glyph-name="ccaron" unicode="&#x10d;" horiz-adv-x="479" 
d="M412 95l21 -32q9 -14 -1 -26q-16 -19 -59 -34t-101 -15q-232 0 -232 273q0 272 242 272q45 0 88.5 -16t61.5 -33q12 -10 1 -26l-21 -32q-6 -9 -26 -2q-3 1 -17 6.5t-24 9t-26.5 6.5t-31.5 3q-127 0 -127 -189q0 -188 126 -188q30 0 100 25q20 7 26 -2zM217 726l62 -62
l62 62q14 14 34 14h34q20 0 8 -16l-72 -100q-12 -16 -32 -16h-68q-20 0 -32 16l-72 100q-12 16 8 16h34q20 0 34 -14z" />
    <glyph glyph-name="Dcaron" unicode="&#x10e;" horiz-adv-x="645" 
d="M276 0h-206q-20 0 -20 20v680q0 20 20 20h230q125 0 215 -102t90 -255q0 -154 -95.5 -257.5t-233.5 -105.5zM176 90h99q86 0 142.5 79.5t55.5 198.5q-1 115 -60.5 188.5t-145.5 73.5h-91v-540zM216 926l62 -62l62 62q14 14 34 14h34q20 0 8 -16l-72 -100q-12 -16 -32 -16
h-68q-20 0 -32 16l-72 100q-12 16 8 16h34q20 0 34 -14z" />
    <glyph glyph-name="dcaron" unicode="&#x10f;" horiz-adv-x="761" 
d="M511 0h-50q-10 0 -14 4.5t-6 15.5l-10 42h-2q-59 -75 -177 -75q-95 0 -153.5 63.5t-58.5 207.5q0 146 59 210t156 64q106 0 154 -73h2v261q0 20 20 20h80q20 0 20 -20v-700q0 -20 -20 -20zM273 71q138 0 138 187q0 190 -139 190q-57 0 -84.5 -40t-27.5 -150
q0 -108 27 -147.5t86 -39.5zM637 600h-36q-20 0 -20 20v100q0 20 20 20h100q20 0 20 -20v-115q0 -45 -16 -88.5t-33 -61.5q-10 -12 -26 -1l-32 21q-9 6 -2 26q1 3 6.5 17t9 24t6.5 26.5t3 31.5z" />
    <glyph glyph-name="Dcroat" unicode="&#x110;" horiz-adv-x="705" 
d="M336 0h-206q-20 0 -20 20v299h-50q-20 0 -20 20v50q0 20 20 20h50v291q0 20 20 20h230q125 0 215 -102t90 -255q0 -154 -95.5 -257.5t-233.5 -105.5zM236 90h99q86 0 142.5 79.5t55.5 198.5q-1 115 -60.5 188.5t-145.5 73.5h-91v-221h154q20 0 20 -20v-50q0 -20 -20 -20
h-154v-229z" />
    <glyph glyph-name="dcroat" unicode="&#x111;" horiz-adv-x="620" 
d="M511 0h-50q-10 0 -14 4.5t-6 15.5l-10 42h-2q-59 -75 -177 -75q-95 0 -153.5 63.5t-58.5 207.5q0 146 59 210t156 64q106 0 154 -73h2v130h-151q-20 0 -20 20v50q0 20 20 20h151v41q0 20 20 20h80q20 0 20 -20v-41h59q20 0 20 -20v-50q0 -20 -20 -20h-59v-569
q0 -20 -20 -20zM273 71q138 0 138 187q0 190 -139 190q-57 0 -84.5 -40t-27.5 -150q0 -108 27 -147.5t86 -39.5z" />
    <glyph glyph-name="Emacron" unicode="&#x112;" horiz-adv-x="483" 
d="M423 0h-353q-20 0 -20 20v680q0 20 20 20h353q20 0 20 -20v-50q0 -20 -20 -20h-247v-221h197q20 0 20 -20v-50q0 -20 -20 -20h-197v-229h247q20 0 20 -20v-50q0 -20 -20 -20zM396 830h-310q-20 0 -20 20v30q0 20 20 20h310q20 0 20 -20v-30q0 -20 -20 -20z" />
    <glyph glyph-name="emacron" unicode="&#x113;" horiz-adv-x="516" 
d="M432 95l21 -32q9 -14 -1 -26q-16 -18 -66.5 -33.5t-110.5 -15.5q-235 0 -235 267q0 125 53.5 201.5t168.5 76.5q95 0 154.5 -55t59.5 -160q0 -58 -23.5 -79t-85.5 -21h-205q7 -69 35.5 -107.5t90.5 -38.5q39 0 118 25q20 6 26 -2zM162 302h154q24 0 31.5 6t7.5 28
q0 46 -24.5 79.5t-63.5 33.5q-94 0 -105 -147zM413 630h-310q-20 0 -20 20v30q0 20 20 20h310q20 0 20 -20v-30q0 -20 -20 -20z" />
    <glyph glyph-name="Ebreve" unicode="&#x114;" horiz-adv-x="483" 
d="M423 0h-353q-20 0 -20 20v680q0 20 20 20h353q20 0 20 -20v-50q0 -20 -20 -20h-247v-221h197q20 0 20 -20v-50q0 -20 -20 -20h-197v-229h247q20 0 20 -20v-50q0 -20 -20 -20zM119 940h43q8 0 13 -10q14 -43 68 -43t67 43q2 10 14 10h42q6 0 10.5 -5t4.5 -11
q-1 -53 -40.5 -85t-97.5 -32q-53 0 -94 31t-45 86q-1 7 3.5 11.5t11.5 4.5z" />
    <glyph glyph-name="ebreve" unicode="&#x115;" horiz-adv-x="516" 
d="M432 95l21 -32q9 -14 -1 -26q-16 -18 -66.5 -33.5t-110.5 -15.5q-235 0 -235 267q0 125 53.5 201.5t168.5 76.5q95 0 154.5 -55t59.5 -160q0 -58 -23.5 -79t-85.5 -21h-205q7 -69 35.5 -107.5t90.5 -38.5q39 0 118 25q20 6 26 -2zM162 302h154q24 0 31.5 6t7.5 28
q0 46 -24.5 79.5t-63.5 33.5q-94 0 -105 -147zM135 740h43q8 0 13 -10q14 -43 68 -43t67 43q2 10 14 10h42q6 0 10.5 -5t4.5 -11q-1 -53 -40.5 -85t-97.5 -32q-53 0 -94 31t-45 86q-1 7 3.5 11.5t11.5 4.5z" />
    <glyph glyph-name="Edotaccent" unicode="&#x116;" horiz-adv-x="483" 
d="M423 0h-353q-20 0 -20 20v680q0 20 20 20h353q20 0 20 -20v-50q0 -20 -20 -20h-247v-221h197q20 0 20 -20v-50q0 -20 -20 -20h-197v-229h247q20 0 20 -20v-50q0 -20 -20 -20zM281 820h-80q-20 0 -20 20v80q0 20 20 20h80q20 0 20 -20v-80q0 -20 -20 -20z" />
    <glyph glyph-name="edotaccent" unicode="&#x117;" horiz-adv-x="516" 
d="M432 95l21 -32q9 -14 -1 -26q-16 -18 -66.5 -33.5t-110.5 -15.5q-235 0 -235 267q0 125 53.5 201.5t168.5 76.5q95 0 154.5 -55t59.5 -160q0 -58 -23.5 -79t-85.5 -21h-205q7 -69 35.5 -107.5t90.5 -38.5q39 0 118 25q20 6 26 -2zM162 302h154q24 0 31.5 6t7.5 28
q0 46 -24.5 79.5t-63.5 33.5q-94 0 -105 -147zM298 620h-80q-20 0 -20 20v80q0 20 20 20h80q20 0 20 -20v-80q0 -20 -20 -20z" />
    <glyph glyph-name="Eogonek" unicode="&#x118;" horiz-adv-x="483" 
d="M349 0h-279q-20 0 -20 20v680q0 20 20 20h353q20 0 20 -20v-50q0 -20 -20 -20h-247v-221h197q20 0 20 -20v-50q0 -20 -20 -20h-197v-229h247q20 0 20 -20v-50q0 -6 -1 -8.5t-4 -5t-5 -6.5l-37 -58q-15 -25 -15 -43q0 -21 20 -21q4 0 9.5 3.5t6.5 3.5q15 14 24 -11
q2 -3 4.5 -10t3.5 -10q0 -5 1 -7t-1 -5t-2.5 -3.5t-4.5 -3.5t-6 -5q-30 -24 -67 -26q-78 3 -78 71q0 46 29 85z" />
    <glyph glyph-name="eogonek" unicode="&#x119;" horiz-adv-x="516" 
d="M432 95l21 -32q8 -12 0 -26l-53 -95q-15 -27 -15 -43q0 -21 20 -21q4 0 9.5 3.5t6.5 3.5q15 14 24 -11q1 -3 3.5 -10t4.5 -10q1 -4 1.5 -6.5t-1 -5t-2.5 -3.5t-5 -4t-6 -5q-30 -24 -67 -26q-78 3 -78 71q0 46 29 85l25 35q-40 -7 -74 -7q-235 0 -235 267
q0 125 53.5 201.5t168.5 76.5q95 0 154.5 -55t59.5 -160q0 -58 -23.5 -79t-85.5 -21h-205q7 -69 35.5 -107.5t90.5 -38.5q39 0 118 25q20 6 26 -2zM162 302h154q24 0 31.5 6t7.5 28q0 46 -24.5 79.5t-63.5 33.5q-94 0 -105 -147z" />
    <glyph glyph-name="Ecaron" unicode="&#x11a;" horiz-adv-x="483" 
d="M423 0h-353q-20 0 -20 20v680q0 20 20 20h353q20 0 20 -20v-50q0 -20 -20 -20h-247v-221h197q20 0 20 -20v-50q0 -20 -20 -20h-197v-229h247q20 0 20 -20v-50q0 -20 -20 -20zM179 926l62 -62l62 62q14 14 34 14h34q20 0 8 -16l-72 -100q-12 -16 -32 -16h-68q-20 0 -32 16
l-72 100q-12 16 8 16h34q20 0 34 -14z" />
    <glyph glyph-name="ecaron" unicode="&#x11b;" horiz-adv-x="516" 
d="M432 95l21 -32q9 -14 -1 -26q-16 -18 -66.5 -33.5t-110.5 -15.5q-235 0 -235 267q0 125 53.5 201.5t168.5 76.5q95 0 154.5 -55t59.5 -160q0 -58 -23.5 -79t-85.5 -21h-205q7 -69 35.5 -107.5t90.5 -38.5q39 0 118 25q20 6 26 -2zM162 302h154q24 0 31.5 6t7.5 28
q0 46 -24.5 79.5t-63.5 33.5q-94 0 -105 -147zM196 726l62 -62l62 62q14 14 34 14h34q20 0 8 -16l-72 -100q-12 -16 -32 -16h-68q-20 0 -32 16l-72 100q-12 16 8 16h34q20 0 34 -14z" />
    <glyph glyph-name="Gcircumflex" unicode="&#x11c;" horiz-adv-x="649" 
d="M472 84v235h-88q-20 0 -20 20v50q0 20 20 20h194q20 0 20 -20v-338q1 -9 -5 -14q-22 -16 -81.5 -32.5t-118.5 -16.5q-156 0 -254.5 96t-98.5 276q0 181 98 276.5t255 95.5q59 0 118.5 -16.5t81.5 -32.5q8 -7 1 -26l-16 -37q-6 -8 -26 -2q-93 24 -159 24q-99 0 -160 -68
t-61 -214t61.5 -214t159.5 -68q41 0 79 6zM387 884l-62 -62q-14 -14 -34 -14h-34q-20 0 -8 16l72 100q12 16 32 16h68q20 0 32 -16l72 -100q12 -16 -8 -16h-34q-20 0 -34 14z" />
    <glyph glyph-name="gcircumflex" unicode="&#x11d;" horiz-adv-x="581" 
d="M411 19v42h-2q-48 -73 -154 -73q-97 0 -156 64t-59 210q0 144 58.5 207.5t153.5 63.5q118 0 177 -75h2l10 42q2 11 6 15.5t14 4.5h50q20 0 20 -20v-470q0 -118 -66 -188.5t-173 -70.5q-59 0 -124.5 16.5t-85.5 32.5q-8 7 -1 26l16 42q3 9 26 2q89 -24 168 -24
q54 0 87 42.5t33 110.5zM272 72q139 0 139 190q0 187 -138 187q-59 0 -86 -39.5t-27 -147.5q0 -110 27.5 -150t84.5 -40zM290 684l-62 -62q-14 -14 -34 -14h-34q-20 0 -8 16l72 100q12 16 32 16h68q20 0 32 -16l72 -100q12 -16 -8 -16h-34q-20 0 -34 14z" />
    <glyph glyph-name="Gbreve" unicode="&#x11e;" horiz-adv-x="649" 
d="M472 84v235h-88q-20 0 -20 20v50q0 20 20 20h194q20 0 20 -20v-338q1 -9 -5 -14q-22 -16 -81.5 -32.5t-118.5 -16.5q-156 0 -254.5 96t-98.5 276q0 181 98 276.5t255 95.5q59 0 118.5 -16.5t81.5 -32.5q8 -7 1 -26l-16 -37q-6 -8 -26 -2q-93 24 -159 24q-99 0 -160 -68
t-61 -214t61.5 -214t159.5 -68q41 0 79 6zM260 940h43q8 0 13 -10q14 -43 68 -43t67 43q2 10 14 10h42q6 0 10.5 -5t4.5 -11q-1 -53 -40.5 -85t-97.5 -32q-53 0 -94 31t-45 86q-1 7 3.5 11.5t11.5 4.5z" />
    <glyph glyph-name="gbreve" unicode="&#x11f;" horiz-adv-x="581" 
d="M411 19v42h-2q-48 -73 -154 -73q-97 0 -156 64t-59 210q0 144 58.5 207.5t153.5 63.5q118 0 177 -75h2l10 42q2 11 6 15.5t14 4.5h50q20 0 20 -20v-470q0 -118 -66 -188.5t-173 -70.5q-59 0 -124.5 16.5t-85.5 32.5q-8 7 -1 26l16 42q3 9 26 2q89 -24 168 -24
q54 0 87 42.5t33 110.5zM272 72q139 0 139 190q0 187 -138 187q-59 0 -86 -39.5t-27 -147.5q0 -110 27.5 -150t84.5 -40zM168 740h43q8 0 13 -10q14 -43 68 -43t67 43q2 10 14 10h42q6 0 10.5 -5t4.5 -11q-1 -53 -40.5 -85t-97.5 -32q-53 0 -94 31t-45 86q-1 7 3.5 11.5
t11.5 4.5z" />
    <glyph glyph-name="Gdotaccent" unicode="&#x120;" horiz-adv-x="649" 
d="M472 84v235h-88q-20 0 -20 20v50q0 20 20 20h194q20 0 20 -20v-338q1 -9 -5 -14q-22 -16 -81.5 -32.5t-118.5 -16.5q-156 0 -254.5 96t-98.5 276q0 181 98 276.5t255 95.5q59 0 118.5 -16.5t81.5 -32.5q8 -7 1 -26l-16 -37q-6 -8 -26 -2q-93 24 -159 24q-99 0 -160 -68
t-61 -214t61.5 -214t159.5 -68q41 0 79 6zM427 820h-80q-20 0 -20 20v80q0 20 20 20h80q20 0 20 -20v-80q0 -20 -20 -20z" />
    <glyph glyph-name="gdotaccent" unicode="&#x121;" horiz-adv-x="581" 
d="M411 19v42h-2q-48 -73 -154 -73q-97 0 -156 64t-59 210q0 144 58.5 207.5t153.5 63.5q118 0 177 -75h2l10 42q2 11 6 15.5t14 4.5h50q20 0 20 -20v-470q0 -118 -66 -188.5t-173 -70.5q-59 0 -124.5 16.5t-85.5 32.5q-8 7 -1 26l16 42q3 9 26 2q89 -24 168 -24
q54 0 87 42.5t33 110.5zM272 72q139 0 139 190q0 187 -138 187q-59 0 -86 -39.5t-27 -147.5q0 -110 27.5 -150t84.5 -40zM330 620h-80q-20 0 -20 20v80q0 20 20 20h80q20 0 20 -20v-80q0 -20 -20 -20z" />
    <glyph glyph-name="uni0122" unicode="&#x122;" horiz-adv-x="649" 
d="M472 84v235h-88q-20 0 -20 20v50q0 20 20 20h194q20 0 20 -20v-338q1 -9 -5 -14q-22 -16 -81.5 -32.5t-118.5 -16.5q-156 0 -254.5 96t-98.5 276q0 181 98 276.5t255 95.5q59 0 118.5 -16.5t81.5 -32.5q8 -7 1 -26l-16 -37q-6 -8 -26 -2q-93 24 -159 24q-99 0 -160 -68
t-61 -214t61.5 -214t159.5 -68q41 0 79 6zM359 -249h-36q-20 0 -20 20v100q0 20 20 20h100q20 0 20 -20v-115q0 -45 -16 -88.5t-33 -61.5q-10 -12 -26 -1l-32 21q-9 6 -2 26q1 3 6.5 17t9 24t6.5 26.5t3 31.5z" />
    <glyph glyph-name="uni0123" unicode="&#x123;" horiz-adv-x="581" 
d="M287 739h36q20 0 20 -20v-100q0 -20 -20 -20h-100q-20 0 -20 20v115q0 45 16 88.5t33 61.5q10 12 26 1l32 -21q9 -6 2 -26q-1 -3 -6.5 -17t-9 -24t-6.5 -26.5t-3 -31.5zM411 19v42h-2q-48 -73 -154 -73q-97 0 -156 64t-59 210q0 144 58.5 207.5t153.5 63.5q118 0 177 -75
h2l10 42q2 11 6 15.5t14 4.5h50q20 0 20 -20v-470q0 -118 -66 -188.5t-173 -70.5q-59 0 -124.5 16.5t-85.5 32.5q-8 7 -1 26l16 42q3 9 26 2q89 -24 168 -24q54 0 87 42.5t33 110.5zM272 72q139 0 139 190q0 187 -138 187q-59 0 -86 -39.5t-27 -147.5q0 -110 27.5 -150
t84.5 -40z" />
    <glyph glyph-name="Hcircumflex" unicode="&#x124;" horiz-adv-x="609" 
d="M539 0h-86q-20 0 -20 20v304h-257v-304q0 -20 -20 -20h-86q-20 0 -20 20v680q0 20 20 20h86q20 0 20 -20v-286h257v286q0 20 20 20h86q20 0 20 -20v-680q0 -20 -20 -20zM304 884l-62 -62q-14 -14 -34 -14h-34q-20 0 -8 16l72 100q12 16 32 16h68q20 0 32 -16l72 -100
q12 -16 -8 -16h-34q-20 0 -34 14z" />
    <glyph glyph-name="hcircumflex" unicode="&#x125;" horiz-adv-x="551" 
d="M481 0h-80q-20 0 -20 20v238q0 110 -22.5 150t-69.5 40q-119 0 -119 -160v-268q0 -20 -20 -20h-80q-20 0 -20 20v700q0 20 20 20h80q20 0 20 -20v-261h2q40 73 134 73q88 0 141.5 -64t53.5 -210v-238q0 -20 -20 -20zM275 884l-62 -62q-14 -14 -34 -14h-34q-20 0 -8 16
l72 100q12 16 32 16h68q20 0 32 -16l72 -100q12 -16 -8 -16h-34q-20 0 -34 14z" />
    <glyph glyph-name="Hbar" unicode="&#x126;" horiz-adv-x="609" 
d="M589 539l-569 1q-20 0 -20 20v30q0 20 20 20l569 -1q20 0 20 -20v-30q0 -20 -20 -20zM539 0h-86q-20 0 -20 20v304h-257v-304q0 -20 -20 -20h-86q-20 0 -20 20v680q0 20 20 20h86q20 0 20 -20v-286h257v286q0 20 20 20h86q20 0 20 -20v-680q0 -20 -20 -20z" />
    <glyph glyph-name="hbar" unicode="&#x127;" horiz-adv-x="587" 
d="M517 0h-80q-20 0 -20 20v238q0 110 -22.5 150t-69.5 40q-119 0 -119 -160v-268q0 -20 -20 -20h-80q-20 0 -20 20v559h-50q-20 0 -20 20v50q0 20 20 20h50v51q0 20 20 20h80q20 0 20 -20v-51h160q20 0 20 -20v-50q0 -20 -20 -20h-160v-120h2q40 73 134 73q88 0 141.5 -64
t53.5 -210v-238q0 -20 -20 -20z" />
    <glyph glyph-name="Itilde" unicode="&#x128;" horiz-adv-x="226" 
d="M156 0h-86q-20 0 -20 20v680q0 20 20 20h86q20 0 20 -20v-680q0 -20 -20 -20zM19 809h-30q-7 0 -11.5 5t-4.5 11q4 99 88 99q22 0 66 -19q37 -16 40 -16q10 0 18.5 16.5t23.5 16.5h30q6 0 10.5 -5t4.5 -11q-1 -44 -22 -71.5t-65 -27.5q-14 0 -34 8q-71 27 -72 27
q-10 0 -20.5 -16.5t-21.5 -16.5z" />
    <glyph glyph-name="itilde" unicode="&#x129;" horiz-adv-x="220" 
d="M150 0h-80q-20 0 -20 20v480q0 20 20 20h80q20 0 20 -20v-480q0 -20 -20 -20zM16 609h-30q-7 0 -11.5 5t-4.5 11q4 99 88 99q22 0 66 -19q37 -16 40 -16q10 0 18.5 16.5t23.5 16.5h30q6 0 10.5 -5t4.5 -11q-1 -44 -22 -71.5t-65 -27.5q-14 0 -34 8q-71 27 -72 27
q-10 0 -20.5 -16.5t-21.5 -16.5z" />
    <glyph glyph-name="Imacron" unicode="&#x12a;" horiz-adv-x="226" 
d="M156 0h-86q-20 0 -20 20v680q0 20 20 20h86q20 0 20 -20v-680q0 -20 -20 -20zM268 830h-310q-20 0 -20 20v30q0 20 20 20h310q20 0 20 -20v-30q0 -20 -20 -20z" />
    <glyph glyph-name="imacron" unicode="&#x12b;" horiz-adv-x="220" 
d="M150 0h-80q-20 0 -20 20v480q0 20 20 20h80q20 0 20 -20v-480q0 -20 -20 -20zM265 630h-310q-20 0 -20 20v30q0 20 20 20h310q20 0 20 -20v-30q0 -20 -20 -20z" />
    <glyph glyph-name="Ibreve" unicode="&#x12c;" horiz-adv-x="226" 
d="M156 0h-86q-20 0 -20 20v680q0 20 20 20h86q20 0 20 -20v-680q0 -20 -20 -20zM-9 940h43q8 0 13 -10q14 -43 68 -43t67 43q2 10 14 10h42q6 0 10.5 -5t4.5 -11q-1 -53 -40.5 -85t-97.5 -32q-53 0 -94 31t-45 86q-1 7 3.5 11.5t11.5 4.5z" />
    <glyph glyph-name="ibreve" unicode="&#x12d;" horiz-adv-x="220" 
d="M150 0h-80q-20 0 -20 20v480q0 20 20 20h80q20 0 20 -20v-480q0 -20 -20 -20zM-12 740h43q8 0 13 -10q14 -43 68 -43t67 43q2 10 14 10h42q6 0 10.5 -5t4.5 -11q-1 -53 -40.5 -85t-97.5 -32q-53 0 -94 31t-45 86q-1 7 3.5 11.5t11.5 4.5z" />
    <glyph glyph-name="Iogonek" unicode="&#x12e;" horiz-adv-x="226" 
d="M91 0h-21q-20 0 -20 20v680q0 20 20 20h86q20 0 20 -20v-680l-1 -20l-37 -58q-15 -25 -15 -43q0 -21 20 -21q4 0 9.5 3.5t6.5 3.5q15 14 24 -11q2 -3 4.5 -10t3.5 -10q1 -4 1.5 -6.5t-1 -5t-2.5 -3.5t-5 -4t-6 -5q-30 -24 -67 -26q-78 3 -78 71q0 46 29 85z" />
    <glyph glyph-name="iogonek" unicode="&#x12f;" horiz-adv-x="220" 
d="M86 0h-16q-20 0 -20 20v480q0 20 20 20h80q20 0 20 -20v-480q0 -20 -11 -37l-26 -41q-15 -25 -15 -43q0 -21 20 -21q4 0 16 7q15 9 24 -11q4 -8 8 -20q1 -4 1.5 -6.5t-0.5 -5t-2.5 -3.5t-5.5 -4t-6 -5q-30 -24 -67 -26q-78 3 -78 71q0 46 29 85zM150 620h-80
q-20 0 -20 20v80q0 20 20 20h80q20 0 20 -20v-80q0 -20 -20 -20z" />
    <glyph glyph-name="Idotaccent" unicode="&#x130;" horiz-adv-x="226" 
d="M156 0h-86q-20 0 -20 20v680q0 20 20 20h86q20 0 20 -20v-680q0 -20 -20 -20zM153 820h-80q-20 0 -20 20v80q0 20 20 20h80q20 0 20 -20v-80q0 -20 -20 -20z" />
    <glyph glyph-name="dotlessi" unicode="&#x131;" horiz-adv-x="220" 
d="M150 0h-80q-20 0 -20 20v480q0 20 20 20h80q20 0 20 -20v-480q0 -20 -20 -20z" />
    <glyph glyph-name="IJ" unicode="&#x132;" horiz-adv-x="582" 
d="M156 0h-86q-20 0 -20 20v680q0 20 20 20h86q20 0 20 -20v-680q0 -20 -20 -20zM236 22v48q0 20 20 20h13q76 0 111.5 42.5t35.5 147.5v420q0 20 20 20h86q20 0 20 -20v-441q-1 -125 -68 -192t-182 -67l-38 1q-18 1 -18 21z" />
    <glyph glyph-name="ij" unicode="&#x133;" horiz-adv-x="440" 
d="M150 620h-80q-20 0 -20 20v80q0 20 20 20h80q20 0 20 -20v-80q0 -20 -20 -20zM150 0h-80q-20 0 -20 20v480q0 20 20 20h80q20 0 20 -20v-480q0 -20 -20 -20zM370 620h-80q-20 0 -20 20v80q0 20 20 20h80q20 0 20 -20v-80q0 -20 -20 -20zM252 -220h-17q-20 0 -20 20v44
q0 20 20 20h7q11 0 19.5 20t8.5 59v557q0 20 20 20h80q20 0 20 -20v-564q0 -156 -138 -156z" />
    <glyph glyph-name="Jcircumflex" unicode="&#x134;" horiz-adv-x="356" 
d="M10 22v48q0 20 20 20h13q76 0 111.5 42.5t35.5 147.5v420q0 20 20 20h86q20 0 20 -20v-441q-1 -125 -68 -192t-182 -67l-38 1q-18 1 -18 21zM255 884l-62 -62q-14 -14 -34 -14h-34q-20 0 -8 16l72 100q12 16 32 16h68q20 0 32 -16l72 -100q12 -16 -8 -16h-34
q-20 0 -34 14z" />
    <glyph glyph-name="jcircumflex" unicode="&#x135;" horiz-adv-x="220" 
d="M32 -220h-17q-20 0 -20 20v44q0 20 20 20h7q11 0 19.5 20t8.5 59v557q0 20 20 20h80q20 0 20 -20v-564q0 -156 -138 -156zM110 684l-62 -62q-14 -14 -34 -14h-34q-20 0 -8 16l72 100q12 16 32 16h68q20 0 32 -16l72 -100q12 -16 -8 -16h-34q-20 0 -34 14z" />
    <glyph glyph-name="uni0136" unicode="&#x136;" horiz-adv-x="637" 
d="M567 0h-118q-20 0 -32 16l-241 311v-307q0 -20 -20 -20h-86q-20 0 -20 20v680q0 20 20 20h86q20 0 20 -20v-308l248 312q12 16 32 16h103q20 0 8 -16l-279 -335l287 -353q12 -16 -8 -16zM304 -249h-36q-20 0 -20 20v100q0 20 20 20h100q20 0 20 -20v-115q0 -45 -16 -88.5
t-33 -61.5q-10 -12 -26 -1l-32 21q-9 6 -2 26q1 3 6.5 17t9 24t6.5 26.5t3 31.5z" />
    <glyph glyph-name="uni0137" unicode="&#x137;" horiz-adv-x="487" 
d="M463 0h-98q-20 0 -32 16l-164 211v-207q0 -20 -20 -20h-79q-20 0 -20 20v700q0 20 20 20h79q20 0 20 -20v-428l168 212q12 16 32 16h83q22 0 8 -16l-199 -235l210 -253q14 -16 -8 -16zM229 -249h-36q-20 0 -20 20v100q0 20 20 20h100q20 0 20 -20v-115q0 -45 -16 -88.5
t-33 -61.5q-10 -12 -26 -1l-32 21q-9 6 -2 26q1 3 6.5 17t9 24t6.5 26.5t3 31.5z" />
    <glyph glyph-name="kgreenlandic" unicode="&#x138;" horiz-adv-x="487" 
d="M463 0h-98q-20 0 -32 16l-164 211v-207q0 -20 -20 -20h-79q-20 0 -20 20v480q0 20 20 20h79q20 0 20 -20v-208l168 212q12 16 32 16h83q22 0 8 -16l-199 -235l210 -253q14 -16 -8 -16z" />
    <glyph glyph-name="Lacute" unicode="&#x139;" horiz-adv-x="463" 
d="M443 70v-50q0 -20 -20 -20h-353q-20 0 -20 20v680q0 20 20 20h86q20 0 20 -20v-610h247q20 0 20 -20zM111 825l60 98q11 17 31 17h91q20 0 5 -14l-111 -104q-15 -14 -35 -14h-31q-20 0 -10 17z" />
    <glyph glyph-name="lacute" unicode="&#x13a;" horiz-adv-x="226" 
d="M205 0h-17q-138 0 -138 156v564q0 20 20 20h80q20 0 20 -20v-557q0 -39 8.5 -59t19.5 -20h7q20 0 20 -20v-44q0 -20 -20 -20zM111 825l60 98q11 17 31 17h91q20 0 5 -14l-111 -104q-15 -14 -35 -14h-31q-20 0 -10 17z" />
    <glyph glyph-name="uni013B" unicode="&#x13b;" horiz-adv-x="463" 
d="M443 70v-50q0 -20 -20 -20h-353q-20 0 -20 20v680q0 20 20 20h86q20 0 20 -20v-610h247q20 0 20 -20zM217 -249h-36q-20 0 -20 20v100q0 20 20 20h100q20 0 20 -20v-115q0 -45 -16 -88.5t-33 -61.5q-10 -12 -26 -1l-32 21q-9 6 -2 26q1 3 6.5 17t9 24t6.5 26.5t3 31.5z
" />
    <glyph glyph-name="uni013C" unicode="&#x13c;" horiz-adv-x="226" 
d="M205 0h-17q-138 0 -138 156v564q0 20 20 20h80q20 0 20 -20v-557q0 -39 8.5 -59t19.5 -20h7q20 0 20 -20v-44q0 -20 -20 -20zM141 -249h-36q-20 0 -20 20v100q0 20 20 20h100q20 0 20 -20v-115q0 -45 -16 -88.5t-33 -61.5q-10 -12 -26 -1l-32 21q-9 6 -2 26q1 3 6.5 17
t9 24t6.5 26.5t3 31.5z" />
    <glyph glyph-name="Lcaron" unicode="&#x13d;" horiz-adv-x="463" 
d="M443 70v-50q0 -20 -20 -20h-353q-20 0 -20 20v680q0 20 20 20h86q20 0 20 -20v-610h247q20 0 20 -20zM51 926l62 -62l62 62q14 14 34 14h34q20 0 8 -16l-72 -100q-12 -16 -32 -16h-68q-20 0 -32 16l-72 100q-12 16 8 16h34q20 0 34 -14z" />
    <glyph glyph-name="lcaron" unicode="&#x13e;" horiz-adv-x="376" 
d="M205 0h-17q-138 0 -138 156v564q0 20 20 20h80q20 0 20 -20v-557q0 -39 8.5 -59t19.5 -20h7q20 0 20 -20v-44q0 -20 -20 -20zM282 600h-36q-20 0 -20 20v100q0 20 20 20h100q20 0 20 -20v-115q0 -45 -16 -88.5t-33 -61.5q-10 -12 -26 -1l-32 21q-9 6 -2 26q1 3 6.5 17
t9 24t6.5 26.5t3 31.5z" />
    <glyph glyph-name="Ldot" unicode="&#x13f;" horiz-adv-x="463" 
d="M443 70v-50q0 -20 -20 -20h-353q-20 0 -20 20v680q0 20 20 20h86q20 0 20 -20v-610h247q20 0 20 -20zM410 370h-100q-20 0 -20 -20v-100q0 -20 20 -20h100q20 0 20 20v100q0 20 -20 20z" />
    <glyph glyph-name="ldot" unicode="&#x140;" horiz-adv-x="376" 
d="M205 0h-17q-138 0 -138 156v564q0 20 20 20h80q20 0 20 -20v-557q0 -39 8.5 -59t19.5 -20h7q20 0 20 -20v-44q0 -20 -20 -20zM346 370h-100q-20 0 -20 -20v-100q0 -20 20 -20h100q20 0 20 20v100q0 20 -20 20z" />
    <glyph glyph-name="Lslash" unicode="&#x141;" horiz-adv-x="531" 
d="M453 414l-390 -182q-19 -9 -26 10l-22 45q-7 19 10 27l390 182q19 9 26 -10l22 -45q7 -19 -10 -27zM511 70v-50q0 -20 -20 -20h-353q-20 0 -20 20v680q0 20 20 20h86q20 0 20 -20v-610h247q20 0 20 -20z" />
    <glyph glyph-name="lslash" unicode="&#x142;" horiz-adv-x="382" 
d="M363 373l-305 -141q-19 -9 -26 10l-22 45q-7 19 10 27l305 141q19 9 26 -10l22 -45q7 -19 -10 -27zM268 0h-17q-138 0 -138 156v564q0 20 20 20h80q20 0 20 -20v-557q0 -39 8.5 -59t19.5 -20h7q20 0 20 -20v-44q0 -20 -20 -20z" />
    <glyph glyph-name="Nacute" unicode="&#x143;" horiz-adv-x="636" 
d="M566 0h-70q-22 0 -33 16l-305 488h-2l10 -204v-280q0 -20 -20 -20h-76q-20 0 -20 20v680q0 20 20 20h70q22 0 33 -16l305 -488h2l-10 204v280q0 20 20 20h76q20 0 20 -20v-680q0 -20 -20 -20zM269 825l60 98q11 17 31 17h91q20 0 5 -14l-111 -104q-15 -14 -35 -14h-31
q-20 0 -10 17z" />
    <glyph glyph-name="nacute" unicode="&#x144;" horiz-adv-x="536" 
d="M467 0h-82q-19 0 -19 20v282q0 146 -91 146q-105 0 -105 -156v-272q0 -20 -20 -20h-80q-20 0 -20 20v480q0 20 20 20h50q10 0 14 -4.5t6 -15.5l10 -41h2q17 34 55 53.5t78 19.5q86 0 143.5 -52.5t57.5 -143.5v-316q0 -20 -19 -20zM234 625l60 98q11 17 31 17h91
q20 0 5 -14l-111 -104q-15 -14 -35 -14h-31q-20 0 -10 17z" />
    <glyph glyph-name="uni0145" unicode="&#x145;" horiz-adv-x="636" 
d="M566 0h-70q-22 0 -33 16l-305 488h-2l10 -204v-280q0 -20 -20 -20h-76q-20 0 -20 20v680q0 20 20 20h70q22 0 33 -16l305 -488h2l-10 204v280q0 20 20 20h76q20 0 20 -20v-680q0 -20 -20 -20zM304 -249h-36q-20 0 -20 20v100q0 20 20 20h100q20 0 20 -20v-115
q0 -45 -16 -88.5t-33 -61.5q-10 -12 -26 -1l-32 21q-9 6 -2 26q1 3 6.5 17t9 24t6.5 26.5t3 31.5z" />
    <glyph glyph-name="uni0146" unicode="&#x146;" horiz-adv-x="536" 
d="M467 0h-82q-19 0 -19 20v282q0 146 -91 146q-105 0 -105 -156v-272q0 -20 -20 -20h-80q-20 0 -20 20v480q0 20 20 20h50q10 0 14 -4.5t6 -15.5l10 -41h2q17 34 55 53.5t78 19.5q86 0 143.5 -52.5t57.5 -143.5v-316q0 -20 -19 -20zM254 -249h-36q-20 0 -20 20v100
q0 20 20 20h100q20 0 20 -20v-115q0 -45 -16 -88.5t-33 -61.5q-10 -12 -26 -1l-32 21q-9 6 -2 26q1 3 6.5 17t9 24t6.5 26.5t3 31.5z" />
    <glyph glyph-name="Ncaron" unicode="&#x147;" horiz-adv-x="636" 
d="M566 0h-70q-22 0 -33 16l-305 488h-2l10 -204v-280q0 -20 -20 -20h-76q-20 0 -20 20v680q0 20 20 20h70q22 0 33 -16l305 -488h2l-10 204v280q0 20 20 20h76q20 0 20 -20v-680q0 -20 -20 -20zM256 926l62 -62l62 62q14 14 34 14h34q20 0 8 -16l-72 -100q-12 -16 -32 -16
h-68q-20 0 -32 16l-72 100q-12 16 8 16h34q20 0 34 -14z" />
    <glyph glyph-name="ncaron" unicode="&#x148;" horiz-adv-x="536" 
d="M467 0h-82q-19 0 -19 20v282q0 146 -91 146q-105 0 -105 -156v-272q0 -20 -20 -20h-80q-20 0 -20 20v480q0 20 20 20h50q10 0 14 -4.5t6 -15.5l10 -41h2q17 34 55 53.5t78 19.5q86 0 143.5 -52.5t57.5 -143.5v-316q0 -20 -19 -20zM206 726l62 -62l62 62q14 14 34 14h34
q20 0 8 -16l-72 -100q-12 -16 -32 -16h-68q-20 0 -32 16l-72 100q-12 16 8 16h34q20 0 34 -14z" />
    <glyph glyph-name="napostrophe" unicode="&#x149;" horiz-adv-x="536" 
d="M467 0h-82q-19 0 -19 20v282q0 146 -91 146q-105 0 -105 -156v-272q0 -20 -20 -20h-80q-20 0 -20 20v480q0 20 20 20h50q10 0 14 -4.5t6 -15.5l10 -41h2q17 34 55 53.5t78 19.5q86 0 143.5 -52.5t57.5 -143.5v-316q0 -20 -19 -20zM109 720h-36q-20 0 -20 20v100
q0 20 20 20h100q20 0 20 -20v-115q0 -45 -16 -88.5t-33 -61.5q-10 -12 -26 -1l-32 21q-9 6 -2 26q1 3 6.5 17t9 24t6.5 26.5t3 31.5z" />
    <glyph glyph-name="Eng" unicode="&#x14a;" horiz-adv-x="636" 
d="M280 -228v48q0 20 20 20h13q77 0 114.5 38t41.5 130l-311 496h-2l10 -204v-280q0 -20 -20 -20h-76q-20 0 -20 20v680q0 20 20 20h70q22 0 33 -16l305 -488h2l-10 204v280q0 20 20 20h76q20 0 20 -20v-691q-1 -125 -68 -192t-182 -67l-38 1q-18 1 -18 21z" />
    <glyph glyph-name="eng" unicode="&#x14b;" horiz-adv-x="536" 
d="M348 -250h-17q-20 0 -20 20v44q0 20 20 20h7q11 0 19.5 20t8.5 59v389q0 146 -91 146q-105 0 -105 -156v-272q0 -20 -20 -20h-80q-20 0 -20 20v480q0 20 20 20h50q10 0 14 -4.5t6 -15.5l10 -41h2q17 34 55 53.5t78 19.5q86 0 143.5 -52.5t57.5 -143.5v-430
q0 -156 -138 -156z" />
    <glyph glyph-name="Omacron" unicode="&#x14c;" horiz-adv-x="786" 
d="M393 -12q-156 0 -254.5 96t-98.5 276q0 181 98 276.5t255 95.5t255 -95.5t98 -276.5q0 -180 -98.5 -276t-254.5 -96zM393 83q98 0 159.5 67t61.5 210t-61 210t-160 67t-160 -67t-61 -210t61.5 -210t159.5 -67zM548 830h-310q-20 0 -20 20v30q0 20 20 20h310q20 0 20 -20
v-30q0 -20 -20 -20z" />
    <glyph glyph-name="omacron" unicode="&#x14d;" 
d="M282 -12q-70 0 -118.5 21t-75 59.5t-37.5 84.5t-11 106t11 106.5t37.5 86t75 60.5t118.5 21q242 0 242 -273q0 -60 -11 -106t-37.5 -85t-75 -60t-118.5 -21zM282 78q69 0 95.5 48.5t26.5 133.5t-26.5 134t-95.5 49t-95.5 -49t-26.5 -134t26.5 -133.5t95.5 -48.5zM437 630
h-310q-20 0 -20 20v30q0 20 20 20h310q20 0 20 -20v-30q0 -20 -20 -20z" />
    <glyph glyph-name="Obreve" unicode="&#x14e;" horiz-adv-x="786" 
d="M393 -12q-156 0 -254.5 96t-98.5 276q0 181 98 276.5t255 95.5t255 -95.5t98 -276.5q0 -180 -98.5 -276t-254.5 -96zM393 83q98 0 159.5 67t61.5 210t-61 210t-160 67t-160 -67t-61 -210t61.5 -210t159.5 -67zM270 940h43q8 0 13 -10q14 -43 68 -43t67 43q2 10 14 10h42
q6 0 10.5 -5t4.5 -11q-1 -53 -40.5 -85t-97.5 -32q-53 0 -94 31t-45 86q-1 7 3.5 11.5t11.5 4.5z" />
    <glyph glyph-name="obreve" unicode="&#x14f;" 
d="M282 -12q-70 0 -118.5 21t-75 59.5t-37.5 84.5t-11 106t11 106.5t37.5 86t75 60.5t118.5 21q242 0 242 -273q0 -60 -11 -106t-37.5 -85t-75 -60t-118.5 -21zM282 78q69 0 95.5 48.5t26.5 133.5t-26.5 134t-95.5 49t-95.5 -49t-26.5 -134t26.5 -133.5t95.5 -48.5zM159 740
h43q8 0 13 -10q14 -43 68 -43t67 43q2 10 14 10h42q6 0 10.5 -5t4.5 -11q-1 -53 -40.5 -85t-97.5 -32q-53 0 -94 31t-45 86q-1 7 3.5 11.5t11.5 4.5z" />
    <glyph glyph-name="Ohungarumlaut" unicode="&#x150;" horiz-adv-x="786" 
d="M393 -12q-156 0 -254.5 96t-98.5 276q0 181 98 276.5t255 95.5t255 -95.5t98 -276.5q0 -180 -98.5 -276t-254.5 -96zM393 83q98 0 159.5 67t61.5 210t-61 210t-160 67t-160 -67t-61 -210t61.5 -210t159.5 -67zM269 825l60 98q11 17 31 17h91q20 0 5 -14l-111 -104
q-15 -14 -35 -14h-31q-20 0 -10 17zM468 825l60 98q11 17 31 17h91q20 0 5 -14l-111 -104q-15 -14 -35 -14h-31q-20 0 -10 17z" />
    <glyph glyph-name="ohungarumlaut" unicode="&#x151;" 
d="M282 -12q-70 0 -118.5 21t-75 59.5t-37.5 84.5t-11 106t11 106.5t37.5 86t75 60.5t118.5 21q242 0 242 -273q0 -60 -11 -106t-37.5 -85t-75 -60t-118.5 -21zM282 78q69 0 95.5 48.5t26.5 133.5t-26.5 134t-95.5 49t-95.5 -49t-26.5 -134t26.5 -133.5t95.5 -48.5zM130 625
l60 98q11 17 31 17h91q20 0 5 -14l-111 -104q-15 -14 -35 -14h-31q-20 0 -10 17zM329 625l60 98q11 17 31 17h91q20 0 5 -14l-111 -104q-15 -14 -35 -14h-31q-20 0 -10 17z" />
    <glyph glyph-name="OE" unicode="&#x152;" horiz-adv-x="917" 
d="M857 0h-353h-7q-57 -12 -104 -12q-156 0 -254.5 96t-98.5 276q0 181 98 276.5t255 95.5q57 0 105 -13q2 1 6 1h353q20 0 20 -20v-50q0 -20 -20 -20h-247v-221h197q20 0 20 -20v-50q0 -20 -20 -20h-197v-229h247q20 0 20 -20v-50q0 -20 -20 -20zM393 83q51 0 91 17v520
q-40 17 -91 17q-99 0 -160 -67t-61 -210t61.5 -210t159.5 -67z" />
    <glyph glyph-name="oe" unicode="&#x153;" horiz-adv-x="880" 
d="M796 95l21 -32q9 -14 -1 -26q-16 -18 -66.5 -33.5t-110.5 -15.5q-122 0 -175 87q-53 -87 -182 -87q-70 0 -118.5 21t-75 59.5t-37.5 84.5t-11 106t11 106.5t37.5 86t75 60.5t118.5 21q128 0 182 -90q52 90 162 90q95 0 154.5 -55t59.5 -160q0 -58 -23.5 -79t-85.5 -21
h-205q7 -69 35.5 -107.5t90.5 -38.5q39 0 118 25q20 6 26 -2zM282 78q69 0 95.5 48.5t26.5 133.5t-26.5 134t-95.5 49t-95.5 -49t-26.5 -134t26.5 -133.5t95.5 -48.5zM526 302h154q24 0 31.5 6t7.5 28q0 46 -24.5 79.5t-63.5 33.5q-94 0 -105 -147z" />
    <glyph glyph-name="Racute" unicode="&#x154;" horiz-adv-x="567" 
d="M521 0h-110q-20 0 -30 17l-127 202h-78v-199q0 -20 -20 -20h-86q-20 0 -20 20v680q0 20 20 20h190q112 0 184.5 -72.5t72.5 -178.5q0 -73 -38.5 -133.5t-103.5 -91.5l154 -228q12 -16 -8 -16zM176 308h64q151 0 151 161q0 160 -151 162h-64v-323zM188 825l60 98
q11 17 31 17h91q20 0 5 -14l-111 -104q-15 -14 -35 -14h-31q-20 0 -10 17z" />
    <glyph glyph-name="racute" unicode="&#x155;" horiz-adv-x="316" 
d="M150 0h-80q-20 0 -20 20v480q0 20 20 20h50q3 0 5.5 -0.5t4.5 -1.5t3.5 -3t2 -3.5t2 -5.5t2.5 -6l10 -38h2q15 23 32 37.5t37.5 20t31.5 6.5t35 2q11 0 14.5 -2.5t3.5 -12.5v-75q0 -9 -4 -13t-9 -4t-14.5 1t-13.5 1q-95 0 -95 -97v-306q0 -20 -20 -20zM118 625l60 98
q11 17 31 17h91q20 0 5 -14l-111 -104q-15 -14 -35 -14h-31q-20 0 -10 17z" />
    <glyph glyph-name="uni0156" unicode="&#x156;" horiz-adv-x="567" 
d="M521 0h-110q-20 0 -30 17l-127 202h-78v-199q0 -20 -20 -20h-86q-20 0 -20 20v680q0 20 20 20h190q112 0 184.5 -72.5t72.5 -178.5q0 -73 -38.5 -133.5t-103.5 -91.5l154 -228q12 -16 -8 -16zM176 308h64q151 0 151 161q0 160 -151 162h-64v-323zM269 -249h-36
q-20 0 -20 20v100q0 20 20 20h100q20 0 20 -20v-115q0 -45 -16 -88.5t-33 -61.5q-10 -12 -26 -1l-32 21q-9 6 -2 26q1 3 6.5 17t9 24t6.5 26.5t3 31.5z" />
    <glyph glyph-name="uni0157" unicode="&#x157;" horiz-adv-x="316" 
d="M150 0h-80q-20 0 -20 20v480q0 20 20 20h50q3 0 5.5 -0.5t4.5 -1.5t3.5 -3t2 -3.5t2 -5.5t2.5 -6l10 -38h2q15 23 32 37.5t37.5 20t31.5 6.5t35 2q11 0 14.5 -2.5t3.5 -12.5v-75q0 -9 -4 -13t-9 -4t-14.5 1t-13.5 1q-95 0 -95 -97v-306q0 -20 -20 -20zM144 -249h-36
q-20 0 -20 20v100q0 20 20 20h100q20 0 20 -20v-115q0 -45 -16 -88.5t-33 -61.5q-10 -12 -26 -1l-32 21q-9 6 -2 26q1 3 6.5 17t9 24t6.5 26.5t3 31.5z" />
    <glyph glyph-name="Rcaron" unicode="&#x158;" horiz-adv-x="567" 
d="M521 0h-110q-20 0 -30 17l-127 202h-78v-199q0 -20 -20 -20h-86q-20 0 -20 20v680q0 20 20 20h190q112 0 184.5 -72.5t72.5 -178.5q0 -73 -38.5 -133.5t-103.5 -91.5l154 -228q12 -16 -8 -16zM176 308h64q151 0 151 161q0 160 -151 162h-64v-323zM221 926l62 -62l62 62
q14 14 34 14h34q20 0 8 -16l-72 -100q-12 -16 -32 -16h-68q-20 0 -32 16l-72 100q-12 16 8 16h34q20 0 34 -14z" />
    <glyph glyph-name="rcaron" unicode="&#x159;" horiz-adv-x="316" 
d="M150 0h-80q-20 0 -20 20v480q0 20 20 20h50q3 0 5.5 -0.5t4.5 -1.5t3.5 -3t2 -3.5t2 -5.5t2.5 -6l10 -38h2q15 23 32 37.5t37.5 20t31.5 6.5t35 2q11 0 14.5 -2.5t3.5 -12.5v-75q0 -9 -4 -13t-9 -4t-14.5 1t-13.5 1q-95 0 -95 -97v-306q0 -20 -20 -20zM96 726l62 -62
l62 62q14 14 34 14h34q20 0 8 -16l-72 -100q-12 -16 -32 -16h-68q-20 0 -32 16l-72 100q-12 16 8 16h34q20 0 34 -14z" />
    <glyph glyph-name="Sacute" unicode="&#x15a;" horiz-adv-x="555" 
d="M306 281l-97 38q-164 64 -164 203q0 95 70 152.5t173 57.5q60 0 124 -17.5t82 -31.5q8 -6 1 -26l-16 -42q-3 -9 -26 -2q-89 24 -159 24q-72 0 -102.5 -31t-30.5 -72q0 -61 86 -94l96 -36q84 -31 128 -89.5t44 -127.5q0 -91 -71.5 -145t-187.5 -54q-59 0 -124.5 16.5
t-85.5 32.5q-8 7 -1 26l16 42q3 9 26 2q89 -24 168 -24q65 0 104.5 26t39.5 67q0 34 -26 61.5t-67 43.5zM218 825l60 98q11 17 31 17h91q20 0 5 -14l-111 -104q-15 -14 -35 -14h-31q-20 0 -10 17z" />
    <glyph glyph-name="sacute" unicode="&#x15b;" horiz-adv-x="474" 
d="M242 201l-86 26q-106 33 -106 145q0 71 49 116t138 45q59 0 107 -15t67 -34q10 -10 0 -26l-21 -32q-4 -9 -26 -2q-69 25 -116 25q-84 0 -84 -65q0 -38 39 -49l117 -34q63 -18 88.5 -54t25.5 -97q0 -77 -60 -119.5t-148 -42.5q-62 0 -113.5 14.5t-66.5 34.5q-9 13 -1 26
l21 32q6 9 26 2q75 -25 128 -25q100 0 100 67q0 23 -16.5 35.5t-61.5 26.5zM188 625l60 98q11 17 31 17h91q20 0 5 -14l-111 -104q-15 -14 -35 -14h-31q-20 0 -10 17z" />
    <glyph glyph-name="Scircumflex" unicode="&#x15c;" horiz-adv-x="555" 
d="M306 281l-97 38q-164 64 -164 203q0 95 70 152.5t173 57.5q60 0 124 -17.5t82 -31.5q8 -6 1 -26l-16 -42q-3 -9 -26 -2q-89 24 -159 24q-72 0 -102.5 -31t-30.5 -72q0 -61 86 -94l96 -36q84 -31 128 -89.5t44 -127.5q0 -91 -71.5 -145t-187.5 -54q-59 0 -124.5 16.5
t-85.5 32.5q-8 7 -1 26l16 42q3 9 26 2q89 -24 168 -24q65 0 104.5 26t39.5 67q0 34 -26 61.5t-67 43.5zM286 884l-62 -62q-14 -14 -34 -14h-34q-20 0 -8 16l72 100q12 16 32 16h68q20 0 32 -16l72 -100q12 -16 -8 -16h-34q-20 0 -34 14z" />
    <glyph glyph-name="scircumflex" unicode="&#x15d;" horiz-adv-x="474" 
d="M242 201l-86 26q-106 33 -106 145q0 71 49 116t138 45q59 0 107 -15t67 -34q10 -10 0 -26l-21 -32q-4 -9 -26 -2q-69 25 -116 25q-84 0 -84 -65q0 -38 39 -49l117 -34q63 -18 88.5 -54t25.5 -97q0 -77 -60 -119.5t-148 -42.5q-62 0 -113.5 14.5t-66.5 34.5q-9 13 -1 26
l21 32q6 9 26 2q75 -25 128 -25q100 0 100 67q0 23 -16.5 35.5t-61.5 26.5zM245 684l-62 -62q-14 -14 -34 -14h-34q-20 0 -8 16l72 100q12 16 32 16h68q20 0 32 -16l72 -100q12 -16 -8 -16h-34q-20 0 -34 14z" />
    <glyph glyph-name="Scedilla" unicode="&#x15e;" horiz-adv-x="555" 
d="M237 -70l14 58q-59 1 -122.5 17t-82.5 32q-8 7 -1 26l16 42q3 9 26 2q89 -24 168 -24q65 0 104.5 26t39.5 67q0 34 -26 61.5t-67 43.5l-97 38q-164 64 -164 203q0 95 70 152.5t173 57.5q60 0 124 -17.5t82 -31.5q8 -6 1 -26l-16 -42q-3 -9 -26 -2q-89 24 -159 24
q-72 0 -102.5 -31t-30.5 -72q0 -61 86 -94l96 -36q84 -31 128 -89.5t44 -127.5q0 -80 -56.5 -132.5t-152.5 -63.5l-11 -45q33 -4 51.5 -24.5t18.5 -50.5q0 -40 -32 -66.5t-84 -26.5q-42 0 -41 4q-19 1 -18 22l1 18q1 20 21 19v-1v0v0h1h1h1h1h1h1h1h1h1h1h1h1h9q64 0 64 38
q0 10 -6 14.5t-13.5 6t-27.5 3.5q-21 2 -13 28z" />
    <glyph glyph-name="scedilla" unicode="&#x15f;" horiz-adv-x="474" 
d="M197 -70l14 58q-58 2 -104.5 16t-60.5 33q-9 13 -1 26l21 32q6 9 26 2q75 -25 128 -25q100 0 100 67q0 24 -17 38t-61 24l-86 26q-106 30 -106 145q0 71 49 116t138 45q59 0 107 -15t67 -34q10 -10 0 -26l-21 -32q-4 -9 -26 -2q-69 25 -116 25q-84 0 -84 -65
q0 -38 39 -49l117 -34q63 -18 88.5 -54t25.5 -97q0 -68 -47 -109t-121 -50l-11 -45q33 -4 51.5 -24.5t18.5 -50.5q0 -40 -32 -66.5t-84 -26.5q-42 0 -41 4q-19 1 -18 22l1 18q1 20 21 19v-1v0v0h1h1h1h1h1h1h1h1h1h1h1h1h9q64 0 64 38q0 10 -6 14.5t-13.5 6t-27.5 3.5
q-19 1 -13 28z" />
    <glyph glyph-name="Scaron" unicode="&#x160;" horiz-adv-x="555" 
d="M306 281l-97 38q-164 64 -164 203q0 95 70 152.5t173 57.5q60 0 124 -17.5t82 -31.5q8 -6 1 -26l-16 -42q-3 -9 -26 -2q-89 24 -159 24q-72 0 -102.5 -31t-30.5 -72q0 -61 86 -94l96 -36q84 -31 128 -89.5t44 -127.5q0 -91 -71.5 -145t-187.5 -54q-59 0 -124.5 16.5
t-85.5 32.5q-8 7 -1 26l16 42q3 9 26 2q89 -24 168 -24q65 0 104.5 26t39.5 67q0 34 -26 61.5t-67 43.5zM215 926l62 -62l62 62q14 14 34 14h34q20 0 8 -16l-72 -100q-12 -16 -32 -16h-68q-20 0 -32 16l-72 100q-12 16 8 16h34q20 0 34 -14z" />
    <glyph glyph-name="scaron" unicode="&#x161;" horiz-adv-x="474" 
d="M242 201l-86 26q-106 33 -106 145q0 71 49 116t138 45q59 0 107 -15t67 -34q10 -10 0 -26l-21 -32q-4 -9 -26 -2q-69 25 -116 25q-84 0 -84 -65q0 -38 39 -49l117 -34q63 -18 88.5 -54t25.5 -97q0 -77 -60 -119.5t-148 -42.5q-62 0 -113.5 14.5t-66.5 34.5q-9 13 -1 26
l21 32q6 9 26 2q75 -25 128 -25q100 0 100 67q0 23 -16.5 35.5t-61.5 26.5zM183 726l62 -62l62 62q14 14 34 14h34q20 0 8 -16l-72 -100q-12 -16 -32 -16h-68q-20 0 -32 16l-72 100q-12 16 8 16h34q20 0 34 -14z" />
    <glyph glyph-name="uni0162" unicode="&#x162;" horiz-adv-x="480" 
d="M283 0h-86q-20 0 -20 20v610h-147q-20 0 -20 20v50q0 20 20 20h420q20 0 20 -20v-50q0 -20 -20 -20h-147v-610q0 -20 -20 -20zM226 -249h-36q-20 0 -20 20v100q0 20 20 20h100q20 0 20 -20v-115q0 -45 -16 -88.5t-33 -61.5q-10 -12 -26 -1l-32 21q-9 6 -2 26q1 3 6.5 17
t9 24t6.5 26.5t3 31.5z" />
    <glyph glyph-name="uni0163" unicode="&#x163;" horiz-adv-x="315" 
d="M257 0h-37q-138 0 -138 156v285h-52q-20 0 -20 20v39q0 20 20 20h52v77q0 3 0.5 5t1 3.5t1.5 3t2 2l3 1.5l3 1.5t4.5 2t4.5 1.5l80 30q9 4 14.5 -2.5t5.5 -17.5v-107h63q20 0 20 -20v-39q0 -20 -20 -20h-63v-288q0 -34 14.5 -51.5t33.5 -17.5h7q20 0 20 -20v-44
q0 -20 -20 -20zM143 -249h-36q-20 0 -20 20v100q0 20 20 20h100q20 0 20 -20v-115q0 -45 -16 -88.5t-33 -61.5q-10 -12 -26 -1l-32 21q-9 6 -2 26q1 3 6.5 17t9 24t6.5 26.5t3 31.5z" />
    <glyph glyph-name="Tcaron" unicode="&#x164;" horiz-adv-x="480" 
d="M283 0h-86q-20 0 -20 20v610h-147q-20 0 -20 20v50q0 20 20 20h420q20 0 20 -20v-50q0 -20 -20 -20h-147v-610q0 -20 -20 -20zM178 926l62 -62l62 62q14 14 34 14h34q20 0 8 -16l-72 -100q-12 -16 -32 -16h-68q-20 0 -32 16l-72 100q-12 16 8 16h34q20 0 34 -14z" />
    <glyph glyph-name="tcaron" unicode="&#x165;" horiz-adv-x="315" 
d="M257 0h-37q-138 0 -138 156v285h-52q-20 0 -20 20v39q0 20 20 20h52v77q0 3 0.5 5t1 3.5t1.5 3t2 2l3 1.5l3 1.5t4.5 2t4.5 1.5l80 30q9 4 14.5 -2.5t5.5 -17.5v-107h63q20 0 20 -20v-39q0 -20 -20 -20h-63v-288q0 -34 14.5 -51.5t33.5 -17.5h7q20 0 20 -20v-44
q0 -20 -20 -20zM80 837l62 -62l62 62q14 14 34 14h34q20 0 8 -16l-72 -100q-12 -16 -32 -16h-68q-20 0 -32 16l-72 100q-12 16 8 16h34q20 0 34 -14z" />
    <glyph glyph-name="Tbar" unicode="&#x166;" horiz-adv-x="480" 
d="M395 450h-92v-430q0 -20 -20 -20h-86q-20 0 -20 20v430h-92q-20 0 -20 20v30q0 20 20 20h92v110h-147q-20 0 -20 20v50q0 20 20 20h420q20 0 20 -20v-50q0 -20 -20 -20h-147v-110h92q20 0 20 -20v-30q0 -20 -20 -20z" />
    <glyph glyph-name="tbar" unicode="&#x167;" horiz-adv-x="315" 
d="M257 0h-37q-138 0 -138 156v144h-53q-20 0 -20 20v30q0 20 20 20h53v71h-52q-20 0 -20 20v39q0 20 20 20h52v77q0 3 0.5 5t1 3.5t1.5 3t2 2l3 1.5l3 1.5t4.5 2t4.5 1.5l80 30q9 4 14.5 -2.5t5.5 -17.5v-107h63q20 0 20 -20v-39q0 -20 -20 -20h-63v-71h63q20 0 20 -20v-30
q0 -20 -20 -20h-63v-147q0 -34 14.5 -51.5t33.5 -17.5h7q20 0 20 -20v-44q0 -20 -20 -20z" />
    <glyph glyph-name="Utilde" unicode="&#x168;" horiz-adv-x="636" 
d="M490 284v416q0 20 20 20h56q20 0 20 -20v-444q0 -117 -76 -192.5t-194 -75.5q-115 0 -190.5 76.5t-75.5 191.5v444q0 20 20 20h86q20 0 20 -20v-416q0 -89 37.5 -147.5t104.5 -58.5q81 0 126.5 58t45.5 148zM223 809h-30q-7 0 -11.5 5t-4.5 11q4 99 88 99q22 0 66 -19
q37 -16 40 -16q10 0 18.5 16.5t23.5 16.5h30q6 0 10.5 -5t4.5 -11q-1 -44 -22 -71.5t-65 -27.5q-14 0 -34 8q-71 27 -72 27q-10 0 -20.5 -16.5t-21.5 -16.5z" />
    <glyph glyph-name="utilde" unicode="&#x169;" horiz-adv-x="536" 
d="M466 0h-50q-10 0 -14 4.5t-6 15.5l-10 41h-2q-17 -34 -55 -53.5t-78 -19.5q-86 0 -143.5 52.5t-57.5 143.5v316q0 20 19 20h82q19 0 19 -20v-282q0 -146 91 -146q105 0 105 156v272q0 20 20 20h80q20 0 20 -20v-480q0 -20 -20 -20zM173 609h-30q-7 0 -11.5 5t-4.5 11
q4 99 88 99q22 0 66 -19q37 -16 40 -16q10 0 18.5 16.5t23.5 16.5h30q6 0 10.5 -5t4.5 -11q-1 -44 -22 -71.5t-65 -27.5q-14 0 -34 8q-71 27 -72 27q-10 0 -20.5 -16.5t-21.5 -16.5z" />
    <glyph glyph-name="Umacron" unicode="&#x16a;" horiz-adv-x="636" 
d="M490 284v416q0 20 20 20h56q20 0 20 -20v-444q0 -117 -76 -192.5t-194 -75.5q-115 0 -190.5 76.5t-75.5 191.5v444q0 20 20 20h86q20 0 20 -20v-416q0 -89 37.5 -147.5t104.5 -58.5q81 0 126.5 58t45.5 148zM473 830h-310q-20 0 -20 20v30q0 20 20 20h310q20 0 20 -20
v-30q0 -20 -20 -20z" />
    <glyph glyph-name="umacron" unicode="&#x16b;" horiz-adv-x="536" 
d="M466 0h-50q-10 0 -14 4.5t-6 15.5l-10 41h-2q-17 -34 -55 -53.5t-78 -19.5q-86 0 -143.5 52.5t-57.5 143.5v316q0 20 19 20h82q19 0 19 -20v-282q0 -146 91 -146q105 0 105 156v272q0 20 20 20h80q20 0 20 -20v-480q0 -20 -20 -20zM423 630h-310q-20 0 -20 20v30
q0 20 20 20h310q20 0 20 -20v-30q0 -20 -20 -20z" />
    <glyph glyph-name="Ubreve" unicode="&#x16c;" horiz-adv-x="636" 
d="M490 284v416q0 20 20 20h56q20 0 20 -20v-444q0 -117 -76 -192.5t-194 -75.5q-115 0 -190.5 76.5t-75.5 191.5v444q0 20 20 20h86q20 0 20 -20v-416q0 -89 37.5 -147.5t104.5 -58.5q81 0 126.5 58t45.5 148zM195 940h43q8 0 13 -10q14 -43 68 -43t67 43q2 10 14 10h42
q6 0 10.5 -5t4.5 -11q-1 -53 -40.5 -85t-97.5 -32q-53 0 -94 31t-45 86q-1 7 3.5 11.5t11.5 4.5z" />
    <glyph glyph-name="ubreve" unicode="&#x16d;" horiz-adv-x="536" 
d="M466 0h-50q-10 0 -14 4.5t-6 15.5l-10 41h-2q-17 -34 -55 -53.5t-78 -19.5q-86 0 -143.5 52.5t-57.5 143.5v316q0 20 19 20h82q19 0 19 -20v-282q0 -146 91 -146q105 0 105 156v272q0 20 20 20h80q20 0 20 -20v-480q0 -20 -20 -20zM145 740h43q8 0 13 -10q14 -43 68 -43
t67 43q2 10 14 10h42q6 0 10.5 -5t4.5 -11q-1 -53 -40.5 -85t-97.5 -32q-53 0 -94 31t-45 86q-1 7 3.5 11.5t11.5 4.5z" />
    <glyph glyph-name="Uring" unicode="&#x16e;" horiz-adv-x="636" 
d="M490 284v416q0 20 20 20h56q20 0 20 -20v-444q0 -117 -76 -192.5t-194 -75.5q-115 0 -190.5 76.5t-75.5 191.5v444q0 20 20 20h86q20 0 20 -20v-416q0 -89 37.5 -147.5t104.5 -58.5q81 0 126.5 58t45.5 148zM225 868q0 39 27.5 66t65.5 27q40 0 66.5 -26.5t26.5 -66.5
q0 -38 -27 -65.5t-66 -27.5q-37 0 -65 27.5t-28 65.5zM267 868q0 -20 15.5 -35.5t35.5 -15.5q21 0 36 14.5t15 36.5t-14 36.5t-37 14.5q-22 0 -36.5 -15.5t-14.5 -35.5z" />
    <glyph glyph-name="uring" unicode="&#x16f;" horiz-adv-x="536" 
d="M466 0h-50q-10 0 -14 4.5t-6 15.5l-10 41h-2q-17 -34 -55 -53.5t-78 -19.5q-86 0 -143.5 52.5t-57.5 143.5v316q0 20 19 20h82q19 0 19 -20v-282q0 -146 91 -146q105 0 105 156v272q0 20 20 20h80q20 0 20 -20v-480q0 -20 -20 -20zM175 668q0 39 27.5 66t65.5 27
q40 0 66.5 -26.5t26.5 -66.5q0 -38 -27 -65.5t-66 -27.5q-37 0 -65 27.5t-28 65.5zM217 668q0 -20 15.5 -35.5t35.5 -15.5q21 0 36 14.5t15 36.5t-14 36.5t-37 14.5q-22 0 -36.5 -15.5t-14.5 -35.5z" />
    <glyph glyph-name="Uhungarumlaut" unicode="&#x170;" horiz-adv-x="636" 
d="M490 284v416q0 20 20 20h56q20 0 20 -20v-444q0 -117 -76 -192.5t-194 -75.5q-115 0 -190.5 76.5t-75.5 191.5v444q0 20 20 20h86q20 0 20 -20v-416q0 -89 37.5 -147.5t104.5 -58.5q81 0 126.5 58t45.5 148zM177 825l60 98q11 17 31 17h91q20 0 5 -14l-111 -104
q-15 -14 -35 -14h-31q-20 0 -10 17zM376 825l60 98q11 17 31 17h91q20 0 5 -14l-111 -104q-15 -14 -35 -14h-31q-20 0 -10 17z" />
    <glyph glyph-name="uhungarumlaut" unicode="&#x171;" horiz-adv-x="536" 
d="M466 0h-50q-10 0 -14 4.5t-6 15.5l-10 41h-2q-17 -34 -55 -53.5t-78 -19.5q-86 0 -143.5 52.5t-57.5 143.5v316q0 20 19 20h82q19 0 19 -20v-282q0 -146 91 -146q105 0 105 156v272q0 20 20 20h80q20 0 20 -20v-480q0 -20 -20 -20zM116 625l60 98q11 17 31 17h91
q20 0 5 -14l-111 -104q-15 -14 -35 -14h-31q-20 0 -10 17zM315 625l60 98q11 17 31 17h91q20 0 5 -14l-111 -104q-15 -14 -35 -14h-31q-20 0 -10 17z" />
    <glyph glyph-name="Uogonek" unicode="&#x172;" horiz-adv-x="636" 
d="M490 284v416q0 20 20 20h56q20 0 20 -20v-444q0 -94 -51 -163.5t-137 -93.5q-5 -8 -11 -17.5t-13.5 -21.5t-11.5 -18q-15 -25 -15 -43q0 -21 20 -21q4 0 9.5 3.5t6.5 3.5q15 14 24 -11q2 -3 4.5 -10t3.5 -10q1 -4 1.5 -6.5t-1 -5t-2.5 -3.5t-5 -4t-6 -5q-30 -24 -67 -26
q-78 3 -78 71q0 46 29 85l20 28q-111 4 -183.5 80t-72.5 188v444q0 20 20 20h86q20 0 20 -20v-416q0 -89 37.5 -147.5t104.5 -58.5q81 0 126.5 58t45.5 148z" />
    <glyph glyph-name="uogonek" unicode="&#x173;" horiz-adv-x="536" 
d="M412 0q-12 1 -16 20l-10 41h-2q-17 -34 -55 -53.5t-78 -19.5q-86 0 -143.5 52.5t-57.5 143.5v316q0 20 19 20h82q19 0 19 -20v-282q0 -146 91 -146q105 0 105 156v272q0 20 20 20h80q20 0 20 -20v-480q0 -20 -11 -37l-26 -41q-15 -25 -15 -43q0 -21 20 -21q4 0 16 7
q16 10 24 -11q4 -8 8 -20q1 -4 1.5 -6.5t-0.5 -5t-2.5 -3.5t-5.5 -4t-6 -5q-33 -26 -67 -26q-37 -1 -57.5 17.5t-20.5 53.5q0 38 29 75z" />
    <glyph glyph-name="Wcircumflex" unicode="&#x174;" horiz-adv-x="872" 
d="M628 0h-64q-24 0 -28 18l-102 486l-108 -486q-4 -18 -28 -18h-64q-22 0 -28 18l-193 684q-9 18 12 18h95q23 0 27 -19l96 -401l28 -175l28 175l96 401q4 19 25 19h62q21 0 25 -19l89 -401l25 -175l31 175l103 401q7 19 27 19h65q21 0 12 -18l-203 -684q-6 -18 -28 -18z
M436 884l-62 -62q-14 -14 -34 -14h-34q-20 0 -8 16l72 100q12 16 32 16h68q20 0 32 -16l72 -100q12 -16 -8 -16h-34q-20 0 -34 14z" />
    <glyph glyph-name="wcircumflex" unicode="&#x175;" horiz-adv-x="784" 
d="M584 0h-64q-19 0 -28 18l-100 324l-100 -324q-9 -18 -28 -18h-64q-19 0 -28 18l-159 484q-9 18 12 18h92q20 0 26 -19l89 -381l99 381q4 19 25 19h72q21 0 25 -19l99 -381l89 381q4 19 26 19h92q21 0 12 -18l-159 -484q-9 -18 -28 -18zM392 684l-62 -62q-14 -14 -34 -14
h-34q-20 0 -8 16l72 100q12 16 32 16h68q20 0 32 -16l72 -100q12 -16 -8 -16h-34q-20 0 -34 14z" />
    <glyph glyph-name="Ycircumflex" unicode="&#x176;" horiz-adv-x="628" 
d="M352 0h-86q-20 0 -20 20v243l-232 440q-10 17 10 17h107q20 0 30 -17l160 -324l172 323q8 18 29 18h82q19 0 11 -18l-243 -439v-243q0 -20 -20 -20zM314 884l-62 -62q-14 -14 -34 -14h-34q-20 0 -8 16l72 100q12 16 32 16h68q20 0 32 -16l72 -100q12 -16 -8 -16h-34
q-20 0 -34 14z" />
    <glyph glyph-name="ycircumflex" unicode="&#x177;" horiz-adv-x="524" 
d="M209 -220h-89q-21 0 -12 18l94 210l-189 494q-9 18 12 18h92q20 0 26 -19l121 -382l122 382q7 19 27 19h86q21 0 12 -18l-274 -704q-9 -18 -28 -18zM262 684l-62 -62q-14 -14 -34 -14h-34q-20 0 -8 16l72 100q12 16 32 16h68q20 0 32 -16l72 -100q12 -16 -8 -16h-34
q-20 0 -34 14z" />
    <glyph glyph-name="Ydieresis" unicode="&#x178;" horiz-adv-x="628" 
d="M352 0h-86q-20 0 -20 20v243l-232 440q-10 17 10 17h107q20 0 30 -17l160 -324l172 323q8 18 29 18h82q19 0 11 -18l-243 -439v-243q0 -20 -20 -20zM254 810h-70q-20 0 -20 20v70q0 20 20 20h70q20 0 20 -20v-70q0 -20 -20 -20zM444 810h-70q-20 0 -20 20v70q0 20 20 20
h70q20 0 20 -20v-70q0 -20 -20 -20z" />
    <glyph glyph-name="Zacute" unicode="&#x179;" horiz-adv-x="486" 
d="M456 0h-426q-20 0 -20 20v36q0 19 10 38l303 536h-287q-20 0 -20 20v50q0 20 20 20h412q20 0 20 -20v-36q0 -19 -10 -38l-302 -536h300q20 0 20 -20v-50q0 -20 -20 -20zM147 825l60 98q11 17 31 17h91q20 0 5 -14l-111 -104q-15 -14 -35 -14h-31q-20 0 -10 17z" />
    <glyph glyph-name="zacute" unicode="&#x17a;" horiz-adv-x="426" 
d="M376 0h-326q-20 0 -20 20v36q0 19 10 38l210 347h-194q-20 0 -20 20v39q0 20 20 20h312q20 0 20 -20v-36q0 -19 -10 -38l-209 -347h207q20 0 20 -20v-39q0 -20 -20 -20zM117 625l60 98q11 17 31 17h91q20 0 5 -14l-111 -104q-15 -14 -35 -14h-31q-20 0 -10 17z" />
    <glyph glyph-name="Zdotaccent" unicode="&#x17b;" horiz-adv-x="486" 
d="M456 0h-426q-20 0 -20 20v36q0 19 10 38l303 536h-287q-20 0 -20 20v50q0 20 20 20h412q20 0 20 -20v-36q0 -19 -10 -38l-302 -536h300q20 0 20 -20v-50q0 -20 -20 -20zM283 820h-80q-20 0 -20 20v80q0 20 20 20h80q20 0 20 -20v-80q0 -20 -20 -20z" />
    <glyph glyph-name="zdotaccent" unicode="&#x17c;" horiz-adv-x="426" 
d="M376 0h-326q-20 0 -20 20v36q0 19 10 38l210 347h-194q-20 0 -20 20v39q0 20 20 20h312q20 0 20 -20v-36q0 -19 -10 -38l-209 -347h207q20 0 20 -20v-39q0 -20 -20 -20zM253 620h-80q-20 0 -20 20v80q0 20 20 20h80q20 0 20 -20v-80q0 -20 -20 -20z" />
    <glyph glyph-name="Zcaron" unicode="&#x17d;" horiz-adv-x="486" 
d="M456 0h-426q-20 0 -20 20v36q0 19 10 38l303 536h-287q-20 0 -20 20v50q0 20 20 20h412q20 0 20 -20v-36q0 -19 -10 -38l-302 -536h300q20 0 20 -20v-50q0 -20 -20 -20zM181 926l62 -62l62 62q14 14 34 14h34q20 0 8 -16l-72 -100q-12 -16 -32 -16h-68q-20 0 -32 16
l-72 100q-12 16 8 16h34q20 0 34 -14z" />
    <glyph glyph-name="zcaron" unicode="&#x17e;" horiz-adv-x="426" 
d="M376 0h-326q-20 0 -20 20v36q0 19 10 38l210 347h-194q-20 0 -20 20v39q0 20 20 20h312q20 0 20 -20v-36q0 -19 -10 -38l-209 -347h207q20 0 20 -20v-39q0 -20 -20 -20zM151 726l62 -62l62 62q14 14 34 14h34q20 0 8 -16l-72 -100q-12 -16 -32 -16h-68q-20 0 -32 16
l-72 100q-12 16 8 16h34q20 0 34 -14z" />
    <glyph glyph-name="uni0182" unicode="&#x182;" 
d="M295 0h-225q-20 0 -20 20v680q0 20 20 20h383q20 0 20 -20v-50q0 -20 -20 -20h-277v-181h120q109 0 168.5 -65.5t59.5 -158.5q0 -96 -65.5 -160.5t-163.5 -64.5zM176 84h86q136 0 136 140q0 60 -32 100.5t-104 40.5h-86v-281z" />
    <glyph glyph-name="uni0186" unicode="&#x186;" horiz-adv-x="639" 
d="M46 68l16 37q6 9 26 2q93 -24 159 -24q98 0 159.5 67t61.5 210t-61 210t-160 67q-66 0 -159 -24q-20 -6 -26 2l-16 42q-7 19 1 26q22 16 81.5 32.5t118.5 16.5q157 0 255 -95.5t98 -276.5q0 -180 -98.5 -276t-254.5 -96q-59 0 -118.5 16.5t-81.5 32.5q-9 9 -1 31z" />
    <glyph glyph-name="uni0189" unicode="&#x189;" horiz-adv-x="705" 
d="M336 0h-206q-20 0 -20 20v299h-50q-20 0 -20 20v50q0 20 20 20h50v291q0 20 20 20h230q125 0 215 -102t90 -255q0 -154 -95.5 -257.5t-233.5 -105.5zM236 90h99q86 0 142.5 79.5t55.5 198.5q-1 115 -60.5 188.5t-145.5 73.5h-91v-221h154q20 0 20 -20v-50q0 -20 -20 -20
h-154v-229z" />
    <glyph glyph-name="uni018B" unicode="&#x18b;" 
d="M494 0h-225q-98 0 -163.5 64.5t-65.5 160.5q0 93 59.5 158.5t168.5 65.5h120v181h-277q-20 0 -20 20v50q0 20 20 20h383q20 0 20 -20v-680q0 -20 -20 -20zM302 84h86v281h-86q-72 0 -104 -40.5t-32 -100.5q0 -140 136 -140z" />
    <glyph glyph-name="uni018E" unicode="&#x18e;" horiz-adv-x="483" 
d="M423 0h-353q-20 0 -20 20v50q0 20 20 20h247v229h-197q-20 0 -20 20v50q0 20 20 20h197v221h-247q-20 0 -20 20v50q0 20 20 20h353q20 0 20 -20v-680q0 -20 -20 -20z" />
    <glyph glyph-name="uni018f" unicode="&#x18f;" horiz-adv-x="764" 
d="M42 389q0 20 20 20h531q-19 228 -211 228q-67 0 -163 -24q-21 -6 -27 2l-16 42q-9 19 1 26q22 16 83 32.5t122 16.5q159 0 250 -94.5t91 -277.5q0 -181 -94.5 -276.5t-246.5 -95.5q-151 0 -246 96t-95 276q0 5 0.5 15t0.5 14zM382 83q85 0 141 57t64 179h-412
q9 -122 65 -179t142 -57z" />
    <glyph glyph-name="uni0190" unicode="&#x190;" horiz-adv-x="567" 
d="M311 -11q-115 0 -193 62t-78 154q0 69 38.5 115.5t109.5 57.5v2q-115 46 -115 150q0 92 68.5 146.5t185.5 54.5q51 0 100.5 -16.5t69.5 -32.5q8 -7 1 -26l-16 -42q-3 -9 -26 -2q-75 24 -129 24q-65 0 -96.5 -28.5t-31.5 -79.5q0 -54 37.5 -86.5t91.5 -32.5h40
q20 0 20 -20v-44q0 -20 -20 -20h-66q-72 0 -104 -35t-32 -86q0 -120 146 -120q79 0 168 24q23 7 26 -2l16 -42q7 -19 -1 -26q-20 -16 -85.5 -32.5t-124.5 -16.5z" />
    <glyph glyph-name="uni0191" unicode="&#x191;" horiz-adv-x="483" 
d="M50 -97v797q0 20 20 20h353q20 0 20 -20v-50q0 -20 -20 -20h-247v-221h197q20 0 20 -20v-50q0 -20 -20 -20h-197v-413q0 -156 -138 -156h-37q-20 0 -20 20v44q0 20 20 20h7q42 0 42 69z" />
    <glyph glyph-name="florin" unicode="&#x192;" horiz-adv-x="295" 
d="M82 -97v538h-52q-20 0 -20 20v39q0 20 20 20h52v64q0 156 138 156h37q20 0 20 -20v-44q0 -20 -20 -20h-7q-19 0 -33.5 -17.5t-14.5 -51.5v-67h63q20 0 20 -20v-39q0 -20 -20 -20h-63v-535q0 -156 -138 -156h-37q-20 0 -20 20v44q0 20 20 20h7q19 0 33.5 17.5t14.5 51.5z
" />
    <glyph glyph-name="uni019E" unicode="&#x19e;" horiz-adv-x="536" 
d="M467 -200h-82q-19 0 -19 20v482q0 146 -91 146q-105 0 -105 -156v-272q0 -20 -20 -20h-80q-20 0 -20 20v480q0 20 20 20h50q10 0 14 -4.5t6 -15.5l10 -41h2q17 34 55 53.5t78 19.5q86 0 143.5 -52.5t57.5 -143.5v-516q0 -20 -19 -20z" />
    <glyph glyph-name="uni019F" unicode="&#x19f;" horiz-adv-x="786" 
d="M393 -12q-156 0 -254.5 96t-98.5 276q0 181 98 276.5t255 95.5t255 -95.5t98 -276.5q0 -180 -98.5 -276t-254.5 -96zM393 83q90 0 150 57t69 179h-439q9 -122 69 -179t151 -57zM393 637q-90 0 -149 -55t-70 -173h438q-11 118 -70.5 173t-148.5 55z" />
    <glyph glyph-name="Ohorn" unicode="&#x1a0;" horiz-adv-x="786" 
d="M393 -12q-156 0 -254.5 96t-98.5 276q0 181 98 276.5t255 95.5q190 0 285 -131v1q24 0 37.5 29t13.5 74v25q0 10 10 10h63q10 0 10 -10v-39q0 -51 -30.5 -87.5t-78.5 -44.5q43 -86 43 -199q0 -180 -98.5 -276t-254.5 -96zM393 83q98 0 159.5 67t61.5 210t-61 210t-160 67
t-160 -67t-61 -210t61.5 -210t159.5 -67z" />
    <glyph glyph-name="ohorn" unicode="&#x1a1;" 
d="M282 -12q-70 0 -118.5 21t-75 59.5t-37.5 84.5t-11 106t11 106.5t37.5 86t75 60.5t118.5 21q146 0 204 -98v1q24 0 37.5 23.5t13.5 59.5v25q0 7 2 8.5t8 1.5h43q7 0 8.5 -2t1.5 -8v-39q0 -44 -26.5 -75t-68.5 -38q19 -53 19 -132q0 -60 -11 -106t-37.5 -85t-75 -60
t-118.5 -21zM282 78q69 0 95.5 48.5t26.5 133.5t-26.5 134t-95.5 49t-95.5 -49t-26.5 -134t26.5 -133.5t95.5 -48.5z" />
    <glyph glyph-name="uni01A7" unicode="&#x1a7;" horiz-adv-x="555" 
d="M345 319l-97 -38q-41 -16 -67 -43.5t-26 -61.5q0 -41 39.5 -67t104.5 -26q79 0 168 24q23 7 26 -2l16 -42q7 -19 -1 -26q-20 -16 -85.5 -32.5t-124.5 -16.5q-116 0 -187.5 54t-71.5 145q0 69 44 127.5t128 89.5l96 36q86 33 86 94q0 41 -30.5 72t-102.5 31
q-70 0 -159 -24q-23 -7 -26 2l-16 42q-7 20 1 26q18 14 82 31.5t124 17.5q103 0 173 -57.5t70 -152.5q0 -139 -164 -203z" />
    <glyph glyph-name="uni01A8" unicode="&#x1a8;" horiz-adv-x="474" 
d="M317 227l-86 -26q-45 -14 -61.5 -26.5t-16.5 -35.5q0 -67 100 -67q53 0 128 25q20 7 26 -2l21 -32q8 -13 -1 -26q-15 -20 -66.5 -34.5t-113.5 -14.5q-88 0 -148 42.5t-60 119.5q0 61 25.5 97t88.5 54l117 34q39 11 39 49q0 65 -84 65q-47 0 -116 -25q-22 -7 -26 2l-21 32
q-10 16 0 26q19 19 67 34t107 15q89 0 138 -45t49 -116q0 -115 -106 -145z" />
    <glyph glyph-name="Uhorn" unicode="&#x1af;" horiz-adv-x="636" 
d="M586 700v-98q24 0 37.5 29t13.5 74v25q0 10 10 10h63q10 0 10 -10v-39q0 -58 -38.5 -96t-95.5 -38v-301q0 -117 -76 -192.5t-194 -75.5q-115 0 -190.5 76.5t-75.5 191.5v444q0 20 20 20h86q20 0 20 -20v-416q0 -89 37.5 -147.5t104.5 -58.5q81 0 126.5 58t45.5 148v416
q0 20 20 20h56q20 0 20 -20z" />
    <glyph glyph-name="uhorn" unicode="&#x1b0;" horiz-adv-x="536" 
d="M466 0h-50q-10 0 -14 4.5t-6 15.5l-10 41h-2q-17 -34 -55 -53.5t-78 -19.5q-86 0 -143.5 52.5t-57.5 143.5v316q0 20 19 20h82q19 0 19 -20v-282q0 -146 91 -146q105 0 105 156v272q0 20 20 20h80q20 0 20 -20v-64q24 0 37.5 23.5t13.5 59.5v25q0 7 2 8.5t8 1.5h43
q7 0 8.5 -2t1.5 -8v-39q0 -49 -33 -81.5t-81 -32.5v-371q0 -20 -20 -20z" />
    <glyph glyph-name="uni01C3" unicode="&#x1c3;" horiz-adv-x="220" 
d="M70 120h80q20 0 20 -20v-80q0 -20 -20 -20h-80q-20 0 -20 20v80q0 20 20 20zM70 740h80q20 0 20 -20v-480q0 -20 -20 -20h-80q-20 0 -20 20v480q0 20 20 20z" />
    <glyph glyph-name="uni01C7" unicode="&#x1c7;" horiz-adv-x="819" 
d="M443 70v-50q0 -20 -20 -20h-353q-20 0 -20 20v680q0 20 20 20h86q20 0 20 -20v-610h247q20 0 20 -20zM473 22v48q0 20 20 20h13q76 0 111.5 42.5t35.5 147.5v420q0 20 20 20h86q20 0 20 -20v-441q-1 -125 -68 -192t-182 -67l-38 1q-18 1 -18 21z" />
    <glyph glyph-name="uni01C8" unicode="&#x1c8;" horiz-adv-x="683" 
d="M443 70v-50q0 -20 -20 -20h-353q-20 0 -20 20v680q0 20 20 20h86q20 0 20 -20v-610h247q20 0 20 -20zM613 620h-80q-20 0 -20 20v80q0 20 20 20h80q20 0 20 -20v-80q0 -20 -20 -20zM495 -220h-17q-20 0 -20 20v44q0 20 20 20h7q11 0 19.5 20t8.5 59v557q0 20 20 20h80
q20 0 20 -20v-564q0 -156 -138 -156z" />
    <glyph glyph-name="uni01C9" unicode="&#x1c9;" horiz-adv-x="446" 
d="M205 0h-17q-138 0 -138 156v564q0 20 20 20h80q20 0 20 -20v-557q0 -39 8.5 -59t19.5 -20h7q20 0 20 -20v-44q0 -20 -20 -20zM376 620h-80q-20 0 -20 20v80q0 20 20 20h80q20 0 20 -20v-80q0 -20 -20 -20zM258 -220h-17q-20 0 -20 20v44q0 20 20 20h7q11 0 19.5 20
t8.5 59v557q0 20 20 20h80q20 0 20 -20v-564q0 -156 -138 -156z" />
    <glyph glyph-name="uni01CA" unicode="&#x1ca;" horiz-adv-x="992" 
d="M566 0h-70q-22 0 -33 16l-305 488h-2l10 -204v-280q0 -20 -20 -20h-76q-20 0 -20 20v680q0 20 20 20h70q22 0 33 -16l305 -488h2l-10 204v280q0 20 20 20h76q20 0 20 -20v-680q0 -20 -20 -20zM646 22v48q0 20 20 20h13q76 0 111.5 42.5t35.5 147.5v420q0 20 20 20h86
q20 0 20 -20v-441q-1 -125 -68 -192t-182 -67l-38 1q-18 1 -18 21z" />
    <glyph glyph-name="uni01CB" unicode="&#x1cb;" horiz-adv-x="856" 
d="M566 0h-70q-22 0 -33 16l-305 488h-2l10 -204v-280q0 -20 -20 -20h-76q-20 0 -20 20v680q0 20 20 20h70q22 0 33 -16l305 -488h2l-10 204v280q0 20 20 20h76q20 0 20 -20v-680q0 -20 -20 -20zM786 620h-80q-20 0 -20 20v80q0 20 20 20h80q20 0 20 -20v-80q0 -20 -20 -20z
M668 -220h-17q-20 0 -20 20v44q0 20 20 20h7q11 0 19.5 20t8.5 59v557q0 20 20 20h80q20 0 20 -20v-564q0 -156 -138 -156z" />
    <glyph glyph-name="uni01CC" unicode="&#x1cc;" horiz-adv-x="756" 
d="M467 0h-82q-19 0 -19 20v282q0 146 -91 146q-105 0 -105 -156v-272q0 -20 -20 -20h-80q-20 0 -20 20v480q0 20 20 20h50q10 0 14 -4.5t6 -15.5l10 -41h2q17 34 55 53.5t78 19.5q86 0 143.5 -52.5t57.5 -143.5v-316q0 -20 -19 -20zM686 620h-80q-20 0 -20 20v80
q0 20 20 20h80q20 0 20 -20v-80q0 -20 -20 -20zM568 -220h-17q-20 0 -20 20v44q0 20 20 20h7q11 0 19.5 20t8.5 59v557q0 20 20 20h80q20 0 20 -20v-564q0 -156 -138 -156z" />
    <glyph glyph-name="uni01CD" unicode="&#x1cd;" horiz-adv-x="672" 
d="M647 0h-95q-20 0 -27 19l-62 158h-284l-62 -158q-7 -19 -27 -19h-65q-21 0 -12 18l273 684q8 18 28 18h44q20 0 28 -18l273 -684q9 -18 -12 -18zM430 261l-89 259l-20 75l-19 -75l-90 -259h218zM274 926l62 -62l62 62q14 14 34 14h34q20 0 8 -16l-72 -100
q-12 -16 -32 -16h-68q-20 0 -32 16l-72 100q-12 16 8 16h34q20 0 34 -14z" />
    <glyph glyph-name="uni01CE" unicode="&#x1ce;" horiz-adv-x="514" 
d="M454 0h-50q-10 0 -14 4.5t-6 15.5l-10 41h-2q-40 -73 -144 -73q-81 0 -134.5 46.5t-53.5 134.5q0 163 209 163h103q-2 19 -7.5 36.5t-17 37t-33.5 31.5t-51 12q-33 0 -113 -25q-20 -6 -26 2l-21 32q-9 14 1 26q16 18 66.5 33.5t106.5 15.5q217 0 217 -267v-246
q0 -20 -20 -20zM354 219v29h-105q-40 0 -64 -20t-24 -56q0 -37 23.5 -68.5t71.5 -31.5q98 0 98 147zM195 726l62 -62l62 62q14 14 34 14h34q20 0 8 -16l-72 -100q-12 -16 -32 -16h-68q-20 0 -32 16l-72 100q-12 16 8 16h34q20 0 34 -14z" />
    <glyph glyph-name="uni01CF" unicode="&#x1cf;" horiz-adv-x="226" 
d="M156 0h-86q-20 0 -20 20v680q0 20 20 20h86q20 0 20 -20v-680q0 -20 -20 -20zM51 926l62 -62l62 62q14 14 34 14h34q20 0 8 -16l-72 -100q-12 -16 -32 -16h-68q-20 0 -32 16l-72 100q-12 16 8 16h34q20 0 34 -14z" />
    <glyph glyph-name="uni01D0" unicode="&#x1d0;" horiz-adv-x="220" 
d="M150 0h-80q-20 0 -20 20v480q0 20 20 20h80q20 0 20 -20v-480q0 -20 -20 -20zM48 726l62 -62l62 62q14 14 34 14h34q20 0 8 -16l-72 -100q-12 -16 -32 -16h-68q-20 0 -32 16l-72 100q-12 16 8 16h34q20 0 34 -14z" />
    <glyph glyph-name="uni01D1" unicode="&#x1d1;" horiz-adv-x="786" 
d="M393 -12q-156 0 -254.5 96t-98.5 276q0 181 98 276.5t255 95.5t255 -95.5t98 -276.5q0 -180 -98.5 -276t-254.5 -96zM393 83q98 0 159.5 67t61.5 210t-61 210t-160 67t-160 -67t-61 -210t61.5 -210t159.5 -67zM331 926l62 -62l62 62q14 14 34 14h34q20 0 8 -16l-72 -100
q-12 -16 -32 -16h-68q-20 0 -32 16l-72 100q-12 16 8 16h34q20 0 34 -14z" />
    <glyph glyph-name="uni01D2" unicode="&#x1d2;" 
d="M282 -12q-70 0 -118.5 21t-75 59.5t-37.5 84.5t-11 106t11 106.5t37.5 86t75 60.5t118.5 21q242 0 242 -273q0 -60 -11 -106t-37.5 -85t-75 -60t-118.5 -21zM282 78q69 0 95.5 48.5t26.5 133.5t-26.5 134t-95.5 49t-95.5 -49t-26.5 -134t26.5 -133.5t95.5 -48.5zM220 726
l62 -62l62 62q14 14 34 14h34q20 0 8 -16l-72 -100q-12 -16 -32 -16h-68q-20 0 -32 16l-72 100q-12 16 8 16h34q20 0 34 -14z" />
    <glyph glyph-name="uni01D3" unicode="&#x1d3;" horiz-adv-x="636" 
d="M490 284v416q0 20 20 20h56q20 0 20 -20v-444q0 -117 -76 -192.5t-194 -75.5q-115 0 -190.5 76.5t-75.5 191.5v444q0 20 20 20h86q20 0 20 -20v-416q0 -89 37.5 -147.5t104.5 -58.5q81 0 126.5 58t45.5 148zM256 926l62 -62l62 62q14 14 34 14h34q20 0 8 -16l-72 -100
q-12 -16 -32 -16h-68q-20 0 -32 16l-72 100q-12 16 8 16h34q20 0 34 -14z" />
    <glyph glyph-name="uni01D4" unicode="&#x1d4;" horiz-adv-x="536" 
d="M466 0h-50q-10 0 -14 4.5t-6 15.5l-10 41h-2q-17 -34 -55 -53.5t-78 -19.5q-86 0 -143.5 52.5t-57.5 143.5v316q0 20 19 20h82q19 0 19 -20v-282q0 -146 91 -146q105 0 105 156v272q0 20 20 20h80q20 0 20 -20v-480q0 -20 -20 -20zM206 726l62 -62l62 62q14 14 34 14h34
q20 0 8 -16l-72 -100q-12 -16 -32 -16h-68q-20 0 -32 16l-72 100q-12 16 8 16h34q20 0 34 -14z" />
    <glyph glyph-name="uni01D5" unicode="&#x1d5;" horiz-adv-x="636" 
d="M490 284v416q0 20 20 20h56q20 0 20 -20v-444q0 -117 -76 -192.5t-194 -75.5q-115 0 -190.5 76.5t-75.5 191.5v444q0 20 20 20h86q20 0 20 -20v-416q0 -89 37.5 -147.5t104.5 -58.5q81 0 126.5 58t45.5 148zM258 810h-70q-20 0 -20 20v70q0 20 20 20h70q20 0 20 -20v-70
q0 -20 -20 -20zM448 810h-70q-20 0 -20 20v70q0 20 20 20h70q20 0 20 -20v-70q0 -20 -20 -20zM473 980h-310q-20 0 -20 20v30q0 20 20 20h310q20 0 20 -20v-30q0 -20 -20 -20z" />
    <glyph glyph-name="uni01D6" unicode="&#x1d6;" horiz-adv-x="536" 
d="M466 0h-50q-10 0 -14 4.5t-6 15.5l-10 41h-2q-17 -34 -55 -53.5t-78 -19.5q-86 0 -143.5 52.5t-57.5 143.5v316q0 20 19 20h82q19 0 19 -20v-282q0 -146 91 -146q105 0 105 156v272q0 20 20 20h80q20 0 20 -20v-480q0 -20 -20 -20zM208 610h-70q-20 0 -20 20v70
q0 20 20 20h70q20 0 20 -20v-70q0 -20 -20 -20zM398 610h-70q-20 0 -20 20v70q0 20 20 20h70q20 0 20 -20v-70q0 -20 -20 -20zM423 780h-310q-20 0 -20 20v30q0 20 20 20h310q20 0 20 -20v-30q0 -20 -20 -20z" />
    <glyph glyph-name="uni01D7" unicode="&#x1d7;" horiz-adv-x="636" 
d="M490 284v416q0 20 20 20h56q20 0 20 -20v-444q0 -117 -76 -192.5t-194 -75.5q-115 0 -190.5 76.5t-75.5 191.5v444q0 20 20 20h86q20 0 20 -20v-416q0 -89 37.5 -147.5t104.5 -58.5q81 0 126.5 58t45.5 148zM258 810h-70q-20 0 -20 20v70q0 20 20 20h70q20 0 20 -20v-70
q0 -20 -20 -20zM448 810h-70q-20 0 -20 20v70q0 20 20 20h70q20 0 20 -20v-70q0 -20 -20 -20zM292 975l60 98q11 17 31 17h91q20 0 5 -14l-111 -104q-15 -14 -35 -14h-31q-20 0 -10 17z" />
    <glyph glyph-name="uni01D8" unicode="&#x1d8;" horiz-adv-x="536" 
d="M466 0h-50q-10 0 -14 4.5t-6 15.5l-10 41h-2q-17 -34 -55 -53.5t-78 -19.5q-86 0 -143.5 52.5t-57.5 143.5v316q0 20 19 20h82q19 0 19 -20v-282q0 -146 91 -146q105 0 105 156v272q0 20 20 20h80q20 0 20 -20v-480q0 -20 -20 -20zM208 610h-70q-20 0 -20 20v70
q0 20 20 20h70q20 0 20 -20v-70q0 -20 -20 -20zM398 610h-70q-20 0 -20 20v70q0 20 20 20h70q20 0 20 -20v-70q0 -20 -20 -20zM243 775l60 98q11 17 31 17h91q20 0 5 -14l-111 -104q-15 -14 -35 -14h-31q-20 0 -10 17z" />
    <glyph glyph-name="uni01D9" unicode="&#x1d9;" horiz-adv-x="636" 
d="M490 284v416q0 20 20 20h56q20 0 20 -20v-444q0 -117 -76 -192.5t-194 -75.5q-115 0 -190.5 76.5t-75.5 191.5v444q0 20 20 20h86q20 0 20 -20v-416q0 -89 37.5 -147.5t104.5 -58.5q81 0 126.5 58t45.5 148zM258 810h-70q-20 0 -20 20v70q0 20 20 20h70q20 0 20 -20v-70
q0 -20 -20 -20zM448 810h-70q-20 0 -20 20v70q0 20 20 20h70q20 0 20 -20v-70q0 -20 -20 -20zM256 1076l62 -62l62 62q14 14 34 14h34q20 0 8 -16l-72 -100q-12 -16 -32 -16h-68q-20 0 -32 16l-72 100q-12 16 8 16h34q20 0 34 -14z" />
    <glyph glyph-name="uni01DA" unicode="&#x1da;" horiz-adv-x="536" 
d="M466 0h-50q-10 0 -14 4.5t-6 15.5l-10 41h-2q-17 -34 -55 -53.5t-78 -19.5q-86 0 -143.5 52.5t-57.5 143.5v316q0 20 19 20h82q19 0 19 -20v-282q0 -146 91 -146q105 0 105 156v272q0 20 20 20h80q20 0 20 -20v-480q0 -20 -20 -20zM208 610h-70q-20 0 -20 20v70
q0 20 20 20h70q20 0 20 -20v-70q0 -20 -20 -20zM398 610h-70q-20 0 -20 20v70q0 20 20 20h70q20 0 20 -20v-70q0 -20 -20 -20zM206 876l62 -62l62 62q14 14 34 14h34q20 0 8 -16l-72 -100q-12 -16 -32 -16h-68q-20 0 -32 16l-72 100q-12 16 8 16h34q20 0 34 -14z" />
    <glyph glyph-name="uni01DB" unicode="&#x1db;" horiz-adv-x="636" 
d="M490 284v416q0 20 20 20h56q20 0 20 -20v-444q0 -117 -76 -192.5t-194 -75.5q-115 0 -190.5 76.5t-75.5 191.5v444q0 20 20 20h86q20 0 20 -20v-416q0 -89 37.5 -147.5t104.5 -58.5q81 0 126.5 58t45.5 148zM258 810h-70q-20 0 -20 20v70q0 20 20 20h70q20 0 20 -20v-70
q0 -20 -20 -20zM448 810h-70q-20 0 -20 20v70q0 20 20 20h70q20 0 20 -20v-70q0 -20 -20 -20zM284 1073l60 -98q10 -17 -10 -17h-31q-20 0 -35 14l-111 104q-15 14 5 14h91q20 0 31 -17z" />
    <glyph glyph-name="uni01DC" unicode="&#x1dc;" horiz-adv-x="536" 
d="M466 0h-50q-10 0 -14 4.5t-6 15.5l-10 41h-2q-17 -34 -55 -53.5t-78 -19.5q-86 0 -143.5 52.5t-57.5 143.5v316q0 20 19 20h82q19 0 19 -20v-282q0 -146 91 -146q105 0 105 156v272q0 20 20 20h80q20 0 20 -20v-480q0 -20 -20 -20zM208 610h-70q-20 0 -20 20v70
q0 20 20 20h70q20 0 20 -20v-70q0 -20 -20 -20zM398 610h-70q-20 0 -20 20v70q0 20 20 20h70q20 0 20 -20v-70q0 -20 -20 -20zM235 873l60 -98q10 -17 -10 -17h-31q-20 0 -35 14l-111 104q-15 14 5 14h91q20 0 31 -17z" />
    <glyph glyph-name="uni01DD" unicode="&#x1dd;" horiz-adv-x="516" 
d="M84 426l-21 32q-9 14 1 26q16 18 66.5 33.5t110.5 15.5q235 0 235 -267q0 -125 -53.5 -201.5t-168.5 -76.5q-95 0 -154.5 55t-59.5 160q0 58 23.5 79t85.5 21h205q-7 69 -35.5 107.5t-90.5 38.5q-39 0 -118 -25q-20 -6 -26 2zM354 219h-154q-24 0 -31.5 -6t-7.5 -28
q0 -46 24.5 -79.5t63.5 -33.5q94 0 105 147z" />
    <glyph glyph-name="uni01DE" unicode="&#x1de;" horiz-adv-x="672" 
d="M647 0h-95q-20 0 -27 19l-62 158h-284l-62 -158q-7 -19 -27 -19h-65q-21 0 -12 18l273 684q8 18 28 18h44q20 0 28 -18l273 -684q9 -18 -12 -18zM430 261l-89 259l-20 75l-19 -75l-90 -259h218zM276 810h-70q-20 0 -20 20v70q0 20 20 20h70q20 0 20 -20v-70
q0 -20 -20 -20zM466 810h-70q-20 0 -20 20v70q0 20 20 20h70q20 0 20 -20v-70q0 -20 -20 -20zM491 980h-310q-20 0 -20 20v30q0 20 20 20h310q20 0 20 -20v-30q0 -20 -20 -20z" />
    <glyph glyph-name="uni01DF" unicode="&#x1df;" horiz-adv-x="514" 
d="M454 0h-50q-10 0 -14 4.5t-6 15.5l-10 41h-2q-40 -73 -144 -73q-81 0 -134.5 46.5t-53.5 134.5q0 163 209 163h103q-2 19 -7.5 36.5t-17 37t-33.5 31.5t-51 12q-33 0 -113 -25q-20 -6 -26 2l-21 32q-9 14 1 26q16 18 66.5 33.5t106.5 15.5q217 0 217 -267v-246
q0 -20 -20 -20zM354 219v29h-105q-40 0 -64 -20t-24 -56q0 -37 23.5 -68.5t71.5 -31.5q98 0 98 147zM197 610h-70q-20 0 -20 20v70q0 20 20 20h70q20 0 20 -20v-70q0 -20 -20 -20zM387 610h-70q-20 0 -20 20v70q0 20 20 20h70q20 0 20 -20v-70q0 -20 -20 -20zM412 780h-310
q-20 0 -20 20v30q0 20 20 20h310q20 0 20 -20v-30q0 -20 -20 -20z" />
    <glyph glyph-name="uni01E0" unicode="&#x1e0;" horiz-adv-x="672" 
d="M647 0h-95q-20 0 -27 19l-62 158h-284l-62 -158q-7 -19 -27 -19h-65q-21 0 -12 18l273 684q8 18 28 18h44q20 0 28 -18l273 -684q9 -18 -12 -18zM430 261l-89 259l-20 75l-19 -75l-90 -259h218zM376 820h-80q-20 0 -20 20v80q0 20 20 20h80q20 0 20 -20v-80
q0 -20 -20 -20zM491 980h-310q-20 0 -20 20v30q0 20 20 20h310q20 0 20 -20v-30q0 -20 -20 -20z" />
    <glyph glyph-name="uni01E1" unicode="&#x1e1;" horiz-adv-x="514" 
d="M454 0h-50q-10 0 -14 4.5t-6 15.5l-10 41h-2q-40 -73 -144 -73q-81 0 -134.5 46.5t-53.5 134.5q0 163 209 163h103q-2 19 -7.5 36.5t-17 37t-33.5 31.5t-51 12q-33 0 -113 -25q-20 -6 -26 2l-21 32q-9 14 1 26q16 18 66.5 33.5t106.5 15.5q217 0 217 -267v-246
q0 -20 -20 -20zM354 219v29h-105q-40 0 -64 -20t-24 -56q0 -37 23.5 -68.5t71.5 -31.5q98 0 98 147zM297 620h-80q-20 0 -20 20v80q0 20 20 20h80q20 0 20 -20v-80q0 -20 -20 -20zM412 780h-310q-20 0 -20 20v30q0 20 20 20h310q20 0 20 -20v-30q0 -20 -20 -20z" />
    <glyph glyph-name="uni01E2" unicode="&#x1e2;" horiz-adv-x="717" 
d="M657 0h-303q-20 0 -20 20v157h-155l-62 -158q-7 -19 -27 -19h-65q-19 0 -12 18l273 684q8 18 28 18h343q20 0 20 -20v-50q0 -20 -20 -20h-197v-221h147q20 0 20 -20v-50q0 -20 -20 -20h-147v-229h197q20 0 20 -20v-50q0 -20 -20 -20zM302 520l-90 -259h122v334h-13z
M513 830h-310q-20 0 -20 20v30q0 20 20 20h310q20 0 20 -20v-30q0 -20 -20 -20z" />
    <glyph glyph-name="uni01E3" unicode="&#x1e3;" horiz-adv-x="826" 
d="M585 -12q-120 0 -179 70q-59 -70 -178 -70q-81 0 -134.5 46.5t-53.5 134.5q0 163 209 163h103q-2 19 -7.5 36.5t-17 37t-33.5 31.5t-51 12q-33 0 -113 -25q-20 -6 -26 2l-21 32q-9 14 1 26q16 18 66.5 33.5t106.5 15.5q104 0 159 -62q56 62 156 62q95 0 154.5 -55
t59.5 -160q0 -58 -23.5 -79t-85.5 -21h-205q7 -69 35.5 -107.5t90.5 -38.5q39 0 118 25q20 6 26 -2l21 -32q9 -14 -1 -26q-16 -18 -66.5 -33.5t-110.5 -15.5zM354 219v29h-105q-40 0 -64 -20t-24 -56q0 -37 23.5 -68.5t71.5 -31.5q98 0 98 147zM472 302h154q24 0 31.5 6
t7.5 28q0 46 -24.5 79.5t-63.5 33.5q-94 0 -105 -147zM568 630h-310q-20 0 -20 20v30q0 20 20 20h310q20 0 20 -20v-30q0 -20 -20 -20z" />
    <glyph glyph-name="uni01E4" unicode="&#x1e4;" horiz-adv-x="701" 
d="M665 180h-67v-129q1 -9 -5 -14q-22 -16 -81.5 -32.5t-118.5 -16.5q-156 0 -254.5 96t-98.5 276q0 181 98 276.5t255 95.5q59 0 118.5 -16.5t81.5 -32.5q8 -7 1 -26l-16 -37q-6 -8 -26 -2q-93 24 -159 24q-99 0 -160 -68t-61 -214t61.5 -214t159.5 -68q41 0 79 6v96h-117
q-20 0 -20 20v30q0 20 20 20h117v69h-88q-20 0 -20 20v50q0 20 20 20h194q20 0 20 -20v-139h67q20 0 20 -20v-30q0 -20 -20 -20z" />
    <glyph glyph-name="uni01E5" unicode="&#x1e5;" horiz-adv-x="581" 
d="M582 -110h-83q-30 -57 -84 -88t-123 -31q-59 0 -124.5 16.5t-85.5 32.5q-8 7 -1 26l16 42q3 9 26 2q89 -24 168 -24q39 0 69 24h-88q-20 0 -20 20v30q0 20 20 20h131q8 29 8 59v42h-2q-48 -73 -154 -73q-97 0 -156 64t-59 210q0 144 58.5 207.5t153.5 63.5q118 0 177 -75
h2l10 42q2 11 6 15.5t14 4.5h50q20 0 20 -20v-470q0 -32 -7 -70h58q20 0 20 -20v-30q0 -20 -20 -20zM272 72q139 0 139 190q0 187 -138 187q-59 0 -86 -39.5t-27 -147.5q0 -110 27.5 -150t84.5 -40z" />
    <glyph glyph-name="Gcaron" unicode="&#x1e6;" horiz-adv-x="649" 
d="M472 84v235h-88q-20 0 -20 20v50q0 20 20 20h194q20 0 20 -20v-338q1 -9 -5 -14q-22 -16 -81.5 -32.5t-118.5 -16.5q-156 0 -254.5 96t-98.5 276q0 181 98 276.5t255 95.5q59 0 118.5 -16.5t81.5 -32.5q8 -7 1 -26l-16 -37q-6 -8 -26 -2q-93 24 -159 24q-99 0 -160 -68
t-61 -214t61.5 -214t159.5 -68q41 0 79 6zM314 926l62 -62l62 62q14 14 34 14h34q20 0 8 -16l-72 -100q-12 -16 -32 -16h-68q-20 0 -32 16l-72 100q-12 16 8 16h34q20 0 34 -14z" />
    <glyph glyph-name="gcaron" unicode="&#x1e7;" horiz-adv-x="581" 
d="M411 19v42h-2q-48 -73 -154 -73q-97 0 -156 64t-59 210q0 144 58.5 207.5t153.5 63.5q118 0 177 -75h2l10 42q2 11 6 15.5t14 4.5h50q20 0 20 -20v-470q0 -118 -66 -188.5t-173 -70.5q-59 0 -124.5 16.5t-85.5 32.5q-8 7 -1 26l16 42q3 9 26 2q89 -24 168 -24
q54 0 87 42.5t33 110.5zM272 72q139 0 139 190q0 187 -138 187q-59 0 -86 -39.5t-27 -147.5q0 -110 27.5 -150t84.5 -40zM214 726l62 -62l62 62q14 14 34 14h34q20 0 8 -16l-72 -100q-12 -16 -32 -16h-68q-20 0 -32 16l-72 100q-12 16 8 16h34q20 0 34 -14z" />
    <glyph glyph-name="uni01E8" unicode="&#x1e8;" horiz-adv-x="637" 
d="M567 0h-118q-20 0 -32 16l-241 311v-307q0 -20 -20 -20h-86q-20 0 -20 20v680q0 20 20 20h86q20 0 20 -20v-308l248 312q12 16 32 16h103q20 0 8 -16l-279 -335l287 -353q12 -16 -8 -16zM235 926l62 -62l62 62q14 14 34 14h34q20 0 8 -16l-72 -100q-12 -16 -32 -16h-68
q-20 0 -32 16l-72 100q-12 16 8 16h34q20 0 34 -14z" />
    <glyph glyph-name="uni01E9" unicode="&#x1e9;" horiz-adv-x="487" 
d="M463 0h-98q-20 0 -32 16l-164 211v-207q0 -20 -20 -20h-79q-20 0 -20 20v700q0 20 20 20h79q20 0 20 -20v-428l168 212q12 16 32 16h83q22 0 8 -16l-199 -235l210 -253q14 -16 -8 -16zM181 926l62 -62l62 62q14 14 34 14h34q20 0 8 -16l-72 -100q-12 -16 -32 -16h-68
q-20 0 -32 16l-72 100q-12 16 8 16h34q20 0 34 -14z" />
    <glyph glyph-name="uni01EA" unicode="&#x1ea;" horiz-adv-x="786" 
d="M393 -12q-156 0 -254.5 96t-98.5 276q0 181 98 276.5t255 95.5t255 -95.5t98 -276.5q0 -151 -70 -243t-189 -119l-35 -56q-15 -25 -15 -43q0 -21 20 -21q4 0 9.5 3.5t6.5 3.5q15 14 24 -11q2 -3 4.5 -10t3.5 -10q1 -4 1.5 -6.5t-1 -5t-2.5 -3.5t-5 -4t-6 -5
q-30 -24 -67 -26q-78 3 -78 71q0 46 29 85l20 28h-3zM393 83q98 0 159.5 67t61.5 210t-61 210t-160 67t-160 -67t-61 -210t61.5 -210t159.5 -67z" />
    <glyph glyph-name="uni01EB" unicode="&#x1eb;" 
d="M524 260q0 -216 -151 -260l-37 -58q-15 -25 -15 -43q0 -21 20 -21q4 0 9.5 3.5t6.5 3.5q15 14 24 -11q2 -3 4.5 -10t3.5 -10q1 -4 1.5 -6.5t-1 -5t-2.5 -3.5t-5 -4t-6 -5q-30 -24 -67 -26q-78 3 -78 71q0 46 29 85l20 28q-69 0 -117.5 21t-74.5 59.5t-37 84.5t-11 106
t11 106.5t37.5 86t75 60.5t118.5 21q242 0 242 -273zM282 78q69 0 95.5 48.5t26.5 133.5t-26.5 134t-95.5 49t-95.5 -49t-26.5 -134t26.5 -133.5t95.5 -48.5z" />
    <glyph glyph-name="uni01EC" unicode="&#x1ec;" horiz-adv-x="786" 
d="M393 -12q-156 0 -254.5 96t-98.5 276q0 181 98 276.5t255 95.5t255 -95.5t98 -276.5q0 -151 -70 -243t-189 -119l-35 -56q-15 -25 -15 -43q0 -21 20 -21q4 0 9.5 3.5t6.5 3.5q15 14 24 -11q2 -3 4.5 -10t3.5 -10q1 -4 1.5 -6.5t-1 -5t-2.5 -3.5t-5 -4t-6 -5
q-30 -24 -67 -26q-78 3 -78 71q0 46 29 85l20 28h-3zM393 83q98 0 159.5 67t61.5 210t-61 210t-160 67t-160 -67t-61 -210t61.5 -210t159.5 -67zM548 830h-310q-20 0 -20 20v30q0 20 20 20h310q20 0 20 -20v-30q0 -20 -20 -20z" />
    <glyph glyph-name="uni01ED" unicode="&#x1ed;" 
d="M524 260q0 -216 -151 -260l-37 -58q-15 -25 -15 -43q0 -21 20 -21q4 0 9.5 3.5t6.5 3.5q15 14 24 -11q2 -3 4.5 -10t3.5 -10q1 -4 1.5 -6.5t-1 -5t-2.5 -3.5t-5 -4t-6 -5q-30 -24 -67 -26q-78 3 -78 71q0 46 29 85l20 28q-69 0 -117.5 21t-74.5 59.5t-37 84.5t-11 106
t11 106.5t37.5 86t75 60.5t118.5 21q242 0 242 -273zM282 78q69 0 95.5 48.5t26.5 133.5t-26.5 134t-95.5 49t-95.5 -49t-26.5 -134t26.5 -133.5t95.5 -48.5zM437 630h-310q-20 0 -20 20v30q0 20 20 20h310q20 0 20 -20v-30q0 -20 -20 -20z" />
    <glyph glyph-name="uni01F0" unicode="&#x1f0;" horiz-adv-x="220" 
d="M32 -220h-17q-20 0 -20 20v44q0 20 20 20h7q11 0 19.5 20t8.5 59v557q0 20 20 20h80q20 0 20 -20v-564q0 -156 -138 -156zM48 726l62 -62l62 62q14 14 34 14h34q20 0 8 -16l-72 -100q-12 -16 -32 -16h-68q-20 0 -32 16l-72 100q-12 16 8 16h34q20 0 34 -14z" />
    <glyph glyph-name="uni01F1" unicode="&#x1f1;" horiz-adv-x="1131" 
d="M276 0h-206q-20 0 -20 20v680q0 20 20 20h230q125 0 215 -102t90 -255q0 -154 -95.5 -257.5t-233.5 -105.5zM176 90h99q86 0 142.5 79.5t55.5 198.5q-1 115 -60.5 188.5t-145.5 73.5h-91v-540zM1101 0h-426q-20 0 -20 20v36q0 19 10 38l303 536h-287q-20 0 -20 20v50
q0 20 20 20h412q20 0 20 -20v-36q0 -19 -10 -38l-302 -536h300q20 0 20 -20v-50q0 -20 -20 -20z" />
    <glyph glyph-name="uni01F2" unicode="&#x1f2;" horiz-adv-x="1071" 
d="M276 0h-206q-20 0 -20 20v680q0 20 20 20h230q125 0 215 -102t90 -255q0 -154 -95.5 -257.5t-233.5 -105.5zM176 90h99q86 0 142.5 79.5t55.5 198.5q-1 115 -60.5 188.5t-145.5 73.5h-91v-540zM1021 0h-326q-20 0 -20 20v36q0 19 10 38l210 347h-194q-20 0 -20 20v39
q0 20 20 20h312q20 0 20 -20v-36q0 -19 -10 -38l-209 -347h207q20 0 20 -20v-39q0 -20 -20 -20z" />
    <glyph glyph-name="uni01F3" unicode="&#x1f3;" horiz-adv-x="1007" 
d="M511 0h-50q-10 0 -14 4.5t-6 15.5l-10 42h-2q-59 -75 -177 -75q-95 0 -153.5 63.5t-58.5 207.5q0 146 59 210t156 64q106 0 154 -73h2v261q0 20 20 20h80q20 0 20 -20v-700q0 -20 -20 -20zM273 71q138 0 138 187q0 190 -139 190q-57 0 -84.5 -40t-27.5 -150
q0 -108 27 -147.5t86 -39.5zM957 0h-326q-20 0 -20 20v36q0 19 10 38l210 347h-194q-20 0 -20 20v39q0 20 20 20h312q20 0 20 -20v-36q0 -19 -10 -38l-209 -347h207q20 0 20 -20v-39q0 -20 -20 -20z" />
    <glyph glyph-name="uni01F4" unicode="&#x1f4;" horiz-adv-x="649" 
d="M472 84v235h-88q-20 0 -20 20v50q0 20 20 20h194q20 0 20 -20v-338q1 -9 -5 -14q-22 -16 -81.5 -32.5t-118.5 -16.5q-156 0 -254.5 96t-98.5 276q0 181 98 276.5t255 95.5q59 0 118.5 -16.5t81.5 -32.5q8 -7 1 -26l-16 -37q-6 -8 -26 -2q-93 24 -159 24q-99 0 -160 -68
t-61 -214t61.5 -214t159.5 -68q41 0 79 6zM328 825l60 98q11 17 31 17h91q20 0 5 -14l-111 -104q-15 -14 -35 -14h-31q-20 0 -10 17z" />
    <glyph glyph-name="uni01F5" unicode="&#x1f5;" horiz-adv-x="581" 
d="M411 19v42h-2q-48 -73 -154 -73q-97 0 -156 64t-59 210q0 144 58.5 207.5t153.5 63.5q118 0 177 -75h2l10 42q2 11 6 15.5t14 4.5h50q20 0 20 -20v-470q0 -118 -66 -188.5t-173 -70.5q-59 0 -124.5 16.5t-85.5 32.5q-8 7 -1 26l16 42q3 9 26 2q89 -24 168 -24
q54 0 87 42.5t33 110.5zM272 72q139 0 139 190q0 187 -138 187q-59 0 -86 -39.5t-27 -147.5q0 -110 27.5 -150t84.5 -40zM239 625l60 98q11 17 31 17h91q20 0 5 -14l-111 -104q-15 -14 -35 -14h-31q-20 0 -10 17z" />
    <glyph glyph-name="uni01F8" unicode="&#x1f8;" horiz-adv-x="636" 
d="M566 0h-70q-22 0 -33 16l-305 488h-2l10 -204v-280q0 -20 -20 -20h-76q-20 0 -20 20v680q0 20 20 20h70q22 0 33 -16l305 -488h2l-10 204v280q0 20 20 20h76q20 0 20 -20v-680q0 -20 -20 -20zM302 923l60 -98q10 -17 -10 -17h-31q-20 0 -35 14l-111 104q-15 14 5 14h91
q20 0 31 -17z" />
    <glyph glyph-name="uni01F9" unicode="&#x1f9;" horiz-adv-x="536" 
d="M467 0h-82q-19 0 -19 20v282q0 146 -91 146q-105 0 -105 -156v-272q0 -20 -20 -20h-80q-20 0 -20 20v480q0 20 20 20h50q10 0 14 -4.5t6 -15.5l10 -41h2q17 34 55 53.5t78 19.5q86 0 143.5 -52.5t57.5 -143.5v-316q0 -20 -19 -20zM258 723l60 -98q10 -17 -10 -17h-31
q-20 0 -35 14l-111 104q-15 14 5 14h91q20 0 31 -17z" />
    <glyph glyph-name="Aringacute" unicode="&#x1fa;" horiz-adv-x="672" 
d="M647 0h-95q-20 0 -27 19l-62 158h-284l-62 -158q-7 -19 -27 -19h-65q-21 0 -12 18l273 684q8 18 28 18h44q20 0 28 -18l273 -684q9 -18 -12 -18zM430 261l-89 259l-20 75l-19 -75l-90 -259h218zM243 868q0 39 27.5 66t65.5 27q40 0 66.5 -26.5t26.5 -66.5
q0 -38 -27 -65.5t-66 -27.5q-37 0 -65 27.5t-28 65.5zM285 868q0 -20 15.5 -35.5t35.5 -15.5q21 0 36 14.5t15 36.5t-14 36.5t-37 14.5q-22 0 -36.5 -15.5t-14.5 -35.5zM308 1025l60 98q11 17 31 17h91q20 0 5 -14l-111 -104q-15 -14 -35 -14h-31q-20 0 -10 17z" />
    <glyph glyph-name="aringacute" unicode="&#x1fb;" horiz-adv-x="514" 
d="M454 0h-50q-10 0 -14 4.5t-6 15.5l-10 41h-2q-40 -73 -144 -73q-81 0 -134.5 46.5t-53.5 134.5q0 163 209 163h103q-2 19 -7.5 36.5t-17 37t-33.5 31.5t-51 12q-33 0 -113 -25q-20 -6 -26 2l-21 32q-9 14 1 26q16 18 66.5 33.5t106.5 15.5q217 0 217 -267v-246
q0 -20 -20 -20zM354 219v29h-105q-40 0 -64 -20t-24 -56q0 -37 23.5 -68.5t71.5 -31.5q98 0 98 147zM164 668q0 39 27.5 66t65.5 27q40 0 66.5 -26.5t26.5 -66.5q0 -38 -27 -65.5t-66 -27.5q-37 0 -65 27.5t-28 65.5zM206 668q0 -20 15.5 -35.5t35.5 -15.5q21 0 36 14.5
t15 36.5t-14 36.5t-37 14.5q-22 0 -36.5 -15.5t-14.5 -35.5zM236 825l60 98q11 17 31 17h91q20 0 5 -14l-111 -104q-15 -14 -35 -14h-31q-20 0 -10 17z" />
    <glyph glyph-name="AEacute" unicode="&#x1fc;" horiz-adv-x="717" 
d="M657 0h-303q-20 0 -20 20v157h-155l-62 -158q-7 -19 -27 -19h-65q-19 0 -12 18l273 684q8 18 28 18h343q20 0 20 -20v-50q0 -20 -20 -20h-197v-221h147q20 0 20 -20v-50q0 -20 -20 -20h-147v-229h197q20 0 20 -20v-50q0 -20 -20 -20zM302 520l-90 -259h122v334h-13z
M381 825l60 98q11 17 31 17h91q20 0 5 -14l-111 -104q-15 -14 -35 -14h-31q-20 0 -10 17z" />
    <glyph glyph-name="aeacute" unicode="&#x1fd;" horiz-adv-x="826" 
d="M585 -12q-120 0 -179 70q-59 -70 -178 -70q-81 0 -134.5 46.5t-53.5 134.5q0 163 209 163h103q-2 19 -7.5 36.5t-17 37t-33.5 31.5t-51 12q-33 0 -113 -25q-20 -6 -26 2l-21 32q-9 14 1 26q16 18 66.5 33.5t106.5 15.5q104 0 159 -62q56 62 156 62q95 0 154.5 -55
t59.5 -160q0 -58 -23.5 -79t-85.5 -21h-205q7 -69 35.5 -107.5t90.5 -38.5q39 0 118 25q20 6 26 -2l21 -32q9 -14 -1 -26q-16 -18 -66.5 -33.5t-110.5 -15.5zM354 219v29h-105q-40 0 -64 -20t-24 -56q0 -37 23.5 -68.5t71.5 -31.5q98 0 98 147zM472 302h154q24 0 31.5 6
t7.5 28q0 46 -24.5 79.5t-63.5 33.5q-94 0 -105 -147zM377 625l60 98q11 17 31 17h91q20 0 5 -14l-111 -104q-15 -14 -35 -14h-31q-20 0 -10 17z" />
    <glyph glyph-name="Oslashacute" unicode="&#x1fe;" horiz-adv-x="786" 
d="M128 10l-38 32q-16 13 -2 29l30 35q-78 97 -78 254q0 181 98 276.5t255 95.5q122 0 208 -58l28 33q13 16 29 3l38 -32q16 -13 2 -29l-30 -36q78 -97 78 -253q0 -180 -98.5 -276t-254.5 -96q-122 0 -208 58l-28 -33q-13 -16 -29 -3zM172 360q0 -95 28 -157l331 388
q-55 46 -138 46q-99 0 -160 -67t-61 -210zM393 83q98 0 159.5 67t61.5 210q0 93 -28 157l-331 -389q53 -45 138 -45zM344 825l60 98q11 17 31 17h91q20 0 5 -14l-111 -104q-15 -14 -35 -14h-31q-20 0 -10 17z" />
    <glyph glyph-name="oslashacute" unicode="&#x1ff;" 
d="M76 -16l-38 32q-16 13 -2 29l38 45q-34 64 -34 169q0 60 11 106.5t37.5 86t75 60.5t118.5 21q84 0 138 -32l29 34q13 16 29 3l38 -32q16 -13 2 -29l-34 -40q40 -66 40 -177q0 -60 -11 -106t-37.5 -85t-75 -60t-118.5 -21q-91 0 -146 36l-31 -37q-13 -16 -29 -3zM282 78
q69 0 95.5 48.5t26.5 133.5q0 40 -6 75l-194 -230q29 -27 78 -27zM160 260q0 -37 4 -64l189 225q-27 22 -71 22q-69 0 -95.5 -49t-26.5 -134zM245 625l60 98q11 17 31 17h91q20 0 5 -14l-111 -104q-15 -14 -35 -14h-31q-20 0 -10 17z" />
    <glyph glyph-name="uni0200" unicode="&#x200;" horiz-adv-x="672" 
d="M647 0h-95q-20 0 -27 19l-62 158h-284l-62 -158q-7 -19 -27 -19h-65q-21 0 -12 18l273 684q8 18 28 18h44q20 0 28 -18l273 -684q9 -18 -12 -18zM430 261l-89 259l-20 75l-19 -75l-90 -259h218zM431 923l60 -98q10 -17 -10 -17h-31q-20 0 -35 14l-111 104q-15 14 5 14h91
q20 0 31 -17zM232 923l60 -98q10 -17 -10 -17h-31q-20 0 -35 14l-111 104q-15 14 5 14h91q20 0 31 -17z" />
    <glyph glyph-name="uni0201" unicode="&#x201;" horiz-adv-x="514" 
d="M454 0h-50q-10 0 -14 4.5t-6 15.5l-10 41h-2q-40 -73 -144 -73q-81 0 -134.5 46.5t-53.5 134.5q0 163 209 163h103q-2 19 -7.5 36.5t-17 37t-33.5 31.5t-51 12q-33 0 -113 -25q-20 -6 -26 2l-21 32q-9 14 1 26q16 18 66.5 33.5t106.5 15.5q217 0 217 -267v-246
q0 -20 -20 -20zM354 219v29h-105q-40 0 -64 -20t-24 -56q0 -37 23.5 -68.5t71.5 -31.5q98 0 98 147zM357 723l60 -98q10 -17 -10 -17h-31q-20 0 -35 14l-111 104q-15 14 5 14h91q20 0 31 -17zM158 723l60 -98q10 -17 -10 -17h-31q-20 0 -35 14l-111 104q-15 14 5 14h91
q20 0 31 -17z" />
    <glyph glyph-name="uni0202" unicode="&#x202;" horiz-adv-x="672" 
d="M647 0h-95q-20 0 -27 19l-62 158h-284l-62 -158q-7 -19 -27 -19h-65q-21 0 -12 18l273 684q8 18 28 18h44q20 0 28 -18l273 -684q9 -18 -12 -18zM430 261l-89 259l-20 75l-19 -75l-90 -259h218zM256 807h-43q-7 0 -11.5 4.5t-3.5 11.5q4 55 45 86t94 31q58 0 97.5 -32
t40.5 -85q0 -6 -4.5 -11t-10.5 -5h-42q-12 0 -14 10q-13 43 -67 43t-68 -43q-5 -10 -13 -10z" />
    <glyph glyph-name="uni0203" unicode="&#x203;" horiz-adv-x="514" 
d="M454 0h-50q-10 0 -14 4.5t-6 15.5l-10 41h-2q-40 -73 -144 -73q-81 0 -134.5 46.5t-53.5 134.5q0 163 209 163h103q-2 19 -7.5 36.5t-17 37t-33.5 31.5t-51 12q-33 0 -113 -25q-20 -6 -26 2l-21 32q-9 14 1 26q16 18 66.5 33.5t106.5 15.5q217 0 217 -267v-246
q0 -20 -20 -20zM354 219v29h-105q-40 0 -64 -20t-24 -56q0 -37 23.5 -68.5t71.5 -31.5q98 0 98 147zM177 607h-43q-7 0 -11.5 4.5t-3.5 11.5q4 55 45 86t94 31q58 0 97.5 -32t40.5 -85q0 -6 -4.5 -11t-10.5 -5h-42q-12 0 -14 10q-13 43 -67 43t-68 -43q-5 -10 -13 -10z" />
    <glyph glyph-name="uni0204" unicode="&#x204;" horiz-adv-x="483" 
d="M423 0h-353q-20 0 -20 20v680q0 20 20 20h353q20 0 20 -20v-50q0 -20 -20 -20h-247v-221h197q20 0 20 -20v-50q0 -20 -20 -20h-197v-229h247q20 0 20 -20v-50q0 -20 -20 -20zM339 923l60 -98q10 -17 -10 -17h-31q-20 0 -35 14l-111 104q-15 14 5 14h91q20 0 31 -17z
M140 923l60 -98q10 -17 -10 -17h-31q-20 0 -35 14l-111 104q-15 14 5 14h91q20 0 31 -17z" />
    <glyph glyph-name="uni0205" unicode="&#x205;" horiz-adv-x="516" 
d="M432 95l21 -32q9 -14 -1 -26q-16 -18 -66.5 -33.5t-110.5 -15.5q-235 0 -235 267q0 125 53.5 201.5t168.5 76.5q95 0 154.5 -55t59.5 -160q0 -58 -23.5 -79t-85.5 -21h-205q7 -69 35.5 -107.5t90.5 -38.5q39 0 118 25q20 6 26 -2zM162 302h154q24 0 31.5 6t7.5 28
q0 46 -24.5 79.5t-63.5 33.5q-94 0 -105 -147zM384 723l60 -98q10 -17 -10 -17h-31q-20 0 -35 14l-111 104q-15 14 5 14h91q20 0 31 -17zM185 723l60 -98q10 -17 -10 -17h-31q-20 0 -35 14l-111 104q-15 14 5 14h91q20 0 31 -17z" />
    <glyph glyph-name="uni0206" unicode="&#x206;" horiz-adv-x="483" 
d="M423 0h-353q-20 0 -20 20v680q0 20 20 20h353q20 0 20 -20v-50q0 -20 -20 -20h-247v-221h197q20 0 20 -20v-50q0 -20 -20 -20h-197v-229h247q20 0 20 -20v-50q0 -20 -20 -20zM162 807h-43q-7 0 -11.5 4.5t-3.5 11.5q4 55 45 86t94 31q58 0 97.5 -32t40.5 -85
q0 -6 -4.5 -11t-10.5 -5h-42q-12 0 -14 10q-13 43 -67 43t-68 -43q-5 -10 -13 -10z" />
    <glyph glyph-name="uni0207" unicode="&#x207;" horiz-adv-x="516" 
d="M432 95l21 -32q9 -14 -1 -26q-16 -18 -66.5 -33.5t-110.5 -15.5q-235 0 -235 267q0 125 53.5 201.5t168.5 76.5q95 0 154.5 -55t59.5 -160q0 -58 -23.5 -79t-85.5 -21h-205q7 -69 35.5 -107.5t90.5 -38.5q39 0 118 25q20 6 26 -2zM162 302h154q24 0 31.5 6t7.5 28
q0 46 -24.5 79.5t-63.5 33.5q-94 0 -105 -147zM178 607h-43q-7 0 -11.5 4.5t-3.5 11.5q4 55 45 86t94 31q58 0 97.5 -32t40.5 -85q0 -6 -4.5 -11t-10.5 -5h-42q-12 0 -14 10q-13 43 -67 43t-68 -43q-5 -10 -13 -10z" />
    <glyph glyph-name="uni0208" unicode="&#x208;" horiz-adv-x="226" 
d="M156 0h-86q-20 0 -20 20v680q0 20 20 20h86q20 0 20 -20v-680q0 -20 -20 -20zM220 923l60 -98q10 -17 -10 -17h-31q-20 0 -35 14l-111 104q-15 14 5 14h91q20 0 31 -17zM21 923l60 -98q10 -17 -10 -17h-31q-20 0 -35 14l-111 104q-15 14 5 14h91q20 0 31 -17z" />
    <glyph glyph-name="uni0209" unicode="&#x209;" horiz-adv-x="220" 
d="M150 0h-80q-20 0 -20 20v480q0 20 20 20h80q20 0 20 -20v-480q0 -20 -20 -20zM225 723l60 -98q10 -17 -10 -17h-31q-20 0 -35 14l-111 104q-15 14 5 14h91q20 0 31 -17zM26 723l60 -98q10 -17 -10 -17h-31q-20 0 -35 14l-111 104q-15 14 5 14h91q20 0 31 -17z" />
    <glyph glyph-name="uni020A" unicode="&#x20a;" horiz-adv-x="226" 
d="M156 0h-86q-20 0 -20 20v680q0 20 20 20h86q20 0 20 -20v-680q0 -20 -20 -20zM34 807h-43q-7 0 -11.5 4.5t-3.5 11.5q4 55 45 86t94 31q58 0 97.5 -32t40.5 -85q0 -6 -4.5 -11t-10.5 -5h-42q-12 0 -14 10q-13 43 -67 43t-68 -43q-5 -10 -13 -10z" />
    <glyph glyph-name="uni020B" unicode="&#x20b;" horiz-adv-x="220" 
d="M150 0h-80q-20 0 -20 20v480q0 20 20 20h80q20 0 20 -20v-480q0 -20 -20 -20zM31 607h-43q-7 0 -11.5 4.5t-3.5 11.5q4 55 45 86t94 31q58 0 97.5 -32t40.5 -85q0 -6 -4.5 -11t-10.5 -5h-42q-12 0 -14 10q-13 43 -67 43t-68 -43q-5 -10 -13 -10z" />
    <glyph glyph-name="uni020C" unicode="&#x20c;" horiz-adv-x="786" 
d="M393 -12q-156 0 -254.5 96t-98.5 276q0 181 98 276.5t255 95.5t255 -95.5t98 -276.5q0 -180 -98.5 -276t-254.5 -96zM393 83q98 0 159.5 67t61.5 210t-61 210t-160 67t-160 -67t-61 -210t61.5 -210t159.5 -67zM495 923l60 -98q10 -17 -10 -17h-31q-20 0 -35 14l-111 104
q-15 14 5 14h91q20 0 31 -17zM296 923l60 -98q10 -17 -10 -17h-31q-20 0 -35 14l-111 104q-15 14 5 14h91q20 0 31 -17z" />
    <glyph glyph-name="uni020D" unicode="&#x20d;" 
d="M282 -12q-70 0 -118.5 21t-75 59.5t-37.5 84.5t-11 106t11 106.5t37.5 86t75 60.5t118.5 21q242 0 242 -273q0 -60 -11 -106t-37.5 -85t-75 -60t-118.5 -21zM282 78q69 0 95.5 48.5t26.5 133.5t-26.5 134t-95.5 49t-95.5 -49t-26.5 -134t26.5 -133.5t95.5 -48.5zM380 723
l60 -98q10 -17 -10 -17h-31q-20 0 -35 14l-111 104q-15 14 5 14h91q20 0 31 -17zM181 723l60 -98q10 -17 -10 -17h-31q-20 0 -35 14l-111 104q-15 14 5 14h91q20 0 31 -17z" />
    <glyph glyph-name="uni020E" unicode="&#x20e;" horiz-adv-x="786" 
d="M393 -12q-156 0 -254.5 96t-98.5 276q0 181 98 276.5t255 95.5t255 -95.5t98 -276.5q0 -180 -98.5 -276t-254.5 -96zM393 83q98 0 159.5 67t61.5 210t-61 210t-160 67t-160 -67t-61 -210t61.5 -210t159.5 -67zM313 807h-43q-7 0 -11.5 4.5t-3.5 11.5q4 55 45 86t94 31
q58 0 97.5 -32t40.5 -85q0 -6 -4.5 -11t-10.5 -5h-42q-12 0 -14 10q-13 43 -67 43t-68 -43q-5 -10 -13 -10z" />
    <glyph glyph-name="uni020F" unicode="&#x20f;" 
d="M282 -12q-70 0 -118.5 21t-75 59.5t-37.5 84.5t-11 106t11 106.5t37.5 86t75 60.5t118.5 21q242 0 242 -273q0 -60 -11 -106t-37.5 -85t-75 -60t-118.5 -21zM282 78q69 0 95.5 48.5t26.5 133.5t-26.5 134t-95.5 49t-95.5 -49t-26.5 -134t26.5 -133.5t95.5 -48.5zM202 607
h-43q-7 0 -11.5 4.5t-3.5 11.5q4 55 45 86t94 31q58 0 97.5 -32t40.5 -85q0 -6 -4.5 -11t-10.5 -5h-42q-12 0 -14 10q-13 43 -67 43t-68 -43q-5 -10 -13 -10z" />
    <glyph glyph-name="uni0210" unicode="&#x210;" horiz-adv-x="567" 
d="M521 0h-110q-20 0 -30 17l-127 202h-78v-199q0 -20 -20 -20h-86q-20 0 -20 20v680q0 20 20 20h190q112 0 184.5 -72.5t72.5 -178.5q0 -73 -38.5 -133.5t-103.5 -91.5l154 -228q12 -16 -8 -16zM176 308h64q151 0 151 161q0 160 -151 162h-64v-323zM338 923l60 -98
q10 -17 -10 -17h-31q-20 0 -35 14l-111 104q-15 14 5 14h91q20 0 31 -17zM139 923l60 -98q10 -17 -10 -17h-31q-20 0 -35 14l-111 104q-15 14 5 14h91q20 0 31 -17z" />
    <glyph glyph-name="uni0211" unicode="&#x211;" horiz-adv-x="316" 
d="M150 0h-80q-20 0 -20 20v480q0 20 20 20h50q3 0 5.5 -0.5t4.5 -1.5t3.5 -3t2 -3.5t2 -5.5t2.5 -6l10 -38h2q15 23 32 37.5t37.5 20t31.5 6.5t35 2q11 0 14.5 -2.5t3.5 -12.5v-75q0 -9 -4 -13t-9 -4t-14.5 1t-13.5 1q-95 0 -95 -97v-306q0 -20 -20 -20zM293 723l60 -98
q10 -17 -10 -17h-31q-20 0 -35 14l-111 104q-15 14 5 14h91q20 0 31 -17zM94 723l60 -98q10 -17 -10 -17h-31q-20 0 -35 14l-111 104q-15 14 5 14h91q20 0 31 -17z" />
    <glyph glyph-name="uni0212" unicode="&#x212;" horiz-adv-x="567" 
d="M521 0h-110q-20 0 -30 17l-127 202h-78v-199q0 -20 -20 -20h-86q-20 0 -20 20v680q0 20 20 20h190q112 0 184.5 -72.5t72.5 -178.5q0 -73 -38.5 -133.5t-103.5 -91.5l154 -228q12 -16 -8 -16zM176 308h64q151 0 151 161q0 160 -151 162h-64v-323zM173 807h-43
q-7 0 -11.5 4.5t-3.5 11.5q4 55 45 86t94 31q58 0 97.5 -32t40.5 -85q0 -6 -4.5 -11t-10.5 -5h-42q-12 0 -14 10q-13 43 -67 43t-68 -43q-5 -10 -13 -10z" />
    <glyph glyph-name="uni0213" unicode="&#x213;" horiz-adv-x="316" 
d="M150 0h-80q-20 0 -20 20v480q0 20 20 20h50q3 0 5.5 -0.5t4.5 -1.5t3.5 -3t2 -3.5t2 -5.5t2.5 -6l10 -38h2q15 23 32 37.5t37.5 20t31.5 6.5t35 2q11 0 14.5 -2.5t3.5 -12.5v-75q0 -9 -4 -13t-9 -4t-14.5 1t-13.5 1q-95 0 -95 -97v-306q0 -20 -20 -20zM79 607h-43
q-7 0 -11.5 4.5t-3.5 11.5q4 55 45 86t94 31q58 0 97.5 -32t40.5 -85q0 -6 -4.5 -11t-10.5 -5h-42q-12 0 -14 10q-13 43 -67 43t-68 -43q-5 -10 -13 -10z" />
    <glyph glyph-name="uni0214" unicode="&#x214;" horiz-adv-x="636" 
d="M490 284v416q0 20 20 20h56q20 0 20 -20v-444q0 -117 -76 -192.5t-194 -75.5q-115 0 -190.5 76.5t-75.5 191.5v444q0 20 20 20h86q20 0 20 -20v-416q0 -89 37.5 -147.5t104.5 -58.5q81 0 126.5 58t45.5 148zM419 923l60 -98q10 -17 -10 -17h-31q-20 0 -35 14l-111 104
q-15 14 5 14h91q20 0 31 -17zM220 923l60 -98q10 -17 -10 -17h-31q-20 0 -35 14l-111 104q-15 14 5 14h91q20 0 31 -17z" />
    <glyph glyph-name="uni0215" unicode="&#x215;" horiz-adv-x="536" 
d="M466 0h-50q-10 0 -14 4.5t-6 15.5l-10 41h-2q-17 -34 -55 -53.5t-78 -19.5q-86 0 -143.5 52.5t-57.5 143.5v316q0 20 19 20h82q19 0 19 -20v-282q0 -146 91 -146q105 0 105 156v272q0 20 20 20h80q20 0 20 -20v-480q0 -20 -20 -20zM374 723l60 -98q10 -17 -10 -17h-31
q-20 0 -35 14l-111 104q-15 14 5 14h91q20 0 31 -17zM175 723l60 -98q10 -17 -10 -17h-31q-20 0 -35 14l-111 104q-15 14 5 14h91q20 0 31 -17z" />
    <glyph glyph-name="uni0216" unicode="&#x216;" horiz-adv-x="636" 
d="M490 284v416q0 20 20 20h56q20 0 20 -20v-444q0 -117 -76 -192.5t-194 -75.5q-115 0 -190.5 76.5t-75.5 191.5v444q0 20 20 20h86q20 0 20 -20v-416q0 -89 37.5 -147.5t104.5 -58.5q81 0 126.5 58t45.5 148zM238 807h-43q-7 0 -11.5 4.5t-3.5 11.5q4 55 45 86t94 31
q58 0 97.5 -32t40.5 -85q0 -6 -4.5 -11t-10.5 -5h-42q-12 0 -14 10q-13 43 -67 43t-68 -43q-5 -10 -13 -10z" />
    <glyph glyph-name="uni0217" unicode="&#x217;" horiz-adv-x="536" 
d="M466 0h-50q-10 0 -14 4.5t-6 15.5l-10 41h-2q-17 -34 -55 -53.5t-78 -19.5q-86 0 -143.5 52.5t-57.5 143.5v316q0 20 19 20h82q19 0 19 -20v-282q0 -146 91 -146q105 0 105 156v272q0 20 20 20h80q20 0 20 -20v-480q0 -20 -20 -20zM188 607h-43q-7 0 -11.5 4.5t-3.5 11.5
q4 55 45 86t94 31q58 0 97.5 -32t40.5 -85q0 -6 -4.5 -11t-10.5 -5h-42q-12 0 -14 10q-13 43 -67 43t-68 -43q-5 -10 -13 -10z" />
    <glyph glyph-name="uni0218" unicode="&#x218;" horiz-adv-x="555" 
d="M306 281l-97 38q-164 64 -164 203q0 95 70 152.5t173 57.5q60 0 124 -17.5t82 -31.5q8 -6 1 -26l-16 -42q-3 -9 -26 -2q-89 24 -159 24q-72 0 -102.5 -31t-30.5 -72q0 -61 86 -94l96 -36q84 -31 128 -89.5t44 -127.5q0 -91 -71.5 -145t-187.5 -54q-59 0 -124.5 16.5
t-85.5 32.5q-8 7 -1 26l16 42q3 9 26 2q89 -24 168 -24q65 0 104.5 26t39.5 67q0 34 -26 61.5t-67 43.5zM263 -249h-36q-20 0 -20 20v100q0 20 20 20h100q20 0 20 -20v-115q0 -45 -16 -88.5t-33 -61.5q-10 -12 -26 -1l-32 21q-9 6 -2 26q1 3 6.5 17t9 24t6.5 26.5t3 31.5z
" />
    <glyph glyph-name="uni0219" unicode="&#x219;" horiz-adv-x="474" 
d="M242 201l-86 26q-106 33 -106 145q0 71 49 116t138 45q59 0 107 -15t67 -34q10 -10 0 -26l-21 -32q-4 -9 -26 -2q-69 25 -116 25q-84 0 -84 -65q0 -38 39 -49l117 -34q63 -18 88.5 -54t25.5 -97q0 -77 -60 -119.5t-148 -42.5q-62 0 -113.5 14.5t-66.5 34.5q-9 13 -1 26
l21 32q6 9 26 2q75 -25 128 -25q100 0 100 67q0 23 -16.5 35.5t-61.5 26.5zM223 -249h-36q-20 0 -20 20v100q0 20 20 20h100q20 0 20 -20v-115q0 -45 -16 -88.5t-33 -61.5q-10 -12 -26 -1l-32 21q-9 6 -2 26q1 3 6.5 17t9 24t6.5 26.5t3 31.5z" />
    <glyph glyph-name="uni021A" unicode="&#x21a;" horiz-adv-x="480" 
d="M283 0h-86q-20 0 -20 20v610h-147q-20 0 -20 20v50q0 20 20 20h420q20 0 20 -20v-50q0 -20 -20 -20h-147v-610q0 -20 -20 -20zM226 -249h-36q-20 0 -20 20v100q0 20 20 20h100q20 0 20 -20v-115q0 -45 -16 -88.5t-33 -61.5q-10 -12 -26 -1l-32 21q-9 6 -2 26q1 3 6.5 17
t9 24t6.5 26.5t3 31.5z" />
    <glyph glyph-name="uni021B" unicode="&#x21b;" horiz-adv-x="315" 
d="M257 0h-37q-138 0 -138 156v285h-52q-20 0 -20 20v39q0 20 20 20h52v77q0 3 0.5 5t1 3.5t1.5 3t2 2l3 1.5l3 1.5t4.5 2t4.5 1.5l80 30q9 4 14.5 -2.5t5.5 -17.5v-107h63q20 0 20 -20v-39q0 -20 -20 -20h-63v-288q0 -34 14.5 -51.5t33.5 -17.5h7q20 0 20 -20v-44
q0 -20 -20 -20zM143 -249h-36q-20 0 -20 20v100q0 20 20 20h100q20 0 20 -20v-115q0 -45 -16 -88.5t-33 -61.5q-10 -12 -26 -1l-32 21q-9 6 -2 26q1 3 6.5 17t9 24t6.5 26.5t3 31.5z" />
    <glyph glyph-name="uni021C" unicode="&#x21c;" 
d="M253 -11q-59 0 -124.5 16.5t-85.5 32.5q-8 7 -1 26l16 42q3 9 26 2q89 -24 168 -24q146 0 146 120q0 51 -32 86t-104 35h-66q-20 0 -20 20v44q0 20 20 20h40q54 0 91.5 32.5t37.5 86.5q0 51 -31.5 79.5t-96.5 28.5q-54 0 -129 -24q-23 -7 -26 2l-16 42q-7 19 1 26
q20 16 69.5 32.5t100.5 16.5q117 0 185.5 -54.5t68.5 -146.5q0 -104 -115 -150v-2q71 -11 109.5 -57.5t38.5 -115.5q0 -92 -78 -154t-193 -62z" />
    <glyph glyph-name="uni021D" unicode="&#x21d;" 
d="M253 -211q-59 0 -124.5 16.5t-85.5 32.5q-8 7 -1 26l16 42q3 9 26 2q89 -24 168 -24q146 0 146 120q0 51 -32 86t-104 35h-66q-20 0 -20 20v44q0 20 20 20h40q54 0 91.5 32.5t37.5 86.5q0 51 -31.5 79.5t-96.5 28.5q-54 0 -129 -24q-23 -7 -26 2l-16 42q-7 19 1 26
q20 16 69.5 32.5t100.5 16.5q117 0 185.5 -54.5t68.5 -146.5q0 -104 -115 -150v-2q71 -11 109.5 -57.5t38.5 -115.5q0 -92 -78 -154t-193 -62z" />
    <glyph glyph-name="uni021E" unicode="&#x21e;" horiz-adv-x="609" 
d="M539 0h-86q-20 0 -20 20v304h-257v-304q0 -20 -20 -20h-86q-20 0 -20 20v680q0 20 20 20h86q20 0 20 -20v-286h257v286q0 20 20 20h86q20 0 20 -20v-680q0 -20 -20 -20zM242 926l62 -62l62 62q14 14 34 14h34q20 0 8 -16l-72 -100q-12 -16 -32 -16h-68q-20 0 -32 16
l-72 100q-12 16 8 16h34q20 0 34 -14z" />
    <glyph glyph-name="uni021F" unicode="&#x21f;" horiz-adv-x="551" 
d="M481 0h-80q-20 0 -20 20v238q0 110 -22.5 150t-69.5 40q-119 0 -119 -160v-268q0 -20 -20 -20h-80q-20 0 -20 20v700q0 20 20 20h80q20 0 20 -20v-261h2q40 73 134 73q88 0 141.5 -64t53.5 -210v-238q0 -20 -20 -20zM213 926l62 -62l62 62q14 14 34 14h34q20 0 8 -16
l-72 -100q-12 -16 -32 -16h-68q-20 0 -32 16l-72 100q-12 16 8 16h34q20 0 34 -14z" />
    <glyph glyph-name="uni0220" unicode="&#x220;" horiz-adv-x="536" 
d="M467 -249h-82q-19 0 -19 20v531q0 146 -91 146q-105 0 -105 -156v-272q0 -20 -20 -20h-80q-20 0 -20 20v480q0 20 20 20h50q10 0 14 -4.5t6 -15.5l10 -41h2q17 34 55 53.5t78 19.5q86 0 143.5 -52.5t57.5 -143.5v-565q0 -20 -19 -20z" />
    <glyph glyph-name="uni0226" unicode="&#x226;" horiz-adv-x="672" 
d="M647 0h-95q-20 0 -27 19l-62 158h-284l-62 -158q-7 -19 -27 -19h-65q-21 0 -12 18l273 684q8 18 28 18h44q20 0 28 -18l273 -684q9 -18 -12 -18zM430 261l-89 259l-20 75l-19 -75l-90 -259h218zM376 820h-80q-20 0 -20 20v80q0 20 20 20h80q20 0 20 -20v-80
q0 -20 -20 -20z" />
    <glyph glyph-name="uni0227" unicode="&#x227;" horiz-adv-x="514" 
d="M454 0h-50q-10 0 -14 4.5t-6 15.5l-10 41h-2q-40 -73 -144 -73q-81 0 -134.5 46.5t-53.5 134.5q0 163 209 163h103q-2 19 -7.5 36.5t-17 37t-33.5 31.5t-51 12q-33 0 -113 -25q-20 -6 -26 2l-21 32q-9 14 1 26q16 18 66.5 33.5t106.5 15.5q217 0 217 -267v-246
q0 -20 -20 -20zM354 219v29h-105q-40 0 -64 -20t-24 -56q0 -37 23.5 -68.5t71.5 -31.5q98 0 98 147zM297 620h-80q-20 0 -20 20v80q0 20 20 20h80q20 0 20 -20v-80q0 -20 -20 -20z" />
    <glyph glyph-name="uni0228" unicode="&#x228;" horiz-adv-x="483" 
d="M196 -89l22 89h-148q-20 0 -20 20v680q0 20 20 20h353q20 0 20 -20v-50q0 -20 -20 -20h-247v-221h197q20 0 20 -20v-50q0 -20 -20 -20h-197v-229h247q20 0 20 -20v-50q0 -20 -20 -20h-150l-14 -54q33 -4 51.5 -24.5t18.5 -50.5q0 -40 -32 -66.5t-84 -26.5q-42 0 -41 4
q-19 1 -18 22l1 18q1 20 21 19v-1h21q64 0 64 38q0 33 -65 33z" />
    <glyph glyph-name="uni0229" unicode="&#x229;" horiz-adv-x="516" 
d="M213 -89l19 80q-192 23 -192 264q0 125 53.5 201.5t168.5 76.5q95 0 154.5 -55t59.5 -160q0 -58 -23.5 -79t-85.5 -21h-205q7 -69 35.5 -107.5t90.5 -38.5q39 0 118 25q20 6 26 -2l21 -32q9 -14 -1 -26q-15 -17 -62 -32t-103 -17l-11 -42q33 -4 51.5 -24.5t18.5 -50.5
q0 -40 -32 -66.5t-84 -26.5q-42 0 -41 4q-19 1 -18 22l1 18q1 20 21 19v-1h21q64 0 64 38q0 33 -65 33zM162 302h154q24 0 31.5 6t7.5 28q0 46 -24.5 79.5t-63.5 33.5q-94 0 -105 -147z" />
    <glyph glyph-name="uni022A" unicode="&#x22a;" horiz-adv-x="786" 
d="M393 -12q-156 0 -254.5 96t-98.5 276q0 181 98 276.5t255 95.5t255 -95.5t98 -276.5q0 -180 -98.5 -276t-254.5 -96zM393 83q98 0 159.5 67t61.5 210t-61 210t-160 67t-160 -67t-61 -210t61.5 -210t159.5 -67zM333 810h-70q-20 0 -20 20v70q0 20 20 20h70q20 0 20 -20
v-70q0 -20 -20 -20zM523 810h-70q-20 0 -20 20v70q0 20 20 20h70q20 0 20 -20v-70q0 -20 -20 -20zM548 980h-310q-20 0 -20 20v30q0 20 20 20h310q20 0 20 -20v-30q0 -20 -20 -20z" />
    <glyph glyph-name="uni022B" unicode="&#x22b;" 
d="M282 -12q-70 0 -118.5 21t-75 59.5t-37.5 84.5t-11 106t11 106.5t37.5 86t75 60.5t118.5 21q242 0 242 -273q0 -60 -11 -106t-37.5 -85t-75 -60t-118.5 -21zM282 78q69 0 95.5 48.5t26.5 133.5t-26.5 134t-95.5 49t-95.5 -49t-26.5 -134t26.5 -133.5t95.5 -48.5zM222 610
h-70q-20 0 -20 20v70q0 20 20 20h70q20 0 20 -20v-70q0 -20 -20 -20zM412 610h-70q-20 0 -20 20v70q0 20 20 20h70q20 0 20 -20v-70q0 -20 -20 -20zM437 780h-310q-20 0 -20 20v30q0 20 20 20h310q20 0 20 -20v-30q0 -20 -20 -20z" />
    <glyph glyph-name="uni022C" unicode="&#x22c;" horiz-adv-x="786" 
d="M393 -12q-156 0 -254.5 96t-98.5 276q0 181 98 276.5t255 95.5t255 -95.5t98 -276.5q0 -180 -98.5 -276t-254.5 -96zM393 83q98 0 159.5 67t61.5 210t-61 210t-160 67t-160 -67t-61 -210t61.5 -210t159.5 -67zM298 809h-30q-7 0 -11.5 5t-4.5 11q4 99 88 99q22 0 66 -19
q37 -16 40 -16q10 0 18.5 16.5t23.5 16.5h30q6 0 10.5 -5t4.5 -11q-1 -44 -22 -71.5t-65 -27.5q-14 0 -34 8q-71 27 -72 27q-10 0 -20.5 -16.5t-21.5 -16.5zM548 980h-310q-20 0 -20 20v30q0 20 20 20h310q20 0 20 -20v-30q0 -20 -20 -20z" />
    <glyph glyph-name="uni022D" unicode="&#x22d;" 
d="M282 -12q-70 0 -118.5 21t-75 59.5t-37.5 84.5t-11 106t11 106.5t37.5 86t75 60.5t118.5 21q242 0 242 -273q0 -60 -11 -106t-37.5 -85t-75 -60t-118.5 -21zM282 78q69 0 95.5 48.5t26.5 133.5t-26.5 134t-95.5 49t-95.5 -49t-26.5 -134t26.5 -133.5t95.5 -48.5zM187 609
h-30q-7 0 -11.5 5t-4.5 11q4 99 88 99q22 0 66 -19q37 -16 40 -16q10 0 18.5 16.5t23.5 16.5h30q6 0 10.5 -5t4.5 -11q-1 -44 -22 -71.5t-65 -27.5q-14 0 -34 8q-71 27 -72 27q-10 0 -20.5 -16.5t-21.5 -16.5zM437 780h-310q-20 0 -20 20v30q0 20 20 20h310q20 0 20 -20v-30
q0 -20 -20 -20z" />
    <glyph glyph-name="uni022E" unicode="&#x22e;" horiz-adv-x="786" 
d="M393 -12q-156 0 -254.5 96t-98.5 276q0 181 98 276.5t255 95.5t255 -95.5t98 -276.5q0 -180 -98.5 -276t-254.5 -96zM393 83q98 0 159.5 67t61.5 210t-61 210t-160 67t-160 -67t-61 -210t61.5 -210t159.5 -67zM433 820h-80q-20 0 -20 20v80q0 20 20 20h80q20 0 20 -20
v-80q0 -20 -20 -20z" />
    <glyph glyph-name="uni022F" unicode="&#x22f;" 
d="M282 -12q-70 0 -118.5 21t-75 59.5t-37.5 84.5t-11 106t11 106.5t37.5 86t75 60.5t118.5 21q242 0 242 -273q0 -60 -11 -106t-37.5 -85t-75 -60t-118.5 -21zM282 78q69 0 95.5 48.5t26.5 133.5t-26.5 134t-95.5 49t-95.5 -49t-26.5 -134t26.5 -133.5t95.5 -48.5zM322 620
h-80q-20 0 -20 20v80q0 20 20 20h80q20 0 20 -20v-80q0 -20 -20 -20z" />
    <glyph glyph-name="uni0230" unicode="&#x230;" horiz-adv-x="786" 
d="M393 -12q-156 0 -254.5 96t-98.5 276q0 181 98 276.5t255 95.5t255 -95.5t98 -276.5q0 -180 -98.5 -276t-254.5 -96zM393 83q98 0 159.5 67t61.5 210t-61 210t-160 67t-160 -67t-61 -210t61.5 -210t159.5 -67zM433 820h-80q-20 0 -20 20v80q0 20 20 20h80q20 0 20 -20
v-80q0 -20 -20 -20zM548 980h-310q-20 0 -20 20v30q0 20 20 20h310q20 0 20 -20v-30q0 -20 -20 -20z" />
    <glyph glyph-name="uni0231" unicode="&#x231;" 
d="M282 -12q-70 0 -118.5 21t-75 59.5t-37.5 84.5t-11 106t11 106.5t37.5 86t75 60.5t118.5 21q242 0 242 -273q0 -60 -11 -106t-37.5 -85t-75 -60t-118.5 -21zM282 78q69 0 95.5 48.5t26.5 133.5t-26.5 134t-95.5 49t-95.5 -49t-26.5 -134t26.5 -133.5t95.5 -48.5zM322 620
h-80q-20 0 -20 20v80q0 20 20 20h80q20 0 20 -20v-80q0 -20 -20 -20zM437 780h-310q-20 0 -20 20v30q0 20 20 20h310q20 0 20 -20v-30q0 -20 -20 -20z" />
    <glyph glyph-name="uni0232" unicode="&#x232;" horiz-adv-x="628" 
d="M352 0h-86q-20 0 -20 20v243l-232 440q-10 17 10 17h107q20 0 30 -17l160 -324l172 323q8 18 29 18h82q19 0 11 -18l-243 -439v-243q0 -20 -20 -20zM469 830h-310q-20 0 -20 20v30q0 20 20 20h310q20 0 20 -20v-30q0 -20 -20 -20z" />
    <glyph glyph-name="uni0233" unicode="&#x233;" horiz-adv-x="524" 
d="M209 -220h-89q-21 0 -12 18l94 210l-189 494q-9 18 12 18h92q20 0 26 -19l121 -382l122 382q7 19 27 19h86q21 0 12 -18l-274 -704q-9 -18 -28 -18zM417 630h-310q-20 0 -20 20v30q0 20 20 20h310q20 0 20 -20v-30q0 -20 -20 -20z" />
    <glyph glyph-name="dotlessj" unicode="&#x237;" horiz-adv-x="220" 
d="M32 -220h-17q-20 0 -20 20v44q0 20 20 20h7q11 0 19.5 20t8.5 59v557q0 20 20 20h80q20 0 20 -20v-564q0 -156 -138 -156z" />
    <glyph glyph-name="uni0259" unicode="&#x259;" horiz-adv-x="516" 
d="M354 219h-154q-24 0 -31.5 -6t-7.5 -28q0 -46 24.5 -79.5t63.5 -33.5q94 0 105 147zM476 266q0 -125 -53.5 -201.5t-168.5 -76.5q-95 0 -154.5 55t-59.5 160q0 58 23.5 79t85.5 21l205 -1q-13 147 -125 147q-15 0 -31.5 -3t-26.5 -6.5t-24 -9t-17 -6.5q-20 -7 -26 2
l-21 32q-11 16 1 26q18 17 61.5 33t88.5 16q133 0 187.5 -72t54.5 -195z" />
    <glyph glyph-name="circumflex" unicode="&#x2c6;" horiz-adv-x="376" 
d="M193 684l-62 -62q-14 -14 -34 -14h-34q-20 0 -8 16l72 100q12 16 32 16h68q20 0 32 -16l72 -100q12 -16 -8 -16h-34q-20 0 -34 14z" />
    <glyph glyph-name="caron" unicode="&#x2c7;" horiz-adv-x="376" 
d="M131 726l62 -62l62 62q14 14 34 14h34q20 0 8 -16l-72 -100q-12 -16 -32 -16h-68q-20 0 -32 16l-72 100q-12 16 8 16h34q20 0 34 -14z" />
    <glyph glyph-name="breve" unicode="&#x2d8;" horiz-adv-x="378" 
d="M66 740h43q8 0 13 -10q14 -43 68 -43t67 43q2 10 14 10h42q6 0 10.5 -5t4.5 -11q-1 -53 -40.5 -85t-97.5 -32q-53 0 -94 31t-45 86q-1 7 3.5 11.5t11.5 4.5z" />
    <glyph glyph-name="dotaccent" unicode="&#x2d9;" horiz-adv-x="220" 
d="M150 620h-80q-20 0 -20 20v80q0 20 20 20h80q20 0 20 -20v-80q0 -20 -20 -20z" />
    <glyph glyph-name="ring" unicode="&#x2da;" horiz-adv-x="286" 
d="M50 668q0 39 27.5 66t65.5 27q40 0 66.5 -26.5t26.5 -66.5q0 -38 -27 -65.5t-66 -27.5q-37 0 -65 27.5t-28 65.5zM92 668q0 -20 15.5 -35.5t35.5 -15.5q21 0 36 14.5t15 36.5t-14 36.5t-37 14.5q-22 0 -36.5 -15.5t-14.5 -35.5z" />
    <glyph glyph-name="ogonek" unicode="&#x2db;" horiz-adv-x="254" 
d="M108 0h84l-37 -58q-15 -25 -15 -43q0 -21 20 -21q4 0 9.5 3.5t6.5 3.5q15 14 24 -11q1 -3 3.5 -10t4.5 -10q1 -4 1.5 -6.5t-1 -5t-2.5 -3.5t-5 -4t-6 -5q-30 -24 -67 -26q-78 3 -78 71q0 46 29 85z" />
    <glyph glyph-name="tilde" unicode="&#x2dc;" horiz-adv-x="381" 
d="M96 609h-30q-7 0 -11.5 5t-4.5 11q4 99 88 99q22 0 66 -19q37 -16 40 -16q10 0 18.5 16.5t23.5 16.5h30q6 0 10.5 -5t4.5 -11q-1 -44 -22 -71.5t-65 -27.5q-14 0 -34 8q-71 27 -72 27q-10 0 -20.5 -16.5t-21.5 -16.5z" />
    <glyph glyph-name="hungarumlaut" unicode="&#x2dd;" horiz-adv-x="498" 
d="M54 625l60 98q11 17 31 17h91q20 0 5 -14l-111 -104q-15 -14 -35 -14h-31q-20 0 -10 17zM253 625l60 98q11 17 31 17h91q20 0 5 -14l-111 -104q-15 -14 -35 -14h-31q-20 0 -10 17z" />
    <glyph glyph-name="gravecomb" unicode="&#x300;" horiz-adv-x="299" 
d="M185 723l60 -98q10 -17 -10 -17h-31q-20 0 -35 14l-111 104q-15 14 5 14h91q20 0 31 -17z" />
    <glyph glyph-name="acutecomb" unicode="&#x301;" horiz-adv-x="299" 
d="M54 625l60 98q11 17 31 17h91q20 0 5 -14l-111 -104q-15 -14 -35 -14h-31q-20 0 -10 17z" />
    <glyph glyph-name="uni0302" unicode="&#x302;" horiz-adv-x="376" 
d="M193 684l-62 -62q-14 -14 -34 -14h-34q-20 0 -8 16l72 100q12 16 32 16h68q20 0 32 -16l72 -100q12 -16 -8 -16h-34q-20 0 -34 14z" />
    <glyph glyph-name="tildecomb" unicode="&#x303;" horiz-adv-x="381" 
d="M96 609h-30q-7 0 -11.5 5t-4.5 11q4 99 88 99q22 0 66 -19q37 -16 40 -16q10 0 18.5 16.5t23.5 16.5h30q6 0 10.5 -5t4.5 -11q-1 -44 -22 -71.5t-65 -27.5q-14 0 -34 8q-71 27 -72 27q-10 0 -20.5 -16.5t-21.5 -16.5z" />
    <glyph glyph-name="uni0304" unicode="&#x304;" horiz-adv-x="450" 
d="M380 630h-310q-20 0 -20 20v30q0 20 20 20h310q20 0 20 -20v-30q0 -20 -20 -20z" />
    <glyph glyph-name="uni0306" unicode="&#x306;" horiz-adv-x="378" 
d="M66 740h43q8 0 13 -10q14 -43 68 -43t67 43q2 10 14 10h42q6 0 10.5 -5t4.5 -11q-1 -53 -40.5 -85t-97.5 -32q-53 0 -94 31t-45 86q-1 7 3.5 11.5t11.5 4.5z" />
    <glyph glyph-name="uni0307" unicode="&#x307;" horiz-adv-x="220" 
d="M150 620h-80q-20 0 -20 20v80q0 20 20 20h80q20 0 20 -20v-80q0 -20 -20 -20z" />
    <glyph glyph-name="uni0308" unicode="&#x308;" horiz-adv-x="400" 
d="M140 610h-70q-20 0 -20 20v70q0 20 20 20h70q20 0 20 -20v-70q0 -20 -20 -20zM330 610h-70q-20 0 -20 20v70q0 20 20 20h70q20 0 20 -20v-70q0 -20 -20 -20z" />
    <glyph glyph-name="hookabovecomb" unicode="&#x309;" horiz-adv-x="311" 
d="M176 610h-43q-10 0 -10 10v7q0 43 32 68q5 4 12.5 11t17.5 21.5t10 26.5q0 19 -12 31.5t-36 12.5q-22 0 -73 -12q-12 -3 -13 1l-8 21q-3 9 0 13q10 7 42 16t60 9q44 0 73 -22.5t32 -69.5q1 -30 -37 -68q-37 -37 -37 -59v-7q0 -10 -10 -10z" />
    <glyph glyph-name="uni030A" unicode="&#x30a;" horiz-adv-x="286" 
d="M50 668q0 39 27.5 66t65.5 27q40 0 66.5 -26.5t26.5 -66.5q0 -38 -27 -65.5t-66 -27.5q-37 0 -65 27.5t-28 65.5zM92 668q0 -20 15.5 -35.5t35.5 -15.5q21 0 36 14.5t15 36.5t-14 36.5t-37 14.5q-22 0 -36.5 -15.5t-14.5 -35.5z" />
    <glyph glyph-name="uni030B" unicode="&#x30b;" horiz-adv-x="498" 
d="M54 625l60 98q11 17 31 17h91q20 0 5 -14l-111 -104q-15 -14 -35 -14h-31q-20 0 -10 17zM253 625l60 98q11 17 31 17h91q20 0 5 -14l-111 -104q-15 -14 -35 -14h-31q-20 0 -10 17z" />
    <glyph glyph-name="uni030C" unicode="&#x30c;" horiz-adv-x="376" 
d="M131 726l62 -62l62 62q14 14 34 14h34q20 0 8 -16l-72 -100q-12 -16 -32 -16h-68q-20 0 -32 16l-72 100q-12 16 8 16h34q20 0 34 -14z" />
    <glyph glyph-name="uni030F" unicode="&#x30f;" horiz-adv-x="498" 
d="M384 723l60 -98q10 -17 -10 -17h-31q-20 0 -35 14l-111 104q-15 14 5 14h91q20 0 31 -17zM185 723l60 -98q10 -17 -10 -17h-31q-20 0 -35 14l-111 104q-15 14 5 14h91q20 0 31 -17z" />
    <glyph glyph-name="uni0310" unicode="&#x310;" horiz-adv-x="378" 
d="M66 740h43q8 0 13 -10q14 -43 68 -43t67 43q2 10 14 10h42q6 0 10.5 -5t4.5 -11q-1 -53 -40.5 -85t-97.5 -32q-53 0 -94 31t-45 86q-1 7 3.5 11.5t11.5 4.5zM229 775h-80q-20 0 -20 20v80q0 20 20 20h80q20 0 20 -20v-80q0 -20 -20 -20z" />
    <glyph glyph-name="uni0311" unicode="&#x311;" horiz-adv-x="378" 
d="M109 607h-43q-7 0 -11.5 4.5t-3.5 11.5q4 55 45 86t94 31q58 0 97.5 -32t40.5 -85q0 -6 -4.5 -11t-10.5 -5h-42q-12 0 -14 10q-13 43 -67 43t-68 -43q-5 -10 -13 -10z" />
    <glyph glyph-name="uni0316" unicode="&#x316;" horiz-adv-x="299" 
d="M185 -77l60 -98q10 -17 -10 -17h-31q-20 0 -35 14l-111 104q-15 14 5 14h91q20 0 31 -17z" />
    <glyph glyph-name="uni0317" unicode="&#x317;" horiz-adv-x="299" 
d="M54 -175l60 98q11 17 31 17h91q20 0 5 -14l-111 -104q-15 -14 -35 -14h-31q-20 0 -10 17z" />
    <glyph glyph-name="dotbelowcomb" unicode="&#x323;" horiz-adv-x="220" 
d="M150 -240h-80q-20 0 -20 20v80q0 20 20 20h80q20 0 20 -20v-80q0 -20 -20 -20z" />
    <glyph glyph-name="uni0324" unicode="&#x324;" horiz-adv-x="400" 
d="M140 -230h-70q-20 0 -20 20v70q0 20 20 20h70q20 0 20 -20v-70q0 -20 -20 -20zM330 -230h-70q-20 0 -20 20v70q0 20 20 20h70q20 0 20 -20v-70q0 -20 -20 -20z" />
    <glyph glyph-name="uni0325" unicode="&#x325;" horiz-adv-x="286" 
d="M50 -168q0 39 27.5 66t65.5 27q40 0 66.5 -26.5t26.5 -66.5q0 -38 -27 -65.5t-66 -27.5q-37 0 -65 27.5t-28 65.5zM92 -168q0 -20 15.5 -35.5t35.5 -15.5q21 0 36 14.5t15 36.5t-14 36.5t-37 14.5q-22 0 -36.5 -15.5t-14.5 -35.5z" />
    <glyph glyph-name="uni032C" unicode="&#x32c;" horiz-adv-x="386" 
d="M131 -114l62 -62l62 62q14 14 34 14h34q20 0 8 -16l-72 -100q-12 -16 -32 -16h-68q-20 0 -32 16l-72 100q-12 16 8 16h34q20 0 34 -14z" />
    <glyph glyph-name="uni032D" unicode="&#x32d;" horiz-adv-x="386" 
d="M193 -156l-62 -62q-14 -14 -34 -14h-34q-20 0 -8 16l72 100q12 16 32 16h68q20 0 32 -16l72 -100q12 -16 -8 -16h-34q-20 0 -34 14z" />
    <glyph glyph-name="uni032E" unicode="&#x32e;" horiz-adv-x="378" 
d="M66 -100h43q8 0 13 -10q14 -43 68 -43t67 43q2 10 14 10h42q6 0 10.5 -5t4.5 -11q-1 -53 -40.5 -85t-97.5 -32q-53 0 -94 31t-45 86q-1 7 3.5 11.5t11.5 4.5z" />
    <glyph glyph-name="uni032F" unicode="&#x32f;" horiz-adv-x="378" 
d="M109 -233h-43q-7 0 -11.5 4.5t-3.5 11.5q4 55 45 86t94 31q58 0 97.5 -32t40.5 -85q0 -6 -4.5 -11t-10.5 -5h-42q-12 0 -14 10q-13 43 -67 43t-68 -43q-5 -10 -13 -10z" />
    <glyph glyph-name="uni0330" unicode="&#x330;" horiz-adv-x="381" 
d="M96 -231h-30q-7 0 -11.5 5t-4.5 11q4 99 88 99q22 0 66 -19q37 -16 40 -16q10 0 18.5 16.5t23.5 16.5h30q6 0 10.5 -5t4.5 -11q-1 -44 -22 -71.5t-65 -27.5q-14 0 -34 8q-71 27 -72 27q-10 0 -20.5 -16.5t-21.5 -16.5z" />
    <glyph glyph-name="uni0331" unicode="&#x331;" horiz-adv-x="450" 
d="M380 -170h-310q-20 0 -20 20v30q0 20 20 20h310q20 0 20 -20v-30q0 -20 -20 -20z" />
    <glyph glyph-name="uni0400" unicode="&#x400;" horiz-adv-x="483" 
d="M423 0h-353q-20 0 -20 20v680q0 20 20 20h353q20 0 20 -20v-50q0 -20 -20 -20h-247v-221h197q20 0 20 -20v-50q0 -20 -20 -20h-197v-229h247q20 0 20 -20v-50q0 -20 -20 -20zM277 923l60 -98q10 -17 -10 -17h-31q-20 0 -35 14l-111 104q-15 14 5 14h91q20 0 31 -17z" />
    <glyph glyph-name="uni0401" unicode="&#x401;" horiz-adv-x="483" 
d="M423 0h-353q-20 0 -20 20v680q0 20 20 20h353q20 0 20 -20v-50q0 -20 -20 -20h-247v-221h197q20 0 20 -20v-50q0 -20 -20 -20h-197v-229h247q20 0 20 -20v-50q0 -20 -20 -20zM181 810h-70q-20 0 -20 20v70q0 20 20 20h70q20 0 20 -20v-70q0 -20 -20 -20zM371 810h-70
q-20 0 -20 20v70q0 20 20 20h70q20 0 20 -20v-70q0 -20 -20 -20z" />
    <glyph glyph-name="uni0402" unicode="&#x402;" horiz-adv-x="618" 
d="M298 20v44q0 20 20 20q133 1 133 140q0 60 -32 100.5t-104 40.5h-86v-345q0 -20 -20 -20h-86q-20 0 -20 20v610h-63q-20 0 -20 20v50q0 20 20 20h366q20 0 20 -20v-50q0 -20 -20 -20h-177v-181h120q109 0 168.5 -65.5t59.5 -158.5q0 -96 -65.5 -160.5t-163.5 -64.5h-30
q-20 0 -20 20z" />
    <glyph glyph-name="uni0403" unicode="&#x403;" horiz-adv-x="453" 
d="M156 0h-86q-20 0 -20 20v680q0 20 20 20h353q20 0 20 -20v-50q0 -20 -20 -20h-247v-610q0 -20 -20 -20zM209 825l60 98q11 17 31 17h91q20 0 5 -14l-111 -104q-15 -14 -35 -14h-31q-20 0 -10 17z" />
    <glyph glyph-name="uni0404" unicode="&#x404;" horiz-adv-x="639" 
d="M578 105l16 -37q8 -23 -1 -31q-22 -16 -81.5 -32.5t-118.5 -16.5q-156 0 -254.5 96t-98.5 276q0 181 98 276.5t255 95.5q59 0 118.5 -16.5t81.5 -32.5q8 -7 1 -26l-16 -42q-6 -8 -26 -2q-93 24 -159 24q-90 0 -149 -55t-70 -173h299q20 0 20 -20v-50q0 -20 -20 -20h-300
q9 -122 69 -179t151 -57q66 0 159 24q20 7 26 -2z" />
    <glyph glyph-name="uni0405" unicode="&#x405;" horiz-adv-x="555" 
d="M306 281l-97 38q-164 64 -164 203q0 95 70 152.5t173 57.5q60 0 124 -17.5t82 -31.5q8 -6 1 -26l-16 -42q-3 -9 -26 -2q-89 24 -159 24q-72 0 -102.5 -31t-30.5 -72q0 -61 86 -94l96 -36q84 -31 128 -89.5t44 -127.5q0 -91 -71.5 -145t-187.5 -54q-59 0 -124.5 16.5
t-85.5 32.5q-8 7 -1 26l16 42q3 9 26 2q89 -24 168 -24q65 0 104.5 26t39.5 67q0 34 -26 61.5t-67 43.5z" />
    <glyph glyph-name="uni0406" unicode="&#x406;" horiz-adv-x="226" 
d="M156 0h-86q-20 0 -20 20v680q0 20 20 20h86q20 0 20 -20v-680q0 -20 -20 -20z" />
    <glyph glyph-name="uni0407" unicode="&#x407;" horiz-adv-x="226" 
d="M156 0h-86q-20 0 -20 20v680q0 20 20 20h86q20 0 20 -20v-680q0 -20 -20 -20zM53 810h-70q-20 0 -20 20v70q0 20 20 20h70q20 0 20 -20v-70q0 -20 -20 -20zM243 810h-70q-20 0 -20 20v70q0 20 20 20h70q20 0 20 -20v-70q0 -20 -20 -20z" />
    <glyph glyph-name="uni0408" unicode="&#x408;" horiz-adv-x="356" 
d="M10 22v48q0 20 20 20h13q76 0 111.5 42.5t35.5 147.5v420q0 20 20 20h86q20 0 20 -20v-441q-1 -125 -68 -192t-182 -67l-38 1q-18 1 -18 21z" />
    <glyph glyph-name="uni0409" unicode="&#x409;" horiz-adv-x="925" 
d="M145 720h379q20 0 20 -20v-199h84q111 0 184 -73t73 -177q0 -106 -72.5 -178.5t-184.5 -72.5h-190q-20 0 -20 20v610h-182l-45 -474q-9 -81 -41 -118.5t-103 -37.5h-17q-20 0 -20 20v44q0 20 20 20h7q28 0 38 79l49 537q1 20 21 20zM544 89h64q151 2 151 162
q0 161 -151 161h-64v-323z" />
    <glyph glyph-name="uni040A" unicode="&#x40a;" horiz-adv-x="940" 
d="M453 720h86q20 0 20 -20v-199h84q111 0 184 -73t73 -177q0 -106 -72.5 -178.5t-184.5 -72.5h-190q-20 0 -20 20v304h-257v-304q0 -20 -20 -20h-86q-20 0 -20 20v680q0 20 20 20h86q20 0 20 -20v-286h257v286q0 20 20 20zM559 89h64q151 2 151 162q0 161 -151 161h-64
v-323z" />
    <glyph glyph-name="uni040B" unicode="&#x40b;" horiz-adv-x="618" 
d="M123 0q-20 0 -20 20v610h-63q-20 0 -20 20v50q0 20 20 20h366q20 0 20 -20v-50q0 -20 -20 -20h-177v-181h120q109 0 168 -65.5t60 -158.5v-205q0 -20 -20 -20h-86q-20 0 -20 20v204q0 60 -32 100.5t-104 40.5h-86v-345q0 -20 -20 -20h-86z" />
    <glyph glyph-name="uni040C" unicode="&#x40c;" horiz-adv-x="637" 
d="M567 0h-118q-20 0 -32 16l-241 311v-307q0 -20 -20 -20h-86q-20 0 -20 20v680q0 20 20 20h86q20 0 20 -20v-308l248 312q12 16 32 16h103q20 0 8 -16l-279 -335l287 -353q12 -16 -8 -16zM251 825l60 98q11 17 31 17h91q20 0 5 -14l-111 -104q-15 -14 -35 -14h-31
q-20 0 -10 17z" />
    <glyph glyph-name="uni040D" unicode="&#x40d;" horiz-adv-x="636" 
d="M586 700v-680q0 -20 -20 -20h-86q-20 0 -20 20v464h-2l-285 -468q-13 -16 -33 -16h-70q-20 0 -20 20v680q0 20 20 20h86q20 0 20 -20v-464h2l285 468q13 16 33 16h70q20 0 20 -20zM293 923l60 -98q10 -17 -10 -17h-31q-20 0 -35 14l-111 104q-15 14 5 14h91q20 0 31 -17z
" />
    <glyph glyph-name="uni040E" unicode="&#x40e;" horiz-adv-x="534" 
d="M239 0h-89q-19 0 -12 18l69 180l-194 504q-7 18 12 18h102q20 0 26 -19l121 -382l122 382q6 19 27 19h86q19 0 12 -18l-254 -684q-6 -18 -28 -18zM144 940h43q8 0 13 -10q14 -43 68 -43t67 43q2 10 14 10h42q6 0 10.5 -5t4.5 -11q-1 -53 -40.5 -85t-97.5 -32
q-53 0 -94 31t-45 86q-1 7 3.5 11.5t11.5 4.5z" />
    <glyph glyph-name="uni040F" unicode="&#x40f;" horiz-adv-x="609" 
d="M347 -190h-86q-20 0 -20 20v170h-171q-20 0 -20 20v680q0 20 20 20h86q20 0 20 -20v-610h257v610q0 20 20 20h86q20 0 20 -20v-680q0 -20 -20 -20h-172v-170q0 -20 -20 -20z" />
    <glyph glyph-name="uni0410" unicode="&#x410;" horiz-adv-x="672" 
d="M647 0h-95q-20 0 -27 19l-62 158h-284l-62 -158q-7 -19 -27 -19h-65q-21 0 -12 18l273 684q8 18 28 18h44q20 0 28 -18l273 -684q9 -18 -12 -18zM430 261l-89 259l-20 75l-19 -75l-90 -259h218z" />
    <glyph glyph-name="uni0411" unicode="&#x411;" 
d="M295 0h-225q-20 0 -20 20v680q0 20 20 20h383q20 0 20 -20v-50q0 -20 -20 -20h-277v-181h120q109 0 168.5 -65.5t59.5 -158.5q0 -96 -65.5 -160.5t-163.5 -64.5zM176 84h86q136 0 136 140q0 60 -32 100.5t-104 40.5h-86v-281z" />
    <glyph glyph-name="uni0412" unicode="&#x412;" 
d="M295 0h-225q-20 0 -20 20v680q0 20 20 20h148q118 0 185.5 -49.5t67.5 -140.5q0 -105 -95 -150v-2q71 -11 109.5 -57.5t38.5 -115.5q0 -87 -66 -146t-163 -59zM176 409h60q46 0 77.5 32.5t31.5 86.5q0 51 -31.5 79.5t-96.5 28.5h-41v-227zM176 84h86q136 0 136 120
q0 51 -32 86t-104 35h-86v-241z" />
    <glyph glyph-name="uni0413" unicode="&#x413;" horiz-adv-x="453" 
d="M156 0h-86q-20 0 -20 20v680q0 20 20 20h353q20 0 20 -20v-50q0 -20 -20 -20h-247v-610q0 -20 -20 -20z" />
    <glyph glyph-name="uni0414" unicode="&#x414;" horiz-adv-x="640" 
d="M630 70v-240q0 -20 -20 -20h-66q-20 0 -20 20l-20 170h-368l-20 -170q0 -20 -20 -20h-66q-20 0 -20 20v234q0 20 20 20h17q32 0 38 79l49 537q3 20 21 20h379q20 0 20 -20v-610h56q20 0 20 -20zM187 90h241v540h-177l-40 -474q-4 -35 -24 -66z" />
    <glyph glyph-name="uni0415" unicode="&#x415;" horiz-adv-x="483" 
d="M423 0h-353q-20 0 -20 20v680q0 20 20 20h353q20 0 20 -20v-50q0 -20 -20 -20h-247v-221h197q20 0 20 -20v-50q0 -20 -20 -20h-197v-229h247q20 0 20 -20v-50q0 -20 -20 -20z" />
    <glyph glyph-name="uni0416" unicode="&#x416;" horiz-adv-x="894" 
d="M871 0h-118q-20 0 -32 16l-211 311v-307q0 -20 -20 -20h-86q-20 0 -20 20v307l-211 -311q-13 -16 -32 -16h-118q-20 0 -8 16l257 353l-249 335q-12 16 8 16h103q20 0 32 -16l218 -312v308q0 20 20 20h86q20 0 20 -20v-308l218 312q10 16 32 16h103q20 0 8 -16l-249 -335
l257 -353q12 -16 -8 -16z" />
    <glyph glyph-name="uni0417" unicode="&#x417;" 
d="M253 -11q-59 0 -124.5 16.5t-85.5 32.5q-8 7 -1 26l16 42q3 9 26 2q89 -24 168 -24q146 0 146 120q0 51 -32 86t-104 35h-66q-20 0 -20 20v44q0 20 20 20h40q54 0 91.5 32.5t37.5 86.5q0 51 -31.5 79.5t-96.5 28.5q-54 0 -129 -24q-23 -7 -26 2l-16 42q-7 19 1 26
q20 16 69.5 32.5t100.5 16.5q117 0 185.5 -54.5t68.5 -146.5q0 -104 -115 -150v-2q71 -11 109.5 -57.5t38.5 -115.5q0 -92 -78 -154t-193 -62z" />
    <glyph glyph-name="uni0418" unicode="&#x418;" horiz-adv-x="636" 
d="M586 700v-680q0 -20 -20 -20h-86q-20 0 -20 20v464h-2l-285 -468q-13 -16 -33 -16h-70q-20 0 -20 20v680q0 20 20 20h86q20 0 20 -20v-464h2l285 468q13 16 33 16h70q20 0 20 -20z" />
    <glyph glyph-name="uni0419" unicode="&#x419;" horiz-adv-x="636" 
d="M586 700v-680q0 -20 -20 -20h-86q-20 0 -20 20v464h-2l-285 -468q-13 -16 -33 -16h-70q-20 0 -20 20v680q0 20 20 20h86q20 0 20 -20v-464h2l285 468q13 16 33 16h70q20 0 20 -20zM195 940h43q8 0 13 -10q14 -43 68 -43t67 43q2 10 14 10h42q6 0 10.5 -5t4.5 -11
q-1 -53 -40.5 -85t-97.5 -32q-53 0 -94 31t-45 86q-1 7 3.5 11.5t11.5 4.5z" />
    <glyph glyph-name="uni041A" unicode="&#x41a;" horiz-adv-x="637" 
d="M567 0h-118q-20 0 -32 16l-241 311v-307q0 -20 -20 -20h-86q-20 0 -20 20v680q0 20 20 20h86q20 0 20 -20v-308l248 312q12 16 32 16h103q20 0 8 -16l-279 -335l287 -353q12 -16 -8 -16z" />
    <glyph glyph-name="uni041B" unicode="&#x41b;" horiz-adv-x="594" 
d="M524 0h-86q-20 0 -20 20v610h-182l-45 -474q-9 -81 -41 -118.5t-103 -37.5h-17q-20 0 -20 20v44q0 20 20 20h7q28 0 38 79l49 537q1 20 21 20h379q20 0 20 -20v-680q0 -20 -20 -20z" />
    <glyph glyph-name="uni041C" unicode="&#x41c;" horiz-adv-x="835" 
d="M765 0h-86q-20 0 -20 20v280l10 201h-2l-202 -483q-8 -18 -29 -18h-65q-20 0 -30 17l-193 484h-2l10 -201v-280q0 -20 -20 -20h-66q-20 0 -20 20v680q0 20 20 20h91q20 0 30 -17l225 -546l238 545q10 18 30 18h81q20 0 20 -20v-680q0 -20 -20 -20z" />
    <glyph glyph-name="uni041D" unicode="&#x41d;" horiz-adv-x="609" 
d="M539 0h-86q-20 0 -20 20v304h-257v-304q0 -20 -20 -20h-86q-20 0 -20 20v680q0 20 20 20h86q20 0 20 -20v-286h257v286q0 20 20 20h86q20 0 20 -20v-680q0 -20 -20 -20z" />
    <glyph glyph-name="uni041E" unicode="&#x41e;" horiz-adv-x="786" 
d="M393 -12q-156 0 -254.5 96t-98.5 276q0 181 98 276.5t255 95.5t255 -95.5t98 -276.5q0 -180 -98.5 -276t-254.5 -96zM393 83q98 0 159.5 67t61.5 210t-61 210t-160 67t-160 -67t-61 -210t61.5 -210t159.5 -67z" />
    <glyph glyph-name="uni041F" unicode="&#x41f;" horiz-adv-x="609" 
d="M539 0h-86q-20 0 -20 20v610h-257v-610q0 -20 -20 -20h-86q-20 0 -20 20v680q0 20 20 20h469q20 0 20 -20v-680q0 -20 -20 -20z" />
    <glyph glyph-name="uni0420" unicode="&#x420;" horiz-adv-x="557" 
d="M156 0h-86q-20 0 -20 20v680q0 20 20 20h190q112 0 184.5 -72.5t72.5 -178.5q0 -104 -73 -177t-184 -73h-84v-199q0 -20 -20 -20zM176 308h64q151 0 151 161q0 160 -151 162h-64v-323z" />
    <glyph glyph-name="uni0421" unicode="&#x421;" horiz-adv-x="639" 
d="M578 105l16 -37q8 -23 -1 -31q-22 -16 -81.5 -32.5t-118.5 -16.5q-156 0 -254.5 96t-98.5 276q0 181 98 276.5t255 95.5q59 0 118.5 -16.5t81.5 -32.5q8 -7 1 -26l-16 -42q-6 -8 -26 -2q-93 24 -159 24q-99 0 -160 -67t-61 -210t61.5 -210t159.5 -67q66 0 159 24
q20 7 26 -2z" />
    <glyph glyph-name="uni0422" unicode="&#x422;" horiz-adv-x="480" 
d="M283 0h-86q-20 0 -20 20v610h-147q-20 0 -20 20v50q0 20 20 20h420q20 0 20 -20v-50q0 -20 -20 -20h-147v-610q0 -20 -20 -20z" />
    <glyph glyph-name="uni0423" unicode="&#x423;" horiz-adv-x="534" 
d="M239 0h-89q-19 0 -12 18l69 180l-194 504q-7 18 12 18h102q20 0 26 -19l121 -382l122 382q6 19 27 19h86q19 0 12 -18l-254 -684q-6 -18 -28 -18z" />
    <glyph glyph-name="uni0424" unicode="&#x424;" horiz-adv-x="786" 
d="M436 0h-86q-20 0 -20 20v51q-136 14 -218 88.5t-82 200.5t82 200t218 88v52q0 20 20 20h86q20 0 20 -20v-52q136 -14 218 -88t82 -200t-82.5 -200.5t-217.5 -88.5v-51q0 -20 -20 -20zM624 360q0 163 -168 191v-382q168 28 168 191zM162 360q0 -163 168 -191v382
q-168 -28 -168 -191z" />
    <glyph glyph-name="uni0425" unicode="&#x425;" horiz-adv-x="587" 
d="M559 0h-94q-24 0 -37 19l-142 249l-149 -249q-11 -19 -38 -19h-71q-16 0 -17.5 5t6.5 17l205 346l-194 330q-7 12 -5 17t16 5h94q27 0 37 -19l127 -229l137 229q11 19 39 19h70q16 0 18 -5t-7 -17l-194 -320l211 -356q15 -22 -12 -22z" />
    <glyph glyph-name="uni0426" unicode="&#x426;" horiz-adv-x="645" 
d="M615 -190h-66q-20 0 -20 20l-20 170h-439q-20 0 -20 20v680q0 20 20 20h86q20 0 20 -20v-610h257v610q0 20 20 20h86q20 0 20 -20v-610h56q20 0 20 -20v-240q0 -20 -20 -20z" />
    <glyph glyph-name="uni0427" unicode="&#x427;" horiz-adv-x="567" 
d="M517 700v-680q0 -20 -20 -20h-86q-20 0 -20 20v211q-37 -12 -81 -12q-117 0 -193.5 72.5t-76.5 177.5v231q0 20 20 20h86q20 0 20 -20v-231q0 -161 161 -161q35 0 64 9v383q0 20 20 20h86q20 0 20 -20z" />
    <glyph glyph-name="uni0428" unicode="&#x428;" horiz-adv-x="809" 
d="M653 720h86q20 0 20 -20v-680q0 -20 -20 -20h-669q-20 0 -20 20v680q0 20 20 20h86q20 0 20 -20v-610h165v610q0 20 20 20h86q20 0 20 -20v-610h166v610q0 20 20 20z" />
    <glyph glyph-name="uni0429" unicode="&#x429;" horiz-adv-x="845" 
d="M709 0h-639q-20 0 -20 20v680q0 20 20 20h86q20 0 20 -20v-610h165v610q0 20 20 20h86q20 0 20 -20v-610h166v610q0 20 20 20h86q20 0 20 -20v-610h56q20 0 20 -20v-240q0 -20 -20 -20h-66q-20 0 -20 20z" />
    <glyph glyph-name="uni042A" unicode="&#x42a;" horiz-adv-x="644" 
d="M137 630h-107q-20 0 -20 20v50q0 20 20 20h213q20 0 20 -20v-239h84q111 0 184 -67t73 -163q0 -97 -72.5 -164t-184.5 -67h-190q-20 0 -20 20v610zM263 89h64q151 2 151 142q0 141 -151 141h-64v-283z" />
    <glyph glyph-name="uni042B" unicode="&#x42b;" horiz-adv-x="753" 
d="M260 0h-190q-20 0 -20 20v680q0 20 20 20h86q20 0 20 -20v-239h84q111 0 184 -67t73 -163q0 -97 -72.5 -164t-184.5 -67zM176 89h64q151 2 151 142q0 141 -151 141h-64v-283zM683 0h-86q-20 0 -20 20v680q0 20 20 20h86q20 0 20 -20v-680q0 -20 -20 -20z" />
    <glyph glyph-name="uni042C" unicode="&#x42c;" horiz-adv-x="557" 
d="M260 0h-190q-20 0 -20 20v680q0 20 20 20h86q20 0 20 -20v-239h84q111 0 184 -67t73 -163q0 -97 -72.5 -164t-184.5 -67zM176 89h64q151 2 151 142q0 141 -151 141h-64v-283z" />
    <glyph glyph-name="uni042D" unicode="&#x42d;" horiz-adv-x="639" 
d="M167 409h299q-11 118 -70.5 173t-148.5 55q-66 0 -159 -24q-20 -6 -26 2l-16 42q-7 19 1 26q22 16 81.5 32.5t118.5 16.5q157 0 255 -95.5t98 -276.5q0 -180 -98.5 -276t-254.5 -96q-59 0 -118.5 16.5t-81.5 32.5q-9 9 -1 31l16 37q6 9 26 2q93 -24 159 -24q90 0 150 57
t69 179h-299q-20 0 -20 20v50q0 20 20 20z" />
    <glyph glyph-name="uni042E" unicode="&#x42e;" horiz-adv-x="962" 
d="M156 0h-86q-20 0 -20 20v680q0 20 20 20h86q20 0 20 -20v-286h82q15 155 105 236.5t226 81.5q148 0 240.5 -95.5t92.5 -276.5t-92.5 -276.5t-240.5 -95.5q-140 0 -231.5 86t-100.5 250h-81v-304q0 -20 -20 -20zM589 83q89 0 145 67t56 210t-55.5 210t-145.5 67
t-145.5 -67t-55.5 -210t56 -210t145 -67z" />
    <glyph glyph-name="uni042F" unicode="&#x42f;" horiz-adv-x="567" 
d="M517 700v-680q0 -20 -20 -20h-86q-20 0 -20 20v199h-78l-127 -202q-10 -17 -30 -17h-110q-20 0 -8 16l153 228q-65 31 -103 91.5t-38 133.5q0 106 72.5 178.5t184.5 72.5h190q20 0 20 -20zM327 308h64v323h-64q-151 -2 -151 -162q0 -161 151 -161z" />
    <glyph glyph-name="uni0430" unicode="&#x430;" horiz-adv-x="514" 
d="M454 0h-50q-10 0 -14 4.5t-6 15.5l-10 41h-2q-40 -73 -144 -73q-81 0 -134.5 46.5t-53.5 134.5q0 163 209 163h103q-2 19 -7.5 36.5t-17 37t-33.5 31.5t-51 12q-33 0 -113 -25q-20 -6 -26 2l-21 32q-9 14 1 26q16 18 66.5 33.5t106.5 15.5q217 0 217 -267v-246
q0 -20 -20 -20zM354 219v29h-105q-40 0 -64 -20t-24 -56q0 -37 23.5 -68.5t71.5 -31.5q98 0 98 147z" />
    <glyph glyph-name="uni0431" unicode="&#x431;" 
d="M137 419h2q35 114 156 114q65 0 111 -22.5t71 -63t36 -87.5t11 -105q0 -59 -11.5 -104t-38 -83.5t-76.5 -59t-122 -20.5q-59 0 -101 15t-68 40.5t-41 68t-20.5 89.5t-5.5 113q0 70 5.5 127.5t17.5 99t26 73.5t35.5 53t41 34.5t48.5 21.5t52 11.5t56 5.5q21 1 28 1.5
t17 2.5t13.5 3.5t19.5 7t31 10.5q21 7 26 -2q4 -7 10.5 -21t10.5 -21q10 -17 -1 -26q-14 -14 -35.5 -23.5t-32.5 -12.5t-44 -7.5t-38 -5.5q-39 -6 -63.5 -11.5t-45 -17t-31 -23t-20.5 -35.5t-15 -49t-12 -70zM282 78q69 0 95.5 48.5t26.5 133.5t-26.5 134t-95.5 49
t-95.5 -49t-26.5 -134t26.5 -133.5t95.5 -48.5z" />
    <glyph glyph-name="uni0432" unicode="&#x432;" horiz-adv-x="490" 
d="M255 0h-191q-14 0 -14 14v492q0 14 14 14h136q99 0 155.5 -36.5t56.5 -100.5q0 -79 -98 -109v-2q64 -7 100 -40t36 -83q0 -64 -55.5 -106.5t-139.5 -42.5zM170 304h43q32 0 55 17.5t23 49.5q0 30 -23.5 48t-68.5 18h-29v-133zM170 84h62q54 0 76 21t22 50q0 30 -23 49.5
t-75 19.5h-62v-140z" />
    <glyph glyph-name="uni0433" unicode="&#x433;" horiz-adv-x="353" 
d="M150 0h-80q-20 0 -20 20v480q0 20 20 20h253q20 0 20 -20v-44q0 -20 -20 -20h-153v-416q0 -20 -20 -20z" />
    <glyph glyph-name="uni0434" unicode="&#x434;" horiz-adv-x="540" 
d="M530 64v-234q0 -20 -20 -20h-60q-20 0 -20 20l-20 170h-280l-20 -170q0 -20 -20 -20h-60q-20 0 -20 20v228q0 20 20 20h17q32 0 38 79l49 343q3 20 21 20h279q20 0 20 -20v-416h56q20 0 20 -20zM181 84h153v352h-89l-40 -286q-4 -35 -24 -66z" />
    <glyph glyph-name="uni0435" unicode="&#x435;" horiz-adv-x="516" 
d="M432 95l21 -32q9 -14 -1 -26q-16 -18 -66.5 -33.5t-110.5 -15.5q-235 0 -235 267q0 125 53.5 201.5t168.5 76.5q95 0 154.5 -55t59.5 -160q0 -58 -23.5 -79t-85.5 -21h-205q7 -69 35.5 -107.5t90.5 -38.5q39 0 118 25q20 6 26 -2zM162 302h154q24 0 31.5 6t7.5 28
q0 46 -24.5 79.5t-63.5 33.5q-94 0 -105 -147z" />
    <glyph glyph-name="uni0436" unicode="&#x436;" horiz-adv-x="714" 
d="M690 0h-108q-20 0 -32 16l-134 211v-207q0 -20 -20 -20h-79q-20 0 -20 20v207l-134 -211q-13 -16 -32 -16h-108q-21 0 -8 16l180 253l-169 235q-13 16 8 16h93q20 0 32 -16l138 -212v208q0 20 20 20h79q20 0 20 -20v-208l138 212q10 16 32 16h93q21 0 8 -16l-169 -235
l180 -253q13 -16 -8 -16z" />
    <glyph glyph-name="uni0437" unicode="&#x437;" horiz-adv-x="439" 
d="M203 -12q-50 0 -96 17t-62 34q-9 9 2 24l20 29q8 12 24 7q2 -1 17 -7t25 -9t29.5 -6.5t39.5 -3.5q42 0 60.5 21.5t18.5 55.5q0 31 -18.5 53.5t-57.5 22.5h-49q-15 0 -15 15v53q0 15 15 15h30q34 0 57 21t23 53q0 66 -63 66q-15 0 -31 -3t-23.5 -5.5t-25 -9t-19.5 -7.5
q-15 -6 -24 8l-17 27q-11 19 1 29q17 16 56.5 30.5t86.5 14.5q75 0 126 -39.5t51 -103.5q0 -78 -95 -113v-1q53 -8 81.5 -43t28.5 -83q0 -69 -57 -115.5t-139 -46.5z" />
    <glyph glyph-name="uni0438" unicode="&#x438;" horiz-adv-x="534" 
d="M484 500v-480q0 -20 -20 -20h-80q-20 0 -20 20v300h-3l-193 -308q-8 -12 -24 -12h-74q-20 0 -20 20v480q0 20 20 20h80q20 0 20 -20v-300h3l193 309q6 11 24 11h74q20 0 20 -20z" />
    <glyph glyph-name="uni0439" unicode="&#x439;" horiz-adv-x="534" 
d="M484 500v-480q0 -20 -20 -20h-80q-20 0 -20 20v300h-3l-193 -308q-8 -12 -24 -12h-74q-20 0 -20 20v480q0 20 20 20h80q20 0 20 -20v-300h3l193 309q6 11 24 11h74q20 0 20 -20zM144 740h43q8 0 13 -10q14 -43 68 -43t67 43q2 10 14 10h42q6 0 10.5 -5t4.5 -11
q-1 -53 -40.5 -85t-97.5 -32q-53 0 -94 31t-45 86q-1 7 3.5 11.5t11.5 4.5z" />
    <glyph glyph-name="uni043A" unicode="&#x43a;" horiz-adv-x="507" 
d="M483 0h-118q-20 0 -32 16l-164 211v-207q0 -20 -20 -20h-79q-20 0 -20 20v480q0 20 20 20h79q20 0 20 -20v-208l168 212q12 16 32 16h103q22 0 8 -16l-199 -235l210 -253q13 -16 -8 -16z" />
    <glyph glyph-name="uni043B" unicode="&#x43b;" horiz-adv-x="494" 
d="M424 0h-80q-20 0 -20 20v416h-98l-31 -280q-9 -81 -44 -118.5t-110 -37.5h-11q-20 0 -20 20v44q0 20 20 20h7q28 0 38 79l39 337q1 20 21 20h289q20 0 20 -20v-480q0 -20 -20 -20z" />
    <glyph glyph-name="uni043C" unicode="&#x43c;" horiz-adv-x="654" 
d="M584 0h-76q-20 0 -20 20v140l10 181h-2l-135 -323q-10 -18 -29 -18h-45q-22 0 -30 17l-119 324h-2l10 -181v-140q0 -20 -20 -20h-56q-20 0 -20 20v480q0 20 20 20h71q22 0 30 -17l151 -386l161 385q8 18 30 18h71q20 0 20 -20v-480q0 -20 -20 -20z" />
    <glyph glyph-name="uni043D" unicode="&#x43d;" horiz-adv-x="509" 
d="M439 0h-80q-20 0 -20 20v207h-169v-207q0 -20 -20 -20h-80q-20 0 -20 20v480q0 20 20 20h80q20 0 20 -20v-189h169v189q0 20 20 20h80q20 0 20 -20v-480q0 -20 -20 -20z" />
    <glyph glyph-name="uni043E" unicode="&#x43e;" 
d="M282 -12q-70 0 -118.5 21t-75 59.5t-37.5 84.5t-11 106t11 106.5t37.5 86t75 60.5t118.5 21q242 0 242 -273q0 -60 -11 -106t-37.5 -85t-75 -60t-118.5 -21zM282 78q69 0 95.5 48.5t26.5 133.5t-26.5 134t-95.5 49t-95.5 -49t-26.5 -134t26.5 -133.5t95.5 -48.5z" />
    <glyph glyph-name="uni043F" unicode="&#x43f;" horiz-adv-x="509" 
d="M439 0h-80q-20 0 -20 20v416h-169v-416q0 -20 -20 -20h-80q-20 0 -20 20v480q0 20 20 20h369q20 0 20 -20v-480q0 -20 -20 -20z" />
    <glyph glyph-name="uni0440" unicode="&#x440;" horiz-adv-x="581" 
d="M150 -220h-80q-20 0 -20 20v700q0 20 20 20h50q10 0 14 -4.5t6 -15.5l10 -42h2q59 75 177 75q95 0 153.5 -63.5t58.5 -207.5q0 -146 -59 -210t-156 -64q-106 0 -154 73h-2v-261q0 -20 -20 -20zM309 72q57 0 84.5 40t27.5 150q0 108 -27 147.5t-86 39.5q-138 0 -138 -187
q0 -190 139 -190z" />
    <glyph glyph-name="uni0441" unicode="&#x441;" horiz-adv-x="479" 
d="M412 95l21 -32q9 -14 -1 -26q-16 -19 -59 -34t-101 -15q-232 0 -232 273q0 272 242 272q45 0 88.5 -16t61.5 -33q12 -10 1 -26l-21 -32q-6 -9 -26 -2q-3 1 -17 6.5t-24 9t-26.5 6.5t-31.5 3q-127 0 -127 -189q0 -188 126 -188q30 0 100 25q20 7 26 -2z" />
    <glyph glyph-name="uni0442" unicode="&#x442;" horiz-adv-x="400" 
d="M240 0h-80q-20 0 -20 20v416h-110q-20 0 -20 20v44q0 20 20 20h340q20 0 20 -20v-44q0 -20 -20 -20h-110v-416q0 -20 -20 -20z" />
    <glyph glyph-name="uni0443" unicode="&#x443;" horiz-adv-x="524" 
d="M209 -220h-89q-21 0 -12 18l94 210l-189 494q-9 18 12 18h92q20 0 26 -19l121 -382l122 382q7 19 27 19h86q21 0 12 -18l-274 -704q-9 -18 -28 -18z" />
    <glyph glyph-name="uni0444" unicode="&#x444;" horiz-adv-x="862" 
d="M471 -220h-80q-20 0 -20 20v261h-2q-42 -73 -134 -73q-87 0 -141 64t-54 210q0 144 54 207.5t141 63.5q92 0 134 -73h2v260q0 20 20 20h80q20 0 20 -20v-260h2q42 73 134 73q87 0 141 -63.5t54 -207.5q0 -146 -54 -210t-141 -64q-92 0 -134 73h-2v-261q0 -20 -20 -20z
M702 262q0 109 -22.5 148t-69.5 39q-119 0 -119 -187q0 -190 119 -190q47 0 69.5 40t22.5 150zM160 262q0 -110 22.5 -150t69.5 -40q119 0 119 190q0 187 -119 187q-47 0 -69.5 -39t-22.5 -148z" />
    <glyph glyph-name="uni0445" unicode="&#x445;" horiz-adv-x="504" 
d="M481 0h-110q-20 0 -30 17l-89 177l-94 -177q-10 -17 -31 -17h-104q-20 0 -8 16l168 250l-160 238q-12 16 8 16h110q20 0 30 -17l81 -170l86 170q10 17 31 17h104q20 0 8 -16l-160 -238l168 -250q12 -16 -8 -16z" />
    <glyph glyph-name="uni0446" unicode="&#x446;" horiz-adv-x="535" 
d="M409 0h-339q-20 0 -20 20v480q0 20 20 20h80q20 0 20 -20v-416h169v416q0 20 20 20h80q20 0 20 -20v-410h46q20 0 20 -20v-240q0 -20 -20 -20h-56q-17 0 -20 20z" />
    <glyph glyph-name="uni0447" unicode="&#x447;" horiz-adv-x="527" 
d="M477 500v-480q0 -20 -20 -20h-86q-20 0 -20 20v151q-50 -12 -81 -12q-100 0 -165 73t-65 177v91q0 20 20 20h86q20 0 20 -20v-91q0 -161 121 -161q35 0 64 9v243q0 20 20 20h86q20 0 20 -20z" />
    <glyph glyph-name="uni0448" unicode="&#x448;" horiz-adv-x="709" 
d="M559 520h80q20 0 20 -20v-480q0 -20 -20 -20h-569q-20 0 -20 20v480q0 20 20 20h80q20 0 20 -20v-416h124v416q0 20 20 20h80q20 0 20 -20v-416h125v416q0 20 20 20z" />
    <glyph glyph-name="uni0449" unicode="&#x449;" horiz-adv-x="735" 
d="M609 0h-539q-20 0 -20 20v480q0 20 20 20h80q20 0 20 -20v-416h124v416q0 20 20 20h80q20 0 20 -20v-416h125v416q0 20 20 20h80q20 0 20 -20v-410h46q20 0 20 -20v-240q0 -20 -20 -20h-56q-17 0 -20 20z" />
    <glyph glyph-name="uni044A" unicode="&#x44a;" horiz-adv-x="508" 
d="M103 436h-73q-20 0 -20 20v44q0 20 20 20h173q20 0 20 -20v-139h60q80 0 132.5 -52.5t52.5 -127.5q0 -77 -52 -129t-133 -52h-160q-20 0 -20 20v416zM223 84h46q79 2 79 97q0 96 -79 96h-46v-193z" />
    <glyph glyph-name="uni044B" unicode="&#x44b;" horiz-adv-x="645" 
d="M575 0h-80q-20 0 -20 20v480q0 20 20 20h80q20 0 20 -20v-480q0 -20 -20 -20zM230 0h-160q-20 0 -20 20v480q0 20 20 20h80q20 0 20 -20v-139h60q80 0 132.5 -52.5t52.5 -127.5q0 -77 -52 -129t-133 -52zM170 84h46q79 2 79 97q0 96 -79 96h-46v-193z" />
    <glyph glyph-name="uni044C" unicode="&#x44c;" horiz-adv-x="455" 
d="M230 0h-160q-20 0 -20 20v480q0 20 20 20h80q20 0 20 -20v-139h60q80 0 132.5 -52.5t52.5 -127.5q0 -77 -52 -129t-133 -52zM170 84h46q79 2 79 97q0 96 -79 96h-46v-193z" />
    <glyph glyph-name="uni044D" unicode="&#x44d;" horiz-adv-x="479" 
d="M46 63l21 32q6 9 26 2q70 -25 100 -25q112 0 124 146h-165q-20 0 -20 20v44q0 20 20 20h165q-13 147 -125 147q-15 0 -31.5 -3t-26.5 -6.5t-24 -9t-17 -6.5q-20 -7 -26 2l-21 32q-11 16 1 26q18 17 61.5 33t88.5 16q242 0 242 -272q0 -273 -232 -273q-58 0 -101 15
t-59 34q-10 12 -1 26z" />
    <glyph glyph-name="uni044E" unicode="&#x44e;" horiz-adv-x="719" 
d="M457 -12q-210 0 -221 239h-66v-207q0 -20 -20 -20h-80q-20 0 -20 20v480q0 20 20 20h80q20 0 20 -20v-189h67q20 222 220 222q222 0 222 -273q0 -60 -10.5 -106t-34.5 -85t-68.5 -60t-108.5 -21zM457 78q58 0 80 48t22 134q0 85 -22 134t-80 49t-80 -49t-22 -134
q0 -86 22 -134t80 -48z" />
    <glyph glyph-name="uni044F" unicode="&#x44f;" horiz-adv-x="459" 
d="M409 500v-480q0 -20 -20 -20h-80q-20 0 -20 20v138h-27l-91 -146q-9 -12 -22 -12h-109q-13 0 -6 12l111 164q-47 22 -74.5 65.5t-27.5 96.5q0 76 52.5 129t132.5 53h161q20 0 20 -20zM242 242h47v194h-47q-78 0 -78 -98q0 -96 78 -96z" />
    <glyph glyph-name="uni0450" unicode="&#x450;" horiz-adv-x="516" 
d="M432 95l21 -32q9 -14 -1 -26q-16 -18 -66.5 -33.5t-110.5 -15.5q-235 0 -235 267q0 125 53.5 201.5t168.5 76.5q95 0 154.5 -55t59.5 -160q0 -58 -23.5 -79t-85.5 -21h-205q7 -69 35.5 -107.5t90.5 -38.5q39 0 118 25q20 6 26 -2zM162 302h154q24 0 31.5 6t7.5 28
q0 46 -24.5 79.5t-63.5 33.5q-94 0 -105 -147zM293 723l60 -98q10 -17 -10 -17h-31q-20 0 -35 14l-111 104q-15 14 5 14h91q20 0 31 -17z" />
    <glyph glyph-name="uni0451" unicode="&#x451;" horiz-adv-x="516" 
d="M432 95l21 -32q9 -14 -1 -26q-16 -18 -66.5 -33.5t-110.5 -15.5q-235 0 -235 267q0 125 53.5 201.5t168.5 76.5q95 0 154.5 -55t59.5 -160q0 -58 -23.5 -79t-85.5 -21h-205q7 -69 35.5 -107.5t90.5 -38.5q39 0 118 25q20 6 26 -2zM162 302h154q24 0 31.5 6t7.5 28
q0 46 -24.5 79.5t-63.5 33.5q-94 0 -105 -147zM198 610h-70q-20 0 -20 20v70q0 20 20 20h70q20 0 20 -20v-70q0 -20 -20 -20zM388 610h-70q-20 0 -20 20v70q0 20 20 20h70q20 0 20 -20v-70q0 -20 -20 -20z" />
    <glyph glyph-name="uni0452" unicode="&#x452;" horiz-adv-x="587" 
d="M399 -220h-17q-20 0 -20 20v44q0 20 20 20h7q11 0 19.5 20t8.5 59v315q0 110 -22.5 150t-69.5 40q-119 0 -119 -160v-268q0 -20 -20 -20h-80q-20 0 -20 20v559h-50q-20 0 -20 20v50q0 20 20 20h50v51q0 20 20 20h80q20 0 20 -20v-51h160q20 0 20 -20v-50q0 -20 -20 -20
h-160v-120h2q40 73 134 73q88 0 141.5 -64t53.5 -210v-322q0 -156 -138 -156z" />
    <glyph glyph-name="uni0453" unicode="&#x453;" horiz-adv-x="353" 
d="M150 0h-80q-20 0 -20 20v480q0 20 20 20h253q20 0 20 -20v-44q0 -20 -20 -20h-153v-416q0 -20 -20 -20zM144 625l60 98q11 17 31 17h91q20 0 5 -14l-111 -104q-15 -14 -35 -14h-31q-20 0 -10 17z" />
    <glyph glyph-name="uni0454" unicode="&#x454;" horiz-adv-x="479" 
d="M412 95l21 -32q9 -14 -1 -26q-16 -19 -59 -34t-101 -15q-232 0 -232 273q0 272 242 272q45 0 88.5 -16t61.5 -33q12 -10 1 -26l-21 -32q-6 -9 -26 -2q-3 1 -17 6.5t-24 9t-26.5 6.5t-31.5 3q-112 0 -125 -147h165q20 0 20 -20v-44q0 -20 -20 -20h-165q12 -146 124 -146
q30 0 100 25q20 7 26 -2z" />
    <glyph glyph-name="uni0455" unicode="&#x455;" horiz-adv-x="474" 
d="M242 201l-86 26q-106 33 -106 145q0 71 49 116t138 45q59 0 107 -15t67 -34q10 -10 0 -26l-21 -32q-4 -9 -26 -2q-69 25 -116 25q-84 0 -84 -65q0 -38 39 -49l117 -34q63 -18 88.5 -54t25.5 -97q0 -77 -60 -119.5t-148 -42.5q-62 0 -113.5 14.5t-66.5 34.5q-9 13 -1 26
l21 32q6 9 26 2q75 -25 128 -25q100 0 100 67q0 23 -16.5 35.5t-61.5 26.5z" />
    <glyph glyph-name="uni0456" unicode="&#x456;" horiz-adv-x="220" 
d="M150 620h-80q-20 0 -20 20v80q0 20 20 20h80q20 0 20 -20v-80q0 -20 -20 -20zM150 0h-80q-20 0 -20 20v480q0 20 20 20h80q20 0 20 -20v-480q0 -20 -20 -20z" />
    <glyph glyph-name="uni0457" unicode="&#x457;" horiz-adv-x="220" 
d="M150 0h-80q-20 0 -20 20v480q0 20 20 20h80q20 0 20 -20v-480q0 -20 -20 -20zM50 610h-70q-20 0 -20 20v70q0 20 20 20h70q20 0 20 -20v-70q0 -20 -20 -20zM240 610h-70q-20 0 -20 20v70q0 20 20 20h70q20 0 20 -20v-70q0 -20 -20 -20z" />
    <glyph glyph-name="uni0458" unicode="&#x458;" horiz-adv-x="220" 
d="M150 620h-80q-20 0 -20 20v80q0 20 20 20h80q20 0 20 -20v-80q0 -20 -20 -20zM32 -220h-17q-20 0 -20 20v44q0 20 20 20h7q11 0 19.5 20t8.5 59v557q0 20 20 20h80q20 0 20 -20v-564q0 -156 -138 -156z" />
    <glyph glyph-name="uni0459" unicode="&#x459;" horiz-adv-x="729" 
d="M424 520q20 0 20 -20v-139h60q80 0 132.5 -52.5t52.5 -127.5q0 -77 -52 -129t-133 -52h-160q-20 0 -20 20v416h-98l-31 -280q-9 -81 -44 -118.5t-110 -37.5h-11q-20 0 -20 20v44q0 20 20 20h7q28 0 38 79l39 337q1 20 21 20h289zM444 84h46q79 2 79 97q0 96 -79 96h-46
v-193z" />
    <glyph glyph-name="uni045A" unicode="&#x45a;" horiz-adv-x="744" 
d="M519 0h-160q-20 0 -20 20v207h-169v-207q0 -20 -20 -20h-80q-20 0 -20 20v480q0 20 20 20h80q20 0 20 -20v-189h169v189q0 20 20 20h80q20 0 20 -20v-139h60q80 0 132.5 -52.5t52.5 -127.5q0 -77 -52 -129t-133 -52zM459 84h46q79 2 79 97q0 96 -79 96h-46v-193z" />
    <glyph glyph-name="uni045B" unicode="&#x45b;" horiz-adv-x="587" 
d="M517 0h-80q-20 0 -20 20v238q0 110 -22.5 150t-69.5 40q-119 0 -119 -160v-268q0 -20 -20 -20h-80q-20 0 -20 20v559h-50q-20 0 -20 20v50q0 20 20 20h50v51q0 20 20 20h80q20 0 20 -20v-51h160q20 0 20 -20v-50q0 -20 -20 -20h-160v-120h2q40 73 134 73q88 0 141.5 -64
t53.5 -210v-238q0 -20 -20 -20z" />
    <glyph glyph-name="uni045C" unicode="&#x45c;" horiz-adv-x="507" 
d="M483 0h-118q-20 0 -32 16l-164 211v-207q0 -20 -20 -20h-79q-20 0 -20 20v480q0 20 20 20h79q20 0 20 -20v-208l168 212q12 16 32 16h103q22 0 8 -16l-199 -235l210 -253q13 -16 -8 -16zM158 625l60 98q11 17 31 17h91q20 0 5 -14l-111 -104q-15 -14 -35 -14h-31
q-20 0 -10 17z" />
    <glyph glyph-name="uni045D" unicode="&#x45d;" horiz-adv-x="534" 
d="M484 500v-480q0 -20 -20 -20h-80q-20 0 -20 20v300h-3l-193 -308q-8 -12 -24 -12h-74q-20 0 -20 20v480q0 20 20 20h80q20 0 20 -20v-300h3l193 309q6 11 24 11h74q20 0 20 -20zM302 723l60 -98q10 -17 -10 -17h-31q-20 0 -35 14l-111 104q-15 14 5 14h91q20 0 31 -17z
" />
    <glyph glyph-name="uni045E" unicode="&#x45e;" horiz-adv-x="524" 
d="M209 -220h-89q-21 0 -12 18l94 210l-189 494q-9 18 12 18h92q20 0 26 -19l121 -382l122 382q7 19 27 19h86q21 0 12 -18l-274 -704q-9 -18 -28 -18zM139 740h43q8 0 13 -10q14 -43 68 -43t67 43q2 10 14 10h42q6 0 10.5 -5t4.5 -11q-1 -53 -40.5 -85t-97.5 -32
q-53 0 -94 31t-45 86q-1 7 3.5 11.5t11.5 4.5z" />
    <glyph glyph-name="uni045F" unicode="&#x45f;" horiz-adv-x="509" 
d="M359 520h80q20 0 20 -20v-480q0 -20 -20 -20h-125v-180q0 -20 -20 -20h-80q-20 0 -20 20v180h-124q-20 0 -20 20v480q0 20 20 20h80q20 0 20 -20v-416h169v416q0 20 20 20z" />
    <glyph glyph-name="uni0490" unicode="&#x490;" horiz-adv-x="453" 
d="M50 700q0 20 20 20h278l19 120q3 20 20 20h36q20 0 20 -20v-190q0 -20 -20 -20h-247v-610q0 -20 -20 -20h-86q-20 0 -20 20v680z" />
    <glyph glyph-name="uni0491" unicode="&#x491;" horiz-adv-x="353" 
d="M50 500q0 20 20 20h177l20 126q3 20 20 20h36q20 0 20 -20v-190q0 -20 -20 -20h-153v-416q0 -20 -20 -20h-80q-20 0 -20 20v480z" />
    <glyph glyph-name="uni04BA" unicode="&#x4ba;" horiz-adv-x="567" 
d="M50 20v680q0 20 20 20h86q20 0 20 -20v-211q37 12 81 12q117 0 193.5 -72.5t76.5 -177.5v-231q0 -20 -20 -20h-86q-20 0 -20 20v231q0 161 -161 161q-36 0 -64 -9v-383q0 -20 -20 -20h-86q-20 0 -20 20z" />
    <glyph glyph-name="uni04BB" unicode="&#x4bb;" horiz-adv-x="527" 
d="M50 20v700q0 20 20 20h86q20 0 20 -20v-371q50 12 81 12q100 0 165 -73t65 -177v-91q0 -20 -20 -20h-86q-20 0 -20 20v91q0 161 -121 161q-36 0 -64 -9v-243q0 -20 -20 -20h-86q-20 0 -20 20z" />
    <glyph glyph-name="uni04C1" unicode="&#x4c1;" horiz-adv-x="894" 
d="M871 0h-118q-20 0 -32 16l-211 311v-307q0 -20 -20 -20h-86q-20 0 -20 20v307l-211 -311q-13 -16 -32 -16h-118q-20 0 -8 16l257 353l-249 335q-12 16 8 16h103q20 0 32 -16l218 -312v308q0 20 20 20h86q20 0 20 -20v-308l218 312q10 16 32 16h103q20 0 8 -16l-249 -335
l257 -353q12 -16 -8 -16zM324 940h43q8 0 13 -10q14 -43 68 -43t67 43q2 10 14 10h42q6 0 10.5 -5t4.5 -11q-1 -53 -40.5 -85t-97.5 -32q-53 0 -94 31t-45 86q-1 7 3.5 11.5t11.5 4.5z" />
    <glyph glyph-name="uni04C2" unicode="&#x4c2;" horiz-adv-x="714" 
d="M690 0h-108q-20 0 -32 16l-134 211v-207q0 -20 -20 -20h-79q-20 0 -20 20v207l-134 -211q-13 -16 -32 -16h-108q-21 0 -8 16l180 253l-169 235q-13 16 8 16h93q20 0 32 -16l138 -212v208q0 20 20 20h79q20 0 20 -20v-208l138 212q10 16 32 16h93q21 0 8 -16l-169 -235
l180 -253q13 -16 -8 -16zM234 740h43q8 0 13 -10q14 -43 68 -43t67 43q2 10 14 10h42q6 0 10.5 -5t4.5 -11q-1 -53 -40.5 -85t-97.5 -32q-53 0 -94 31t-45 86q-1 7 3.5 11.5t11.5 4.5z" />
    <glyph glyph-name="uni04C7" unicode="&#x4c7;" horiz-adv-x="609" 
d="M421 -220h-17q-20 0 -20 20v44q0 20 20 20h7q22 0 22 79v381h-257v-304q0 -20 -20 -20h-86q-20 0 -20 20v680q0 20 20 20h86q20 0 20 -20v-286h257v286q0 20 20 20h86q20 0 20 -20v-764q0 -156 -138 -156z" />
    <glyph glyph-name="uni04C8" unicode="&#x4c8;" horiz-adv-x="509" 
d="M321 -220h-17q-20 0 -20 20v44q0 20 20 20h7q11 0 19.5 20t8.5 59v284h-169v-207q0 -20 -20 -20h-80q-20 0 -20 20v480q0 20 20 20h80q20 0 20 -20v-189h169v189q0 20 20 20h80q20 0 20 -20v-564q0 -156 -138 -156z" />
    <glyph glyph-name="uni04CD" unicode="&#x4cd;" horiz-adv-x="875" 
d="M735 0h-56q-20 0 -20 20v280l10 201h-2l-202 -483q-8 -18 -29 -18h-65q-23 0 -30 17l-193 484h-2l10 -201v-280q0 -20 -20 -20h-66q-20 0 -20 20v680q0 20 20 20h91q23 0 30 -17l225 -546l238 545q8 18 30 18h81q20 0 20 -20v-610h56q20 0 20 -20v-240q0 -20 -20 -20h-66
q-20 0 -20 20z" />
    <glyph glyph-name="uni04CE" unicode="&#x4ce;" horiz-adv-x="681" 
d="M554 0h-46q-20 0 -20 20v140l10 181h-2l-135 -323q-8 -18 -29 -18h-45q-23 0 -30 17l-119 324h-2l10 -181v-140q0 -20 -20 -20h-56q-20 0 -20 20v480q0 20 20 20h71q23 0 30 -17l151 -386l161 385q8 18 30 18h71q20 0 20 -20v-410h46q20 0 20 -20v-240q0 -20 -20 -20h-56
q-17 0 -20 20z" />
    <glyph glyph-name="uni04D0" unicode="&#x4d0;" horiz-adv-x="672" 
d="M647 0h-95q-20 0 -27 19l-62 158h-284l-62 -158q-7 -19 -27 -19h-65q-21 0 -12 18l273 684q8 18 28 18h44q20 0 28 -18l273 -684q9 -18 -12 -18zM430 261l-89 259l-20 75l-19 -75l-90 -259h218zM213 940h43q8 0 13 -10q14 -43 68 -43t67 43q2 10 14 10h42q6 0 10.5 -5
t4.5 -11q-1 -53 -40.5 -85t-97.5 -32q-53 0 -94 31t-45 86q-1 7 3.5 11.5t11.5 4.5z" />
    <glyph glyph-name="uni04D1" unicode="&#x4d1;" horiz-adv-x="514" 
d="M454 0h-50q-10 0 -14 4.5t-6 15.5l-10 41h-2q-40 -73 -144 -73q-81 0 -134.5 46.5t-53.5 134.5q0 163 209 163h103q-2 19 -7.5 36.5t-17 37t-33.5 31.5t-51 12q-33 0 -113 -25q-20 -6 -26 2l-21 32q-9 14 1 26q16 18 66.5 33.5t106.5 15.5q217 0 217 -267v-246
q0 -20 -20 -20zM354 219v29h-105q-40 0 -64 -20t-24 -56q0 -37 23.5 -68.5t71.5 -31.5q98 0 98 147zM134 740h43q8 0 13 -10q14 -43 68 -43t67 43q2 10 14 10h42q6 0 10.5 -5t4.5 -11q-1 -53 -40.5 -85t-97.5 -32q-53 0 -94 31t-45 86q-1 7 3.5 11.5t11.5 4.5z" />
    </font>
</defs>
</svg>
