<?xml version="1.0" standalone="no"?>
<!DOCTYPE svg PUBLIC "-//W3C//DTD SVG 20010904//EN"
 "http://www.w3.org/TR/2001/REC-SVG-20010904/DTD/svg10.dtd">
<svg version="1.0" xmlns="http://www.w3.org/2000/svg"
 width="1171.000000pt" height="1171.000000pt" viewBox="0 0 1171.000000 1171.000000"
 preserveAspectRatio="xMidYMid meet">
<metadata>
Created by potrace 1.11, written by Peter Selinger 2001-2013
</metadata>
<g transform="translate(0.000000,1171.000000) scale(0.100000,-0.100000)"
fill="#000000" stroke="none">
<path d="M5417 10596 c-159 -66 -243 -203 -235 -379 7 -149 89 -271 225 -335
51 -24 70 -27 158 -27 88 0 107 3 158 27 80 38 158 115 193 191 26 56 29 72
29 167 0 96 -3 110 -29 165 -38 76 -110 149 -184 183 -48 23 -73 27 -157 30
-87 2 -108 -1 -158 -22z"/>
<path d="M6242 10427 c-154 -58 -202 -272 -89 -396 64 -69 190 -90 283 -47 94
44 140 130 132 246 -5 71 -39 127 -106 175 -37 25 -54 30 -115 32 -40 1 -87
-3 -105 -10z"/>
<path d="M7158 10400 c-77 -13 -143 -39 -205 -79 -285 -184 -328 -586 -88
-826 240 -240 642 -197 827 89 102 158 112 351 27 524 -55 112 -129 186 -241
241 -109 54 -208 70 -320 51z"/>
<path d="M4290 10244 c-219 -47 -410 -227 -476 -449 -28 -93 -26 -268 4 -365
86 -275 324 -452 612 -453 117 -1 180 13 290 65 118 57 229 167 289 288 213
432 -100 933 -579 929 -41 0 -104 -7 -140 -15z"/>
<path d="M2742 10130 c-214 -56 -375 -205 -449 -417 -25 -70 -28 -91 -27 -208
0 -115 3 -139 26 -203 58 -161 165 -287 304 -359 106 -55 188 -75 304 -76 185
0 327 58 456 187 129 130 188 272 187 456 -1 258 -143 478 -376 585 -121 56
-292 70 -425 35z"/>
<path d="M8269 9846 c-99 -27 -208 -119 -252 -213 -18 -40 -22 -66 -22 -163 0
-107 2 -119 28 -169 121 -230 402 -288 603 -125 159 129 179 398 40 552 -99
109 -257 156 -397 118z"/>
<path d="M5741 9690 c-147 -40 -257 -105 -361 -217 -79 -84 -132 -171 -167
-278 -25 -73 -27 -93 -27 -235 0 -143 2 -161 27 -235 37 -105 94 -201 169
-280 142 -153 334 -235 548 -235 354 0 649 233 731 577 18 73 20 109 16 208
-8 205 -74 355 -221 500 -95 93 -162 136 -283 178 -79 27 -103 31 -223 34
-110 2 -148 -1 -209 -17z"/>
<path d="M9289 9270 c-215 -26 -410 -126 -555 -284 -111 -120 -188 -268 -218
-418 -20 -97 -21 -285 -1 -376 58 -277 235 -501 490 -623 128 -60 203 -79 342
-86 379 -19 703 176 863 521 56 118 71 184 77 332 4 101 2 150 -12 215 -82
409 -417 698 -835 722 -47 3 -115 1 -151 -3z"/>
<path d="M7365 9225 c-203 -45 -352 -161 -445 -345 -62 -124 -81 -304 -46
-440 57 -223 236 -406 456 -466 103 -28 263 -24 367 10 264 86 443 333 443
611 0 356 -291 647 -645 644 -38 0 -97 -7 -130 -14z"/>
<path d="M3510 8833 c-226 -38 -410 -224 -442 -450 -47 -323 203 -613 527
-613 292 0 535 243 535 535 0 246 -180 470 -419 521 -63 13 -147 16 -201 7z"/>
<path d="M2010 8674 c-36 -7 -107 -34 -158 -60 -167 -82 -297 -231 -358 -409
-21 -63 -28 -104 -32 -197 -6 -147 13 -236 75 -361 82 -162 237 -294 418 -354
70 -23 97 -27 210 -27 149 -1 217 14 331 70 177 87 316 258 370 454 25 89 25
280 1 370 -70 256 -280 458 -534 514 -87 19 -234 19 -323 0z"/>
<path d="M4778 8275 c-377 -71 -676 -353 -774 -730 -36 -136 -38 -336 -6 -468
117 -476 549 -796 1029 -763 429 30 781 320 895 736 20 74 23 107 22 255 0
199 -16 271 -90 424 -127 266 -360 457 -644 532 -109 28 -319 35 -432 14z"/>
<path d="M525 8231 c-213 -60 -396 -224 -478 -431 -93 -237 -48 -523 116 -720
90 -110 207 -185 357 -231 96 -30 271 -32 370 -6 445 119 665 598 465 1013
-79 163 -220 290 -396 356 -77 29 -96 32 -224 35 -115 2 -153 -1 -210 -16z"/>
<path d="M10670 8054 c-194 -51 -354 -210 -405 -404 -19 -72 -19 -221 0 -294
22 -83 79 -186 135 -245 306 -319 840 -190 966 234 24 81 24 230 0 309 -31
103 -75 177 -150 252 -78 78 -177 133 -274 153 -73 15 -206 13 -272 -5z"/>
<path d="M6661 7834 c-169 -45 -308 -180 -367 -354 -28 -83 -26 -244 5 -333
75 -220 269 -357 506 -357 289 0 512 207 532 495 7 98 -20 218 -68 303 -67
116 -194 213 -324 247 -73 19 -212 18 -284 -1z"/>
<path d="M8145 7813 c-152 -24 -262 -79 -371 -188 -66 -65 -89 -96 -122 -165
-52 -110 -66 -173 -65 -290 2 -309 207 -562 506 -624 351 -73 690 147 763 494
20 95 14 239 -15 330 -79 251 -311 430 -577 444 -49 2 -102 2 -119 -1z"/>
<path d="M3093 7435 c-181 -49 -322 -189 -377 -374 -20 -68 -21 -207 -1 -280
33 -126 116 -240 229 -313 84 -54 171 -79 281 -80 158 -2 280 49 388 161 105
108 147 214 147 365 -1 167 -43 271 -154 381 -108 108 -227 156 -381 154 -44
0 -104 -7 -132 -14z"/>
<path d="M9570 7365 c-205 -58 -338 -267 -303 -478 37 -220 228 -371 448 -354
179 14 323 127 375 295 66 213 -45 445 -250 523 -73 28 -197 34 -270 14z"/>
<path d="M1758 7080 c-373 -59 -662 -320 -749 -675 -31 -126 -31 -304 0 -430
44 -179 152 -354 292 -473 88 -74 239 -153 354 -184 111 -29 327 -31 435 -4
335 86 576 326 666 662 26 96 26 332 0 424 -58 211 -157 367 -312 490 -91 73
-232 143 -339 170 -92 24 -263 33 -347 20z"/>
<path d="M10768 6860 c-153 -27 -267 -89 -383 -205 -74 -73 -99 -106 -132
-175 -59 -120 -76 -194 -76 -325 -1 -130 16 -205 72 -320 73 -149 175 -252
326 -325 119 -58 195 -73 345 -67 92 4 142 11 190 27 386 130 586 535 455 921
-35 105 -80 174 -175 269 -135 136 -278 198 -475 205 -55 2 -121 0 -147 -5z"/>
<path d="M290 6698 c-38 -14 -74 -41 -117 -83 -53 -53 -64 -71 -83 -134 -55
-178 22 -351 189 -430 47 -22 70 -26 146 -26 78 0 97 4 147 28 71 35 129 91
165 159 25 48 28 63 28 158 0 91 -3 111 -25 155 -31 64 -101 134 -165 165 -73
34 -208 39 -285 8z"/>
<path d="M6910 6526 c-235 -42 -421 -138 -593 -305 -148 -144 -251 -320 -304
-518 -23 -87 -26 -118 -27 -273 -1 -194 13 -275 75 -428 126 -316 417 -573
744 -658 122 -32 337 -43 466 -24 427 62 786 384 905 811 38 139 45 371 14
519 -87 425 -407 755 -831 860 -108 27 -341 35 -449 16z"/>
<path d="M8790 6477 c-144 -49 -244 -136 -309 -269 -78 -158 -78 -317 -1 -475
93 -188 264 -293 481 -293 346 0 594 318 514 659 -43 183 -196 338 -380 387
-80 22 -228 18 -305 -9z"/>
<path d="M3399 6170 c-214 -33 -389 -200 -434 -415 -18 -88 -18 -142 0 -228
41 -195 211 -366 403 -406 178 -37 366 15 489 137 101 99 150 208 160 352 22
342 -276 612 -618 560z"/>
<path d="M4871 6060 c-426 -59 -729 -456 -672 -884 42 -314 253 -561 561 -658
64 -20 96 -23 220 -23 124 0 156 3 220 23 274 86 474 291 547 562 25 90 24
309 -1 399 -75 272 -295 493 -559 560 -90 23 -231 33 -316 21z"/>
<path d="M9672 5570 c-217 -57 -402 -225 -478 -434 -133 -366 57 -769 425
-900 81 -29 94 -31 231 -31 137 0 150 2 231 31 313 112 506 425 460 749 -23
167 -82 286 -202 405 -88 88 -195 150 -315 180 -102 26 -252 26 -352 0z"/>
<path d="M971 5440 c-108 -23 -202 -98 -249 -198 -23 -48 -27 -71 -27 -147 0
-76 4 -99 27 -147 48 -104 142 -176 258 -198 160 -31 333 65 389 216 28 74 28
184 0 258 -56 152 -236 249 -398 216z"/>
<path d="M11063 5215 c-186 -41 -350 -198 -397 -381 -20 -78 -20 -203 -1 -279
86 -329 464 -492 769 -333 121 64 236 210 265 338 16 69 13 219 -5 281 -80
273 -352 434 -631 374z"/>
<path d="M1870 5127 c-177 -54 -332 -182 -409 -338 -56 -114 -74 -193 -74
-314 0 -121 18 -200 75 -315 73 -149 229 -281 393 -333 59 -19 92 -22 215 -22
125 1 154 4 210 23 199 71 347 216 423 416 30 77 31 88 32 226 0 126 -3 154
-24 215 -50 150 -166 297 -294 373 -108 65 -186 85 -337 89 -118 3 -145 0
-210 -20z"/>
<path d="M8550 4884 c-194 -52 -323 -236 -307 -439 13 -169 111 -305 267 -367
73 -29 221 -31 297 -5 113 39 221 147 260 260 26 76 24 224 -5 297 -78 200
-302 310 -512 254z"/>
<path d="M3412 4840 c-194 -51 -370 -194 -455 -370 -138 -286 -86 -612 132
-830 218 -218 549 -271 827 -134 291 143 447 473 379 799 -52 249 -267 470
-521 535 -102 26 -261 26 -362 0z"/>
<path d="M5931 4484 c-261 -70 -390 -355 -271 -600 122 -251 463 -312 669
-119 97 90 136 193 129 336 -4 76 -9 97 -41 162 -90 182 -291 274 -486 221z"/>
<path d="M7678 4089 c-77 -11 -187 -50 -256 -91 -73 -42 -208 -177 -250 -250
-78 -132 -112 -299 -93 -450 38 -296 237 -528 521 -608 102 -28 265 -28 373
-1 344 89 570 424 527 779 -50 404 -417 681 -822 621z"/>
<path d="M9319 4090 c-315 -50 -562 -308 -598 -625 -35 -301 113 -579 381
-720 146 -77 359 -99 518 -55 285 80 483 311 521 608 45 351 -184 687 -529
777 -76 19 -220 27 -293 15z"/>
<path d="M4846 4044 c-178 -43 -333 -198 -381 -379 -8 -33 -15 -95 -15 -140 0
-146 45 -258 146 -365 164 -174 404 -216 622 -109 189 92 295 267 294 484 0
204 -114 384 -297 471 -114 55 -245 68 -369 38z"/>
<path d="M10645 3976 c-76 -20 -105 -34 -163 -78 -194 -146 -216 -446 -46
-628 207 -222 591 -147 703 137 124 317 -167 652 -494 569z"/>
<path d="M8510 2743 c-14 -2 -52 -13 -85 -25 -280 -98 -410 -419 -278 -688
145 -296 540 -369 781 -145 213 198 216 528 6 725 -116 108 -273 157 -424 133z"/>
<path d="M8845 1631 c-98 -44 -155 -125 -163 -229 -5 -83 9 -139 51 -194 52
-68 113 -100 202 -106 92 -6 150 13 211 70 76 70 106 190 74 296 -18 58 -83
130 -145 158 -64 30 -170 33 -230 5z"/>
</g>
</svg>
