<svg xmlns="http://www.w3.org/2000/svg" width="25" height="25" viewBox="0 0 25 25">
    <g fill="#000" fill-rule="nonzero">
        <path d="M22.07 1.953h-1.172V0h-1.953v1.953H6.055V0H4.102v1.953H2.93A2.933 2.933 0 0 0 0 4.883V22.07A2.933 2.933 0 0 0 2.93 25h19.14A2.933 2.933 0 0 0 25 22.07V4.883a2.933 2.933 0 0 0-2.93-2.93zm.977 20.117a.978.978 0 0 1-.977.977H2.93a.978.978 0 0 1-.977-.977V9.18h21.094v12.89zm0-14.843H1.953V4.883c0-.539.438-.977.977-.977h1.172V5.86h1.953V3.906h12.89V5.86h1.953V3.906h1.172c.539 0 .977.438.977.977v2.344z"/>
        <path d="M3.711 11.23h1.953v1.953H3.711zM7.617 11.23H9.57v1.953H7.617zM11.523 11.23h1.953v1.953h-1.953zM15.43 11.23h1.953v1.953H15.43zM19.336 11.23h1.953v1.953h-1.953zM3.711 15.137h1.953v1.953H3.711zM7.617 15.137H9.57v1.953H7.617zM11.523 15.137h1.953v1.953h-1.953zM15.43 15.137h1.953v1.953H15.43zM3.711 19.043h1.953v1.953H3.711zM7.617 19.043H9.57v1.953H7.617zM11.523 19.043h1.953v1.953h-1.953zM15.43 19.043h1.953v1.953H15.43zM19.336 15.137h1.953v1.953h-1.953z"/>
    </g>
</svg>
