<svg id="Layer_1" data-name="Layer 1" xmlns="http://www.w3.org/2000/svg" viewBox="0 0 300 380.18"><defs><style>.cls-1{fill:#fff;}</style></defs><title>fingerprint (1)</title><path class="cls-1" d="M290,180.18a10,10,0,1,0,10,10A10,10,0,0,0,290,180.18Z"/><path class="cls-1" d="M50,200.18a10,10,0,1,0,10,10A10,10,0,0,0,50,200.18Z"/><path class="cls-1" d="M90,160.18a10,10,0,0,0-10,10v60a70,70,0,0,0,124.44,44,10,10,0,1,0-15.54-12.58A50,50,0,0,1,100,230.18v-60A10,10,0,0,0,90,160.18Z"/><path class="cls-1" d="M220,230.18V152.55c0-34.83-23.61-64.7-56.13-71C129.19,74.79,95.58,93.91,84,127a10,10,0,1,0,18.86,6.64,50,50,0,0,1,57.24-32.48c23.15,4.5,39.95,26.11,39.95,51.39v77.63a10,10,0,0,0,20,0Z"/><path class="cls-1" d="M203.42,54.05A110,110,0,0,0,40,150.18v20a10,10,0,0,0,20,0v-20A90,90,0,0,1,193.68,71.51a10,10,0,1,0,9.74-17.46Z"/><path class="cls-1" d="M260,150.18a109.82,109.82,0,0,0-14.82-55.11,10,10,0,1,0-17.3,10A89.83,89.83,0,0,1,240,150.18v80a90,90,0,0,1-178.21,18,10,10,0,0,0-19.6,4A110,110,0,0,0,260,230.18Z"/><path class="cls-1" d="M290,220.18a10,10,0,0,0-10,10,129.28,129.28,0,0,1-37.14,91,10,10,0,0,0,14.28,14,149.16,149.16,0,0,0,42.86-105A10,10,0,0,0,290,220.18Z"/><path class="cls-1" d="M205.71,347.68A128.94,128.94,0,0,1,150,360.18c-71.68,0-130-58.32-130-130V155.06C20,102.94,49.2,55,94.4,32.82a10,10,0,1,0-8.8-18C33.6,40.32,0,95.36,0,155.06v75.12c0,82.71,67.29,150,150,150a148.69,148.69,0,0,0,64.29-14.44,10,10,0,1,0-8.58-18.06Z"/><path class="cls-1" d="M128.48,1.7a10,10,0,1,0,3,19.76C208.38,9.65,280,70.63,280,150.18a10,10,0,0,0,20,0C300,57.3,216.18-11.85,128.48,1.7Z"/><path class="cls-1" d="M150,240.18a10,10,0,0,1-10-10,10,10,0,0,0-20,0,30,30,0,0,0,60,0v-80a30,30,0,0,0-60,0,10,10,0,0,0,20,0,10,10,0,0,1,20,0v80A10,10,0,0,1,150,240.18Z"/></svg>