<svg width="43" height="43" viewBox="0 0 43 43" fill="none" xmlns="http://www.w3.org/2000/svg">
<path d="M32.3849 2.78418L39.8615 10.5779V40.2157H11.9316V40.3124H39.9569V10.676L32.3849 2.78418Z" fill="#909090"/>
<path d="M32.2918 2.6875H11.8359V40.2157H39.8612V10.5793L32.2905 2.6875" fill="#F4F4F4"/>
<path d="M11.6295 4.70312H3.04297V13.8769H30.0523V4.70312H11.6295Z" fill="#7A7B7C"/>
<path d="M30.1972 13.7215H3.21875V4.54102H30.1972V13.7215Z" fill="#DD2025"/>
<path d="M12.1645 6.09277H10.4082V12.5428H11.7896V10.3672L12.0946 10.3847C12.391 10.3796 12.6846 10.3265 12.964 10.2275C13.209 10.1432 13.4343 10.0102 13.6265 9.83646C13.822 9.67094 13.9761 9.46203 14.0766 9.2264C14.2114 8.83469 14.2596 8.4184 14.2177 8.00627C14.2093 7.71187 14.1577 7.42029 14.0645 7.1409C13.9797 6.93921 13.8538 6.75739 13.6949 6.60702C13.536 6.45664 13.3475 6.341 13.1414 6.26746C12.9632 6.20296 12.7791 6.15615 12.5918 6.12771C12.4499 6.10582 12.3067 6.09415 12.1631 6.09277H12.1645ZM11.9092 9.17534H11.7896V7.18659H12.0489C12.1634 7.17833 12.2782 7.1959 12.385 7.238C12.4917 7.2801 12.5877 7.34565 12.6657 7.4298C12.8274 7.64617 12.9138 7.90953 12.9116 8.17962C12.9116 8.51018 12.9116 8.80984 12.6133 9.0208C12.3984 9.13901 12.1538 9.19223 11.9092 9.17399" fill="#464648"/>
<path d="M16.8405 6.07514C16.6914 6.07514 16.5462 6.08589 16.4441 6.08992L16.1243 6.09799H15.0762V12.548H16.3097C16.7812 12.5609 17.2505 12.481 17.6911 12.3128C18.0457 12.1722 18.3598 11.9454 18.6049 11.653C18.8432 11.358 19.0142 11.0145 19.1061 10.6466C19.2116 10.2298 19.2631 9.80125 19.2593 9.37136C19.2853 8.86364 19.246 8.35467 19.1424 7.85696C19.044 7.4906 18.8597 7.15295 18.6049 6.87199C18.4049 6.64511 18.1601 6.4621 17.886 6.33449C17.6505 6.22553 17.4028 6.14523 17.1482 6.0953C17.047 6.07858 16.9445 6.07093 16.8419 6.07246L16.8405 6.07514ZM16.5973 11.3628H16.4629V7.24555H16.4804C16.7574 7.21368 17.0377 7.26366 17.2866 7.38933C17.4689 7.53489 17.6175 7.71828 17.722 7.92683C17.8348 8.14631 17.8999 8.38721 17.9128 8.63364C17.9249 8.92927 17.9128 9.17114 17.9128 9.37136C17.9183 9.602 17.9035 9.83267 17.8685 10.0607C17.8271 10.2948 17.7505 10.5213 17.6414 10.7326C17.5179 10.929 17.351 11.0945 17.1536 11.2163C16.9878 11.3236 16.7915 11.3736 16.5946 11.3588" fill="#464648"/>
<path d="M23.4216 6.09766H20.1562V12.5477H21.5376V9.98916H23.2845V8.79053H21.5376V7.29628H23.4189V6.09766" fill="#464648"/>
<path d="M29.2674 27.2174C29.2674 27.2174 33.5513 26.4407 33.5513 27.9041C33.5513 29.3674 30.8974 28.7721 29.2674 27.2174ZM26.1002 27.3289C25.4196 27.4793 24.7563 27.6995 24.1209 27.986L24.6584 26.7767C25.1959 25.5673 25.7535 23.9185 25.7535 23.9185C26.3949 24.998 27.1412 26.0116 27.9815 26.9446C27.3478 27.0391 26.7198 27.1683 26.1002 27.3316V27.3289ZM24.4044 18.5946C24.4044 17.3193 24.8169 16.9713 25.1381 16.9713C25.4593 16.9713 25.8207 17.1258 25.8328 18.2331C25.7282 19.3465 25.4951 20.444 25.1381 21.5038C24.6491 20.614 24.3961 19.6139 24.4031 18.5986L24.4044 18.5946ZM18.1573 32.7254C16.8431 31.9394 20.9133 29.5193 21.6511 29.4413C21.647 29.4427 19.5333 33.5478 18.1573 32.7254ZM34.8023 28.0774C34.7889 27.943 34.668 26.4555 32.0208 26.5187C30.9174 26.5009 29.8145 26.5787 28.7246 26.7511C27.6687 25.6874 26.7595 24.4876 26.0209 23.1835C26.4862 21.8389 26.7678 20.4377 26.8581 19.0178C26.8191 17.4053 26.4335 16.4808 25.1972 16.4943C23.961 16.5077 23.7809 17.5894 23.9435 19.1993C24.1028 20.281 24.4032 21.3373 24.8371 22.3409C24.8371 22.3409 24.266 24.1187 23.5108 25.8871C22.7556 27.6555 22.2396 28.5827 22.2396 28.5827C20.9264 29.0102 19.6902 29.6453 18.5779 30.4639C17.4707 31.4946 17.0205 32.286 17.6037 33.0775C18.1063 33.7601 19.8652 33.9147 21.4374 31.8547C22.2728 30.7907 23.0359 29.672 23.7218 28.5061C23.7218 28.5061 26.119 27.849 26.8648 27.6689C27.6106 27.4888 28.5123 27.3464 28.5123 27.3464C28.5123 27.3464 30.7012 29.5488 32.8123 29.4709C34.9233 29.3929 34.8212 28.2091 34.8077 28.0801" fill="#DD2025"/>
<path d="M32.1875 2.79102V10.6829H39.7568L32.1875 2.79102Z" fill="#909090"/>
<path d="M32.291 2.6875V10.5793H39.8604L32.291 2.6875Z" fill="#F4F4F4"/>
<path d="M12.061 5.98926H10.3047V12.4393H11.6914V10.2651L11.9978 10.2825C12.2942 10.2774 12.5878 10.2243 12.8672 10.1253C13.1122 10.041 13.3375 9.90801 13.5297 9.73429C13.7237 9.56832 13.8765 9.35945 13.9758 9.12423C14.1106 8.73252 14.1587 8.31623 14.1169 7.9041C14.1085 7.6097 14.0569 7.31812 13.9637 7.03873C13.8789 6.83704 13.753 6.65522 13.5941 6.50485C13.4351 6.35447 13.2466 6.23883 13.0406 6.16529C12.8616 6.10016 12.6766 6.0529 12.4883 6.0242C12.3464 6.00231 12.2032 5.99063 12.0596 5.98926H12.061ZM11.8057 9.07182H11.6861V7.08307H11.9468C12.0612 7.07482 12.1761 7.09239 12.2828 7.13449C12.3896 7.17658 12.4855 7.24213 12.5635 7.32629C12.7252 7.54265 12.8116 7.80601 12.8094 8.0761C12.8094 8.40666 12.8094 8.70632 12.5111 8.91729C12.2962 9.03549 12.0516 9.08871 11.807 9.07048" fill="white"/>
<path d="M16.7369 5.97163C16.5877 5.97163 16.4426 5.98238 16.3405 5.98641L16.0247 5.99447H14.9766V12.4445H16.2101C16.6815 12.4574 17.1509 12.3775 17.5915 12.2093C17.9461 12.0687 18.2602 11.8419 18.5053 11.5495C18.7436 11.2545 18.9146 10.911 19.0065 10.5431C19.112 10.1263 19.1635 9.69773 19.1597 9.26785C19.1857 8.76012 19.1464 8.25115 19.0428 7.75344C18.9444 7.38708 18.7601 7.04944 18.5053 6.76847C18.3053 6.5416 18.0605 6.35859 17.7863 6.23097C17.5509 6.12202 17.3032 6.04171 17.0486 5.99178C16.9474 5.97506 16.8449 5.96742 16.7423 5.96894L16.7369 5.97163ZM16.4977 11.2593H16.3633V7.14203H16.3808C16.6578 7.11016 16.9381 7.16015 17.187 7.28582C17.3693 7.43138 17.5179 7.61476 17.6224 7.82332C17.7352 8.0428 17.8003 8.28369 17.8132 8.53013C17.8253 8.82575 17.8132 9.06763 17.8132 9.26785C17.8187 9.49848 17.8039 9.72915 17.7689 9.95719C17.7275 10.1913 17.6509 10.4178 17.5418 10.6291C17.4183 10.8255 17.2514 10.9909 17.054 11.1128C16.8882 11.22 16.6919 11.2701 16.495 11.2553" fill="white"/>
<path d="M23.318 5.99414H20.0527V12.4441H21.4341V9.88564H23.181V8.68702H21.4341V7.19277H23.3154V5.99414" fill="white"/>
</svg>
